M48
;Layer_Color=9474304
;FILE_FORMAT=4:3
METRIC,LZ
;TYPE=NON_PLATED
T8F00S00C1.000
T9F00S00C1.016
T10F00S00C3.200
%
T08
X0088975Y0022
Y0032
X0095425Y00526
Y00626
T09
X007402Y0002666
X0055544
X0030816
X001234
Y0047886
X0030816
X0055544
X007402
T10
X0152497Y000071
Y001214
X0152498Y00243
Y003573
X0152522Y0048335
Y0059765
X01526Y007204
Y008347
X015262Y0095785
Y0107215
M30
