M48
;Layer_Color=9474304
;FILE_FORMAT=4:3
METRIC,LZ
;TYPE=PLATED
T1F00S00C0.200
%
T01
X0059525Y0025525
X007Y0025
Y0032
X0068Y0033
X00675Y00345
X0066Y0034
X00655Y00335
X0064475Y0033375
X00645Y00345
X0063978Y0035002
X00645Y00365
X00665
X0066525Y0037475
X0067Y0036
X007Y0037
X007Y004
X0069
X0068
Y004275
X0069
X0066Y0032
X0064
X0063Y0033
X0062Y0032
X0061Y0034
X00606Y00345
X00615Y00355
X0062Y0036
X00595Y00335
X0059Y003
X0065Y0031
X0073475Y0032
X00725Y00355
X0075Y0035
X0076Y0036
X0075Y0042
X0072Y0041
X0071Y0042625
M30
