G04 Layer_Color=128*
%FSLAX43Y43*%
%MOMM*%
G71*
G01*
G75*
%ADD10C,0.100*%
%ADD49C,0.200*%
%ADD54C,0.300*%
%ADD161C,0.030*%
D10*
X163425Y-10000D02*
Y120000D01*
X-10000Y-10000D02*
X163425D01*
X-10000D02*
Y120000D01*
X163425D01*
D49*
X65050Y124450D02*
Y123450D01*
X65550D01*
X65716Y123617D01*
Y123783D01*
X65550Y123950D01*
X65050D01*
X65550D01*
X65716Y124116D01*
Y124283D01*
X65550Y124450D01*
X65050D01*
X66549D02*
X66216D01*
X66050Y124283D01*
Y123617D01*
X66216Y123450D01*
X66549D01*
X66716Y123617D01*
Y124283D01*
X66549Y124450D01*
X67049Y123450D02*
Y124116D01*
X67382Y124450D01*
X67716Y124116D01*
Y123450D01*
Y123950D01*
X67049D01*
X68049Y123450D02*
Y124450D01*
X68549D01*
X68715Y124283D01*
Y123950D01*
X68549Y123783D01*
X68049D01*
X68382D02*
X68715Y123450D01*
X69049Y124450D02*
Y123450D01*
X69548D01*
X69715Y123617D01*
Y124283D01*
X69548Y124450D01*
X69049D01*
X71548D02*
X71215D01*
X71048Y124283D01*
Y123617D01*
X71215Y123450D01*
X71548D01*
X71714Y123617D01*
Y124283D01*
X71548Y124450D01*
X72048D02*
Y123617D01*
X72214Y123450D01*
X72547D01*
X72714Y123617D01*
Y124450D01*
X73047D02*
X73714D01*
X73380D01*
Y123450D01*
X74047Y124450D02*
Y123450D01*
X74713D01*
X75047Y124450D02*
X75380D01*
X75213D01*
Y123450D01*
X75047D01*
X75380D01*
X75880D02*
Y124450D01*
X76546Y123450D01*
Y124450D01*
X77546D02*
X76879D01*
Y123450D01*
X77546D01*
X76879Y123950D02*
X77213D01*
X65633Y124450D02*
Y123450D01*
X66133D01*
X66299Y123617D01*
Y124283D01*
X66133Y124450D01*
X65633D01*
X66633Y123450D02*
Y124450D01*
X67132D01*
X67299Y124283D01*
Y123950D01*
X67132Y123783D01*
X66633D01*
X66966D02*
X67299Y123450D01*
X67632Y124450D02*
X67966D01*
X67799D01*
Y123450D01*
X67632D01*
X67966D01*
X68465Y124450D02*
Y123450D01*
X69132D01*
X69465Y124450D02*
Y123450D01*
X70132D01*
X70465Y124450D02*
Y123450D01*
X71131D01*
X73131Y124283D02*
X72964Y124450D01*
X72631D01*
X72464Y124283D01*
Y123617D01*
X72631Y123450D01*
X72964D01*
X73131Y123617D01*
Y123950D01*
X72797D01*
X73464Y124450D02*
Y123617D01*
X73630Y123450D01*
X73964D01*
X74130Y123617D01*
Y124450D01*
X74463D02*
X74797D01*
X74630D01*
Y123450D01*
X74463D01*
X74797D01*
X75297Y124450D02*
Y123450D01*
X75796D01*
X75963Y123617D01*
Y124283D01*
X75796Y124450D01*
X75297D01*
X76963D02*
X76296D01*
Y123450D01*
X76963D01*
X76296Y123950D02*
X76629D01*
D54*
X73500Y39500D02*
X73500Y39500D01*
D161*
X58900Y30000D02*
X59100D01*
X59000Y29900D02*
Y30100D01*
X59425Y25525D02*
X59625D01*
X59525Y25425D02*
Y25625D01*
X69900Y25000D02*
X70100D01*
X70000Y24900D02*
Y25100D01*
X73375Y32000D02*
X73575D01*
X73475Y31900D02*
Y32100D01*
X72400Y35500D02*
X72600D01*
X72500Y35400D02*
Y35600D01*
X75900Y36000D02*
X76100D01*
X76000Y35900D02*
Y36100D01*
X63900Y32000D02*
X64100D01*
X64000Y31900D02*
Y32100D01*
X62900Y33000D02*
X63100D01*
X63000Y32900D02*
Y33100D01*
X69900Y32000D02*
X70100D01*
X70000Y31900D02*
Y32100D01*
X70900Y42625D02*
X71100D01*
X71000Y42525D02*
Y42725D01*
X74900Y42000D02*
X75100D01*
X75000Y41900D02*
Y42100D01*
X68900Y40000D02*
X69100D01*
X69000Y39900D02*
Y40100D01*
X67900Y40000D02*
X68100D01*
X68000Y39900D02*
Y40100D01*
X68900Y42750D02*
X69100D01*
X69000Y42650D02*
Y42850D01*
X67900Y42750D02*
X68100D01*
X68000Y42650D02*
Y42850D01*
X69900Y40000D02*
X70100D01*
X70000Y39900D02*
Y40100D01*
X64900Y31000D02*
X65100D01*
X65000Y30900D02*
Y31100D01*
X71900Y41000D02*
X72100D01*
X72000Y40900D02*
Y41100D01*
X69900Y37000D02*
X70100D01*
X70000Y36900D02*
Y37100D01*
X67900Y33000D02*
X68100D01*
X68000Y32900D02*
Y33100D01*
X63878Y35002D02*
X64078D01*
X63978Y34902D02*
Y35102D01*
X64400Y34500D02*
X64600D01*
X64500Y34400D02*
Y34600D01*
X64400Y36500D02*
X64600D01*
X64500Y36400D02*
Y36600D01*
X64375Y33375D02*
X64575D01*
X64475Y33275D02*
Y33475D01*
X65400Y33500D02*
X65600D01*
X65500Y33400D02*
Y33600D01*
X65900Y34000D02*
X66100D01*
X66000Y33900D02*
Y34100D01*
X65900Y32000D02*
X66100D01*
X66000Y31900D02*
Y32100D01*
X66400Y36500D02*
X66600D01*
X66500Y36400D02*
Y36600D01*
X66425Y37475D02*
X66625D01*
X66525Y37375D02*
Y37575D01*
X66900Y36000D02*
X67100D01*
X67000Y35900D02*
Y36100D01*
X67400Y34500D02*
X67600D01*
X67500Y34400D02*
Y34600D01*
X61900Y32000D02*
X62100D01*
X62000Y31900D02*
Y32100D01*
X59400Y33500D02*
X59600D01*
X59500Y33400D02*
Y33600D01*
X60900Y34000D02*
X61100D01*
X61000Y33900D02*
Y34100D01*
X61400Y35500D02*
X61600D01*
X61500Y35400D02*
Y35600D01*
X61900Y36000D02*
X62100D01*
X62000Y35900D02*
Y36100D01*
X60500Y34500D02*
X60700D01*
X60600Y34400D02*
Y34600D01*
X74900Y35000D02*
X75100D01*
X75000Y34900D02*
Y35100D01*
M02*
