G04 Layer_Color=2752767*
%FSLAX43Y43*%
%MOMM*%
G71*
G01*
G75*
%ADD10C,0.100*%
%ADD49C,0.200*%
%ADD54C,0.300*%
%ADD77C,0.254*%
%ADD159C,0.381*%
%ADD161C,0.030*%
%ADD162C,0.406*%
D10*
X163425Y-10000D02*
Y120000D01*
X-10000Y-10000D02*
X163425D01*
X-10000D02*
Y120000D01*
X163425D01*
D49*
X65050Y124450D02*
Y123450D01*
X65550D01*
X65716Y123617D01*
Y123783D01*
X65550Y123950D01*
X65050D01*
X65550D01*
X65716Y124116D01*
Y124283D01*
X65550Y124450D01*
X65050D01*
X66549D02*
X66216D01*
X66050Y124283D01*
Y123617D01*
X66216Y123450D01*
X66549D01*
X66716Y123617D01*
Y124283D01*
X66549Y124450D01*
X67049Y123450D02*
Y124116D01*
X67382Y124450D01*
X67716Y124116D01*
Y123450D01*
Y123950D01*
X67049D01*
X68049Y123450D02*
Y124450D01*
X68549D01*
X68715Y124283D01*
Y123950D01*
X68549Y123783D01*
X68049D01*
X68382D02*
X68715Y123450D01*
X69049Y124450D02*
Y123450D01*
X69548D01*
X69715Y123617D01*
Y124283D01*
X69548Y124450D01*
X69049D01*
X71548D02*
X71215D01*
X71048Y124283D01*
Y123617D01*
X71215Y123450D01*
X71548D01*
X71714Y123617D01*
Y124283D01*
X71548Y124450D01*
X72048D02*
Y123617D01*
X72214Y123450D01*
X72547D01*
X72714Y123617D01*
Y124450D01*
X73047D02*
X73714D01*
X73380D01*
Y123450D01*
X74047Y124450D02*
Y123450D01*
X74713D01*
X75047Y124450D02*
X75380D01*
X75213D01*
Y123450D01*
X75047D01*
X75380D01*
X75880D02*
Y124450D01*
X76546Y123450D01*
Y124450D01*
X77546D02*
X76879D01*
Y123450D01*
X77546D01*
X76879Y123950D02*
X77213D01*
X64633Y124450D02*
Y123450D01*
X65133D01*
X65300Y123617D01*
Y124283D01*
X65133Y124450D01*
X64633D01*
X65633Y123450D02*
Y124450D01*
X66133D01*
X66299Y124283D01*
Y123950D01*
X66133Y123783D01*
X65633D01*
X65966D02*
X66299Y123450D01*
X66633Y124450D02*
X66966D01*
X66799D01*
Y123450D01*
X66633D01*
X66966D01*
X67466Y124450D02*
Y123450D01*
X68132D01*
X68465Y124450D02*
Y123450D01*
X69132D01*
X69465Y124450D02*
Y123450D01*
X70132D01*
X71464Y124450D02*
Y123450D01*
X71964D01*
X72131Y123617D01*
Y124283D01*
X71964Y124450D01*
X71464D01*
X72464Y123450D02*
Y124450D01*
X72964D01*
X73131Y124283D01*
Y123950D01*
X72964Y123783D01*
X72464D01*
X72797D02*
X73131Y123450D01*
X73464D02*
Y124116D01*
X73797Y124450D01*
X74130Y124116D01*
Y123450D01*
Y123950D01*
X73464D01*
X74463Y124450D02*
Y123450D01*
X74797Y123783D01*
X75130Y123450D01*
Y124450D01*
X75463D02*
X75796D01*
X75630D01*
Y123450D01*
X75463D01*
X75796D01*
X76296D02*
Y124450D01*
X76963Y123450D01*
Y124450D01*
X77962Y124283D02*
X77796Y124450D01*
X77463D01*
X77296Y124283D01*
Y123617D01*
X77463Y123450D01*
X77796D01*
X77962Y123617D01*
Y123950D01*
X77629D01*
D54*
X73500Y39500D02*
X73500Y39500D01*
D77*
X-7286Y211215D02*
G03*
X-7286Y211215I-508J0D01*
G01*
X-6947D02*
G03*
X-6947Y211215I-847J0D01*
G01*
X141235Y211384D02*
X141743Y210368D01*
X142251Y211384D01*
X143520Y210368D02*
Y211892D01*
X142758Y211130D01*
X143774D01*
X144282Y211638D02*
X144536Y211892D01*
X145044D01*
X145298Y211638D01*
Y210622D01*
X145044Y210368D01*
X144536D01*
X144282Y210622D01*
Y211638D01*
X145805Y211892D02*
Y210368D01*
Y211130D01*
X146059Y211384D01*
X146567D01*
X146821Y211130D01*
Y210368D01*
X148345D02*
X147329D01*
X148345Y211384D01*
Y211638D01*
X148091Y211892D01*
X147583D01*
X147329Y211638D01*
X148852D02*
X149106Y211892D01*
X149614D01*
X149868Y211638D01*
Y210622D01*
X149614Y210368D01*
X149106D01*
X148852Y210622D01*
Y211638D01*
X150376Y210368D02*
Y211384D01*
X150630D01*
X150884Y211130D01*
Y210368D01*
Y211130D01*
X151138Y211384D01*
X151392Y211130D01*
Y210368D01*
X151899Y211638D02*
X152153Y211892D01*
X152661D01*
X152915Y211638D01*
Y210622D01*
X152661Y210368D01*
X152153D01*
X151899Y210622D01*
Y211638D01*
X153423Y210368D02*
Y211384D01*
X153677D01*
X153931Y211130D01*
Y210368D01*
Y211130D01*
X154185Y211384D01*
X154439Y211130D01*
Y210368D01*
X154946Y211384D02*
X155962Y210368D01*
X155454Y210876D01*
X155962Y211384D01*
X154946Y210368D01*
X156470Y211638D02*
X156724Y211892D01*
X157232D01*
X157486Y211638D01*
Y210622D01*
X157232Y210368D01*
X156724D01*
X156470Y210622D01*
Y211638D01*
X122292Y210368D02*
Y211892D01*
X123053D01*
X123307Y211638D01*
Y211130D01*
X123053Y210876D01*
X122292D01*
X122799D02*
X123307Y210368D01*
X124069D02*
X124577D01*
X124831Y210622D01*
Y211130D01*
X124577Y211384D01*
X124069D01*
X123815Y211130D01*
Y210622D01*
X124069Y210368D01*
X125339Y211384D02*
Y210622D01*
X125593Y210368D01*
X126354D01*
Y211384D01*
X126862Y210368D02*
Y211384D01*
X127624D01*
X127878Y211130D01*
Y210368D01*
X129401Y211892D02*
Y210368D01*
X128640D01*
X128386Y210622D01*
Y211130D01*
X128640Y211384D01*
X129401D01*
X130671Y210368D02*
X130163D01*
X129909Y210622D01*
Y211130D01*
X130163Y211384D01*
X130671D01*
X130925Y211130D01*
Y210876D01*
X129909D01*
X132448Y211892D02*
Y210368D01*
X131687D01*
X131433Y210622D01*
Y211130D01*
X131687Y211384D01*
X132448D01*
X107309Y211892D02*
Y210876D01*
X107817Y210368D01*
X108325Y210876D01*
Y211892D01*
X108833Y210368D02*
X109341D01*
X109087D01*
Y211384D01*
X108833D01*
X110356D02*
X110864D01*
X111118Y211130D01*
Y210368D01*
X110356D01*
X110103Y210622D01*
X110356Y210876D01*
X111118D01*
X77092Y211892D02*
X77600D01*
X77346D01*
Y210368D01*
X77092D01*
X77600D01*
X78362D02*
Y211892D01*
X79377Y210368D01*
Y211892D01*
X79885Y210368D02*
X80393D01*
X80139D01*
Y211892D01*
X79885Y211638D01*
X82678Y211130D02*
X83694D01*
X85725Y211892D02*
X86233D01*
X85979D01*
Y210368D01*
X85725D01*
X86233D01*
X86995D02*
Y211892D01*
X88011Y210368D01*
Y211892D01*
X88519Y211638D02*
X88772Y211892D01*
X89280D01*
X89534Y211638D01*
Y211384D01*
X89280Y211130D01*
X89026D01*
X89280D01*
X89534Y210876D01*
Y210622D01*
X89280Y210368D01*
X88772D01*
X88519Y210622D01*
X58454Y210368D02*
Y211892D01*
X59215D01*
X59469Y211638D01*
Y211130D01*
X59215Y210876D01*
X58454D01*
X58961D02*
X59469Y210368D01*
X60231D02*
X60739D01*
X60993Y210622D01*
Y211130D01*
X60739Y211384D01*
X60231D01*
X59977Y211130D01*
Y210622D01*
X60231Y210368D01*
X61501Y211384D02*
Y210622D01*
X61755Y210368D01*
X62516D01*
Y211384D01*
X63024Y210368D02*
Y211384D01*
X63786D01*
X64040Y211130D01*
Y210368D01*
X65563Y211892D02*
Y210368D01*
X64802D01*
X64548Y210622D01*
Y211130D01*
X64802Y211384D01*
X65563D01*
X45604Y210368D02*
Y211892D01*
X46366D01*
X46620Y211638D01*
Y211130D01*
X46366Y210876D01*
X45604D01*
X47128Y211892D02*
X48144D01*
X47636D01*
Y210368D01*
X48651Y211892D02*
Y210368D01*
Y211130D01*
X49667D01*
Y211892D01*
Y210368D01*
X18688Y211638D02*
X18942Y211892D01*
X19450D01*
X19704Y211638D01*
Y210622D01*
X19450Y210368D01*
X18942D01*
X18688Y210622D01*
Y211638D01*
X20466Y210115D02*
X20720Y210368D01*
Y210622D01*
X20466D01*
Y210368D01*
X20720D01*
X20466Y210115D01*
X20212Y209861D01*
X22751Y210368D02*
X21735D01*
X22751Y211384D01*
Y211638D01*
X22497Y211892D01*
X21989D01*
X21735Y211638D01*
X23259D02*
X23513Y211892D01*
X24020D01*
X24274Y211638D01*
Y210622D01*
X24020Y210368D01*
X23513D01*
X23259Y210622D01*
Y211638D01*
X24782D02*
X25036Y211892D01*
X25544D01*
X25798Y211638D01*
Y210622D01*
X25544Y210368D01*
X25036D01*
X24782Y210622D01*
Y211638D01*
X26306Y210368D02*
Y211384D01*
X26560D01*
X26814Y211130D01*
Y210368D01*
Y211130D01*
X27067Y211384D01*
X27321Y211130D01*
Y210368D01*
X27829D02*
Y211384D01*
X28083D01*
X28337Y211130D01*
Y210368D01*
Y211130D01*
X28591Y211384D01*
X28845Y211130D01*
Y210368D01*
X31384D02*
X30876Y210876D01*
Y211384D01*
X31384Y211892D01*
X32146D02*
X33162D01*
Y211638D01*
X32146Y210622D01*
Y210368D01*
X33923Y210115D02*
X34177Y210368D01*
Y210622D01*
X33923D01*
Y210368D01*
X34177D01*
X33923Y210115D01*
X33669Y209861D01*
X35193Y211638D02*
X35447Y211892D01*
X35955D01*
X36209Y211638D01*
Y211384D01*
X35955Y211130D01*
X36209Y210876D01*
Y210622D01*
X35955Y210368D01*
X35447D01*
X35193Y210622D01*
Y210876D01*
X35447Y211130D01*
X35193Y211384D01*
Y211638D01*
X35447Y211130D02*
X35955D01*
X36716Y211892D02*
X37732D01*
Y211638D01*
X36716Y210622D01*
Y210368D01*
X38240D02*
Y211384D01*
X38494D01*
X38748Y211130D01*
Y210368D01*
Y211130D01*
X39002Y211384D01*
X39256Y211130D01*
Y210368D01*
X39763D02*
X40271D01*
X40017D01*
Y211384D01*
X39763D01*
X41033Y210368D02*
X41541D01*
X41287D01*
Y211892D01*
X41033D01*
X42303Y210368D02*
X42810Y210876D01*
Y211384D01*
X42303Y211892D01*
X4976Y207828D02*
X5230Y208082D01*
X5738D01*
X5991Y207828D01*
Y207574D01*
X5738Y207320D01*
X5484D01*
X5738D01*
X5991Y207066D01*
Y206812D01*
X5738Y206559D01*
X5230D01*
X4976Y206812D01*
X6499Y207828D02*
X6753Y208082D01*
X7261D01*
X7515Y207828D01*
Y207574D01*
X7261Y207320D01*
X7515Y207066D01*
Y206812D01*
X7261Y206559D01*
X6753D01*
X6499Y206812D01*
Y207066D01*
X6753Y207320D01*
X6499Y207574D01*
Y207828D01*
X6753Y207320D02*
X7261D01*
X9546Y208082D02*
X10562D01*
X10054D01*
Y206559D01*
X11324D02*
X11832D01*
X12085Y206812D01*
Y207320D01*
X11832Y207574D01*
X11324D01*
X11070Y207320D01*
Y206812D01*
X11324Y206559D01*
X12847Y207828D02*
Y207574D01*
X12593D01*
X13101D01*
X12847D01*
Y206812D01*
X13101Y206559D01*
X14117Y207574D02*
X14625D01*
X14879Y207320D01*
Y206559D01*
X14117D01*
X13863Y206812D01*
X14117Y207066D01*
X14879D01*
X15386Y206559D02*
X15894D01*
X15640D01*
Y208082D01*
X15386D01*
X4976Y211638D02*
X5230Y211892D01*
X5738D01*
X5991Y211638D01*
Y211384D01*
X5738Y211130D01*
X5484D01*
X5738D01*
X5991Y210876D01*
Y210622D01*
X5738Y210368D01*
X5230D01*
X4976Y210622D01*
X6499Y211638D02*
X6753Y211892D01*
X7261D01*
X7515Y211638D01*
Y211384D01*
X7261Y211130D01*
X7515Y210876D01*
Y210622D01*
X7261Y210368D01*
X6753D01*
X6499Y210622D01*
Y210876D01*
X6753Y211130D01*
X6499Y211384D01*
Y211638D01*
X6753Y211130D02*
X7261D01*
D159*
X-10160Y213036D02*
X249712D01*
X-10160Y209225D02*
X249712D01*
X-10160Y205415D02*
X249712D01*
Y216846D01*
X-10160D02*
X249712D01*
X-10160Y205415D02*
Y216846D01*
X214696Y205415D02*
Y216846D01*
X180822Y205415D02*
Y216846D01*
X159137Y205415D02*
Y216846D01*
X140092Y205415D02*
Y216846D01*
X121149Y205415D02*
Y216846D01*
X106166Y205415D02*
Y216846D01*
X75949Y205415D02*
Y216846D01*
X57311Y205415D02*
Y216846D01*
X44461Y205415D02*
Y216846D01*
X17545Y205415D02*
Y216846D01*
X3833Y205415D02*
Y216846D01*
D161*
X75090Y35000D02*
G03*
X75090Y35000I-90J0D01*
G01*
X75150D02*
G03*
X75150Y35000I-150J0D01*
G01*
X60690Y34500D02*
G03*
X60690Y34500I-90J0D01*
G01*
X60750D02*
G03*
X60750Y34500I-150J0D01*
G01*
X62090Y36000D02*
G03*
X62090Y36000I-90J0D01*
G01*
X62150D02*
G03*
X62150Y36000I-150J0D01*
G01*
X61590Y35500D02*
G03*
X61590Y35500I-90J0D01*
G01*
X61650D02*
G03*
X61650Y35500I-150J0D01*
G01*
X61090Y34000D02*
G03*
X61090Y34000I-90J0D01*
G01*
X61150D02*
G03*
X61150Y34000I-150J0D01*
G01*
X59590Y33500D02*
G03*
X59590Y33500I-90J0D01*
G01*
X59650D02*
G03*
X59650Y33500I-150J0D01*
G01*
X62090Y32000D02*
G03*
X62090Y32000I-90J0D01*
G01*
X62150D02*
G03*
X62150Y32000I-150J0D01*
G01*
X67590Y34500D02*
G03*
X67590Y34500I-90J0D01*
G01*
X67650D02*
G03*
X67650Y34500I-150J0D01*
G01*
X67090Y36000D02*
G03*
X67090Y36000I-90J0D01*
G01*
X67150D02*
G03*
X67150Y36000I-150J0D01*
G01*
X66615Y37475D02*
G03*
X66615Y37475I-90J0D01*
G01*
X66675D02*
G03*
X66675Y37475I-150J0D01*
G01*
X66590Y36500D02*
G03*
X66590Y36500I-90J0D01*
G01*
X66650D02*
G03*
X66650Y36500I-150J0D01*
G01*
X66090Y32000D02*
G03*
X66090Y32000I-90J0D01*
G01*
X66150D02*
G03*
X66150Y32000I-150J0D01*
G01*
X66090Y34000D02*
G03*
X66090Y34000I-90J0D01*
G01*
X66150D02*
G03*
X66150Y34000I-150J0D01*
G01*
X65590Y33500D02*
G03*
X65590Y33500I-90J0D01*
G01*
X65650D02*
G03*
X65650Y33500I-150J0D01*
G01*
X64565Y33375D02*
G03*
X64565Y33375I-90J0D01*
G01*
X64625D02*
G03*
X64625Y33375I-150J0D01*
G01*
X64590Y36500D02*
G03*
X64590Y36500I-90J0D01*
G01*
X64650D02*
G03*
X64650Y36500I-150J0D01*
G01*
X64590Y34500D02*
G03*
X64590Y34500I-90J0D01*
G01*
X64650D02*
G03*
X64650Y34500I-150J0D01*
G01*
X64068Y35002D02*
G03*
X64068Y35002I-90J0D01*
G01*
X64128D02*
G03*
X64128Y35002I-150J0D01*
G01*
X68090Y33000D02*
G03*
X68090Y33000I-90J0D01*
G01*
X68150D02*
G03*
X68150Y33000I-150J0D01*
G01*
X70090Y37000D02*
G03*
X70090Y37000I-90J0D01*
G01*
X70150D02*
G03*
X70150Y37000I-150J0D01*
G01*
X72090Y41000D02*
G03*
X72090Y41000I-90J0D01*
G01*
X72150D02*
G03*
X72150Y41000I-150J0D01*
G01*
X65090Y31000D02*
G03*
X65090Y31000I-90J0D01*
G01*
X65150D02*
G03*
X65150Y31000I-150J0D01*
G01*
X70090Y40000D02*
G03*
X70090Y40000I-90J0D01*
G01*
X70150D02*
G03*
X70150Y40000I-150J0D01*
G01*
X68090Y42750D02*
G03*
X68090Y42750I-90J0D01*
G01*
X68150D02*
G03*
X68150Y42750I-150J0D01*
G01*
X69090D02*
G03*
X69090Y42750I-90J0D01*
G01*
X69150D02*
G03*
X69150Y42750I-150J0D01*
G01*
X68090Y40000D02*
G03*
X68090Y40000I-90J0D01*
G01*
X68150D02*
G03*
X68150Y40000I-150J0D01*
G01*
X69090D02*
G03*
X69090Y40000I-90J0D01*
G01*
X69150D02*
G03*
X69150Y40000I-150J0D01*
G01*
X75090Y42000D02*
G03*
X75090Y42000I-90J0D01*
G01*
X75150D02*
G03*
X75150Y42000I-150J0D01*
G01*
X71090Y42625D02*
G03*
X71090Y42625I-90J0D01*
G01*
X71150D02*
G03*
X71150Y42625I-150J0D01*
G01*
X70090Y32000D02*
G03*
X70090Y32000I-90J0D01*
G01*
X70150D02*
G03*
X70150Y32000I-150J0D01*
G01*
X63090Y33000D02*
G03*
X63090Y33000I-90J0D01*
G01*
X63150D02*
G03*
X63150Y33000I-150J0D01*
G01*
X64090Y32000D02*
G03*
X64090Y32000I-90J0D01*
G01*
X64150D02*
G03*
X64150Y32000I-150J0D01*
G01*
X76090Y36000D02*
G03*
X76090Y36000I-90J0D01*
G01*
X76150D02*
G03*
X76150Y36000I-150J0D01*
G01*
X72590Y35500D02*
G03*
X72590Y35500I-90J0D01*
G01*
X72650D02*
G03*
X72650Y35500I-150J0D01*
G01*
X73565Y32000D02*
G03*
X73565Y32000I-90J0D01*
G01*
X73625D02*
G03*
X73625Y32000I-150J0D01*
G01*
X70090Y25000D02*
G03*
X70090Y25000I-90J0D01*
G01*
X70150D02*
G03*
X70150Y25000I-150J0D01*
G01*
X59615Y25525D02*
G03*
X59615Y25525I-90J0D01*
G01*
X59675D02*
G03*
X59675Y25525I-150J0D01*
G01*
X59090Y30000D02*
G03*
X59090Y30000I-90J0D01*
G01*
X59150D02*
G03*
X59150Y30000I-150J0D01*
G01*
D162*
X215839Y216007D02*
Y214178D01*
Y215093D01*
X217058D01*
Y216007D01*
Y214178D01*
X217972D02*
X218581D01*
X218886Y214483D01*
Y215093D01*
X218581Y215397D01*
X217972D01*
X217667Y215093D01*
Y214483D01*
X217972Y214178D01*
X219495D02*
X220105D01*
X219800D01*
Y216007D01*
X219495D01*
X221933Y214178D02*
X221323D01*
X221019Y214483D01*
Y215093D01*
X221323Y215397D01*
X221933D01*
X222238Y215093D01*
Y214788D01*
X221019D01*
X224675Y216007D02*
X225894D01*
X225285D01*
Y214178D01*
X226808D02*
X227417D01*
X227722Y214483D01*
Y215093D01*
X227417Y215397D01*
X226808D01*
X226503Y215093D01*
Y214483D01*
X226808Y214178D01*
X228332D02*
X228941D01*
X228636D01*
Y216007D01*
X228332D01*
X230769Y214178D02*
X230160D01*
X229855Y214483D01*
Y215093D01*
X230160Y215397D01*
X230769D01*
X231074Y215093D01*
Y214788D01*
X229855D01*
X231683Y215397D02*
Y214178D01*
Y214788D01*
X231988Y215093D01*
X232293Y215397D01*
X232597D01*
X233816D02*
X234426D01*
X234730Y215093D01*
Y214178D01*
X233816D01*
X233512Y214483D01*
X233816Y214788D01*
X234730D01*
X235340Y214178D02*
Y215397D01*
X236254D01*
X236559Y215093D01*
Y214178D01*
X238387Y215397D02*
X237473D01*
X237168Y215093D01*
Y214483D01*
X237473Y214178D01*
X238387D01*
X239910D02*
X239301D01*
X238996Y214483D01*
Y215093D01*
X239301Y215397D01*
X239910D01*
X240215Y215093D01*
Y214788D01*
X238996D01*
X243262Y214178D02*
X242653Y214788D01*
Y215397D01*
X243262Y216007D01*
X244176Y215093D02*
X245395D01*
X246004Y214178D02*
X246614Y214788D01*
Y215397D01*
X246004Y216007D01*
X181965D02*
Y214178D01*
Y215093D01*
X183184D01*
Y216007D01*
Y214178D01*
X184098D02*
X184708D01*
X185012Y214483D01*
Y215093D01*
X184708Y215397D01*
X184098D01*
X183793Y215093D01*
Y214483D01*
X184098Y214178D01*
X185622D02*
X186231D01*
X185926D01*
Y216007D01*
X185622D01*
X188059Y214178D02*
X187450D01*
X187145Y214483D01*
Y215093D01*
X187450Y215397D01*
X188059D01*
X188364Y215093D01*
Y214788D01*
X187145D01*
X190802Y216007D02*
X192020D01*
X191411D01*
Y214178D01*
X192934D02*
X193544D01*
X193849Y214483D01*
Y215093D01*
X193544Y215397D01*
X192934D01*
X192630Y215093D01*
Y214483D01*
X192934Y214178D01*
X194458D02*
X195067D01*
X194763D01*
Y216007D01*
X194458D01*
X196896Y214178D02*
X196286D01*
X195981Y214483D01*
Y215093D01*
X196286Y215397D01*
X196896D01*
X197200Y215093D01*
Y214788D01*
X195981D01*
X197810Y215397D02*
Y214178D01*
Y214788D01*
X198114Y215093D01*
X198419Y215397D01*
X198724D01*
X199943D02*
X200552D01*
X200857Y215093D01*
Y214178D01*
X199943D01*
X199638Y214483D01*
X199943Y214788D01*
X200857D01*
X201466Y214178D02*
Y215397D01*
X202380D01*
X202685Y215093D01*
Y214178D01*
X204513Y215397D02*
X203599D01*
X203294Y215093D01*
Y214483D01*
X203599Y214178D01*
X204513D01*
X206037D02*
X205427D01*
X205123Y214483D01*
Y215093D01*
X205427Y215397D01*
X206037D01*
X206341Y215093D01*
Y214788D01*
X205123D01*
X209388Y214178D02*
X208779Y214788D01*
Y215397D01*
X209388Y216007D01*
X210302Y215093D02*
X211521D01*
X210912Y215702D02*
Y214483D01*
X212131Y214178D02*
X212740Y214788D01*
Y215397D01*
X212131Y216007D01*
X160280D02*
Y214178D01*
X161194D01*
X161498Y214483D01*
Y215702D01*
X161194Y216007D01*
X160280D01*
X163022Y214178D02*
X162413D01*
X162108Y214483D01*
Y215093D01*
X162413Y215397D01*
X163022D01*
X163327Y215093D01*
Y214788D01*
X162108D01*
X163936Y214178D02*
X164850D01*
X165155Y214483D01*
X164850Y214788D01*
X164241D01*
X163936Y215093D01*
X164241Y215397D01*
X165155D01*
X166983D02*
X166069D01*
X165764Y215093D01*
Y214483D01*
X166069Y214178D01*
X166983D01*
X167592Y215397D02*
Y214178D01*
Y214788D01*
X167897Y215093D01*
X168202Y215397D01*
X168507D01*
X169421Y214178D02*
X170030D01*
X169725D01*
Y215397D01*
X169421D01*
X170944Y213569D02*
Y215397D01*
X171858D01*
X172163Y215093D01*
Y214483D01*
X171858Y214178D01*
X170944D01*
X173077Y215702D02*
Y215397D01*
X172772D01*
X173382D01*
X173077D01*
Y214483D01*
X173382Y214178D01*
X174296D02*
X174905D01*
X174601D01*
Y215397D01*
X174296D01*
X176124Y214178D02*
X176733D01*
X177038Y214483D01*
Y215093D01*
X176733Y215397D01*
X176124D01*
X175819Y215093D01*
Y214483D01*
X176124Y214178D01*
X177648D02*
Y215397D01*
X178562D01*
X178866Y215093D01*
Y214178D01*
X141235Y216007D02*
X142454D01*
X141844D01*
Y214178D01*
X143977D02*
X143368D01*
X143063Y214483D01*
Y215093D01*
X143368Y215397D01*
X143977D01*
X144282Y215093D01*
Y214788D01*
X143063D01*
X144891Y214178D02*
Y215397D01*
X145196D01*
X145501Y215093D01*
Y214178D01*
Y215093D01*
X145805Y215397D01*
X146110Y215093D01*
Y214178D01*
X146719Y213569D02*
Y215397D01*
X147634D01*
X147938Y215093D01*
Y214483D01*
X147634Y214178D01*
X146719D01*
X148548D02*
X149157D01*
X148852D01*
Y216007D01*
X148548D01*
X150376Y215397D02*
X150985D01*
X151290Y215093D01*
Y214178D01*
X150376D01*
X150071Y214483D01*
X150376Y214788D01*
X151290D01*
X152204Y215702D02*
Y215397D01*
X151899D01*
X152509D01*
X152204D01*
Y214483D01*
X152509Y214178D01*
X154337D02*
X153728D01*
X153423Y214483D01*
Y215093D01*
X153728Y215397D01*
X154337D01*
X154642Y215093D01*
Y214788D01*
X153423D01*
X122292Y214178D02*
Y216007D01*
X123206D01*
X123510Y215702D01*
Y215093D01*
X123206Y214788D01*
X122292D01*
X124425Y215397D02*
X125034D01*
X125339Y215093D01*
Y214178D01*
X124425D01*
X124120Y214483D01*
X124425Y214788D01*
X125339D01*
X127167Y216007D02*
Y214178D01*
X126253D01*
X125948Y214483D01*
Y215093D01*
X126253Y215397D01*
X127167D01*
X130823Y215702D02*
X130519Y216007D01*
X129909D01*
X129604Y215702D01*
Y215397D01*
X129909Y215093D01*
X130519D01*
X130823Y214788D01*
Y214483D01*
X130519Y214178D01*
X129909D01*
X129604Y214483D01*
X131433Y216007D02*
Y214178D01*
Y215093D01*
X131737Y215397D01*
X132347D01*
X132651Y215093D01*
Y214178D01*
X133566Y215397D02*
X134175D01*
X134480Y215093D01*
Y214178D01*
X133566D01*
X133261Y214483D01*
X133566Y214788D01*
X134480D01*
X135089Y213569D02*
Y215397D01*
X136003D01*
X136308Y215093D01*
Y214483D01*
X136003Y214178D01*
X135089D01*
X137831D02*
X137222D01*
X136917Y214483D01*
Y215093D01*
X137222Y215397D01*
X137831D01*
X138136Y215093D01*
Y214788D01*
X136917D01*
X107309Y216007D02*
Y214788D01*
X107919Y214178D01*
X108528Y214788D01*
Y216007D01*
X109138Y214178D02*
X109747D01*
X109442D01*
Y215397D01*
X109138D01*
X110966D02*
X111575D01*
X111880Y215093D01*
Y214178D01*
X110966D01*
X110661Y214483D01*
X110966Y214788D01*
X111880D01*
X112489Y214178D02*
X113708Y215397D01*
X114318Y214178D02*
Y216007D01*
X115232D01*
X115536Y215702D01*
Y215093D01*
X115232Y214788D01*
X114318D01*
X116450Y215397D02*
X117060D01*
X117365Y215093D01*
Y214178D01*
X116450D01*
X116146Y214483D01*
X116450Y214788D01*
X117365D01*
X119193Y216007D02*
Y214178D01*
X118279D01*
X117974Y214483D01*
Y215093D01*
X118279Y215397D01*
X119193D01*
X77092Y216007D02*
Y214178D01*
X78006D01*
X78311Y214483D01*
Y215702D01*
X78006Y216007D01*
X77092D01*
X78920Y215397D02*
Y214178D01*
Y214788D01*
X79225Y215093D01*
X79530Y215397D01*
X79835D01*
X80749Y214178D02*
X81358D01*
X81053D01*
Y215397D01*
X80749D01*
X82272Y214178D02*
X82882D01*
X82577D01*
Y216007D01*
X82272D01*
X83796Y214178D02*
X84405D01*
X84100D01*
Y216007D01*
X83796D01*
X87147D02*
Y214178D01*
X88366D01*
X89280Y215397D02*
X89890D01*
X90194Y215093D01*
Y214178D01*
X89280D01*
X88976Y214483D01*
X89280Y214788D01*
X90194D01*
X90804Y215397D02*
Y214483D01*
X91108Y214178D01*
X92023D01*
Y213874D01*
X91718Y213569D01*
X91413D01*
X92023Y214178D02*
Y215397D01*
X93546Y214178D02*
X92937D01*
X92632Y214483D01*
Y215093D01*
X92937Y215397D01*
X93546D01*
X93851Y215093D01*
Y214788D01*
X92632D01*
X94460Y215397D02*
Y214178D01*
Y214788D01*
X94765Y215093D01*
X95070Y215397D01*
X95374D01*
X98117Y214178D02*
Y216007D01*
X99031D01*
X99335Y215702D01*
Y215093D01*
X99031Y214788D01*
X98117D01*
X100250Y215397D02*
X100859D01*
X101164Y215093D01*
Y214178D01*
X100250D01*
X99945Y214483D01*
X100250Y214788D01*
X101164D01*
X101773Y214178D02*
X102382D01*
X102078D01*
Y215397D01*
X101773D01*
X103297D02*
Y214178D01*
Y214788D01*
X103601Y215093D01*
X103906Y215397D01*
X104211D01*
X58454Y216007D02*
Y214178D01*
Y215093D01*
X59672D01*
Y216007D01*
Y214178D01*
X60587D02*
X61196D01*
X61501Y214483D01*
Y215093D01*
X61196Y215397D01*
X60587D01*
X60282Y215093D01*
Y214483D01*
X60587Y214178D01*
X62110D02*
X62719D01*
X62415D01*
Y216007D01*
X62110D01*
X64548Y214178D02*
X63938D01*
X63634Y214483D01*
Y215093D01*
X63938Y215397D01*
X64548D01*
X64852Y215093D01*
Y214788D01*
X63634D01*
X67290Y216007D02*
X68509D01*
X67899D01*
Y214178D01*
X69118Y215397D02*
Y214483D01*
X69423Y214178D01*
X70337D01*
Y213874D01*
X70032Y213569D01*
X69728D01*
X70337Y214178D02*
Y215397D01*
X70946Y213569D02*
Y215397D01*
X71861D01*
X72165Y215093D01*
Y214483D01*
X71861Y214178D01*
X70946D01*
X73689D02*
X73079D01*
X72775Y214483D01*
Y215093D01*
X73079Y215397D01*
X73689D01*
X73993Y215093D01*
Y214788D01*
X72775D01*
X45604Y214178D02*
Y216007D01*
X46519D01*
X46823Y215702D01*
Y215093D01*
X46519Y214788D01*
X45604D01*
X47433Y214178D02*
X48042D01*
X47737D01*
Y216007D01*
X47433D01*
X49261Y215397D02*
X49870D01*
X50175Y215093D01*
Y214178D01*
X49261D01*
X48956Y214483D01*
X49261Y214788D01*
X50175D01*
X51089Y215702D02*
Y215397D01*
X50784D01*
X51394D01*
X51089D01*
Y214483D01*
X51394Y214178D01*
X53222D02*
X52613D01*
X52308Y214483D01*
Y215093D01*
X52613Y215397D01*
X53222D01*
X53527Y215093D01*
Y214788D01*
X52308D01*
X55355Y216007D02*
Y214178D01*
X54441D01*
X54136Y214483D01*
Y215093D01*
X54441Y215397D01*
X55355D01*
X18688Y216007D02*
Y214178D01*
Y215093D01*
X19907D01*
Y216007D01*
Y214178D01*
X20821D02*
X21431D01*
X21735Y214483D01*
Y215093D01*
X21431Y215397D01*
X20821D01*
X20516Y215093D01*
Y214483D01*
X20821Y214178D01*
X22345D02*
X22954D01*
X22649D01*
Y216007D01*
X22345D01*
X24782Y214178D02*
X24173D01*
X23868Y214483D01*
Y215093D01*
X24173Y215397D01*
X24782D01*
X25087Y215093D01*
Y214788D01*
X23868D01*
X28743Y215702D02*
X28439Y216007D01*
X27829D01*
X27525Y215702D01*
Y215397D01*
X27829Y215093D01*
X28439D01*
X28743Y214788D01*
Y214483D01*
X28439Y214178D01*
X27829D01*
X27525Y214483D01*
X29353Y214178D02*
X29962D01*
X29657D01*
Y215397D01*
X29353D01*
X30876D02*
X32095D01*
X30876Y214178D01*
X32095D01*
X33619D02*
X33009D01*
X32704Y214483D01*
Y215093D01*
X33009Y215397D01*
X33619D01*
X33923Y215093D01*
Y214788D01*
X32704D01*
X6195Y215702D02*
X5890Y216007D01*
X5280D01*
X4976Y215702D01*
Y214483D01*
X5280Y214178D01*
X5890D01*
X6195Y214483D01*
X7109Y214178D02*
X7718D01*
X8023Y214483D01*
Y215093D01*
X7718Y215397D01*
X7109D01*
X6804Y215093D01*
Y214483D01*
X7109Y214178D01*
X8632Y215397D02*
Y214483D01*
X8937Y214178D01*
X9851D01*
Y215397D01*
X10460Y214178D02*
Y215397D01*
X11374D01*
X11679Y215093D01*
Y214178D01*
X12593Y215702D02*
Y215397D01*
X12289D01*
X12898D01*
X12593D01*
Y214483D01*
X12898Y214178D01*
X-6655Y215702D02*
X-6959Y216007D01*
X-7569D01*
X-7873Y215702D01*
Y215397D01*
X-7569Y215093D01*
X-6959D01*
X-6655Y214788D01*
Y214483D01*
X-6959Y214178D01*
X-7569D01*
X-7873Y214483D01*
X-6045Y215397D02*
Y214483D01*
X-5741Y214178D01*
X-4826D01*
Y213874D01*
X-5131Y213569D01*
X-5436D01*
X-4826Y214178D02*
Y215397D01*
X-4217Y214178D02*
Y215397D01*
X-3912D01*
X-3608Y215093D01*
Y214178D01*
Y215093D01*
X-3303Y215397D01*
X-2998Y215093D01*
Y214178D01*
X-2389Y216007D02*
Y214178D01*
X-1475D01*
X-1170Y214483D01*
Y214788D01*
Y215093D01*
X-1475Y215397D01*
X-2389D01*
X-256Y214178D02*
X353D01*
X658Y214483D01*
Y215093D01*
X353Y215397D01*
X-256D01*
X-561Y215093D01*
Y214483D01*
X-256Y214178D01*
X1268D02*
X1877D01*
X1572D01*
Y216007D01*
X1268D01*
M02*
