G04 Layer_Color=16711935*
%FSLAX43Y43*%
%MOMM*%
G71*
G01*
G75*
%ADD10C,0.100*%
%ADD49C,0.200*%
%ADD54C,0.300*%
D10*
X163425Y-10000D02*
Y120000D01*
X-10000Y-10000D02*
X163425D01*
X-10000D02*
Y120000D01*
X163425D01*
D49*
X65050Y124450D02*
Y123450D01*
X65550D01*
X65716Y123617D01*
Y123783D01*
X65550Y123950D01*
X65050D01*
X65550D01*
X65716Y124116D01*
Y124283D01*
X65550Y124450D01*
X65050D01*
X66549D02*
X66216D01*
X66050Y124283D01*
Y123617D01*
X66216Y123450D01*
X66549D01*
X66716Y123617D01*
Y124283D01*
X66549Y124450D01*
X67049Y123450D02*
Y124116D01*
X67382Y124450D01*
X67716Y124116D01*
Y123450D01*
Y123950D01*
X67049D01*
X68049Y123450D02*
Y124450D01*
X68549D01*
X68715Y124283D01*
Y123950D01*
X68549Y123783D01*
X68049D01*
X68382D02*
X68715Y123450D01*
X69049Y124450D02*
Y123450D01*
X69548D01*
X69715Y123617D01*
Y124283D01*
X69548Y124450D01*
X69049D01*
X71548D02*
X71215D01*
X71048Y124283D01*
Y123617D01*
X71215Y123450D01*
X71548D01*
X71714Y123617D01*
Y124283D01*
X71548Y124450D01*
X72048D02*
Y123617D01*
X72214Y123450D01*
X72547D01*
X72714Y123617D01*
Y124450D01*
X73047D02*
X73714D01*
X73380D01*
Y123450D01*
X74047Y124450D02*
Y123450D01*
X74713D01*
X75047Y124450D02*
X75380D01*
X75213D01*
Y123450D01*
X75047D01*
X75380D01*
X75880D02*
Y124450D01*
X76546Y123450D01*
Y124450D01*
X77546D02*
X76879D01*
Y123450D01*
X77546D01*
X76879Y123950D02*
X77213D01*
D54*
X73500Y39500D02*
X73500Y39500D01*
M02*
