G04 Layer_Color=128*
%FSLAX43Y43*%
%MOMM*%
G71*
G01*
G75*
%ADD10C,0.100*%
%ADD49C,0.200*%
%ADD54C,0.300*%
%ADD161C,0.030*%
D10*
X163425Y-10000D02*
Y120000D01*
X-10000Y-10000D02*
X163425D01*
X-10000D02*
Y120000D01*
X163425D01*
D49*
X65050Y124450D02*
Y123450D01*
X65550D01*
X65716Y123617D01*
Y123783D01*
X65550Y123950D01*
X65050D01*
X65550D01*
X65716Y124116D01*
Y124283D01*
X65550Y124450D01*
X65050D01*
X66549D02*
X66216D01*
X66050Y124283D01*
Y123617D01*
X66216Y123450D01*
X66549D01*
X66716Y123617D01*
Y124283D01*
X66549Y124450D01*
X67049Y123450D02*
Y124116D01*
X67382Y124450D01*
X67716Y124116D01*
Y123450D01*
Y123950D01*
X67049D01*
X68049Y123450D02*
Y124450D01*
X68549D01*
X68715Y124283D01*
Y123950D01*
X68549Y123783D01*
X68049D01*
X68382D02*
X68715Y123450D01*
X69049Y124450D02*
Y123450D01*
X69548D01*
X69715Y123617D01*
Y124283D01*
X69548Y124450D01*
X69049D01*
X71548D02*
X71215D01*
X71048Y124283D01*
Y123617D01*
X71215Y123450D01*
X71548D01*
X71714Y123617D01*
Y124283D01*
X71548Y124450D01*
X72048D02*
Y123617D01*
X72214Y123450D01*
X72547D01*
X72714Y123617D01*
Y124450D01*
X73047D02*
X73714D01*
X73380D01*
Y123450D01*
X74047Y124450D02*
Y123450D01*
X74713D01*
X75047Y124450D02*
X75380D01*
X75213D01*
Y123450D01*
X75047D01*
X75380D01*
X75880D02*
Y124450D01*
X76546Y123450D01*
Y124450D01*
X77546D02*
X76879D01*
Y123450D01*
X77546D01*
X76879Y123950D02*
X77213D01*
X65633Y124450D02*
Y123450D01*
X66133D01*
X66299Y123617D01*
Y124283D01*
X66133Y124450D01*
X65633D01*
X66633Y123450D02*
Y124450D01*
X67132D01*
X67299Y124283D01*
Y123950D01*
X67132Y123783D01*
X66633D01*
X66966D02*
X67299Y123450D01*
X67632Y124450D02*
X67966D01*
X67799D01*
Y123450D01*
X67632D01*
X67966D01*
X68465Y124450D02*
Y123450D01*
X69132D01*
X69465Y124450D02*
Y123450D01*
X70132D01*
X70465Y124450D02*
Y123450D01*
X71131D01*
X73131Y124283D02*
X72964Y124450D01*
X72631D01*
X72464Y124283D01*
Y123617D01*
X72631Y123450D01*
X72964D01*
X73131Y123617D01*
Y123950D01*
X72797D01*
X73464Y124450D02*
Y123617D01*
X73630Y123450D01*
X73964D01*
X74130Y123617D01*
Y124450D01*
X74463D02*
X74797D01*
X74630D01*
Y123450D01*
X74463D01*
X74797D01*
X75297Y124450D02*
Y123450D01*
X75796D01*
X75963Y123617D01*
Y124283D01*
X75796Y124450D01*
X75297D01*
X76963D02*
X76296D01*
Y123450D01*
X76963D01*
X76296Y123950D02*
X76629D01*
D54*
X73500Y39500D02*
X73500Y39500D01*
D161*
X145697Y1980D02*
X146597D01*
X146147Y1530D02*
Y2430D01*
X143157Y3250D02*
X144057D01*
X143607Y2800D02*
Y3700D01*
X145697Y4520D02*
X146597D01*
X146147Y4070D02*
Y4970D01*
X148649Y-1322D02*
X150249D01*
X149449Y-2122D02*
Y-522D01*
X145697Y7060D02*
X146597D01*
X146147Y6610D02*
Y7510D01*
X145697Y9600D02*
X146597D01*
X146147Y9150D02*
Y10050D01*
X143157Y10870D02*
X144057D01*
X143607Y10420D02*
Y11320D01*
X156899Y101D02*
X157899D01*
X157399Y-399D02*
Y601D01*
X155375Y2641D02*
X156375D01*
X155875Y2141D02*
Y3141D01*
X155375Y12750D02*
X156375D01*
X155875Y12250D02*
Y13250D01*
X156899Y10210D02*
X157899D01*
X157399Y9710D02*
Y10710D01*
X148649Y14172D02*
X150249D01*
X149449Y13372D02*
Y14972D01*
X150897Y710D02*
X154097D01*
X152497Y-890D02*
Y2310D01*
X150897Y12140D02*
X154097D01*
X152497Y10540D02*
Y13740D01*
X143157Y8330D02*
X144057D01*
X143607Y7880D02*
Y8780D01*
X143157Y5790D02*
X144057D01*
X143607Y5340D02*
Y6240D01*
X145698Y25570D02*
X146598D01*
X146148Y25120D02*
Y26020D01*
X143158Y26840D02*
X144058D01*
X143608Y26390D02*
Y27290D01*
X145698Y28110D02*
X146598D01*
X146148Y27660D02*
Y28560D01*
X143158Y29380D02*
X144058D01*
X143608Y28930D02*
Y29830D01*
X148650Y22268D02*
X150250D01*
X149450Y21468D02*
Y23068D01*
X145698Y30650D02*
X146598D01*
X146148Y30200D02*
Y31100D01*
X143158Y31920D02*
X144058D01*
X143608Y31470D02*
Y32370D01*
X145698Y33190D02*
X146598D01*
X146148Y32740D02*
Y33640D01*
X143158Y34460D02*
X144058D01*
X143608Y34010D02*
Y34910D01*
X156900Y23691D02*
X157900D01*
X157400Y23191D02*
Y24191D01*
X155376Y26231D02*
X156376D01*
X155876Y25731D02*
Y26731D01*
X155376Y36340D02*
X156376D01*
X155876Y35840D02*
Y36840D01*
X156900Y33800D02*
X157900D01*
X157400Y33300D02*
Y34300D01*
X148650Y37762D02*
X150250D01*
X149450Y36962D02*
Y38562D01*
X150898Y24300D02*
X154098D01*
X152498Y22700D02*
Y25900D01*
X150898Y35730D02*
X154098D01*
X152498Y34130D02*
Y37330D01*
X145722Y49605D02*
X146622D01*
X146172Y49155D02*
Y50055D01*
X143182Y50875D02*
X144082D01*
X143632Y50425D02*
Y51325D01*
X145722Y52145D02*
X146622D01*
X146172Y51695D02*
Y52595D01*
X143182Y53415D02*
X144082D01*
X143632Y52965D02*
Y53865D01*
X148674Y46303D02*
X150274D01*
X149474Y45503D02*
Y47103D01*
X145722Y54685D02*
X146622D01*
X146172Y54235D02*
Y55135D01*
X143182Y55955D02*
X144082D01*
X143632Y55505D02*
Y56405D01*
X145722Y57225D02*
X146622D01*
X146172Y56775D02*
Y57675D01*
X143182Y58495D02*
X144082D01*
X143632Y58045D02*
Y58945D01*
X156924Y47726D02*
X157924D01*
X157424Y47226D02*
Y48226D01*
X155400Y50266D02*
X156400D01*
X155900Y49766D02*
Y50766D01*
X155400Y60375D02*
X156400D01*
X155900Y59875D02*
Y60875D01*
X156924Y57835D02*
X157924D01*
X157424Y57335D02*
Y58335D01*
X148674Y61797D02*
X150274D01*
X149474Y60997D02*
Y62597D01*
X150922Y48335D02*
X154122D01*
X152522Y46735D02*
Y49935D01*
X150922Y59765D02*
X154122D01*
X152522Y58165D02*
Y61365D01*
X145820Y97055D02*
X146720D01*
X146270Y96605D02*
Y97505D01*
X143280Y98325D02*
X144180D01*
X143730Y97875D02*
Y98775D01*
X145820Y99595D02*
X146720D01*
X146270Y99145D02*
Y100045D01*
X148772Y93753D02*
X150372D01*
X149572Y92953D02*
Y94553D01*
X145820Y102135D02*
X146720D01*
X146270Y101685D02*
Y102585D01*
X145820Y104675D02*
X146720D01*
X146270Y104225D02*
Y105125D01*
X143280Y105945D02*
X144180D01*
X143730Y105495D02*
Y106395D01*
X157022Y95175D02*
X158022D01*
X157522Y94675D02*
Y95675D01*
X155498Y97715D02*
X156498D01*
X155998Y97215D02*
Y98215D01*
X155498Y107825D02*
X156498D01*
X155998Y107325D02*
Y108325D01*
X157022Y105285D02*
X158022D01*
X157522Y104785D02*
Y105785D01*
X148772Y109247D02*
X150372D01*
X149572Y108447D02*
Y110047D01*
X151020Y95785D02*
X154220D01*
X152620Y94185D02*
Y97385D01*
X151020Y107215D02*
X154220D01*
X152620Y105615D02*
Y108815D01*
X143280Y103405D02*
X144180D01*
X143730Y102955D02*
Y103855D01*
X143280Y100865D02*
X144180D01*
X143730Y100415D02*
Y101315D01*
X145800Y73310D02*
X146700D01*
X146250Y72860D02*
Y73760D01*
X143260Y74580D02*
X144160D01*
X143710Y74130D02*
Y75030D01*
X145800Y75850D02*
X146700D01*
X146250Y75400D02*
Y76300D01*
X143260Y77120D02*
X144160D01*
X143710Y76670D02*
Y77570D01*
X148752Y70008D02*
X150352D01*
X149552Y69208D02*
Y70808D01*
X145800Y78390D02*
X146700D01*
X146250Y77940D02*
Y78840D01*
X143260Y79660D02*
X144160D01*
X143710Y79210D02*
Y80110D01*
X145800Y80930D02*
X146700D01*
X146250Y80480D02*
Y81380D01*
X143260Y82200D02*
X144160D01*
X143710Y81750D02*
Y82650D01*
X157002Y71430D02*
X158002D01*
X157502Y70930D02*
Y71930D01*
X155478Y73970D02*
X156478D01*
X155978Y73470D02*
Y74470D01*
X155478Y84080D02*
X156478D01*
X155978Y83580D02*
Y84580D01*
X157002Y81540D02*
X158002D01*
X157502Y81040D02*
Y82040D01*
X148752Y85502D02*
X150352D01*
X149552Y84702D02*
Y86302D01*
X151000Y72040D02*
X154200D01*
X152600Y70440D02*
Y73640D01*
X151000Y83470D02*
X154200D01*
X152600Y81870D02*
Y85070D01*
X121175Y116050D02*
X122675D01*
X121925Y115300D02*
Y116800D01*
X118585Y118590D02*
X120185D01*
X119385Y117790D02*
Y119390D01*
X118585Y113510D02*
X120185D01*
X119385Y112710D02*
Y114310D01*
X123665Y113510D02*
X125265D01*
X124465Y112710D02*
Y114310D01*
X123665Y118590D02*
X125265D01*
X124465Y117790D02*
Y119390D01*
X94875Y116175D02*
X96375D01*
X95625Y115425D02*
Y116925D01*
X92285Y118715D02*
X93885D01*
X93085Y117915D02*
Y119515D01*
X92285Y113635D02*
X93885D01*
X93085Y112835D02*
Y114435D01*
X97365Y113635D02*
X98965D01*
X98165Y112835D02*
Y114435D01*
X97365Y118715D02*
X98965D01*
X98165Y117915D02*
Y119515D01*
X30308Y2666D02*
X31324D01*
X30816Y2158D02*
Y3174D01*
X11832Y2666D02*
X12848D01*
X12340Y2158D02*
Y3174D01*
X73512Y47886D02*
X74528D01*
X74020Y47378D02*
Y48394D01*
X55036Y47886D02*
X56052D01*
X55544Y47378D02*
Y48394D01*
X30308Y47886D02*
X31324D01*
X30816Y47378D02*
Y48394D01*
X11832Y47886D02*
X12848D01*
X12340Y47378D02*
Y48394D01*
X73512Y2666D02*
X74528D01*
X74020Y2158D02*
Y3174D01*
X55036Y2666D02*
X56052D01*
X55544Y2158D02*
Y3174D01*
X93150Y99540D02*
X94050D01*
X93600Y99090D02*
Y99990D01*
X93150Y97000D02*
X94050D01*
X93600Y96550D02*
Y97450D01*
X88475Y32000D02*
X89475D01*
X88975Y31500D02*
Y32500D01*
X88475Y22000D02*
X89475D01*
X88975Y21500D02*
Y22500D01*
X-6275Y26956D02*
X-4575D01*
X-5425Y26106D02*
Y27806D01*
X-6275Y22994D02*
X-4575D01*
X-5425Y22144D02*
Y23844D01*
X94925Y62600D02*
X95925D01*
X95425Y62100D02*
Y63100D01*
X94925Y52600D02*
X95925D01*
X95425Y52100D02*
Y53100D01*
X-8238Y116650D02*
X-5062D01*
X-6650Y115062D02*
Y118238D01*
X-8188Y-6600D02*
X-5012D01*
X-6600Y-8188D02*
Y-5012D01*
X158587Y-6700D02*
X161762D01*
X160175Y-8288D02*
Y-5113D01*
X158587Y116675D02*
X161762D01*
X160175Y115088D02*
Y118262D01*
X1588Y3175D02*
X4763D01*
X3175Y1587D02*
Y4762D01*
X1588Y51435D02*
X4763D01*
X3175Y49847D02*
Y53022D01*
X81598Y51435D02*
X84773D01*
X83185Y49847D02*
Y53022D01*
X81598Y3175D02*
X84773D01*
X83185Y1587D02*
Y4762D01*
X144500Y118375D02*
X144700D01*
X144600Y118275D02*
Y118475D01*
X144500Y114375D02*
X144700D01*
X144600Y114275D02*
Y114475D01*
X143500Y112375D02*
X143700D01*
X143600Y112275D02*
Y112475D01*
X144500Y110375D02*
X144700D01*
X144600Y110275D02*
Y110475D01*
X143500Y108375D02*
X143700D01*
X143600Y108275D02*
Y108475D01*
X143500Y-7625D02*
X143700D01*
X143600Y-7725D02*
Y-7525D01*
X141500Y112375D02*
X141700D01*
X141600Y112275D02*
Y112475D01*
X141500Y108375D02*
X141700D01*
X141600Y108275D02*
Y108475D01*
X141500Y104375D02*
X141700D01*
X141600Y104275D02*
Y104475D01*
X141500Y92375D02*
X141700D01*
X141600Y92275D02*
Y92475D01*
X141500Y84375D02*
X141700D01*
X141600Y84275D02*
Y84475D01*
X141500Y-3625D02*
X141700D01*
X141600Y-3725D02*
Y-3525D01*
X141500Y-7625D02*
X141700D01*
X141600Y-7725D02*
Y-7525D01*
X140500Y118375D02*
X140700D01*
X140600Y118275D02*
Y118475D01*
X139500Y116375D02*
X139700D01*
X139600Y116275D02*
Y116475D01*
X140500Y114375D02*
X140700D01*
X140600Y114275D02*
Y114475D01*
X139500Y112375D02*
X139700D01*
X139600Y112275D02*
Y112475D01*
X140500Y110375D02*
X140700D01*
X140600Y110275D02*
Y110475D01*
X139500Y108375D02*
X139700D01*
X139600Y108275D02*
Y108475D01*
X140500Y106375D02*
X140700D01*
X140600Y106275D02*
Y106475D01*
X139500Y104375D02*
X139700D01*
X139600Y104275D02*
Y104475D01*
X140500Y94375D02*
X140700D01*
X140600Y94275D02*
Y94475D01*
X139500Y92375D02*
X139700D01*
X139600Y92275D02*
Y92475D01*
X139500Y88375D02*
X139700D01*
X139600Y88275D02*
Y88475D01*
X140500Y86375D02*
X140700D01*
X140600Y86275D02*
Y86475D01*
X139500Y84375D02*
X139700D01*
X139600Y84275D02*
Y84475D01*
X140500Y82375D02*
X140700D01*
X140600Y82275D02*
Y82475D01*
X139500Y80375D02*
X139700D01*
X139600Y80275D02*
Y80475D01*
X139500Y72375D02*
X139700D01*
X139600Y72275D02*
Y72475D01*
X140500Y70375D02*
X140700D01*
X140600Y70275D02*
Y70475D01*
X139500Y68375D02*
X139700D01*
X139600Y68275D02*
Y68475D01*
X139500Y64375D02*
X139700D01*
X139600Y64275D02*
Y64475D01*
X140500Y62375D02*
X140700D01*
X140600Y62275D02*
Y62475D01*
X139500Y60375D02*
X139700D01*
X139600Y60275D02*
Y60475D01*
X140500Y58375D02*
X140700D01*
X140600Y58275D02*
Y58475D01*
X139500Y48375D02*
X139700D01*
X139600Y48275D02*
Y48475D01*
X139500Y36375D02*
X139700D01*
X139600Y36275D02*
Y36475D01*
X140500Y34375D02*
X140700D01*
X140600Y34275D02*
Y34475D01*
X139500Y24375D02*
X139700D01*
X139600Y24275D02*
Y24475D01*
X140500Y22375D02*
X140700D01*
X140600Y22275D02*
Y22475D01*
X139500Y20375D02*
X139700D01*
X139600Y20275D02*
Y20475D01*
X140500Y14375D02*
X140700D01*
X140600Y14275D02*
Y14475D01*
X139500Y12375D02*
X139700D01*
X139600Y12275D02*
Y12475D01*
X140500Y10375D02*
X140700D01*
X140600Y10275D02*
Y10475D01*
X140500Y2375D02*
X140700D01*
X140600Y2275D02*
Y2475D01*
X139500Y375D02*
X139700D01*
X139600Y275D02*
Y475D01*
X140500Y-1625D02*
X140700D01*
X140600Y-1725D02*
Y-1525D01*
X139500Y-3625D02*
X139700D01*
X139600Y-3725D02*
Y-3525D01*
X139500Y-7625D02*
X139700D01*
X139600Y-7725D02*
Y-7525D01*
X138500Y118375D02*
X138700D01*
X138600Y118275D02*
Y118475D01*
X137500Y116375D02*
X137700D01*
X137600Y116275D02*
Y116475D01*
X138500Y114375D02*
X138700D01*
X138600Y114275D02*
Y114475D01*
X137500Y112375D02*
X137700D01*
X137600Y112275D02*
Y112475D01*
X138500Y110375D02*
X138700D01*
X138600Y110275D02*
Y110475D01*
X137500Y108375D02*
X137700D01*
X137600Y108275D02*
Y108475D01*
X138500Y106375D02*
X138700D01*
X138600Y106275D02*
Y106475D01*
X137500Y104375D02*
X137700D01*
X137600Y104275D02*
Y104475D01*
X137500Y100375D02*
X137700D01*
X137600Y100275D02*
Y100475D01*
X137500Y96375D02*
X137700D01*
X137600Y96275D02*
Y96475D01*
X138500Y94375D02*
X138700D01*
X138600Y94275D02*
Y94475D01*
X137500Y92375D02*
X137700D01*
X137600Y92275D02*
Y92475D01*
X137500Y88375D02*
X137700D01*
X137600Y88275D02*
Y88475D01*
X138500Y82375D02*
X138700D01*
X138600Y82275D02*
Y82475D01*
X137500Y80375D02*
X137700D01*
X137600Y80275D02*
Y80475D01*
X138500Y70375D02*
X138700D01*
X138600Y70275D02*
Y70475D01*
X138500Y66375D02*
X138700D01*
X138600Y66275D02*
Y66475D01*
X138500Y50375D02*
X138700D01*
X138600Y50275D02*
Y50475D01*
X138500Y46375D02*
X138700D01*
X138600Y46275D02*
Y46475D01*
X138500Y42375D02*
X138700D01*
X138600Y42275D02*
Y42475D01*
X138500Y34375D02*
X138700D01*
X138600Y34275D02*
Y34475D01*
X137500Y24375D02*
X137700D01*
X137600Y24275D02*
Y24475D01*
X138500Y22375D02*
X138700D01*
X138600Y22275D02*
Y22475D01*
X137500Y20375D02*
X137700D01*
X137600Y20275D02*
Y20475D01*
X137500Y16375D02*
X137700D01*
X137600Y16275D02*
Y16475D01*
X138500Y14375D02*
X138700D01*
X138600Y14275D02*
Y14475D01*
X137500Y12375D02*
X137700D01*
X137600Y12275D02*
Y12475D01*
X138500Y10375D02*
X138700D01*
X138600Y10275D02*
Y10475D01*
X137500Y8375D02*
X137700D01*
X137600Y8275D02*
Y8475D01*
X137500Y4375D02*
X137700D01*
X137600Y4275D02*
Y4475D01*
X138500Y2375D02*
X138700D01*
X138600Y2275D02*
Y2475D01*
X137500Y375D02*
X137700D01*
X137600Y275D02*
Y475D01*
X138500Y-1625D02*
X138700D01*
X138600Y-1725D02*
Y-1525D01*
X137500Y-3625D02*
X137700D01*
X137600Y-3725D02*
Y-3525D01*
X138500Y-5625D02*
X138700D01*
X138600Y-5725D02*
Y-5525D01*
X137500Y-7625D02*
X137700D01*
X137600Y-7725D02*
Y-7525D01*
X136500Y118375D02*
X136700D01*
X136600Y118275D02*
Y118475D01*
X135500Y116375D02*
X135700D01*
X135600Y116275D02*
Y116475D01*
X136500Y114375D02*
X136700D01*
X136600Y114275D02*
Y114475D01*
X135500Y112375D02*
X135700D01*
X135600Y112275D02*
Y112475D01*
X136500Y110375D02*
X136700D01*
X136600Y110275D02*
Y110475D01*
X135500Y108375D02*
X135700D01*
X135600Y108275D02*
Y108475D01*
X136500Y106375D02*
X136700D01*
X136600Y106275D02*
Y106475D01*
X135500Y104375D02*
X135700D01*
X135600Y104275D02*
Y104475D01*
X135500Y100375D02*
X135700D01*
X135600Y100275D02*
Y100475D01*
X136500Y94375D02*
X136700D01*
X136600Y94275D02*
Y94475D01*
X135500Y92375D02*
X135700D01*
X135600Y92275D02*
Y92475D01*
X136500Y90375D02*
X136700D01*
X136600Y90275D02*
Y90475D01*
X135500Y88375D02*
X135700D01*
X135600Y88275D02*
Y88475D01*
X135500Y84375D02*
X135700D01*
X135600Y84275D02*
Y84475D01*
X136500Y82375D02*
X136700D01*
X136600Y82275D02*
Y82475D01*
X135500Y80375D02*
X135700D01*
X135600Y80275D02*
Y80475D01*
X136500Y62375D02*
X136700D01*
X136600Y62275D02*
Y62475D01*
X136500Y34375D02*
X136700D01*
X136600Y34275D02*
Y34475D01*
X135500Y32375D02*
X135700D01*
X135600Y32275D02*
Y32475D01*
X136500Y30375D02*
X136700D01*
X136600Y30275D02*
Y30475D01*
X135500Y28375D02*
X135700D01*
X135600Y28275D02*
Y28475D01*
X136500Y26375D02*
X136700D01*
X136600Y26275D02*
Y26475D01*
X135500Y24375D02*
X135700D01*
X135600Y24275D02*
Y24475D01*
X135500Y16375D02*
X135700D01*
X135600Y16275D02*
Y16475D01*
X136500Y14375D02*
X136700D01*
X136600Y14275D02*
Y14475D01*
X135500Y12375D02*
X135700D01*
X135600Y12275D02*
Y12475D01*
X136500Y10375D02*
X136700D01*
X136600Y10275D02*
Y10475D01*
X136500Y2375D02*
X136700D01*
X136600Y2275D02*
Y2475D01*
X135500Y375D02*
X135700D01*
X135600Y275D02*
Y475D01*
X136500Y-1625D02*
X136700D01*
X136600Y-1725D02*
Y-1525D01*
X135500Y-3625D02*
X135700D01*
X135600Y-3725D02*
Y-3525D01*
X136500Y-5625D02*
X136700D01*
X136600Y-5725D02*
Y-5525D01*
X135500Y-7625D02*
X135700D01*
X135600Y-7725D02*
Y-7525D01*
X134500Y118375D02*
X134700D01*
X134600Y118275D02*
Y118475D01*
X133500Y116375D02*
X133700D01*
X133600Y116275D02*
Y116475D01*
X134500Y114375D02*
X134700D01*
X134600Y114275D02*
Y114475D01*
X133500Y112375D02*
X133700D01*
X133600Y112275D02*
Y112475D01*
X134500Y110375D02*
X134700D01*
X134600Y110275D02*
Y110475D01*
X133500Y108375D02*
X133700D01*
X133600Y108275D02*
Y108475D01*
X134500Y106375D02*
X134700D01*
X134600Y106275D02*
Y106475D01*
X133500Y104375D02*
X133700D01*
X133600Y104275D02*
Y104475D01*
X133500Y100375D02*
X133700D01*
X133600Y100275D02*
Y100475D01*
X134500Y98375D02*
X134700D01*
X134600Y98275D02*
Y98475D01*
X133500Y96375D02*
X133700D01*
X133600Y96275D02*
Y96475D01*
X133500Y92375D02*
X133700D01*
X133600Y92275D02*
Y92475D01*
X133500Y88375D02*
X133700D01*
X133600Y88275D02*
Y88475D01*
X134500Y74375D02*
X134700D01*
X134600Y74275D02*
Y74475D01*
X134500Y70375D02*
X134700D01*
X134600Y70275D02*
Y70475D01*
X134500Y62375D02*
X134700D01*
X134600Y62275D02*
Y62475D01*
X134500Y50375D02*
X134700D01*
X134600Y50275D02*
Y50475D01*
X133500Y48375D02*
X133700D01*
X133600Y48275D02*
Y48475D01*
X134500Y34375D02*
X134700D01*
X134600Y34275D02*
Y34475D01*
X134500Y30375D02*
X134700D01*
X134600Y30275D02*
Y30475D01*
X134500Y26375D02*
X134700D01*
X134600Y26275D02*
Y26475D01*
X134500Y22375D02*
X134700D01*
X134600Y22275D02*
Y22475D01*
X134500Y14375D02*
X134700D01*
X134600Y14275D02*
Y14475D01*
X134500Y10375D02*
X134700D01*
X134600Y10275D02*
Y10475D01*
X133500Y4375D02*
X133700D01*
X133600Y4275D02*
Y4475D01*
X134500Y2375D02*
X134700D01*
X134600Y2275D02*
Y2475D01*
X133500Y375D02*
X133700D01*
X133600Y275D02*
Y475D01*
X133500Y-3625D02*
X133700D01*
X133600Y-3725D02*
Y-3525D01*
X134500Y-5625D02*
X134700D01*
X134600Y-5725D02*
Y-5525D01*
X133500Y-7625D02*
X133700D01*
X133600Y-7725D02*
Y-7525D01*
X132500Y118375D02*
X132700D01*
X132600Y118275D02*
Y118475D01*
X131500Y116375D02*
X131700D01*
X131600Y116275D02*
Y116475D01*
X132500Y114375D02*
X132700D01*
X132600Y114275D02*
Y114475D01*
X131500Y112375D02*
X131700D01*
X131600Y112275D02*
Y112475D01*
X132500Y110375D02*
X132700D01*
X132600Y110275D02*
Y110475D01*
X131500Y108375D02*
X131700D01*
X131600Y108275D02*
Y108475D01*
X132500Y106375D02*
X132700D01*
X132600Y106275D02*
Y106475D01*
X131500Y104375D02*
X131700D01*
X131600Y104275D02*
Y104475D01*
X132500Y98375D02*
X132700D01*
X132600Y98275D02*
Y98475D01*
X132500Y94375D02*
X132700D01*
X132600Y94275D02*
Y94475D01*
X132500Y90375D02*
X132700D01*
X132600Y90275D02*
Y90475D01*
X131500Y48375D02*
X131700D01*
X131600Y48275D02*
Y48475D01*
X131500Y36375D02*
X131700D01*
X131600Y36275D02*
Y36475D01*
X132500Y34375D02*
X132700D01*
X132600Y34275D02*
Y34475D01*
X131500Y32375D02*
X131700D01*
X131600Y32275D02*
Y32475D01*
X132500Y30375D02*
X132700D01*
X132600Y30275D02*
Y30475D01*
X131500Y28375D02*
X131700D01*
X131600Y28275D02*
Y28475D01*
X131500Y24375D02*
X131700D01*
X131600Y24275D02*
Y24475D01*
X131500Y20375D02*
X131700D01*
X131600Y20275D02*
Y20475D01*
X131500Y16375D02*
X131700D01*
X131600Y16275D02*
Y16475D01*
X132500Y14375D02*
X132700D01*
X132600Y14275D02*
Y14475D01*
X131500Y12375D02*
X131700D01*
X131600Y12275D02*
Y12475D01*
X132500Y10375D02*
X132700D01*
X132600Y10275D02*
Y10475D01*
X131500Y8375D02*
X131700D01*
X131600Y8275D02*
Y8475D01*
X132500Y6375D02*
X132700D01*
X132600Y6275D02*
Y6475D01*
X131500Y4375D02*
X131700D01*
X131600Y4275D02*
Y4475D01*
X132500Y2375D02*
X132700D01*
X132600Y2275D02*
Y2475D01*
X131500Y375D02*
X131700D01*
X131600Y275D02*
Y475D01*
X132500Y-1625D02*
X132700D01*
X132600Y-1725D02*
Y-1525D01*
X131500Y-3625D02*
X131700D01*
X131600Y-3725D02*
Y-3525D01*
X132500Y-5625D02*
X132700D01*
X132600Y-5725D02*
Y-5525D01*
X131500Y-7625D02*
X131700D01*
X131600Y-7725D02*
Y-7525D01*
X130500Y118375D02*
X130700D01*
X130600Y118275D02*
Y118475D01*
X129500Y116375D02*
X129700D01*
X129600Y116275D02*
Y116475D01*
X130500Y114375D02*
X130700D01*
X130600Y114275D02*
Y114475D01*
X129500Y112375D02*
X129700D01*
X129600Y112275D02*
Y112475D01*
X130500Y110375D02*
X130700D01*
X130600Y110275D02*
Y110475D01*
X129500Y108375D02*
X129700D01*
X129600Y108275D02*
Y108475D01*
X130500Y106375D02*
X130700D01*
X130600Y106275D02*
Y106475D01*
X129500Y104375D02*
X129700D01*
X129600Y104275D02*
Y104475D01*
X130500Y102375D02*
X130700D01*
X130600Y102275D02*
Y102475D01*
X129500Y100375D02*
X129700D01*
X129600Y100275D02*
Y100475D01*
X129500Y96375D02*
X129700D01*
X129600Y96275D02*
Y96475D01*
X129500Y92375D02*
X129700D01*
X129600Y92275D02*
Y92475D01*
X129500Y88375D02*
X129700D01*
X129600Y88275D02*
Y88475D01*
X129500Y72375D02*
X129700D01*
X129600Y72275D02*
Y72475D01*
X129500Y68375D02*
X129700D01*
X129600Y68275D02*
Y68475D01*
X129500Y64375D02*
X129700D01*
X129600Y64275D02*
Y64475D01*
X129500Y36375D02*
X129700D01*
X129600Y36275D02*
Y36475D01*
X130500Y34375D02*
X130700D01*
X130600Y34275D02*
Y34475D01*
X129500Y32375D02*
X129700D01*
X129600Y32275D02*
Y32475D01*
X130500Y30375D02*
X130700D01*
X130600Y30275D02*
Y30475D01*
X129500Y28375D02*
X129700D01*
X129600Y28275D02*
Y28475D01*
X130500Y26375D02*
X130700D01*
X130600Y26275D02*
Y26475D01*
X130500Y22375D02*
X130700D01*
X130600Y22275D02*
Y22475D01*
X129500Y20375D02*
X129700D01*
X129600Y20275D02*
Y20475D01*
X129500Y16375D02*
X129700D01*
X129600Y16275D02*
Y16475D01*
X130500Y14375D02*
X130700D01*
X130600Y14275D02*
Y14475D01*
X129500Y12375D02*
X129700D01*
X129600Y12275D02*
Y12475D01*
X130500Y10375D02*
X130700D01*
X130600Y10275D02*
Y10475D01*
X129500Y8375D02*
X129700D01*
X129600Y8275D02*
Y8475D01*
X130500Y6375D02*
X130700D01*
X130600Y6275D02*
Y6475D01*
X129500Y4375D02*
X129700D01*
X129600Y4275D02*
Y4475D01*
X129500Y375D02*
X129700D01*
X129600Y275D02*
Y475D01*
X130500Y-1625D02*
X130700D01*
X130600Y-1725D02*
Y-1525D01*
X129500Y-3625D02*
X129700D01*
X129600Y-3725D02*
Y-3525D01*
X130500Y-5625D02*
X130700D01*
X130600Y-5725D02*
Y-5525D01*
X129500Y-7625D02*
X129700D01*
X129600Y-7725D02*
Y-7525D01*
X128500Y118375D02*
X128700D01*
X128600Y118275D02*
Y118475D01*
X127500Y116375D02*
X127700D01*
X127600Y116275D02*
Y116475D01*
X128500Y114375D02*
X128700D01*
X128600Y114275D02*
Y114475D01*
X127500Y112375D02*
X127700D01*
X127600Y112275D02*
Y112475D01*
X128500Y110375D02*
X128700D01*
X128600Y110275D02*
Y110475D01*
X127500Y108375D02*
X127700D01*
X127600Y108275D02*
Y108475D01*
X128500Y106375D02*
X128700D01*
X128600Y106275D02*
Y106475D01*
X127500Y104375D02*
X127700D01*
X127600Y104275D02*
Y104475D01*
X128500Y102375D02*
X128700D01*
X128600Y102275D02*
Y102475D01*
X127500Y100375D02*
X127700D01*
X127600Y100275D02*
Y100475D01*
X128500Y98375D02*
X128700D01*
X128600Y98275D02*
Y98475D01*
X128500Y94375D02*
X128700D01*
X128600Y94275D02*
Y94475D01*
X128500Y90375D02*
X128700D01*
X128600Y90275D02*
Y90475D01*
X127500Y88375D02*
X127700D01*
X127600Y88275D02*
Y88475D01*
X127500Y84375D02*
X127700D01*
X127600Y84275D02*
Y84475D01*
X128500Y82375D02*
X128700D01*
X128600Y82275D02*
Y82475D01*
X128500Y78375D02*
X128700D01*
X128600Y78275D02*
Y78475D01*
X127500Y60375D02*
X127700D01*
X127600Y60275D02*
Y60475D01*
X128500Y58375D02*
X128700D01*
X128600Y58275D02*
Y58475D01*
X127500Y36375D02*
X127700D01*
X127600Y36275D02*
Y36475D01*
X128500Y34375D02*
X128700D01*
X128600Y34275D02*
Y34475D01*
X127500Y32375D02*
X127700D01*
X127600Y32275D02*
Y32475D01*
X127500Y28375D02*
X127700D01*
X127600Y28275D02*
Y28475D01*
X127500Y24375D02*
X127700D01*
X127600Y24275D02*
Y24475D01*
X128500Y22375D02*
X128700D01*
X128600Y22275D02*
Y22475D01*
X127500Y20375D02*
X127700D01*
X127600Y20275D02*
Y20475D01*
X127500Y16375D02*
X127700D01*
X127600Y16275D02*
Y16475D01*
X128500Y14375D02*
X128700D01*
X128600Y14275D02*
Y14475D01*
X127500Y12375D02*
X127700D01*
X127600Y12275D02*
Y12475D01*
X128500Y10375D02*
X128700D01*
X128600Y10275D02*
Y10475D01*
X127500Y8375D02*
X127700D01*
X127600Y8275D02*
Y8475D01*
X128500Y6375D02*
X128700D01*
X128600Y6275D02*
Y6475D01*
X127500Y4375D02*
X127700D01*
X127600Y4275D02*
Y4475D01*
X128500Y2375D02*
X128700D01*
X128600Y2275D02*
Y2475D01*
X127500Y375D02*
X127700D01*
X127600Y275D02*
Y475D01*
X128500Y-1625D02*
X128700D01*
X128600Y-1725D02*
Y-1525D01*
X127500Y-3625D02*
X127700D01*
X127600Y-3725D02*
Y-3525D01*
X125500Y116375D02*
X125700D01*
X125600Y116275D02*
Y116475D01*
X126500Y110375D02*
X126700D01*
X126600Y110275D02*
Y110475D01*
X125500Y108375D02*
X125700D01*
X125600Y108275D02*
Y108475D01*
X126500Y106375D02*
X126700D01*
X126600Y106275D02*
Y106475D01*
X125500Y104375D02*
X125700D01*
X125600Y104275D02*
Y104475D01*
X126500Y102375D02*
X126700D01*
X126600Y102275D02*
Y102475D01*
X125500Y100375D02*
X125700D01*
X125600Y100275D02*
Y100475D01*
X125500Y88375D02*
X125700D01*
X125600Y88275D02*
Y88475D01*
X125500Y84375D02*
X125700D01*
X125600Y84275D02*
Y84475D01*
X126500Y82375D02*
X126700D01*
X126600Y82275D02*
Y82475D01*
X125500Y80375D02*
X125700D01*
X125600Y80275D02*
Y80475D01*
X126500Y78375D02*
X126700D01*
X126600Y78275D02*
Y78475D01*
X125500Y76375D02*
X125700D01*
X125600Y76275D02*
Y76475D01*
X126500Y74375D02*
X126700D01*
X126600Y74275D02*
Y74475D01*
X126500Y70375D02*
X126700D01*
X126600Y70275D02*
Y70475D01*
X126500Y34375D02*
X126700D01*
X126600Y34275D02*
Y34475D01*
X125500Y32375D02*
X125700D01*
X125600Y32275D02*
Y32475D01*
X126500Y26375D02*
X126700D01*
X126600Y26275D02*
Y26475D01*
X126500Y22375D02*
X126700D01*
X126600Y22275D02*
Y22475D01*
X126500Y14375D02*
X126700D01*
X126600Y14275D02*
Y14475D01*
X126500Y10375D02*
X126700D01*
X126600Y10275D02*
Y10475D01*
X126500Y2375D02*
X126700D01*
X126600Y2275D02*
Y2475D01*
X126500Y-1625D02*
X126700D01*
X126600Y-1725D02*
Y-1525D01*
X126500Y-5625D02*
X126700D01*
X126600Y-5725D02*
Y-5525D01*
X125500Y-7625D02*
X125700D01*
X125600Y-7725D02*
Y-7525D01*
X124500Y110375D02*
X124700D01*
X124600Y110275D02*
Y110475D01*
X123500Y108375D02*
X123700D01*
X123600Y108275D02*
Y108475D01*
X124500Y106375D02*
X124700D01*
X124600Y106275D02*
Y106475D01*
X123500Y104375D02*
X123700D01*
X123600Y104275D02*
Y104475D01*
X124500Y102375D02*
X124700D01*
X124600Y102275D02*
Y102475D01*
X123500Y100375D02*
X123700D01*
X123600Y100275D02*
Y100475D01*
X123500Y88375D02*
X123700D01*
X123600Y88275D02*
Y88475D01*
X123500Y84375D02*
X123700D01*
X123600Y84275D02*
Y84475D01*
X124500Y82375D02*
X124700D01*
X124600Y82275D02*
Y82475D01*
X123500Y80375D02*
X123700D01*
X123600Y80275D02*
Y80475D01*
X124500Y78375D02*
X124700D01*
X124600Y78275D02*
Y78475D01*
X123500Y72375D02*
X123700D01*
X123600Y72275D02*
Y72475D01*
X124500Y70375D02*
X124700D01*
X124600Y70275D02*
Y70475D01*
X124500Y46375D02*
X124700D01*
X124600Y46275D02*
Y46475D01*
X123500Y32375D02*
X123700D01*
X123600Y32275D02*
Y32475D01*
X124500Y26375D02*
X124700D01*
X124600Y26275D02*
Y26475D01*
X123500Y24375D02*
X123700D01*
X123600Y24275D02*
Y24475D01*
X124500Y22375D02*
X124700D01*
X124600Y22275D02*
Y22475D01*
X123500Y20375D02*
X123700D01*
X123600Y20275D02*
Y20475D01*
X123500Y16375D02*
X123700D01*
X123600Y16275D02*
Y16475D01*
X124500Y14375D02*
X124700D01*
X124600Y14275D02*
Y14475D01*
X123500Y12375D02*
X123700D01*
X123600Y12275D02*
Y12475D01*
X124500Y10375D02*
X124700D01*
X124600Y10275D02*
Y10475D01*
X123500Y8375D02*
X123700D01*
X123600Y8275D02*
Y8475D01*
X124500Y6375D02*
X124700D01*
X124600Y6275D02*
Y6475D01*
X123500Y4375D02*
X123700D01*
X123600Y4275D02*
Y4475D01*
X124500Y2375D02*
X124700D01*
X124600Y2275D02*
Y2475D01*
X123500Y375D02*
X123700D01*
X123600Y275D02*
Y475D01*
X124500Y-1625D02*
X124700D01*
X124600Y-1725D02*
Y-1525D01*
X123500Y-3625D02*
X123700D01*
X123600Y-3725D02*
Y-3525D01*
X124500Y-5625D02*
X124700D01*
X124600Y-5725D02*
Y-5525D01*
X123500Y-7625D02*
X123700D01*
X123600Y-7725D02*
Y-7525D01*
X121500Y112375D02*
X121700D01*
X121600Y112275D02*
Y112475D01*
X122500Y110375D02*
X122700D01*
X122600Y110275D02*
Y110475D01*
X121500Y108375D02*
X121700D01*
X121600Y108275D02*
Y108475D01*
X122500Y106375D02*
X122700D01*
X122600Y106275D02*
Y106475D01*
X121500Y104375D02*
X121700D01*
X121600Y104275D02*
Y104475D01*
X122500Y102375D02*
X122700D01*
X122600Y102275D02*
Y102475D01*
X121500Y100375D02*
X121700D01*
X121600Y100275D02*
Y100475D01*
X121500Y88375D02*
X121700D01*
X121600Y88275D02*
Y88475D01*
X121500Y84375D02*
X121700D01*
X121600Y84275D02*
Y84475D01*
X122500Y82375D02*
X122700D01*
X122600Y82275D02*
Y82475D01*
X121500Y80375D02*
X121700D01*
X121600Y80275D02*
Y80475D01*
X121500Y72375D02*
X121700D01*
X121600Y72275D02*
Y72475D01*
X121500Y60375D02*
X121700D01*
X121600Y60275D02*
Y60475D01*
X121500Y56375D02*
X121700D01*
X121600Y56275D02*
Y56475D01*
X122500Y50375D02*
X122700D01*
X122600Y50275D02*
Y50475D01*
X121500Y48375D02*
X121700D01*
X121600Y48275D02*
Y48475D01*
X121500Y40375D02*
X121700D01*
X121600Y40275D02*
Y40475D01*
X122500Y30375D02*
X122700D01*
X122600Y30275D02*
Y30475D01*
X121500Y28375D02*
X121700D01*
X121600Y28275D02*
Y28475D01*
X122500Y26375D02*
X122700D01*
X122600Y26275D02*
Y26475D01*
X121500Y24375D02*
X121700D01*
X121600Y24275D02*
Y24475D01*
X122500Y22375D02*
X122700D01*
X122600Y22275D02*
Y22475D01*
X121500Y20375D02*
X121700D01*
X121600Y20275D02*
Y20475D01*
X121500Y16375D02*
X121700D01*
X121600Y16275D02*
Y16475D01*
X122500Y14375D02*
X122700D01*
X122600Y14275D02*
Y14475D01*
X121500Y12375D02*
X121700D01*
X121600Y12275D02*
Y12475D01*
X121500Y8375D02*
X121700D01*
X121600Y8275D02*
Y8475D01*
X122500Y6375D02*
X122700D01*
X122600Y6275D02*
Y6475D01*
X121500Y4375D02*
X121700D01*
X121600Y4275D02*
Y4475D01*
X122500Y2375D02*
X122700D01*
X122600Y2275D02*
Y2475D01*
X121500Y375D02*
X121700D01*
X121600Y275D02*
Y475D01*
X122500Y-1625D02*
X122700D01*
X122600Y-1725D02*
Y-1525D01*
X121500Y-3625D02*
X121700D01*
X121600Y-3725D02*
Y-3525D01*
X122500Y-5625D02*
X122700D01*
X122600Y-5725D02*
Y-5525D01*
X120500Y110375D02*
X120700D01*
X120600Y110275D02*
Y110475D01*
X120500Y106375D02*
X120700D01*
X120600Y106275D02*
Y106475D01*
X120500Y102375D02*
X120700D01*
X120600Y102275D02*
Y102475D01*
X119500Y88375D02*
X119700D01*
X119600Y88275D02*
Y88475D01*
X119500Y84375D02*
X119700D01*
X119600Y84275D02*
Y84475D01*
X120500Y82375D02*
X120700D01*
X120600Y82275D02*
Y82475D01*
X119500Y80375D02*
X119700D01*
X119600Y80275D02*
Y80475D01*
X120500Y78375D02*
X120700D01*
X120600Y78275D02*
Y78475D01*
X120500Y74375D02*
X120700D01*
X120600Y74275D02*
Y74475D01*
X119500Y64375D02*
X119700D01*
X119600Y64275D02*
Y64475D01*
X120500Y62375D02*
X120700D01*
X120600Y62275D02*
Y62475D01*
X120500Y50375D02*
X120700D01*
X120600Y50275D02*
Y50475D01*
X119500Y36375D02*
X119700D01*
X119600Y36275D02*
Y36475D01*
X120500Y30375D02*
X120700D01*
X120600Y30275D02*
Y30475D01*
X119500Y28375D02*
X119700D01*
X119600Y28275D02*
Y28475D01*
X120500Y26375D02*
X120700D01*
X120600Y26275D02*
Y26475D01*
X119500Y24375D02*
X119700D01*
X119600Y24275D02*
Y24475D01*
X120500Y22375D02*
X120700D01*
X120600Y22275D02*
Y22475D01*
X119500Y20375D02*
X119700D01*
X119600Y20275D02*
Y20475D01*
X119500Y16375D02*
X119700D01*
X119600Y16275D02*
Y16475D01*
X120500Y14375D02*
X120700D01*
X120600Y14275D02*
Y14475D01*
X119500Y12375D02*
X119700D01*
X119600Y12275D02*
Y12475D01*
X120500Y10375D02*
X120700D01*
X120600Y10275D02*
Y10475D01*
X119500Y8375D02*
X119700D01*
X119600Y8275D02*
Y8475D01*
X120500Y6375D02*
X120700D01*
X120600Y6275D02*
Y6475D01*
X119500Y4375D02*
X119700D01*
X119600Y4275D02*
Y4475D01*
X120500Y2375D02*
X120700D01*
X120600Y2275D02*
Y2475D01*
X119500Y375D02*
X119700D01*
X119600Y275D02*
Y475D01*
X120500Y-1625D02*
X120700D01*
X120600Y-1725D02*
Y-1525D01*
X119500Y-3625D02*
X119700D01*
X119600Y-3725D02*
Y-3525D01*
X118500Y110375D02*
X118700D01*
X118600Y110275D02*
Y110475D01*
X117500Y92375D02*
X117700D01*
X117600Y92275D02*
Y92475D01*
X117500Y88375D02*
X117700D01*
X117600Y88275D02*
Y88475D01*
X117500Y84375D02*
X117700D01*
X117600Y84275D02*
Y84475D01*
X118500Y82375D02*
X118700D01*
X118600Y82275D02*
Y82475D01*
X117500Y80375D02*
X117700D01*
X117600Y80275D02*
Y80475D01*
X118500Y78375D02*
X118700D01*
X118600Y78275D02*
Y78475D01*
X117500Y76375D02*
X117700D01*
X117600Y76275D02*
Y76475D01*
X118500Y74375D02*
X118700D01*
X118600Y74275D02*
Y74475D01*
X117500Y72375D02*
X117700D01*
X117600Y72275D02*
Y72475D01*
X118500Y62375D02*
X118700D01*
X118600Y62275D02*
Y62475D01*
X117500Y60375D02*
X117700D01*
X117600Y60275D02*
Y60475D01*
X118500Y58375D02*
X118700D01*
X118600Y58275D02*
Y58475D01*
X118500Y50375D02*
X118700D01*
X118600Y50275D02*
Y50475D01*
X118500Y34375D02*
X118700D01*
X118600Y34275D02*
Y34475D01*
X118500Y30375D02*
X118700D01*
X118600Y30275D02*
Y30475D01*
X118500Y26375D02*
X118700D01*
X118600Y26275D02*
Y26475D01*
X118500Y22375D02*
X118700D01*
X118600Y22275D02*
Y22475D01*
X117500Y20375D02*
X117700D01*
X117600Y20275D02*
Y20475D01*
X117500Y16375D02*
X117700D01*
X117600Y16275D02*
Y16475D01*
X117500Y12375D02*
X117700D01*
X117600Y12275D02*
Y12475D01*
X118500Y10375D02*
X118700D01*
X118600Y10275D02*
Y10475D01*
X117500Y8375D02*
X117700D01*
X117600Y8275D02*
Y8475D01*
X118500Y6375D02*
X118700D01*
X118600Y6275D02*
Y6475D01*
X117500Y4375D02*
X117700D01*
X117600Y4275D02*
Y4475D01*
X118500Y2375D02*
X118700D01*
X118600Y2275D02*
Y2475D01*
X117500Y-3625D02*
X117700D01*
X117600Y-3725D02*
Y-3525D01*
X117500Y-7625D02*
X117700D01*
X117600Y-7725D02*
Y-7525D01*
X116500Y118375D02*
X116700D01*
X116600Y118275D02*
Y118475D01*
X116500Y102375D02*
X116700D01*
X116600Y102275D02*
Y102475D01*
X116500Y90375D02*
X116700D01*
X116600Y90275D02*
Y90475D01*
X115500Y88375D02*
X115700D01*
X115600Y88275D02*
Y88475D01*
X116500Y82375D02*
X116700D01*
X116600Y82275D02*
Y82475D01*
X115500Y80375D02*
X115700D01*
X115600Y80275D02*
Y80475D01*
X116500Y78375D02*
X116700D01*
X116600Y78275D02*
Y78475D01*
X115500Y76375D02*
X115700D01*
X115600Y76275D02*
Y76475D01*
X115500Y60375D02*
X115700D01*
X115600Y60275D02*
Y60475D01*
X116500Y54375D02*
X116700D01*
X116600Y54275D02*
Y54475D01*
X116500Y26375D02*
X116700D01*
X116600Y26275D02*
Y26475D01*
X116500Y18375D02*
X116700D01*
X116600Y18275D02*
Y18475D01*
X116500Y14375D02*
X116700D01*
X116600Y14275D02*
Y14475D01*
X116500Y10375D02*
X116700D01*
X116600Y10275D02*
Y10475D01*
X116500Y6375D02*
X116700D01*
X116600Y6275D02*
Y6475D01*
X115500Y375D02*
X115700D01*
X115600Y275D02*
Y475D01*
X116500Y-1625D02*
X116700D01*
X116600Y-1725D02*
Y-1525D01*
X115500Y-3625D02*
X115700D01*
X115600Y-3725D02*
Y-3525D01*
X116500Y-5625D02*
X116700D01*
X116600Y-5725D02*
Y-5525D01*
X115500Y-7625D02*
X115700D01*
X115600Y-7725D02*
Y-7525D01*
X114500Y118375D02*
X114700D01*
X114600Y118275D02*
Y118475D01*
X114500Y86375D02*
X114700D01*
X114600Y86275D02*
Y86475D01*
X113500Y84375D02*
X113700D01*
X113600Y84275D02*
Y84475D01*
X114500Y82375D02*
X114700D01*
X114600Y82275D02*
Y82475D01*
X113500Y80375D02*
X113700D01*
X113600Y80275D02*
Y80475D01*
X114500Y78375D02*
X114700D01*
X114600Y78275D02*
Y78475D01*
X113500Y76375D02*
X113700D01*
X113600Y76275D02*
Y76475D01*
X114500Y58375D02*
X114700D01*
X114600Y58275D02*
Y58475D01*
X113500Y56375D02*
X113700D01*
X113600Y56275D02*
Y56475D01*
X114500Y54375D02*
X114700D01*
X114600Y54275D02*
Y54475D01*
X113500Y48375D02*
X113700D01*
X113600Y48275D02*
Y48475D01*
X113500Y16375D02*
X113700D01*
X113600Y16275D02*
Y16475D01*
X114500Y14375D02*
X114700D01*
X114600Y14275D02*
Y14475D01*
X113500Y12375D02*
X113700D01*
X113600Y12275D02*
Y12475D01*
X114500Y10375D02*
X114700D01*
X114600Y10275D02*
Y10475D01*
X113500Y8375D02*
X113700D01*
X113600Y8275D02*
Y8475D01*
X114500Y6375D02*
X114700D01*
X114600Y6275D02*
Y6475D01*
X113500Y4375D02*
X113700D01*
X113600Y4275D02*
Y4475D01*
X114500Y2375D02*
X114700D01*
X114600Y2275D02*
Y2475D01*
X113500Y375D02*
X113700D01*
X113600Y275D02*
Y475D01*
X114500Y-1625D02*
X114700D01*
X114600Y-1725D02*
Y-1525D01*
X113500Y-3625D02*
X113700D01*
X113600Y-3725D02*
Y-3525D01*
X114500Y-5625D02*
X114700D01*
X114600Y-5725D02*
Y-5525D01*
X112500Y118375D02*
X112700D01*
X112600Y118275D02*
Y118475D01*
X111500Y116375D02*
X111700D01*
X111600Y116275D02*
Y116475D01*
X112500Y86375D02*
X112700D01*
X112600Y86275D02*
Y86475D01*
X111500Y84375D02*
X111700D01*
X111600Y84275D02*
Y84475D01*
X111500Y80375D02*
X111700D01*
X111600Y80275D02*
Y80475D01*
X111500Y76375D02*
X111700D01*
X111600Y76275D02*
Y76475D01*
X111500Y60375D02*
X111700D01*
X111600Y60275D02*
Y60475D01*
X111500Y56375D02*
X111700D01*
X111600Y56275D02*
Y56475D01*
X111500Y32375D02*
X111700D01*
X111600Y32275D02*
Y32475D01*
X111500Y28375D02*
X111700D01*
X111600Y28275D02*
Y28475D01*
X112500Y22375D02*
X112700D01*
X112600Y22275D02*
Y22475D01*
X111500Y20375D02*
X111700D01*
X111600Y20275D02*
Y20475D01*
X111500Y16375D02*
X111700D01*
X111600Y16275D02*
Y16475D01*
X112500Y14375D02*
X112700D01*
X112600Y14275D02*
Y14475D01*
X111500Y12375D02*
X111700D01*
X111600Y12275D02*
Y12475D01*
X112500Y10375D02*
X112700D01*
X112600Y10275D02*
Y10475D01*
X111500Y8375D02*
X111700D01*
X111600Y8275D02*
Y8475D01*
X112500Y6375D02*
X112700D01*
X112600Y6275D02*
Y6475D01*
X111500Y4375D02*
X111700D01*
X111600Y4275D02*
Y4475D01*
X112500Y2375D02*
X112700D01*
X112600Y2275D02*
Y2475D01*
X111500Y375D02*
X111700D01*
X111600Y275D02*
Y475D01*
X112500Y-1625D02*
X112700D01*
X112600Y-1725D02*
Y-1525D01*
X111500Y-3625D02*
X111700D01*
X111600Y-3725D02*
Y-3525D01*
X112500Y-5625D02*
X112700D01*
X112600Y-5725D02*
Y-5525D01*
X111500Y-7625D02*
X111700D01*
X111600Y-7725D02*
Y-7525D01*
X110500Y118375D02*
X110700D01*
X110600Y118275D02*
Y118475D01*
X109500Y116375D02*
X109700D01*
X109600Y116275D02*
Y116475D01*
X110500Y114375D02*
X110700D01*
X110600Y114275D02*
Y114475D01*
X110500Y86375D02*
X110700D01*
X110600Y86275D02*
Y86475D01*
X109500Y84375D02*
X109700D01*
X109600Y84275D02*
Y84475D01*
X110500Y82375D02*
X110700D01*
X110600Y82275D02*
Y82475D01*
X109500Y80375D02*
X109700D01*
X109600Y80275D02*
Y80475D01*
X110500Y78375D02*
X110700D01*
X110600Y78275D02*
Y78475D01*
X109500Y76375D02*
X109700D01*
X109600Y76275D02*
Y76475D01*
X110500Y66375D02*
X110700D01*
X110600Y66275D02*
Y66475D01*
X110500Y58375D02*
X110700D01*
X110600Y58275D02*
Y58475D01*
X110500Y18375D02*
X110700D01*
X110600Y18275D02*
Y18475D01*
X110500Y14375D02*
X110700D01*
X110600Y14275D02*
Y14475D01*
X110500Y10375D02*
X110700D01*
X110600Y10275D02*
Y10475D01*
X110500Y6375D02*
X110700D01*
X110600Y6275D02*
Y6475D01*
X110500Y2375D02*
X110700D01*
X110600Y2275D02*
Y2475D01*
X110500Y-1625D02*
X110700D01*
X110600Y-1725D02*
Y-1525D01*
X109500Y-3625D02*
X109700D01*
X109600Y-3725D02*
Y-3525D01*
X109500Y-7625D02*
X109700D01*
X109600Y-7725D02*
Y-7525D01*
X108500Y118375D02*
X108700D01*
X108600Y118275D02*
Y118475D01*
X107500Y116375D02*
X107700D01*
X107600Y116275D02*
Y116475D01*
X108500Y94375D02*
X108700D01*
X108600Y94275D02*
Y94475D01*
X108500Y90375D02*
X108700D01*
X108600Y90275D02*
Y90475D01*
X107500Y84375D02*
X107700D01*
X107600Y84275D02*
Y84475D01*
X108500Y82375D02*
X108700D01*
X108600Y82275D02*
Y82475D01*
X107500Y80375D02*
X107700D01*
X107600Y80275D02*
Y80475D01*
X108500Y78375D02*
X108700D01*
X108600Y78275D02*
Y78475D01*
X107500Y76375D02*
X107700D01*
X107600Y76275D02*
Y76475D01*
X107500Y44375D02*
X107700D01*
X107600Y44275D02*
Y44475D01*
X108500Y42375D02*
X108700D01*
X108600Y42275D02*
Y42475D01*
X107500Y40375D02*
X107700D01*
X107600Y40275D02*
Y40475D01*
X107500Y36375D02*
X107700D01*
X107600Y36275D02*
Y36475D01*
X107500Y32375D02*
X107700D01*
X107600Y32275D02*
Y32475D01*
X107500Y28375D02*
X107700D01*
X107600Y28275D02*
Y28475D01*
X107500Y24375D02*
X107700D01*
X107600Y24275D02*
Y24475D01*
X107500Y16375D02*
X107700D01*
X107600Y16275D02*
Y16475D01*
X107500Y12375D02*
X107700D01*
X107600Y12275D02*
Y12475D01*
X108500Y10375D02*
X108700D01*
X108600Y10275D02*
Y10475D01*
X107500Y8375D02*
X107700D01*
X107600Y8275D02*
Y8475D01*
X108500Y6375D02*
X108700D01*
X108600Y6275D02*
Y6475D01*
X107500Y4375D02*
X107700D01*
X107600Y4275D02*
Y4475D01*
X108500Y2375D02*
X108700D01*
X108600Y2275D02*
Y2475D01*
X107500Y375D02*
X107700D01*
X107600Y275D02*
Y475D01*
X108500Y-1625D02*
X108700D01*
X108600Y-1725D02*
Y-1525D01*
X107500Y-3625D02*
X107700D01*
X107600Y-3725D02*
Y-3525D01*
X108500Y-5625D02*
X108700D01*
X108600Y-5725D02*
Y-5525D01*
X106500Y118375D02*
X106700D01*
X106600Y118275D02*
Y118475D01*
X106500Y90375D02*
X106700D01*
X106600Y90275D02*
Y90475D01*
X106500Y78375D02*
X106700D01*
X106600Y78275D02*
Y78475D01*
X106500Y74375D02*
X106700D01*
X106600Y74275D02*
Y74475D01*
X106500Y58375D02*
X106700D01*
X106600Y58275D02*
Y58475D01*
X106500Y50375D02*
X106700D01*
X106600Y50275D02*
Y50475D01*
X106500Y46375D02*
X106700D01*
X106600Y46275D02*
Y46475D01*
X106500Y42375D02*
X106700D01*
X106600Y42275D02*
Y42475D01*
X106500Y38375D02*
X106700D01*
X106600Y38275D02*
Y38475D01*
X106500Y34375D02*
X106700D01*
X106600Y34275D02*
Y34475D01*
X106500Y30375D02*
X106700D01*
X106600Y30275D02*
Y30475D01*
X106500Y26375D02*
X106700D01*
X106600Y26275D02*
Y26475D01*
X106500Y14375D02*
X106700D01*
X106600Y14275D02*
Y14475D01*
X106500Y10375D02*
X106700D01*
X106600Y10275D02*
Y10475D01*
X106500Y6375D02*
X106700D01*
X106600Y6275D02*
Y6475D01*
X106500Y2375D02*
X106700D01*
X106600Y2275D02*
Y2475D01*
X106500Y-1625D02*
X106700D01*
X106600Y-1725D02*
Y-1525D01*
X103500Y92375D02*
X103700D01*
X103600Y92275D02*
Y92475D01*
X104500Y90375D02*
X104700D01*
X104600Y90275D02*
Y90475D01*
X103500Y8375D02*
X103700D01*
X103600Y8275D02*
Y8475D01*
X104500Y6375D02*
X104700D01*
X104600Y6275D02*
Y6475D01*
X103500Y4375D02*
X103700D01*
X103600Y4275D02*
Y4475D01*
X104500Y2375D02*
X104700D01*
X104600Y2275D02*
Y2475D01*
X103500Y375D02*
X103700D01*
X103600Y275D02*
Y475D01*
X104500Y-1625D02*
X104700D01*
X104600Y-1725D02*
Y-1525D01*
X103500Y-3625D02*
X103700D01*
X103600Y-3725D02*
Y-3525D01*
X104500Y-5625D02*
X104700D01*
X104600Y-5725D02*
Y-5525D01*
X103500Y-7625D02*
X103700D01*
X103600Y-7725D02*
Y-7525D01*
X102500Y118375D02*
X102700D01*
X102600Y118275D02*
Y118475D01*
X101500Y112375D02*
X101700D01*
X101600Y112275D02*
Y112475D01*
X101500Y100375D02*
X101700D01*
X101600Y100275D02*
Y100475D01*
X102500Y90375D02*
X102700D01*
X102600Y90275D02*
Y90475D01*
X102500Y86375D02*
X102700D01*
X102600Y86275D02*
Y86475D01*
X102500Y82375D02*
X102700D01*
X102600Y82275D02*
Y82475D01*
X102500Y78375D02*
X102700D01*
X102600Y78275D02*
Y78475D01*
X102500Y74375D02*
X102700D01*
X102600Y74275D02*
Y74475D01*
X102500Y6375D02*
X102700D01*
X102600Y6275D02*
Y6475D01*
X101500Y4375D02*
X101700D01*
X101600Y4275D02*
Y4475D01*
X102500Y2375D02*
X102700D01*
X102600Y2275D02*
Y2475D01*
X101500Y375D02*
X101700D01*
X101600Y275D02*
Y475D01*
X102500Y-1625D02*
X102700D01*
X102600Y-1725D02*
Y-1525D01*
X101500Y-3625D02*
X101700D01*
X101600Y-3725D02*
Y-3525D01*
X102500Y-5625D02*
X102700D01*
X102600Y-5725D02*
Y-5525D01*
X101500Y-7625D02*
X101700D01*
X101600Y-7725D02*
Y-7525D01*
X100500Y118375D02*
X100700D01*
X100600Y118275D02*
Y118475D01*
X100500Y110375D02*
X100700D01*
X100600Y110275D02*
Y110475D01*
X99500Y100375D02*
X99700D01*
X99600Y100275D02*
Y100475D01*
X99500Y4375D02*
X99700D01*
X99600Y4275D02*
Y4475D01*
X100500Y2375D02*
X100700D01*
X100600Y2275D02*
Y2475D01*
X99500Y375D02*
X99700D01*
X99600Y275D02*
Y475D01*
X100500Y-1625D02*
X100700D01*
X100600Y-1725D02*
Y-1525D01*
X99500Y-3625D02*
X99700D01*
X99600Y-3725D02*
Y-3525D01*
X100500Y-5625D02*
X100700D01*
X100600Y-5725D02*
Y-5525D01*
X99500Y-7625D02*
X99700D01*
X99600Y-7725D02*
Y-7525D01*
X98500Y110375D02*
X98700D01*
X98600Y110275D02*
Y110475D01*
X97500Y100375D02*
X97700D01*
X97600Y100275D02*
Y100475D01*
X98500Y94375D02*
X98700D01*
X98600Y94275D02*
Y94475D01*
X97500Y92375D02*
X97700D01*
X97600Y92275D02*
Y92475D01*
X97500Y76375D02*
X97700D01*
X97600Y76275D02*
Y76475D01*
X97500Y72375D02*
X97700D01*
X97600Y72275D02*
Y72475D01*
X98500Y6375D02*
X98700D01*
X98600Y6275D02*
Y6475D01*
X98500Y2375D02*
X98700D01*
X98600Y2275D02*
Y2475D01*
X97500Y375D02*
X97700D01*
X97600Y275D02*
Y475D01*
X98500Y-1625D02*
X98700D01*
X98600Y-1725D02*
Y-1525D01*
X97500Y-3625D02*
X97700D01*
X97600Y-3725D02*
Y-3525D01*
X98500Y-5625D02*
X98700D01*
X98600Y-5725D02*
Y-5525D01*
X97500Y-7625D02*
X97700D01*
X97600Y-7725D02*
Y-7525D01*
X95500Y112375D02*
X95700D01*
X95600Y112275D02*
Y112475D01*
X95500Y108375D02*
X95700D01*
X95600Y108275D02*
Y108475D01*
X95500Y100375D02*
X95700D01*
X95600Y100275D02*
Y100475D01*
X95500Y92375D02*
X95700D01*
X95600Y92275D02*
Y92475D01*
X95500Y84375D02*
X95700D01*
X95600Y84275D02*
Y84475D01*
X95500Y76375D02*
X95700D01*
X95600Y76275D02*
Y76475D01*
X95500Y72375D02*
X95700D01*
X95600Y72275D02*
Y72475D01*
X95500Y68375D02*
X95700D01*
X95600Y68275D02*
Y68475D01*
X95500Y32375D02*
X95700D01*
X95600Y32275D02*
Y32475D01*
X95500Y28375D02*
X95700D01*
X95600Y28275D02*
Y28475D01*
X95500Y24375D02*
X95700D01*
X95600Y24275D02*
Y24475D01*
X96500Y6375D02*
X96700D01*
X96600Y6275D02*
Y6475D01*
X95500Y4375D02*
X95700D01*
X95600Y4275D02*
Y4475D01*
X95500Y375D02*
X95700D01*
X95600Y275D02*
Y475D01*
X96500Y-1625D02*
X96700D01*
X96600Y-1725D02*
Y-1525D01*
X95500Y-3625D02*
X95700D01*
X95600Y-3725D02*
Y-3525D01*
X96500Y-5625D02*
X96700D01*
X96600Y-5725D02*
Y-5525D01*
X95500Y-7625D02*
X95700D01*
X95600Y-7725D02*
Y-7525D01*
X94500Y110375D02*
X94700D01*
X94600Y110275D02*
Y110475D01*
X93500Y108375D02*
X93700D01*
X93600Y108275D02*
Y108475D01*
X94500Y106375D02*
X94700D01*
X94600Y106275D02*
Y106475D01*
X94500Y90375D02*
X94700D01*
X94600Y90275D02*
Y90475D01*
X94500Y82375D02*
X94700D01*
X94600Y82275D02*
Y82475D01*
X94500Y78375D02*
X94700D01*
X94600Y78275D02*
Y78475D01*
X94500Y74375D02*
X94700D01*
X94600Y74275D02*
Y74475D01*
X94500Y70375D02*
X94700D01*
X94600Y70275D02*
Y70475D01*
X94500Y66375D02*
X94700D01*
X94600Y66275D02*
Y66475D01*
X94500Y50375D02*
X94700D01*
X94600Y50275D02*
Y50475D01*
X93500Y16375D02*
X93700D01*
X93600Y16275D02*
Y16475D01*
X94500Y6375D02*
X94700D01*
X94600Y6275D02*
Y6475D01*
X94500Y2375D02*
X94700D01*
X94600Y2275D02*
Y2475D01*
X94500Y-1625D02*
X94700D01*
X94600Y-1725D02*
Y-1525D01*
X93500Y-3625D02*
X93700D01*
X93600Y-3725D02*
Y-3525D01*
X94500Y-5625D02*
X94700D01*
X94600Y-5725D02*
Y-5525D01*
X93500Y-7625D02*
X93700D01*
X93600Y-7725D02*
Y-7525D01*
X91500Y116375D02*
X91700D01*
X91600Y116275D02*
Y116475D01*
X91500Y100375D02*
X91700D01*
X91600Y100275D02*
Y100475D01*
X92500Y98375D02*
X92700D01*
X92600Y98275D02*
Y98475D01*
X91500Y96375D02*
X91700D01*
X91600Y96275D02*
Y96475D01*
X92500Y94375D02*
X92700D01*
X92600Y94275D02*
Y94475D01*
X91500Y92375D02*
X91700D01*
X91600Y92275D02*
Y92475D01*
X92500Y90375D02*
X92700D01*
X92600Y90275D02*
Y90475D01*
X91500Y88375D02*
X91700D01*
X91600Y88275D02*
Y88475D01*
X91500Y84375D02*
X91700D01*
X91600Y84275D02*
Y84475D01*
X92500Y82375D02*
X92700D01*
X92600Y82275D02*
Y82475D01*
X91500Y80375D02*
X91700D01*
X91600Y80275D02*
Y80475D01*
X92500Y78375D02*
X92700D01*
X92600Y78275D02*
Y78475D01*
X91500Y76375D02*
X91700D01*
X91600Y76275D02*
Y76475D01*
X92500Y74375D02*
X92700D01*
X92600Y74275D02*
Y74475D01*
X91500Y72375D02*
X91700D01*
X91600Y72275D02*
Y72475D01*
X92500Y70375D02*
X92700D01*
X92600Y70275D02*
Y70475D01*
X91500Y68375D02*
X91700D01*
X91600Y68275D02*
Y68475D01*
X92500Y66375D02*
X92700D01*
X92600Y66275D02*
Y66475D01*
X92500Y50375D02*
X92700D01*
X92600Y50275D02*
Y50475D01*
X91500Y36375D02*
X91700D01*
X91600Y36275D02*
Y36475D01*
X92500Y18375D02*
X92700D01*
X92600Y18275D02*
Y18475D01*
X91500Y16375D02*
X91700D01*
X91600Y16275D02*
Y16475D01*
X91500Y-3625D02*
X91700D01*
X91600Y-3725D02*
Y-3525D01*
X92500Y-5625D02*
X92700D01*
X92600Y-5725D02*
Y-5525D01*
X91500Y-7625D02*
X91700D01*
X91600Y-7725D02*
Y-7525D01*
X90500Y118375D02*
X90700D01*
X90600Y118275D02*
Y118475D01*
X90500Y114375D02*
X90700D01*
X90600Y114275D02*
Y114475D01*
X89500Y112375D02*
X89700D01*
X89600Y112275D02*
Y112475D01*
X90500Y110375D02*
X90700D01*
X90600Y110275D02*
Y110475D01*
X89500Y108375D02*
X89700D01*
X89600Y108275D02*
Y108475D01*
X90500Y106375D02*
X90700D01*
X90600Y106275D02*
Y106475D01*
X89500Y104375D02*
X89700D01*
X89600Y104275D02*
Y104475D01*
X90500Y102375D02*
X90700D01*
X90600Y102275D02*
Y102475D01*
X89500Y100375D02*
X89700D01*
X89600Y100275D02*
Y100475D01*
X90500Y98375D02*
X90700D01*
X90600Y98275D02*
Y98475D01*
X89500Y96375D02*
X89700D01*
X89600Y96275D02*
Y96475D01*
X90500Y94375D02*
X90700D01*
X90600Y94275D02*
Y94475D01*
X89500Y92375D02*
X89700D01*
X89600Y92275D02*
Y92475D01*
X90500Y90375D02*
X90700D01*
X90600Y90275D02*
Y90475D01*
X89500Y88375D02*
X89700D01*
X89600Y88275D02*
Y88475D01*
X90500Y86375D02*
X90700D01*
X90600Y86275D02*
Y86475D01*
X89500Y84375D02*
X89700D01*
X89600Y84275D02*
Y84475D01*
X90500Y82375D02*
X90700D01*
X90600Y82275D02*
Y82475D01*
X89500Y80375D02*
X89700D01*
X89600Y80275D02*
Y80475D01*
X90500Y78375D02*
X90700D01*
X90600Y78275D02*
Y78475D01*
X89500Y76375D02*
X89700D01*
X89600Y76275D02*
Y76475D01*
X90500Y74375D02*
X90700D01*
X90600Y74275D02*
Y74475D01*
X89500Y72375D02*
X89700D01*
X89600Y72275D02*
Y72475D01*
X90500Y70375D02*
X90700D01*
X90600Y70275D02*
Y70475D01*
X89500Y68375D02*
X89700D01*
X89600Y68275D02*
Y68475D01*
X90500Y66375D02*
X90700D01*
X90600Y66275D02*
Y66475D01*
X89500Y64375D02*
X89700D01*
X89600Y64275D02*
Y64475D01*
X90500Y62375D02*
X90700D01*
X90600Y62275D02*
Y62475D01*
X89500Y52375D02*
X89700D01*
X89600Y52275D02*
Y52475D01*
X90500Y50375D02*
X90700D01*
X90600Y50275D02*
Y50475D01*
X89500Y40375D02*
X89700D01*
X89600Y40275D02*
Y40475D01*
X90500Y18375D02*
X90700D01*
X90600Y18275D02*
Y18475D01*
X89500Y-3625D02*
X89700D01*
X89600Y-3725D02*
Y-3525D01*
X90500Y-5625D02*
X90700D01*
X90600Y-5725D02*
Y-5525D01*
X89500Y-7625D02*
X89700D01*
X89600Y-7725D02*
Y-7525D01*
X88500Y118375D02*
X88700D01*
X88600Y118275D02*
Y118475D01*
X87500Y112375D02*
X87700D01*
X87600Y112275D02*
Y112475D01*
X88500Y110375D02*
X88700D01*
X88600Y110275D02*
Y110475D01*
X87500Y108375D02*
X87700D01*
X87600Y108275D02*
Y108475D01*
X88500Y106375D02*
X88700D01*
X88600Y106275D02*
Y106475D01*
X88500Y102375D02*
X88700D01*
X88600Y102275D02*
Y102475D01*
X87500Y100375D02*
X87700D01*
X87600Y100275D02*
Y100475D01*
X88500Y98375D02*
X88700D01*
X88600Y98275D02*
Y98475D01*
X87500Y96375D02*
X87700D01*
X87600Y96275D02*
Y96475D01*
X88500Y94375D02*
X88700D01*
X88600Y94275D02*
Y94475D01*
X87500Y92375D02*
X87700D01*
X87600Y92275D02*
Y92475D01*
X88500Y90375D02*
X88700D01*
X88600Y90275D02*
Y90475D01*
X87500Y88375D02*
X87700D01*
X87600Y88275D02*
Y88475D01*
X88500Y82375D02*
X88700D01*
X88600Y82275D02*
Y82475D01*
X87500Y80375D02*
X87700D01*
X87600Y80275D02*
Y80475D01*
X88500Y78375D02*
X88700D01*
X88600Y78275D02*
Y78475D01*
X87500Y76375D02*
X87700D01*
X87600Y76275D02*
Y76475D01*
X88500Y74375D02*
X88700D01*
X88600Y74275D02*
Y74475D01*
X87500Y72375D02*
X87700D01*
X87600Y72275D02*
Y72475D01*
X88500Y70375D02*
X88700D01*
X88600Y70275D02*
Y70475D01*
X87500Y68375D02*
X87700D01*
X87600Y68275D02*
Y68475D01*
X88500Y66375D02*
X88700D01*
X88600Y66275D02*
Y66475D01*
X87500Y64375D02*
X87700D01*
X87600Y64275D02*
Y64475D01*
X88500Y62375D02*
X88700D01*
X88600Y62275D02*
Y62475D01*
X87500Y60375D02*
X87700D01*
X87600Y60275D02*
Y60475D01*
X87500Y56375D02*
X87700D01*
X87600Y56275D02*
Y56475D01*
X87500Y44375D02*
X87700D01*
X87600Y44275D02*
Y44475D01*
X88500Y34375D02*
X88700D01*
X88600Y34275D02*
Y34475D01*
X87500Y-3625D02*
X87700D01*
X87600Y-3725D02*
Y-3525D01*
X88500Y-5625D02*
X88700D01*
X88600Y-5725D02*
Y-5525D01*
X87500Y-7625D02*
X87700D01*
X87600Y-7725D02*
Y-7525D01*
X86500Y118375D02*
X86700D01*
X86600Y118275D02*
Y118475D01*
X85500Y112375D02*
X85700D01*
X85600Y112275D02*
Y112475D01*
X86500Y110375D02*
X86700D01*
X86600Y110275D02*
Y110475D01*
X85500Y108375D02*
X85700D01*
X85600Y108275D02*
Y108475D01*
X86500Y106375D02*
X86700D01*
X86600Y106275D02*
Y106475D01*
X85500Y104375D02*
X85700D01*
X85600Y104275D02*
Y104475D01*
X86500Y102375D02*
X86700D01*
X86600Y102275D02*
Y102475D01*
X85500Y100375D02*
X85700D01*
X85600Y100275D02*
Y100475D01*
X86500Y98375D02*
X86700D01*
X86600Y98275D02*
Y98475D01*
X85500Y96375D02*
X85700D01*
X85600Y96275D02*
Y96475D01*
X86500Y94375D02*
X86700D01*
X86600Y94275D02*
Y94475D01*
X85500Y92375D02*
X85700D01*
X85600Y92275D02*
Y92475D01*
X86500Y90375D02*
X86700D01*
X86600Y90275D02*
Y90475D01*
X85500Y88375D02*
X85700D01*
X85600Y88275D02*
Y88475D01*
X86500Y82375D02*
X86700D01*
X86600Y82275D02*
Y82475D01*
X85500Y80375D02*
X85700D01*
X85600Y80275D02*
Y80475D01*
X86500Y78375D02*
X86700D01*
X86600Y78275D02*
Y78475D01*
X85500Y76375D02*
X85700D01*
X85600Y76275D02*
Y76475D01*
X86500Y74375D02*
X86700D01*
X86600Y74275D02*
Y74475D01*
X85500Y72375D02*
X85700D01*
X85600Y72275D02*
Y72475D01*
X86500Y70375D02*
X86700D01*
X86600Y70275D02*
Y70475D01*
X85500Y68375D02*
X85700D01*
X85600Y68275D02*
Y68475D01*
X86500Y66375D02*
X86700D01*
X86600Y66275D02*
Y66475D01*
X85500Y64375D02*
X85700D01*
X85600Y64275D02*
Y64475D01*
X86500Y62375D02*
X86700D01*
X86600Y62275D02*
Y62475D01*
X85500Y60375D02*
X85700D01*
X85600Y60275D02*
Y60475D01*
X86500Y58375D02*
X86700D01*
X86600Y58275D02*
Y58475D01*
X86500Y38375D02*
X86700D01*
X86600Y38275D02*
Y38475D01*
X86500Y34375D02*
X86700D01*
X86600Y34275D02*
Y34475D01*
X86500Y18375D02*
X86700D01*
X86600Y18275D02*
Y18475D01*
X85500Y16375D02*
X85700D01*
X85600Y16275D02*
Y16475D01*
X85500Y-3625D02*
X85700D01*
X85600Y-3725D02*
Y-3525D01*
X86500Y-5625D02*
X86700D01*
X86600Y-5725D02*
Y-5525D01*
X85500Y-7625D02*
X85700D01*
X85600Y-7725D02*
Y-7525D01*
X84500Y118375D02*
X84700D01*
X84600Y118275D02*
Y118475D01*
X83500Y116375D02*
X83700D01*
X83600Y116275D02*
Y116475D01*
X83500Y112375D02*
X83700D01*
X83600Y112275D02*
Y112475D01*
X84500Y110375D02*
X84700D01*
X84600Y110275D02*
Y110475D01*
X83500Y108375D02*
X83700D01*
X83600Y108275D02*
Y108475D01*
X84500Y106375D02*
X84700D01*
X84600Y106275D02*
Y106475D01*
X83500Y104375D02*
X83700D01*
X83600Y104275D02*
Y104475D01*
X84500Y102375D02*
X84700D01*
X84600Y102275D02*
Y102475D01*
X83500Y100375D02*
X83700D01*
X83600Y100275D02*
Y100475D01*
X84500Y98375D02*
X84700D01*
X84600Y98275D02*
Y98475D01*
X83500Y96375D02*
X83700D01*
X83600Y96275D02*
Y96475D01*
X84500Y94375D02*
X84700D01*
X84600Y94275D02*
Y94475D01*
X83500Y92375D02*
X83700D01*
X83600Y92275D02*
Y92475D01*
X84500Y90375D02*
X84700D01*
X84600Y90275D02*
Y90475D01*
X83500Y88375D02*
X83700D01*
X83600Y88275D02*
Y88475D01*
X84500Y82375D02*
X84700D01*
X84600Y82275D02*
Y82475D01*
X84500Y78375D02*
X84700D01*
X84600Y78275D02*
Y78475D01*
X84500Y74375D02*
X84700D01*
X84600Y74275D02*
Y74475D01*
X84500Y70375D02*
X84700D01*
X84600Y70275D02*
Y70475D01*
X84500Y66375D02*
X84700D01*
X84600Y66275D02*
Y66475D01*
X84500Y62375D02*
X84700D01*
X84600Y62275D02*
Y62475D01*
X83500Y56375D02*
X83700D01*
X83600Y56275D02*
Y56475D01*
X84500Y30375D02*
X84700D01*
X84600Y30275D02*
Y30475D01*
X84500Y26375D02*
X84700D01*
X84600Y26275D02*
Y26475D01*
X84500Y22375D02*
X84700D01*
X84600Y22275D02*
Y22475D01*
X83500Y20375D02*
X83700D01*
X83600Y20275D02*
Y20475D01*
X83500Y16375D02*
X83700D01*
X83600Y16275D02*
Y16475D01*
X83500Y-3625D02*
X83700D01*
X83600Y-3725D02*
Y-3525D01*
X84500Y-5625D02*
X84700D01*
X84600Y-5725D02*
Y-5525D01*
X83500Y-7625D02*
X83700D01*
X83600Y-7725D02*
Y-7525D01*
X82500Y118375D02*
X82700D01*
X82600Y118275D02*
Y118475D01*
X81500Y112375D02*
X81700D01*
X81600Y112275D02*
Y112475D01*
X82500Y102375D02*
X82700D01*
X82600Y102275D02*
Y102475D01*
X82500Y98375D02*
X82700D01*
X82600Y98275D02*
Y98475D01*
X82500Y94375D02*
X82700D01*
X82600Y94275D02*
Y94475D01*
X82500Y90375D02*
X82700D01*
X82600Y90275D02*
Y90475D01*
X82500Y82375D02*
X82700D01*
X82600Y82275D02*
Y82475D01*
X82500Y58375D02*
X82700D01*
X82600Y58275D02*
Y58475D01*
X81500Y56375D02*
X81700D01*
X81600Y56275D02*
Y56475D01*
X81500Y44375D02*
X81700D01*
X81600Y44275D02*
Y44475D01*
X82500Y34375D02*
X82700D01*
X82600Y34275D02*
Y34475D01*
X81500Y32375D02*
X81700D01*
X81600Y32275D02*
Y32475D01*
X81500Y20375D02*
X81700D01*
X81600Y20275D02*
Y20475D01*
X81500Y16375D02*
X81700D01*
X81600Y16275D02*
Y16475D01*
X81500Y-3625D02*
X81700D01*
X81600Y-3725D02*
Y-3525D01*
X82500Y-5625D02*
X82700D01*
X82600Y-5725D02*
Y-5525D01*
X81500Y-7625D02*
X81700D01*
X81600Y-7725D02*
Y-7525D01*
X80500Y118375D02*
X80700D01*
X80600Y118275D02*
Y118475D01*
X79500Y116375D02*
X79700D01*
X79600Y116275D02*
Y116475D01*
X79500Y112375D02*
X79700D01*
X79600Y112275D02*
Y112475D01*
X80500Y46375D02*
X80700D01*
X80600Y46275D02*
Y46475D01*
X80500Y34375D02*
X80700D01*
X80600Y34275D02*
Y34475D01*
X80500Y22375D02*
X80700D01*
X80600Y22275D02*
Y22475D01*
X79500Y20375D02*
X79700D01*
X79600Y20275D02*
Y20475D01*
X79500Y16375D02*
X79700D01*
X79600Y16275D02*
Y16475D01*
X79500Y4375D02*
X79700D01*
X79600Y4275D02*
Y4475D01*
X79500Y375D02*
X79700D01*
X79600Y275D02*
Y475D01*
X79500Y-3625D02*
X79700D01*
X79600Y-3725D02*
Y-3525D01*
X80500Y-5625D02*
X80700D01*
X80600Y-5725D02*
Y-5525D01*
X79500Y-7625D02*
X79700D01*
X79600Y-7725D02*
Y-7525D01*
X78500Y118375D02*
X78700D01*
X78600Y118275D02*
Y118475D01*
X77500Y116375D02*
X77700D01*
X77600Y116275D02*
Y116475D01*
X78500Y114375D02*
X78700D01*
X78600Y114275D02*
Y114475D01*
X77500Y112375D02*
X77700D01*
X77600Y112275D02*
Y112475D01*
X77500Y20375D02*
X77700D01*
X77600Y20275D02*
Y20475D01*
X77500Y16375D02*
X77700D01*
X77600Y16275D02*
Y16475D01*
X78500Y2375D02*
X78700D01*
X78600Y2275D02*
Y2475D01*
X77500Y375D02*
X77700D01*
X77600Y275D02*
Y475D01*
X77500Y-3625D02*
X77700D01*
X77600Y-3725D02*
Y-3525D01*
X78500Y-5625D02*
X78700D01*
X78600Y-5725D02*
Y-5525D01*
X77500Y-7625D02*
X77700D01*
X77600Y-7725D02*
Y-7525D01*
X76500Y118375D02*
X76700D01*
X76600Y118275D02*
Y118475D01*
X75500Y116375D02*
X75700D01*
X75600Y116275D02*
Y116475D01*
X76500Y114375D02*
X76700D01*
X76600Y114275D02*
Y114475D01*
X75500Y112375D02*
X75700D01*
X75600Y112275D02*
Y112475D01*
X75500Y16375D02*
X75700D01*
X75600Y16275D02*
Y16475D01*
X75500Y4375D02*
X75700D01*
X75600Y4275D02*
Y4475D01*
X76500Y2375D02*
X76700D01*
X76600Y2275D02*
Y2475D01*
X75500Y375D02*
X75700D01*
X75600Y275D02*
Y475D01*
X75500Y-3625D02*
X75700D01*
X75600Y-3725D02*
Y-3525D01*
X76500Y-5625D02*
X76700D01*
X76600Y-5725D02*
Y-5525D01*
X75500Y-7625D02*
X75700D01*
X75600Y-7725D02*
Y-7525D01*
X74500Y118375D02*
X74700D01*
X74600Y118275D02*
Y118475D01*
X74500Y114375D02*
X74700D01*
X74600Y114275D02*
Y114475D01*
X73500Y112375D02*
X73700D01*
X73600Y112275D02*
Y112475D01*
X73500Y108375D02*
X73700D01*
X73600Y108275D02*
Y108475D01*
X74500Y102375D02*
X74700D01*
X74600Y102275D02*
Y102475D01*
X74500Y98375D02*
X74700D01*
X74600Y98275D02*
Y98475D01*
X74500Y90375D02*
X74700D01*
X74600Y90275D02*
Y90475D01*
X74500Y82375D02*
X74700D01*
X74600Y82275D02*
Y82475D01*
X74500Y70375D02*
X74700D01*
X74600Y70275D02*
Y70475D01*
X74500Y66375D02*
X74700D01*
X74600Y66275D02*
Y66475D01*
X74500Y62375D02*
X74700D01*
X74600Y62275D02*
Y62475D01*
X74500Y58375D02*
X74700D01*
X74600Y58275D02*
Y58475D01*
X74500Y54375D02*
X74700D01*
X74600Y54275D02*
Y54475D01*
X74500Y50375D02*
X74700D01*
X74600Y50275D02*
Y50475D01*
X73500Y16375D02*
X73700D01*
X73600Y16275D02*
Y16475D01*
X73500Y375D02*
X73700D01*
X73600Y275D02*
Y475D01*
X73500Y-3625D02*
X73700D01*
X73600Y-3725D02*
Y-3525D01*
X74500Y-5625D02*
X74700D01*
X74600Y-5725D02*
Y-5525D01*
X73500Y-7625D02*
X73700D01*
X73600Y-7725D02*
Y-7525D01*
X72500Y118375D02*
X72700D01*
X72600Y118275D02*
Y118475D01*
X71500Y112375D02*
X71700D01*
X71600Y112275D02*
Y112475D01*
X72500Y110375D02*
X72700D01*
X72600Y110275D02*
Y110475D01*
X71500Y108375D02*
X71700D01*
X71600Y108275D02*
Y108475D01*
X71500Y16375D02*
X71700D01*
X71600Y16275D02*
Y16475D01*
X72500Y2375D02*
X72700D01*
X72600Y2275D02*
Y2475D01*
X71500Y375D02*
X71700D01*
X71600Y275D02*
Y475D01*
X71500Y-3625D02*
X71700D01*
X71600Y-3725D02*
Y-3525D01*
X72500Y-5625D02*
X72700D01*
X72600Y-5725D02*
Y-5525D01*
X71500Y-7625D02*
X71700D01*
X71600Y-7725D02*
Y-7525D01*
X70500Y118375D02*
X70700D01*
X70600Y118275D02*
Y118475D01*
X69500Y112375D02*
X69700D01*
X69600Y112275D02*
Y112475D01*
X70500Y110375D02*
X70700D01*
X70600Y110275D02*
Y110475D01*
X69500Y96375D02*
X69700D01*
X69600Y96275D02*
Y96475D01*
X69500Y92375D02*
X69700D01*
X69600Y92275D02*
Y92475D01*
X69500Y76375D02*
X69700D01*
X69600Y76275D02*
Y76475D01*
X69500Y16375D02*
X69700D01*
X69600Y16275D02*
Y16475D01*
X69500Y-3625D02*
X69700D01*
X69600Y-3725D02*
Y-3525D01*
X70500Y-5625D02*
X70700D01*
X70600Y-5725D02*
Y-5525D01*
X69500Y-7625D02*
X69700D01*
X69600Y-7725D02*
Y-7525D01*
X68500Y118375D02*
X68700D01*
X68600Y118275D02*
Y118475D01*
X67500Y112375D02*
X67700D01*
X67600Y112275D02*
Y112475D01*
X67500Y96375D02*
X67700D01*
X67600Y96275D02*
Y96475D01*
X68500Y94375D02*
X68700D01*
X68600Y94275D02*
Y94475D01*
X67500Y92375D02*
X67700D01*
X67600Y92275D02*
Y92475D01*
X68500Y90375D02*
X68700D01*
X68600Y90275D02*
Y90475D01*
X67500Y88375D02*
X67700D01*
X67600Y88275D02*
Y88475D01*
X67500Y84375D02*
X67700D01*
X67600Y84275D02*
Y84475D01*
X68500Y82375D02*
X68700D01*
X68600Y82275D02*
Y82475D01*
X67500Y-3625D02*
X67700D01*
X67600Y-3725D02*
Y-3525D01*
X68500Y-5625D02*
X68700D01*
X68600Y-5725D02*
Y-5525D01*
X67500Y-7625D02*
X67700D01*
X67600Y-7725D02*
Y-7525D01*
X66500Y118375D02*
X66700D01*
X66600Y118275D02*
Y118475D01*
X66500Y114375D02*
X66700D01*
X66600Y114275D02*
Y114475D01*
X65500Y100375D02*
X65700D01*
X65600Y100275D02*
Y100475D01*
X66500Y98375D02*
X66700D01*
X66600Y98275D02*
Y98475D01*
X65500Y96375D02*
X65700D01*
X65600Y96275D02*
Y96475D01*
X66500Y94375D02*
X66700D01*
X66600Y94275D02*
Y94475D01*
X65500Y92375D02*
X65700D01*
X65600Y92275D02*
Y92475D01*
X66500Y90375D02*
X66700D01*
X66600Y90275D02*
Y90475D01*
X65500Y88375D02*
X65700D01*
X65600Y88275D02*
Y88475D01*
X66500Y82375D02*
X66700D01*
X66600Y82275D02*
Y82475D01*
X65500Y16375D02*
X65700D01*
X65600Y16275D02*
Y16475D01*
X65500Y-3625D02*
X65700D01*
X65600Y-3725D02*
Y-3525D01*
X66500Y-5625D02*
X66700D01*
X66600Y-5725D02*
Y-5525D01*
X65500Y-7625D02*
X65700D01*
X65600Y-7725D02*
Y-7525D01*
X64500Y118375D02*
X64700D01*
X64600Y118275D02*
Y118475D01*
X63500Y116375D02*
X63700D01*
X63600Y116275D02*
Y116475D01*
X64500Y114375D02*
X64700D01*
X64600Y114275D02*
Y114475D01*
X64500Y98375D02*
X64700D01*
X64600Y98275D02*
Y98475D01*
X64500Y94375D02*
X64700D01*
X64600Y94275D02*
Y94475D01*
X64500Y90375D02*
X64700D01*
X64600Y90275D02*
Y90475D01*
X64500Y86375D02*
X64700D01*
X64600Y86275D02*
Y86475D01*
X64500Y82375D02*
X64700D01*
X64600Y82275D02*
Y82475D01*
X64500Y70375D02*
X64700D01*
X64600Y70275D02*
Y70475D01*
X63500Y-3625D02*
X63700D01*
X63600Y-3725D02*
Y-3525D01*
X64500Y-5625D02*
X64700D01*
X64600Y-5725D02*
Y-5525D01*
X63500Y-7625D02*
X63700D01*
X63600Y-7725D02*
Y-7525D01*
X62500Y118375D02*
X62700D01*
X62600Y118275D02*
Y118475D01*
X61500Y116375D02*
X61700D01*
X61600Y116275D02*
Y116475D01*
X62500Y114375D02*
X62700D01*
X62600Y114275D02*
Y114475D01*
X61500Y16375D02*
X61700D01*
X61600Y16275D02*
Y16475D01*
X62500Y14375D02*
X62700D01*
X62600Y14275D02*
Y14475D01*
X61500Y-3625D02*
X61700D01*
X61600Y-3725D02*
Y-3525D01*
X62500Y-5625D02*
X62700D01*
X62600Y-5725D02*
Y-5525D01*
X61500Y-7625D02*
X61700D01*
X61600Y-7725D02*
Y-7525D01*
X60500Y118375D02*
X60700D01*
X60600Y118275D02*
Y118475D01*
X59500Y116375D02*
X59700D01*
X59600Y116275D02*
Y116475D01*
X60500Y114375D02*
X60700D01*
X60600Y114275D02*
Y114475D01*
X59500Y112375D02*
X59700D01*
X59600Y112275D02*
Y112475D01*
X59500Y104375D02*
X59700D01*
X59600Y104275D02*
Y104475D01*
X60500Y14375D02*
X60700D01*
X60600Y14275D02*
Y14475D01*
X60500Y-1625D02*
X60700D01*
X60600Y-1725D02*
Y-1525D01*
X59500Y-3625D02*
X59700D01*
X59600Y-3725D02*
Y-3525D01*
X60500Y-5625D02*
X60700D01*
X60600Y-5725D02*
Y-5525D01*
X59500Y-7625D02*
X59700D01*
X59600Y-7725D02*
Y-7525D01*
X58500Y118375D02*
X58700D01*
X58600Y118275D02*
Y118475D01*
X57500Y116375D02*
X57700D01*
X57600Y116275D02*
Y116475D01*
X58500Y114375D02*
X58700D01*
X58600Y114275D02*
Y114475D01*
X57500Y112375D02*
X57700D01*
X57600Y112275D02*
Y112475D01*
X58500Y106375D02*
X58700D01*
X58600Y106275D02*
Y106475D01*
X58500Y102375D02*
X58700D01*
X58600Y102275D02*
Y102475D01*
X57500Y100375D02*
X57700D01*
X57600Y100275D02*
Y100475D01*
X57500Y96375D02*
X57700D01*
X57600Y96275D02*
Y96475D01*
X57500Y92375D02*
X57700D01*
X57600Y92275D02*
Y92475D01*
X57500Y88375D02*
X57700D01*
X57600Y88275D02*
Y88475D01*
X57500Y68375D02*
X57700D01*
X57600Y68275D02*
Y68475D01*
X57500Y375D02*
X57700D01*
X57600Y275D02*
Y475D01*
X58500Y-1625D02*
X58700D01*
X58600Y-1725D02*
Y-1525D01*
X57500Y-3625D02*
X57700D01*
X57600Y-3725D02*
Y-3525D01*
X58500Y-5625D02*
X58700D01*
X58600Y-5725D02*
Y-5525D01*
X57500Y-7625D02*
X57700D01*
X57600Y-7725D02*
Y-7525D01*
X56500Y118375D02*
X56700D01*
X56600Y118275D02*
Y118475D01*
X55500Y108375D02*
X55700D01*
X55600Y108275D02*
Y108475D01*
X55500Y100375D02*
X55700D01*
X55600Y100275D02*
Y100475D01*
X55500Y96375D02*
X55700D01*
X55600Y96275D02*
Y96475D01*
X55500Y92375D02*
X55700D01*
X55600Y92275D02*
Y92475D01*
X55500Y88375D02*
X55700D01*
X55600Y88275D02*
Y88475D01*
X55500Y76375D02*
X55700D01*
X55600Y76275D02*
Y76475D01*
X55500Y72375D02*
X55700D01*
X55600Y72275D02*
Y72475D01*
X55500Y4375D02*
X55700D01*
X55600Y4275D02*
Y4475D01*
X56500Y2375D02*
X56700D01*
X56600Y2275D02*
Y2475D01*
X55500Y375D02*
X55700D01*
X55600Y275D02*
Y475D01*
X56500Y-1625D02*
X56700D01*
X56600Y-1725D02*
Y-1525D01*
X55500Y-3625D02*
X55700D01*
X55600Y-3725D02*
Y-3525D01*
X56500Y-5625D02*
X56700D01*
X56600Y-5725D02*
Y-5525D01*
X55500Y-7625D02*
X55700D01*
X55600Y-7725D02*
Y-7525D01*
X54500Y118375D02*
X54700D01*
X54600Y118275D02*
Y118475D01*
X54500Y110375D02*
X54700D01*
X54600Y110275D02*
Y110475D01*
X54500Y106375D02*
X54700D01*
X54600Y106275D02*
Y106475D01*
X53500Y100375D02*
X53700D01*
X53600Y100275D02*
Y100475D01*
X54500Y98375D02*
X54700D01*
X54600Y98275D02*
Y98475D01*
X53500Y96375D02*
X53700D01*
X53600Y96275D02*
Y96475D01*
X54500Y94375D02*
X54700D01*
X54600Y94275D02*
Y94475D01*
X53500Y92375D02*
X53700D01*
X53600Y92275D02*
Y92475D01*
X54500Y90375D02*
X54700D01*
X54600Y90275D02*
Y90475D01*
X53500Y88375D02*
X53700D01*
X53600Y88275D02*
Y88475D01*
X53500Y84375D02*
X53700D01*
X53600Y84275D02*
Y84475D01*
X54500Y78375D02*
X54700D01*
X54600Y78275D02*
Y78475D01*
X53500Y72375D02*
X53700D01*
X53600Y72275D02*
Y72475D01*
X54500Y18375D02*
X54700D01*
X54600Y18275D02*
Y18475D01*
X53500Y16375D02*
X53700D01*
X53600Y16275D02*
Y16475D01*
X54500Y14375D02*
X54700D01*
X54600Y14275D02*
Y14475D01*
X53500Y12375D02*
X53700D01*
X53600Y12275D02*
Y12475D01*
X54500Y10375D02*
X54700D01*
X54600Y10275D02*
Y10475D01*
X53500Y8375D02*
X53700D01*
X53600Y8275D02*
Y8475D01*
X54500Y6375D02*
X54700D01*
X54600Y6275D02*
Y6475D01*
X53500Y4375D02*
X53700D01*
X53600Y4275D02*
Y4475D01*
X54500Y2375D02*
X54700D01*
X54600Y2275D02*
Y2475D01*
X53500Y375D02*
X53700D01*
X53600Y275D02*
Y475D01*
X54500Y-1625D02*
X54700D01*
X54600Y-1725D02*
Y-1525D01*
X53500Y-3625D02*
X53700D01*
X53600Y-3725D02*
Y-3525D01*
X54500Y-5625D02*
X54700D01*
X54600Y-5725D02*
Y-5525D01*
X53500Y-7625D02*
X53700D01*
X53600Y-7725D02*
Y-7525D01*
X52500Y118375D02*
X52700D01*
X52600Y118275D02*
Y118475D01*
X51500Y112375D02*
X51700D01*
X51600Y112275D02*
Y112475D01*
X51500Y104375D02*
X51700D01*
X51600Y104275D02*
Y104475D01*
X52500Y102375D02*
X52700D01*
X52600Y102275D02*
Y102475D01*
X51500Y100375D02*
X51700D01*
X51600Y100275D02*
Y100475D01*
X52500Y98375D02*
X52700D01*
X52600Y98275D02*
Y98475D01*
X51500Y96375D02*
X51700D01*
X51600Y96275D02*
Y96475D01*
X52500Y94375D02*
X52700D01*
X52600Y94275D02*
Y94475D01*
X51500Y92375D02*
X51700D01*
X51600Y92275D02*
Y92475D01*
X52500Y90375D02*
X52700D01*
X52600Y90275D02*
Y90475D01*
X51500Y88375D02*
X51700D01*
X51600Y88275D02*
Y88475D01*
X51500Y84375D02*
X51700D01*
X51600Y84275D02*
Y84475D01*
X52500Y82375D02*
X52700D01*
X52600Y82275D02*
Y82475D01*
X52500Y18375D02*
X52700D01*
X52600Y18275D02*
Y18475D01*
X52500Y10375D02*
X52700D01*
X52600Y10275D02*
Y10475D01*
X51500Y8375D02*
X51700D01*
X51600Y8275D02*
Y8475D01*
X52500Y6375D02*
X52700D01*
X52600Y6275D02*
Y6475D01*
X51500Y4375D02*
X51700D01*
X51600Y4275D02*
Y4475D01*
X52500Y2375D02*
X52700D01*
X52600Y2275D02*
Y2475D01*
X51500Y375D02*
X51700D01*
X51600Y275D02*
Y475D01*
X52500Y-1625D02*
X52700D01*
X52600Y-1725D02*
Y-1525D01*
X51500Y-3625D02*
X51700D01*
X51600Y-3725D02*
Y-3525D01*
X52500Y-5625D02*
X52700D01*
X52600Y-5725D02*
Y-5525D01*
X51500Y-7625D02*
X51700D01*
X51600Y-7725D02*
Y-7525D01*
X50500Y118375D02*
X50700D01*
X50600Y118275D02*
Y118475D01*
X49500Y112375D02*
X49700D01*
X49600Y112275D02*
Y112475D01*
X49500Y104375D02*
X49700D01*
X49600Y104275D02*
Y104475D01*
X50500Y102375D02*
X50700D01*
X50600Y102275D02*
Y102475D01*
X49500Y100375D02*
X49700D01*
X49600Y100275D02*
Y100475D01*
X50500Y98375D02*
X50700D01*
X50600Y98275D02*
Y98475D01*
X49500Y96375D02*
X49700D01*
X49600Y96275D02*
Y96475D01*
X50500Y94375D02*
X50700D01*
X50600Y94275D02*
Y94475D01*
X49500Y92375D02*
X49700D01*
X49600Y92275D02*
Y92475D01*
X50500Y90375D02*
X50700D01*
X50600Y90275D02*
Y90475D01*
X49500Y88375D02*
X49700D01*
X49600Y88275D02*
Y88475D01*
X50500Y82375D02*
X50700D01*
X50600Y82275D02*
Y82475D01*
X50500Y74375D02*
X50700D01*
X50600Y74275D02*
Y74475D01*
X50500Y26375D02*
X50700D01*
X50600Y26275D02*
Y26475D01*
X49500Y20375D02*
X49700D01*
X49600Y20275D02*
Y20475D01*
X49500Y8375D02*
X49700D01*
X49600Y8275D02*
Y8475D01*
X50500Y6375D02*
X50700D01*
X50600Y6275D02*
Y6475D01*
X49500Y4375D02*
X49700D01*
X49600Y4275D02*
Y4475D01*
X50500Y2375D02*
X50700D01*
X50600Y2275D02*
Y2475D01*
X49500Y375D02*
X49700D01*
X49600Y275D02*
Y475D01*
X50500Y-1625D02*
X50700D01*
X50600Y-1725D02*
Y-1525D01*
X49500Y-3625D02*
X49700D01*
X49600Y-3725D02*
Y-3525D01*
X50500Y-5625D02*
X50700D01*
X50600Y-5725D02*
Y-5525D01*
X48500Y118375D02*
X48700D01*
X48600Y118275D02*
Y118475D01*
X47500Y116375D02*
X47700D01*
X47600Y116275D02*
Y116475D01*
X48500Y114375D02*
X48700D01*
X48600Y114275D02*
Y114475D01*
X47500Y112375D02*
X47700D01*
X47600Y112275D02*
Y112475D01*
X47500Y104375D02*
X47700D01*
X47600Y104275D02*
Y104475D01*
X48500Y102375D02*
X48700D01*
X48600Y102275D02*
Y102475D01*
X47500Y100375D02*
X47700D01*
X47600Y100275D02*
Y100475D01*
X48500Y98375D02*
X48700D01*
X48600Y98275D02*
Y98475D01*
X47500Y96375D02*
X47700D01*
X47600Y96275D02*
Y96475D01*
X48500Y94375D02*
X48700D01*
X48600Y94275D02*
Y94475D01*
X47500Y92375D02*
X47700D01*
X47600Y92275D02*
Y92475D01*
X48500Y90375D02*
X48700D01*
X48600Y90275D02*
Y90475D01*
X47500Y88375D02*
X47700D01*
X47600Y88275D02*
Y88475D01*
X48500Y86375D02*
X48700D01*
X48600Y86275D02*
Y86475D01*
X47500Y84375D02*
X47700D01*
X47600Y84275D02*
Y84475D01*
X48500Y82375D02*
X48700D01*
X48600Y82275D02*
Y82475D01*
X48500Y26375D02*
X48700D01*
X48600Y26275D02*
Y26475D01*
X48500Y22375D02*
X48700D01*
X48600Y22275D02*
Y22475D01*
X47500Y20375D02*
X47700D01*
X47600Y20275D02*
Y20475D01*
X47500Y16375D02*
X47700D01*
X47600Y16275D02*
Y16475D01*
X48500Y10375D02*
X48700D01*
X48600Y10275D02*
Y10475D01*
X47500Y8375D02*
X47700D01*
X47600Y8275D02*
Y8475D01*
X48500Y6375D02*
X48700D01*
X48600Y6275D02*
Y6475D01*
X47500Y4375D02*
X47700D01*
X47600Y4275D02*
Y4475D01*
X48500Y2375D02*
X48700D01*
X48600Y2275D02*
Y2475D01*
X47500Y375D02*
X47700D01*
X47600Y275D02*
Y475D01*
X48500Y-1625D02*
X48700D01*
X48600Y-1725D02*
Y-1525D01*
X47500Y-3625D02*
X47700D01*
X47600Y-3725D02*
Y-3525D01*
X48500Y-5625D02*
X48700D01*
X48600Y-5725D02*
Y-5525D01*
X46500Y118375D02*
X46700D01*
X46600Y118275D02*
Y118475D01*
X45500Y116375D02*
X45700D01*
X45600Y116275D02*
Y116475D01*
X46500Y114375D02*
X46700D01*
X46600Y114275D02*
Y114475D01*
X45500Y112375D02*
X45700D01*
X45600Y112275D02*
Y112475D01*
X46500Y102375D02*
X46700D01*
X46600Y102275D02*
Y102475D01*
X46500Y98375D02*
X46700D01*
X46600Y98275D02*
Y98475D01*
X46500Y94375D02*
X46700D01*
X46600Y94275D02*
Y94475D01*
X46500Y90375D02*
X46700D01*
X46600Y90275D02*
Y90475D01*
X46500Y86375D02*
X46700D01*
X46600Y86275D02*
Y86475D01*
X46500Y82375D02*
X46700D01*
X46600Y82275D02*
Y82475D01*
X46500Y26375D02*
X46700D01*
X46600Y26275D02*
Y26475D01*
X45500Y24375D02*
X45700D01*
X45600Y24275D02*
Y24475D01*
X46500Y22375D02*
X46700D01*
X46600Y22275D02*
Y22475D01*
X45500Y20375D02*
X45700D01*
X45600Y20275D02*
Y20475D01*
X46500Y18375D02*
X46700D01*
X46600Y18275D02*
Y18475D01*
X45500Y12375D02*
X45700D01*
X45600Y12275D02*
Y12475D01*
X45500Y8375D02*
X45700D01*
X45600Y8275D02*
Y8475D01*
X46500Y6375D02*
X46700D01*
X46600Y6275D02*
Y6475D01*
X45500Y4375D02*
X45700D01*
X45600Y4275D02*
Y4475D01*
X46500Y2375D02*
X46700D01*
X46600Y2275D02*
Y2475D01*
X45500Y375D02*
X45700D01*
X45600Y275D02*
Y475D01*
X46500Y-1625D02*
X46700D01*
X46600Y-1725D02*
Y-1525D01*
X45500Y-3625D02*
X45700D01*
X45600Y-3725D02*
Y-3525D01*
X46500Y-5625D02*
X46700D01*
X46600Y-5725D02*
Y-5525D01*
X45500Y-7625D02*
X45700D01*
X45600Y-7725D02*
Y-7525D01*
X44500Y118375D02*
X44700D01*
X44600Y118275D02*
Y118475D01*
X43500Y116375D02*
X43700D01*
X43600Y116275D02*
Y116475D01*
X44500Y114375D02*
X44700D01*
X44600Y114275D02*
Y114475D01*
X43500Y112375D02*
X43700D01*
X43600Y112275D02*
Y112475D01*
X44500Y110375D02*
X44700D01*
X44600Y110275D02*
Y110475D01*
X44500Y30375D02*
X44700D01*
X44600Y30275D02*
Y30475D01*
X44500Y26375D02*
X44700D01*
X44600Y26275D02*
Y26475D01*
X43500Y24375D02*
X43700D01*
X43600Y24275D02*
Y24475D01*
X44500Y22375D02*
X44700D01*
X44600Y22275D02*
Y22475D01*
X44500Y18375D02*
X44700D01*
X44600Y18275D02*
Y18475D01*
X43500Y16375D02*
X43700D01*
X43600Y16275D02*
Y16475D01*
X44500Y10375D02*
X44700D01*
X44600Y10275D02*
Y10475D01*
X43500Y8375D02*
X43700D01*
X43600Y8275D02*
Y8475D01*
X44500Y6375D02*
X44700D01*
X44600Y6275D02*
Y6475D01*
X43500Y4375D02*
X43700D01*
X43600Y4275D02*
Y4475D01*
X44500Y2375D02*
X44700D01*
X44600Y2275D02*
Y2475D01*
X44500Y-5625D02*
X44700D01*
X44600Y-5725D02*
Y-5525D01*
X42500Y118375D02*
X42700D01*
X42600Y118275D02*
Y118475D01*
X42500Y114375D02*
X42700D01*
X42600Y114275D02*
Y114475D01*
X41500Y108375D02*
X41700D01*
X41600Y108275D02*
Y108475D01*
X42500Y106375D02*
X42700D01*
X42600Y106275D02*
Y106475D01*
X41500Y104375D02*
X41700D01*
X41600Y104275D02*
Y104475D01*
X42500Y102375D02*
X42700D01*
X42600Y102275D02*
Y102475D01*
X41500Y100375D02*
X41700D01*
X41600Y100275D02*
Y100475D01*
X42500Y98375D02*
X42700D01*
X42600Y98275D02*
Y98475D01*
X42500Y30375D02*
X42700D01*
X42600Y30275D02*
Y30475D01*
X42500Y22375D02*
X42700D01*
X42600Y22275D02*
Y22475D01*
X41500Y20375D02*
X41700D01*
X41600Y20275D02*
Y20475D01*
X42500Y18375D02*
X42700D01*
X42600Y18275D02*
Y18475D01*
X41500Y16375D02*
X41700D01*
X41600Y16275D02*
Y16475D01*
X41500Y8375D02*
X41700D01*
X41600Y8275D02*
Y8475D01*
X42500Y6375D02*
X42700D01*
X42600Y6275D02*
Y6475D01*
X41500Y4375D02*
X41700D01*
X41600Y4275D02*
Y4475D01*
X42500Y-1625D02*
X42700D01*
X42600Y-1725D02*
Y-1525D01*
X40500Y118375D02*
X40700D01*
X40600Y118275D02*
Y118475D01*
X39500Y108375D02*
X39700D01*
X39600Y108275D02*
Y108475D01*
X40500Y106375D02*
X40700D01*
X40600Y106275D02*
Y106475D01*
X39500Y104375D02*
X39700D01*
X39600Y104275D02*
Y104475D01*
X40500Y102375D02*
X40700D01*
X40600Y102275D02*
Y102475D01*
X39500Y88375D02*
X39700D01*
X39600Y88275D02*
Y88475D01*
X39500Y36375D02*
X39700D01*
X39600Y36275D02*
Y36475D01*
X40500Y30375D02*
X40700D01*
X40600Y30275D02*
Y30475D01*
X39500Y24375D02*
X39700D01*
X39600Y24275D02*
Y24475D01*
X40500Y22375D02*
X40700D01*
X40600Y22275D02*
Y22475D01*
X39500Y20375D02*
X39700D01*
X39600Y20275D02*
Y20475D01*
X40500Y18375D02*
X40700D01*
X40600Y18275D02*
Y18475D01*
X40500Y14375D02*
X40700D01*
X40600Y14275D02*
Y14475D01*
X39500Y12375D02*
X39700D01*
X39600Y12275D02*
Y12475D01*
X40500Y10375D02*
X40700D01*
X40600Y10275D02*
Y10475D01*
X39500Y8375D02*
X39700D01*
X39600Y8275D02*
Y8475D01*
X40500Y6375D02*
X40700D01*
X40600Y6275D02*
Y6475D01*
X40500Y-1625D02*
X40700D01*
X40600Y-1725D02*
Y-1525D01*
X38500Y118375D02*
X38700D01*
X38600Y118275D02*
Y118475D01*
X38500Y106375D02*
X38700D01*
X38600Y106275D02*
Y106475D01*
X37500Y104375D02*
X37700D01*
X37600Y104275D02*
Y104475D01*
X38500Y102375D02*
X38700D01*
X38600Y102275D02*
Y102475D01*
X37500Y96375D02*
X37700D01*
X37600Y96275D02*
Y96475D01*
X37500Y92375D02*
X37700D01*
X37600Y92275D02*
Y92475D01*
X38500Y90375D02*
X38700D01*
X38600Y90275D02*
Y90475D01*
X37500Y88375D02*
X37700D01*
X37600Y88275D02*
Y88475D01*
X38500Y78375D02*
X38700D01*
X38600Y78275D02*
Y78475D01*
X38500Y74375D02*
X38700D01*
X38600Y74275D02*
Y74475D01*
X38500Y46375D02*
X38700D01*
X38600Y46275D02*
Y46475D01*
X38500Y38375D02*
X38700D01*
X38600Y38275D02*
Y38475D01*
X37500Y36375D02*
X37700D01*
X37600Y36275D02*
Y36475D01*
X38500Y34375D02*
X38700D01*
X38600Y34275D02*
Y34475D01*
X38500Y30375D02*
X38700D01*
X38600Y30275D02*
Y30475D01*
X38500Y22375D02*
X38700D01*
X38600Y22275D02*
Y22475D01*
X37500Y20375D02*
X37700D01*
X37600Y20275D02*
Y20475D01*
X38500Y18375D02*
X38700D01*
X38600Y18275D02*
Y18475D01*
X37500Y16375D02*
X37700D01*
X37600Y16275D02*
Y16475D01*
X38500Y14375D02*
X38700D01*
X38600Y14275D02*
Y14475D01*
X37500Y12375D02*
X37700D01*
X37600Y12275D02*
Y12475D01*
X38500Y10375D02*
X38700D01*
X38600Y10275D02*
Y10475D01*
X37500Y8375D02*
X37700D01*
X37600Y8275D02*
Y8475D01*
X38500Y6375D02*
X38700D01*
X38600Y6275D02*
Y6475D01*
X37500Y4375D02*
X37700D01*
X37600Y4275D02*
Y4475D01*
X38500Y2375D02*
X38700D01*
X38600Y2275D02*
Y2475D01*
X37500Y375D02*
X37700D01*
X37600Y275D02*
Y475D01*
X38500Y-1625D02*
X38700D01*
X38600Y-1725D02*
Y-1525D01*
X37500Y-3625D02*
X37700D01*
X37600Y-3725D02*
Y-3525D01*
X38500Y-5625D02*
X38700D01*
X38600Y-5725D02*
Y-5525D01*
X36500Y118375D02*
X36700D01*
X36600Y118275D02*
Y118475D01*
X35500Y96375D02*
X35700D01*
X35600Y96275D02*
Y96475D01*
X36500Y94375D02*
X36700D01*
X36600Y94275D02*
Y94475D01*
X35500Y92375D02*
X35700D01*
X35600Y92275D02*
Y92475D01*
X36500Y90375D02*
X36700D01*
X36600Y90275D02*
Y90475D01*
X35500Y88375D02*
X35700D01*
X35600Y88275D02*
Y88475D01*
X35500Y48375D02*
X35700D01*
X35600Y48275D02*
Y48475D01*
X36500Y38375D02*
X36700D01*
X36600Y38275D02*
Y38475D01*
X36500Y30375D02*
X36700D01*
X36600Y30275D02*
Y30475D01*
X35500Y24375D02*
X35700D01*
X35600Y24275D02*
Y24475D01*
X36500Y22375D02*
X36700D01*
X36600Y22275D02*
Y22475D01*
X35500Y20375D02*
X35700D01*
X35600Y20275D02*
Y20475D01*
X36500Y18375D02*
X36700D01*
X36600Y18275D02*
Y18475D01*
X35500Y16375D02*
X35700D01*
X35600Y16275D02*
Y16475D01*
X36500Y14375D02*
X36700D01*
X36600Y14275D02*
Y14475D01*
X35500Y12375D02*
X35700D01*
X35600Y12275D02*
Y12475D01*
X36500Y10375D02*
X36700D01*
X36600Y10275D02*
Y10475D01*
X36500Y6375D02*
X36700D01*
X36600Y6275D02*
Y6475D01*
X35500Y4375D02*
X35700D01*
X35600Y4275D02*
Y4475D01*
X36500Y2375D02*
X36700D01*
X36600Y2275D02*
Y2475D01*
X35500Y375D02*
X35700D01*
X35600Y275D02*
Y475D01*
X36500Y-1625D02*
X36700D01*
X36600Y-1725D02*
Y-1525D01*
X35500Y-3625D02*
X35700D01*
X35600Y-3725D02*
Y-3525D01*
X36500Y-5625D02*
X36700D01*
X36600Y-5725D02*
Y-5525D01*
X34500Y118375D02*
X34700D01*
X34600Y118275D02*
Y118475D01*
X33500Y116375D02*
X33700D01*
X33600Y116275D02*
Y116475D01*
X34500Y114375D02*
X34700D01*
X34600Y114275D02*
Y114475D01*
X33500Y100375D02*
X33700D01*
X33600Y100275D02*
Y100475D01*
X34500Y98375D02*
X34700D01*
X34600Y98275D02*
Y98475D01*
X33500Y96375D02*
X33700D01*
X33600Y96275D02*
Y96475D01*
X34500Y94375D02*
X34700D01*
X34600Y94275D02*
Y94475D01*
X33500Y92375D02*
X33700D01*
X33600Y92275D02*
Y92475D01*
X34500Y90375D02*
X34700D01*
X34600Y90275D02*
Y90475D01*
X33500Y88375D02*
X33700D01*
X33600Y88275D02*
Y88475D01*
X34500Y50375D02*
X34700D01*
X34600Y50275D02*
Y50475D01*
X34500Y42375D02*
X34700D01*
X34600Y42275D02*
Y42475D01*
X34500Y38375D02*
X34700D01*
X34600Y38275D02*
Y38475D01*
X33500Y32375D02*
X33700D01*
X33600Y32275D02*
Y32475D01*
X34500Y26375D02*
X34700D01*
X34600Y26275D02*
Y26475D01*
X33500Y24375D02*
X33700D01*
X33600Y24275D02*
Y24475D01*
X34500Y22375D02*
X34700D01*
X34600Y22275D02*
Y22475D01*
X33500Y20375D02*
X33700D01*
X33600Y20275D02*
Y20475D01*
X33500Y16375D02*
X33700D01*
X33600Y16275D02*
Y16475D01*
X34500Y14375D02*
X34700D01*
X34600Y14275D02*
Y14475D01*
X33500Y12375D02*
X33700D01*
X33600Y12275D02*
Y12475D01*
X34500Y10375D02*
X34700D01*
X34600Y10275D02*
Y10475D01*
X33500Y8375D02*
X33700D01*
X33600Y8275D02*
Y8475D01*
X34500Y6375D02*
X34700D01*
X34600Y6275D02*
Y6475D01*
X33500Y4375D02*
X33700D01*
X33600Y4275D02*
Y4475D01*
X34500Y2375D02*
X34700D01*
X34600Y2275D02*
Y2475D01*
X33500Y375D02*
X33700D01*
X33600Y275D02*
Y475D01*
X34500Y-1625D02*
X34700D01*
X34600Y-1725D02*
Y-1525D01*
X33500Y-3625D02*
X33700D01*
X33600Y-3725D02*
Y-3525D01*
X34500Y-5625D02*
X34700D01*
X34600Y-5725D02*
Y-5525D01*
X33500Y-7625D02*
X33700D01*
X33600Y-7725D02*
Y-7525D01*
X32500Y118375D02*
X32700D01*
X32600Y118275D02*
Y118475D01*
X31500Y116375D02*
X31700D01*
X31600Y116275D02*
Y116475D01*
X32500Y114375D02*
X32700D01*
X32600Y114275D02*
Y114475D01*
X31500Y100375D02*
X31700D01*
X31600Y100275D02*
Y100475D01*
X32500Y98375D02*
X32700D01*
X32600Y98275D02*
Y98475D01*
X31500Y96375D02*
X31700D01*
X31600Y96275D02*
Y96475D01*
X32500Y94375D02*
X32700D01*
X32600Y94275D02*
Y94475D01*
X31500Y92375D02*
X31700D01*
X31600Y92275D02*
Y92475D01*
X32500Y90375D02*
X32700D01*
X32600Y90275D02*
Y90475D01*
X31500Y88375D02*
X31700D01*
X31600Y88275D02*
Y88475D01*
X32500Y86375D02*
X32700D01*
X32600Y86275D02*
Y86475D01*
X31500Y52375D02*
X31700D01*
X31600Y52275D02*
Y52475D01*
X31500Y48375D02*
X31700D01*
X31600Y48275D02*
Y48475D01*
X31500Y44375D02*
X31700D01*
X31600Y44275D02*
Y44475D01*
X32500Y22375D02*
X32700D01*
X32600Y22275D02*
Y22475D01*
X31500Y20375D02*
X31700D01*
X31600Y20275D02*
Y20475D01*
X31500Y16375D02*
X31700D01*
X31600Y16275D02*
Y16475D01*
X31500Y8375D02*
X31700D01*
X31600Y8275D02*
Y8475D01*
X32500Y6375D02*
X32700D01*
X32600Y6275D02*
Y6475D01*
X31500Y4375D02*
X31700D01*
X31600Y4275D02*
Y4475D01*
X32500Y2375D02*
X32700D01*
X32600Y2275D02*
Y2475D01*
X31500Y375D02*
X31700D01*
X31600Y275D02*
Y475D01*
X32500Y-1625D02*
X32700D01*
X32600Y-1725D02*
Y-1525D01*
X31500Y-3625D02*
X31700D01*
X31600Y-3725D02*
Y-3525D01*
X32500Y-5625D02*
X32700D01*
X32600Y-5725D02*
Y-5525D01*
X31500Y-7625D02*
X31700D01*
X31600Y-7725D02*
Y-7525D01*
X30500Y118375D02*
X30700D01*
X30600Y118275D02*
Y118475D01*
X29500Y116375D02*
X29700D01*
X29600Y116275D02*
Y116475D01*
X30500Y114375D02*
X30700D01*
X30600Y114275D02*
Y114475D01*
X29500Y112375D02*
X29700D01*
X29600Y112275D02*
Y112475D01*
X30500Y54375D02*
X30700D01*
X30600Y54275D02*
Y54475D01*
X29500Y44375D02*
X29700D01*
X29600Y44275D02*
Y44475D01*
X30500Y34375D02*
X30700D01*
X30600Y34275D02*
Y34475D01*
X29500Y32375D02*
X29700D01*
X29600Y32275D02*
Y32475D01*
X30500Y30375D02*
X30700D01*
X30600Y30275D02*
Y30475D01*
X29500Y24375D02*
X29700D01*
X29600Y24275D02*
Y24475D01*
X30500Y22375D02*
X30700D01*
X30600Y22275D02*
Y22475D01*
X29500Y16375D02*
X29700D01*
X29600Y16275D02*
Y16475D01*
X29500Y8375D02*
X29700D01*
X29600Y8275D02*
Y8475D01*
X30500Y6375D02*
X30700D01*
X30600Y6275D02*
Y6475D01*
X29500Y4375D02*
X29700D01*
X29600Y4275D02*
Y4475D01*
X29500Y375D02*
X29700D01*
X29600Y275D02*
Y475D01*
X30500Y-1625D02*
X30700D01*
X30600Y-1725D02*
Y-1525D01*
X29500Y-3625D02*
X29700D01*
X29600Y-3725D02*
Y-3525D01*
X30500Y-5625D02*
X30700D01*
X30600Y-5725D02*
Y-5525D01*
X29500Y-7625D02*
X29700D01*
X29600Y-7725D02*
Y-7525D01*
X28500Y118375D02*
X28700D01*
X28600Y118275D02*
Y118475D01*
X27500Y116375D02*
X27700D01*
X27600Y116275D02*
Y116475D01*
X28500Y114375D02*
X28700D01*
X28600Y114275D02*
Y114475D01*
X27500Y56375D02*
X27700D01*
X27600Y56275D02*
Y56475D01*
X27500Y40375D02*
X27700D01*
X27600Y40275D02*
Y40475D01*
X28500Y38375D02*
X28700D01*
X28600Y38275D02*
Y38475D01*
X28500Y34375D02*
X28700D01*
X28600Y34275D02*
Y34475D01*
X27500Y32375D02*
X27700D01*
X27600Y32275D02*
Y32475D01*
X28500Y30375D02*
X28700D01*
X28600Y30275D02*
Y30475D01*
X27500Y24375D02*
X27700D01*
X27600Y24275D02*
Y24475D01*
X28500Y22375D02*
X28700D01*
X28600Y22275D02*
Y22475D01*
X27500Y16375D02*
X27700D01*
X27600Y16275D02*
Y16475D01*
X28500Y6375D02*
X28700D01*
X28600Y6275D02*
Y6475D01*
X27500Y4375D02*
X27700D01*
X27600Y4275D02*
Y4475D01*
X28500Y-1625D02*
X28700D01*
X28600Y-1725D02*
Y-1525D01*
X27500Y-3625D02*
X27700D01*
X27600Y-3725D02*
Y-3525D01*
X28500Y-5625D02*
X28700D01*
X28600Y-5725D02*
Y-5525D01*
X27500Y-7625D02*
X27700D01*
X27600Y-7725D02*
Y-7525D01*
X26500Y118375D02*
X26700D01*
X26600Y118275D02*
Y118475D01*
X26500Y114375D02*
X26700D01*
X26600Y114275D02*
Y114475D01*
X25500Y108375D02*
X25700D01*
X25600Y108275D02*
Y108475D01*
X26500Y106375D02*
X26700D01*
X26600Y106275D02*
Y106475D01*
X25500Y104375D02*
X25700D01*
X25600Y104275D02*
Y104475D01*
X25500Y100375D02*
X25700D01*
X25600Y100275D02*
Y100475D01*
X26500Y98375D02*
X26700D01*
X26600Y98275D02*
Y98475D01*
X25500Y48375D02*
X25700D01*
X25600Y48275D02*
Y48475D01*
X25500Y44375D02*
X25700D01*
X25600Y44275D02*
Y44475D01*
X25500Y40375D02*
X25700D01*
X25600Y40275D02*
Y40475D01*
X26500Y38375D02*
X26700D01*
X26600Y38275D02*
Y38475D01*
X25500Y36375D02*
X25700D01*
X25600Y36275D02*
Y36475D01*
X26500Y34375D02*
X26700D01*
X26600Y34275D02*
Y34475D01*
X25500Y32375D02*
X25700D01*
X25600Y32275D02*
Y32475D01*
X26500Y30375D02*
X26700D01*
X26600Y30275D02*
Y30475D01*
X25500Y24375D02*
X25700D01*
X25600Y24275D02*
Y24475D01*
X26500Y22375D02*
X26700D01*
X26600Y22275D02*
Y22475D01*
X25500Y20375D02*
X25700D01*
X25600Y20275D02*
Y20475D01*
X25500Y16375D02*
X25700D01*
X25600Y16275D02*
Y16475D01*
X25500Y12375D02*
X25700D01*
X25600Y12275D02*
Y12475D01*
X25500Y4375D02*
X25700D01*
X25600Y4275D02*
Y4475D01*
X26500Y-1625D02*
X26700D01*
X26600Y-1725D02*
Y-1525D01*
X25500Y-3625D02*
X25700D01*
X25600Y-3725D02*
Y-3525D01*
X26500Y-5625D02*
X26700D01*
X26600Y-5725D02*
Y-5525D01*
X25500Y-7625D02*
X25700D01*
X25600Y-7725D02*
Y-7525D01*
X24500Y118375D02*
X24700D01*
X24600Y118275D02*
Y118475D01*
X23500Y108375D02*
X23700D01*
X23600Y108275D02*
Y108475D01*
X24500Y106375D02*
X24700D01*
X24600Y106275D02*
Y106475D01*
X23500Y104375D02*
X23700D01*
X23600Y104275D02*
Y104475D01*
X24500Y102375D02*
X24700D01*
X24600Y102275D02*
Y102475D01*
X23500Y88375D02*
X23700D01*
X23600Y88275D02*
Y88475D01*
X23500Y76375D02*
X23700D01*
X23600Y76275D02*
Y76475D01*
X24500Y66375D02*
X24700D01*
X24600Y66275D02*
Y66475D01*
X23500Y64375D02*
X23700D01*
X23600Y64275D02*
Y64475D01*
X24500Y62375D02*
X24700D01*
X24600Y62275D02*
Y62475D01*
X24500Y42375D02*
X24700D01*
X24600Y42275D02*
Y42475D01*
X23500Y40375D02*
X23700D01*
X23600Y40275D02*
Y40475D01*
X24500Y38375D02*
X24700D01*
X24600Y38275D02*
Y38475D01*
X23500Y36375D02*
X23700D01*
X23600Y36275D02*
Y36475D01*
X24500Y34375D02*
X24700D01*
X24600Y34275D02*
Y34475D01*
X23500Y32375D02*
X23700D01*
X23600Y32275D02*
Y32475D01*
X24500Y30375D02*
X24700D01*
X24600Y30275D02*
Y30475D01*
X24500Y26375D02*
X24700D01*
X24600Y26275D02*
Y26475D01*
X23500Y24375D02*
X23700D01*
X23600Y24275D02*
Y24475D01*
X24500Y22375D02*
X24700D01*
X24600Y22275D02*
Y22475D01*
X23500Y20375D02*
X23700D01*
X23600Y20275D02*
Y20475D01*
X24500Y18375D02*
X24700D01*
X24600Y18275D02*
Y18475D01*
X23500Y16375D02*
X23700D01*
X23600Y16275D02*
Y16475D01*
X24500Y14375D02*
X24700D01*
X24600Y14275D02*
Y14475D01*
X23500Y12375D02*
X23700D01*
X23600Y12275D02*
Y12475D01*
X24500Y10375D02*
X24700D01*
X24600Y10275D02*
Y10475D01*
X23500Y4375D02*
X23700D01*
X23600Y4275D02*
Y4475D01*
X24500Y-1625D02*
X24700D01*
X24600Y-1725D02*
Y-1525D01*
X23500Y-3625D02*
X23700D01*
X23600Y-3725D02*
Y-3525D01*
X24500Y-5625D02*
X24700D01*
X24600Y-5725D02*
Y-5525D01*
X23500Y-7625D02*
X23700D01*
X23600Y-7725D02*
Y-7525D01*
X22500Y118375D02*
X22700D01*
X22600Y118275D02*
Y118475D01*
X22500Y102375D02*
X22700D01*
X22600Y102275D02*
Y102475D01*
X21500Y88375D02*
X21700D01*
X21600Y88275D02*
Y88475D01*
X21500Y84375D02*
X21700D01*
X21600Y84275D02*
Y84475D01*
X21500Y68375D02*
X21700D01*
X21600Y68275D02*
Y68475D01*
X22500Y66375D02*
X22700D01*
X22600Y66275D02*
Y66475D01*
X21500Y64375D02*
X21700D01*
X21600Y64275D02*
Y64475D01*
X22500Y62375D02*
X22700D01*
X22600Y62275D02*
Y62475D01*
X22500Y50375D02*
X22700D01*
X22600Y50275D02*
Y50475D01*
X22500Y42375D02*
X22700D01*
X22600Y42275D02*
Y42475D01*
X21500Y40375D02*
X21700D01*
X21600Y40275D02*
Y40475D01*
X22500Y38375D02*
X22700D01*
X22600Y38275D02*
Y38475D01*
X21500Y36375D02*
X21700D01*
X21600Y36275D02*
Y36475D01*
X22500Y34375D02*
X22700D01*
X22600Y34275D02*
Y34475D01*
X21500Y32375D02*
X21700D01*
X21600Y32275D02*
Y32475D01*
X22500Y30375D02*
X22700D01*
X22600Y30275D02*
Y30475D01*
X22500Y26375D02*
X22700D01*
X22600Y26275D02*
Y26475D01*
X21500Y24375D02*
X21700D01*
X21600Y24275D02*
Y24475D01*
X22500Y22375D02*
X22700D01*
X22600Y22275D02*
Y22475D01*
X21500Y20375D02*
X21700D01*
X21600Y20275D02*
Y20475D01*
X22500Y18375D02*
X22700D01*
X22600Y18275D02*
Y18475D01*
X21500Y16375D02*
X21700D01*
X21600Y16275D02*
Y16475D01*
X22500Y14375D02*
X22700D01*
X22600Y14275D02*
Y14475D01*
X21500Y12375D02*
X21700D01*
X21600Y12275D02*
Y12475D01*
X22500Y10375D02*
X22700D01*
X22600Y10275D02*
Y10475D01*
X21500Y4375D02*
X21700D01*
X21600Y4275D02*
Y4475D01*
X22500Y-1625D02*
X22700D01*
X22600Y-1725D02*
Y-1525D01*
X21500Y-3625D02*
X21700D01*
X21600Y-3725D02*
Y-3525D01*
X22500Y-5625D02*
X22700D01*
X22600Y-5725D02*
Y-5525D01*
X21500Y-7625D02*
X21700D01*
X21600Y-7725D02*
Y-7525D01*
X20500Y118375D02*
X20700D01*
X20600Y118275D02*
Y118475D01*
X19500Y92375D02*
X19700D01*
X19600Y92275D02*
Y92475D01*
X20500Y90375D02*
X20700D01*
X20600Y90275D02*
Y90475D01*
X19500Y88375D02*
X19700D01*
X19600Y88275D02*
Y88475D01*
X19500Y84375D02*
X19700D01*
X19600Y84275D02*
Y84475D01*
X20500Y70375D02*
X20700D01*
X20600Y70275D02*
Y70475D01*
X19500Y68375D02*
X19700D01*
X19600Y68275D02*
Y68475D01*
X20500Y66375D02*
X20700D01*
X20600Y66275D02*
Y66475D01*
X19500Y64375D02*
X19700D01*
X19600Y64275D02*
Y64475D01*
X19500Y56375D02*
X19700D01*
X19600Y56275D02*
Y56475D01*
X20500Y54375D02*
X20700D01*
X20600Y54275D02*
Y54475D01*
X20500Y50375D02*
X20700D01*
X20600Y50275D02*
Y50475D01*
X20500Y42375D02*
X20700D01*
X20600Y42275D02*
Y42475D01*
X19500Y40375D02*
X19700D01*
X19600Y40275D02*
Y40475D01*
X20500Y18375D02*
X20700D01*
X20600Y18275D02*
Y18475D01*
X20500Y14375D02*
X20700D01*
X20600Y14275D02*
Y14475D01*
X20500Y10375D02*
X20700D01*
X20600Y10275D02*
Y10475D01*
X20500Y6375D02*
X20700D01*
X20600Y6275D02*
Y6475D01*
X19500Y4375D02*
X19700D01*
X19600Y4275D02*
Y4475D01*
X20500Y-1625D02*
X20700D01*
X20600Y-1725D02*
Y-1525D01*
X19500Y-3625D02*
X19700D01*
X19600Y-3725D02*
Y-3525D01*
X20500Y-5625D02*
X20700D01*
X20600Y-5725D02*
Y-5525D01*
X19500Y-7625D02*
X19700D01*
X19600Y-7725D02*
Y-7525D01*
X18500Y118375D02*
X18700D01*
X18600Y118275D02*
Y118475D01*
X17500Y116375D02*
X17700D01*
X17600Y116275D02*
Y116475D01*
X18500Y114375D02*
X18700D01*
X18600Y114275D02*
Y114475D01*
X18500Y94375D02*
X18700D01*
X18600Y94275D02*
Y94475D01*
X17500Y92375D02*
X17700D01*
X17600Y92275D02*
Y92475D01*
X18500Y90375D02*
X18700D01*
X18600Y90275D02*
Y90475D01*
X17500Y88375D02*
X17700D01*
X17600Y88275D02*
Y88475D01*
X18500Y86375D02*
X18700D01*
X18600Y86275D02*
Y86475D01*
X17500Y84375D02*
X17700D01*
X17600Y84275D02*
Y84475D01*
X17500Y72375D02*
X17700D01*
X17600Y72275D02*
Y72475D01*
X18500Y70375D02*
X18700D01*
X18600Y70275D02*
Y70475D01*
X17500Y68375D02*
X17700D01*
X17600Y68275D02*
Y68475D01*
X18500Y66375D02*
X18700D01*
X18600Y66275D02*
Y66475D01*
X17500Y56375D02*
X17700D01*
X17600Y56275D02*
Y56475D01*
X18500Y42375D02*
X18700D01*
X18600Y42275D02*
Y42475D01*
X17500Y40375D02*
X17700D01*
X17600Y40275D02*
Y40475D01*
X17500Y4375D02*
X17700D01*
X17600Y4275D02*
Y4475D01*
X18500Y-1625D02*
X18700D01*
X18600Y-1725D02*
Y-1525D01*
X17500Y-3625D02*
X17700D01*
X17600Y-3725D02*
Y-3525D01*
X18500Y-5625D02*
X18700D01*
X18600Y-5725D02*
Y-5525D01*
X17500Y-7625D02*
X17700D01*
X17600Y-7725D02*
Y-7525D01*
X16500Y118375D02*
X16700D01*
X16600Y118275D02*
Y118475D01*
X15500Y116375D02*
X15700D01*
X15600Y116275D02*
Y116475D01*
X16500Y114375D02*
X16700D01*
X16600Y114275D02*
Y114475D01*
X15500Y112375D02*
X15700D01*
X15600Y112275D02*
Y112475D01*
X15500Y100375D02*
X15700D01*
X15600Y100275D02*
Y100475D01*
X15500Y96375D02*
X15700D01*
X15600Y96275D02*
Y96475D01*
X16500Y94375D02*
X16700D01*
X16600Y94275D02*
Y94475D01*
X15500Y92375D02*
X15700D01*
X15600Y92275D02*
Y92475D01*
X16500Y90375D02*
X16700D01*
X16600Y90275D02*
Y90475D01*
X15500Y88375D02*
X15700D01*
X15600Y88275D02*
Y88475D01*
X16500Y86375D02*
X16700D01*
X16600Y86275D02*
Y86475D01*
X15500Y84375D02*
X15700D01*
X15600Y84275D02*
Y84475D01*
X15500Y72375D02*
X15700D01*
X15600Y72275D02*
Y72475D01*
X16500Y70375D02*
X16700D01*
X16600Y70275D02*
Y70475D01*
X15500Y68375D02*
X15700D01*
X15600Y68275D02*
Y68475D01*
X15500Y56375D02*
X15700D01*
X15600Y56275D02*
Y56475D01*
X15500Y48375D02*
X15700D01*
X15600Y48275D02*
Y48475D01*
X15500Y44375D02*
X15700D01*
X15600Y44275D02*
Y44475D01*
X16500Y42375D02*
X16700D01*
X16600Y42275D02*
Y42475D01*
X15500Y40375D02*
X15700D01*
X15600Y40275D02*
Y40475D01*
X15500Y4375D02*
X15700D01*
X15600Y4275D02*
Y4475D01*
X16500Y-1625D02*
X16700D01*
X16600Y-1725D02*
Y-1525D01*
X15500Y-3625D02*
X15700D01*
X15600Y-3725D02*
Y-3525D01*
X16500Y-5625D02*
X16700D01*
X16600Y-5725D02*
Y-5525D01*
X15500Y-7625D02*
X15700D01*
X15600Y-7725D02*
Y-7525D01*
X14500Y118375D02*
X14700D01*
X14600Y118275D02*
Y118475D01*
X13500Y116375D02*
X13700D01*
X13600Y116275D02*
Y116475D01*
X14500Y114375D02*
X14700D01*
X14600Y114275D02*
Y114475D01*
X13500Y112375D02*
X13700D01*
X13600Y112275D02*
Y112475D01*
X14500Y110375D02*
X14700D01*
X14600Y110275D02*
Y110475D01*
X13500Y104375D02*
X13700D01*
X13600Y104275D02*
Y104475D01*
X14500Y102375D02*
X14700D01*
X14600Y102275D02*
Y102475D01*
X13500Y100375D02*
X13700D01*
X13600Y100275D02*
Y100475D01*
X14500Y98375D02*
X14700D01*
X14600Y98275D02*
Y98475D01*
X13500Y96375D02*
X13700D01*
X13600Y96275D02*
Y96475D01*
X14500Y94375D02*
X14700D01*
X14600Y94275D02*
Y94475D01*
X13500Y92375D02*
X13700D01*
X13600Y92275D02*
Y92475D01*
X14500Y90375D02*
X14700D01*
X14600Y90275D02*
Y90475D01*
X13500Y88375D02*
X13700D01*
X13600Y88275D02*
Y88475D01*
X14500Y86375D02*
X14700D01*
X14600Y86275D02*
Y86475D01*
X13500Y84375D02*
X13700D01*
X13600Y84275D02*
Y84475D01*
X14500Y82375D02*
X14700D01*
X14600Y82275D02*
Y82475D01*
X13500Y76375D02*
X13700D01*
X13600Y76275D02*
Y76475D01*
X14500Y74375D02*
X14700D01*
X14600Y74275D02*
Y74475D01*
X13500Y72375D02*
X13700D01*
X13600Y72275D02*
Y72475D01*
X14500Y70375D02*
X14700D01*
X14600Y70275D02*
Y70475D01*
X13500Y56375D02*
X13700D01*
X13600Y56275D02*
Y56475D01*
X13500Y52375D02*
X13700D01*
X13600Y52275D02*
Y52475D01*
X14500Y50375D02*
X14700D01*
X14600Y50275D02*
Y50475D01*
X13500Y48375D02*
X13700D01*
X13600Y48275D02*
Y48475D01*
X13500Y44375D02*
X13700D01*
X13600Y44275D02*
Y44475D01*
X14500Y42375D02*
X14700D01*
X14600Y42275D02*
Y42475D01*
X13500Y40375D02*
X13700D01*
X13600Y40275D02*
Y40475D01*
X13500Y8375D02*
X13700D01*
X13600Y8275D02*
Y8475D01*
X14500Y6375D02*
X14700D01*
X14600Y6275D02*
Y6475D01*
X13500Y4375D02*
X13700D01*
X13600Y4275D02*
Y4475D01*
X13500Y375D02*
X13700D01*
X13600Y275D02*
Y475D01*
X14500Y-1625D02*
X14700D01*
X14600Y-1725D02*
Y-1525D01*
X13500Y-3625D02*
X13700D01*
X13600Y-3725D02*
Y-3525D01*
X14500Y-5625D02*
X14700D01*
X14600Y-5725D02*
Y-5525D01*
X13500Y-7625D02*
X13700D01*
X13600Y-7725D02*
Y-7525D01*
X12500Y118375D02*
X12700D01*
X12600Y118275D02*
Y118475D01*
X12500Y114375D02*
X12700D01*
X12600Y114275D02*
Y114475D01*
X11500Y104375D02*
X11700D01*
X11600Y104275D02*
Y104475D01*
X12500Y102375D02*
X12700D01*
X12600Y102275D02*
Y102475D01*
X11500Y100375D02*
X11700D01*
X11600Y100275D02*
Y100475D01*
X12500Y98375D02*
X12700D01*
X12600Y98275D02*
Y98475D01*
X11500Y96375D02*
X11700D01*
X11600Y96275D02*
Y96475D01*
X12500Y94375D02*
X12700D01*
X12600Y94275D02*
Y94475D01*
X11500Y92375D02*
X11700D01*
X11600Y92275D02*
Y92475D01*
X12500Y90375D02*
X12700D01*
X12600Y90275D02*
Y90475D01*
X11500Y88375D02*
X11700D01*
X11600Y88275D02*
Y88475D01*
X12500Y78375D02*
X12700D01*
X12600Y78275D02*
Y78475D01*
X11500Y76375D02*
X11700D01*
X11600Y76275D02*
Y76475D01*
X12500Y74375D02*
X12700D01*
X12600Y74275D02*
Y74475D01*
X11500Y72375D02*
X11700D01*
X11600Y72275D02*
Y72475D01*
X11500Y64375D02*
X11700D01*
X11600Y64275D02*
Y64475D01*
X12500Y54375D02*
X12700D01*
X12600Y54275D02*
Y54475D01*
X11500Y52375D02*
X11700D01*
X11600Y52275D02*
Y52475D01*
X12500Y50375D02*
X12700D01*
X12600Y50275D02*
Y50475D01*
X12500Y46375D02*
X12700D01*
X12600Y46275D02*
Y46475D01*
X11500Y44375D02*
X11700D01*
X11600Y44275D02*
Y44475D01*
X12500Y42375D02*
X12700D01*
X12600Y42275D02*
Y42475D01*
X11500Y12375D02*
X11700D01*
X11600Y12275D02*
Y12475D01*
X12500Y10375D02*
X12700D01*
X12600Y10275D02*
Y10475D01*
X11500Y8375D02*
X11700D01*
X11600Y8275D02*
Y8475D01*
X12500Y6375D02*
X12700D01*
X12600Y6275D02*
Y6475D01*
X11500Y4375D02*
X11700D01*
X11600Y4275D02*
Y4475D01*
X11500Y375D02*
X11700D01*
X11600Y275D02*
Y475D01*
X12500Y-1625D02*
X12700D01*
X12600Y-1725D02*
Y-1525D01*
X11500Y-3625D02*
X11700D01*
X11600Y-3725D02*
Y-3525D01*
X12500Y-5625D02*
X12700D01*
X12600Y-5725D02*
Y-5525D01*
X11500Y-7625D02*
X11700D01*
X11600Y-7725D02*
Y-7525D01*
X10500Y118375D02*
X10700D01*
X10600Y118275D02*
Y118475D01*
X10500Y110375D02*
X10700D01*
X10600Y110275D02*
Y110475D01*
X9500Y108375D02*
X9700D01*
X9600Y108275D02*
Y108475D01*
X10500Y106375D02*
X10700D01*
X10600Y106275D02*
Y106475D01*
X9500Y104375D02*
X9700D01*
X9600Y104275D02*
Y104475D01*
X10500Y102375D02*
X10700D01*
X10600Y102275D02*
Y102475D01*
X9500Y100375D02*
X9700D01*
X9600Y100275D02*
Y100475D01*
X10500Y98375D02*
X10700D01*
X10600Y98275D02*
Y98475D01*
X9500Y96375D02*
X9700D01*
X9600Y96275D02*
Y96475D01*
X10500Y94375D02*
X10700D01*
X10600Y94275D02*
Y94475D01*
X9500Y92375D02*
X9700D01*
X9600Y92275D02*
Y92475D01*
X10500Y90375D02*
X10700D01*
X10600Y90275D02*
Y90475D01*
X9500Y88375D02*
X9700D01*
X9600Y88275D02*
Y88475D01*
X9500Y80375D02*
X9700D01*
X9600Y80275D02*
Y80475D01*
X10500Y78375D02*
X10700D01*
X10600Y78275D02*
Y78475D01*
X9500Y76375D02*
X9700D01*
X9600Y76275D02*
Y76475D01*
X10500Y74375D02*
X10700D01*
X10600Y74275D02*
Y74475D01*
X9500Y64375D02*
X9700D01*
X9600Y64275D02*
Y64475D01*
X9500Y56375D02*
X9700D01*
X9600Y56275D02*
Y56475D01*
X10500Y54375D02*
X10700D01*
X10600Y54275D02*
Y54475D01*
X9500Y52375D02*
X9700D01*
X9600Y52275D02*
Y52475D01*
X10500Y50375D02*
X10700D01*
X10600Y50275D02*
Y50475D01*
X9500Y48375D02*
X9700D01*
X9600Y48275D02*
Y48475D01*
X10500Y46375D02*
X10700D01*
X10600Y46275D02*
Y46475D01*
X9500Y44375D02*
X9700D01*
X9600Y44275D02*
Y44475D01*
X10500Y42375D02*
X10700D01*
X10600Y42275D02*
Y42475D01*
X9500Y12375D02*
X9700D01*
X9600Y12275D02*
Y12475D01*
X10500Y10375D02*
X10700D01*
X10600Y10275D02*
Y10475D01*
X9500Y8375D02*
X9700D01*
X9600Y8275D02*
Y8475D01*
X10500Y6375D02*
X10700D01*
X10600Y6275D02*
Y6475D01*
X9500Y4375D02*
X9700D01*
X9600Y4275D02*
Y4475D01*
X10500Y2375D02*
X10700D01*
X10600Y2275D02*
Y2475D01*
X9500Y375D02*
X9700D01*
X9600Y275D02*
Y475D01*
X10500Y-1625D02*
X10700D01*
X10600Y-1725D02*
Y-1525D01*
X9500Y-3625D02*
X9700D01*
X9600Y-3725D02*
Y-3525D01*
X10500Y-5625D02*
X10700D01*
X10600Y-5725D02*
Y-5525D01*
X9500Y-7625D02*
X9700D01*
X9600Y-7725D02*
Y-7525D01*
X8500Y118375D02*
X8700D01*
X8600Y118275D02*
Y118475D01*
X8500Y106375D02*
X8700D01*
X8600Y106275D02*
Y106475D01*
X7500Y104375D02*
X7700D01*
X7600Y104275D02*
Y104475D01*
X8500Y102375D02*
X8700D01*
X8600Y102275D02*
Y102475D01*
X8500Y98375D02*
X8700D01*
X8600Y98275D02*
Y98475D01*
X8500Y94375D02*
X8700D01*
X8600Y94275D02*
Y94475D01*
X8500Y90375D02*
X8700D01*
X8600Y90275D02*
Y90475D01*
X8500Y78375D02*
X8700D01*
X8600Y78275D02*
Y78475D01*
X8500Y66375D02*
X8700D01*
X8600Y66275D02*
Y66475D01*
X7500Y56375D02*
X7700D01*
X7600Y56275D02*
Y56475D01*
X8500Y54375D02*
X8700D01*
X8600Y54275D02*
Y54475D01*
X7500Y52375D02*
X7700D01*
X7600Y52275D02*
Y52475D01*
X8500Y50375D02*
X8700D01*
X8600Y50275D02*
Y50475D01*
X7500Y48375D02*
X7700D01*
X7600Y48275D02*
Y48475D01*
X8500Y46375D02*
X8700D01*
X8600Y46275D02*
Y46475D01*
X7500Y44375D02*
X7700D01*
X7600Y44275D02*
Y44475D01*
X8500Y42375D02*
X8700D01*
X8600Y42275D02*
Y42475D01*
X8500Y10375D02*
X8700D01*
X8600Y10275D02*
Y10475D01*
X7500Y8375D02*
X7700D01*
X7600Y8275D02*
Y8475D01*
X8500Y6375D02*
X8700D01*
X8600Y6275D02*
Y6475D01*
X7500Y4375D02*
X7700D01*
X7600Y4275D02*
Y4475D01*
X8500Y2375D02*
X8700D01*
X8600Y2275D02*
Y2475D01*
X7500Y375D02*
X7700D01*
X7600Y275D02*
Y475D01*
X8500Y-1625D02*
X8700D01*
X8600Y-1725D02*
Y-1525D01*
X7500Y-3625D02*
X7700D01*
X7600Y-3725D02*
Y-3525D01*
X8500Y-5625D02*
X8700D01*
X8600Y-5725D02*
Y-5525D01*
X7500Y-7625D02*
X7700D01*
X7600Y-7725D02*
Y-7525D01*
X6500Y118375D02*
X6700D01*
X6600Y118275D02*
Y118475D01*
X6500Y98375D02*
X6700D01*
X6600Y98275D02*
Y98475D01*
X6500Y94375D02*
X6700D01*
X6600Y94275D02*
Y94475D01*
X6500Y90375D02*
X6700D01*
X6600Y90275D02*
Y90475D01*
X5500Y88375D02*
X5700D01*
X5600Y88275D02*
Y88475D01*
X5500Y84375D02*
X5700D01*
X5600Y84275D02*
Y84475D01*
X5500Y68375D02*
X5700D01*
X5600Y68275D02*
Y68475D01*
X5500Y56375D02*
X5700D01*
X5600Y56275D02*
Y56475D01*
X6500Y46375D02*
X6700D01*
X6600Y46275D02*
Y46475D01*
X5500Y44375D02*
X5700D01*
X5600Y44275D02*
Y44475D01*
X6500Y42375D02*
X6700D01*
X6600Y42275D02*
Y42475D01*
X5500Y8375D02*
X5700D01*
X5600Y8275D02*
Y8475D01*
X6500Y-1625D02*
X6700D01*
X6600Y-1725D02*
Y-1525D01*
X5500Y-3625D02*
X5700D01*
X5600Y-3725D02*
Y-3525D01*
X6500Y-5625D02*
X6700D01*
X6600Y-5725D02*
Y-5525D01*
X5500Y-7625D02*
X5700D01*
X5600Y-7725D02*
Y-7525D01*
X4500Y118375D02*
X4700D01*
X4600Y118275D02*
Y118475D01*
X3500Y116375D02*
X3700D01*
X3600Y116275D02*
Y116475D01*
X3500Y88375D02*
X3700D01*
X3600Y88275D02*
Y88475D01*
X3500Y84375D02*
X3700D01*
X3600Y84275D02*
Y84475D01*
X3500Y60375D02*
X3700D01*
X3600Y60275D02*
Y60475D01*
X4500Y58375D02*
X4700D01*
X4600Y58275D02*
Y58475D01*
X3500Y56375D02*
X3700D01*
X3600Y56275D02*
Y56475D01*
X4500Y46375D02*
X4700D01*
X4600Y46275D02*
Y46475D01*
X3500Y44375D02*
X3700D01*
X3600Y44275D02*
Y44475D01*
X4500Y18375D02*
X4700D01*
X4600Y18275D02*
Y18475D01*
X4500Y-1625D02*
X4700D01*
X4600Y-1725D02*
Y-1525D01*
X3500Y-3625D02*
X3700D01*
X3600Y-3725D02*
Y-3525D01*
X4500Y-5625D02*
X4700D01*
X4600Y-5725D02*
Y-5525D01*
X3500Y-7625D02*
X3700D01*
X3600Y-7725D02*
Y-7525D01*
X2500Y118375D02*
X2700D01*
X2600Y118275D02*
Y118475D01*
X1500Y116375D02*
X1700D01*
X1600Y116275D02*
Y116475D01*
X2500Y114375D02*
X2700D01*
X2600Y114275D02*
Y114475D01*
X1500Y100375D02*
X1700D01*
X1600Y100275D02*
Y100475D01*
X1500Y96375D02*
X1700D01*
X1600Y96275D02*
Y96475D01*
X1500Y92375D02*
X1700D01*
X1600Y92275D02*
Y92475D01*
X2500Y86375D02*
X2700D01*
X2600Y86275D02*
Y86475D01*
X1500Y84375D02*
X1700D01*
X1600Y84275D02*
Y84475D01*
X1500Y60375D02*
X1700D01*
X1600Y60275D02*
Y60475D01*
X2500Y58375D02*
X2700D01*
X2600Y58275D02*
Y58475D01*
X1500Y56375D02*
X1700D01*
X1600Y56275D02*
Y56475D01*
X2500Y46375D02*
X2700D01*
X2600Y46275D02*
Y46475D01*
X1500Y8375D02*
X1700D01*
X1600Y8275D02*
Y8475D01*
X2500Y-1625D02*
X2700D01*
X2600Y-1725D02*
Y-1525D01*
X1500Y-3625D02*
X1700D01*
X1600Y-3725D02*
Y-3525D01*
X2500Y-5625D02*
X2700D01*
X2600Y-5725D02*
Y-5525D01*
X1500Y-7625D02*
X1700D01*
X1600Y-7725D02*
Y-7525D01*
X500Y118375D02*
X700D01*
X600Y118275D02*
Y118475D01*
X-500Y116375D02*
X-300D01*
X-400Y116275D02*
Y116475D01*
X500Y114375D02*
X700D01*
X600Y114275D02*
Y114475D01*
X-500Y112375D02*
X-300D01*
X-400Y112275D02*
Y112475D01*
X-500Y108375D02*
X-300D01*
X-400Y108275D02*
Y108475D01*
X-500Y104375D02*
X-300D01*
X-400Y104275D02*
Y104475D01*
X500Y102375D02*
X700D01*
X600Y102275D02*
Y102475D01*
X-500Y100375D02*
X-300D01*
X-400Y100275D02*
Y100475D01*
X500Y98375D02*
X700D01*
X600Y98275D02*
Y98475D01*
X-500Y96375D02*
X-300D01*
X-400Y96275D02*
Y96475D01*
X500Y94375D02*
X700D01*
X600Y94275D02*
Y94475D01*
X-500Y92375D02*
X-300D01*
X-400Y92275D02*
Y92475D01*
X500Y74375D02*
X700D01*
X600Y74275D02*
Y74475D01*
X-500Y72375D02*
X-300D01*
X-400Y72275D02*
Y72475D01*
X500Y70375D02*
X700D01*
X600Y70275D02*
Y70475D01*
X-500Y68375D02*
X-300D01*
X-400Y68275D02*
Y68475D01*
X500Y66375D02*
X700D01*
X600Y66275D02*
Y66475D01*
X-500Y64375D02*
X-300D01*
X-400Y64275D02*
Y64475D01*
X500Y62375D02*
X700D01*
X600Y62275D02*
Y62475D01*
X-500Y60375D02*
X-300D01*
X-400Y60275D02*
Y60475D01*
X500Y58375D02*
X700D01*
X600Y58275D02*
Y58475D01*
X-500Y56375D02*
X-300D01*
X-400Y56275D02*
Y56475D01*
X500Y46375D02*
X700D01*
X600Y46275D02*
Y46475D01*
X-500Y44375D02*
X-300D01*
X-400Y44275D02*
Y44475D01*
X-500Y40375D02*
X-300D01*
X-400Y40275D02*
Y40475D01*
X-500Y36375D02*
X-300D01*
X-400Y36275D02*
Y36475D01*
X-500Y32375D02*
X-300D01*
X-400Y32275D02*
Y32475D01*
X-500Y20375D02*
X-300D01*
X-400Y20275D02*
Y20475D01*
X-500Y16375D02*
X-300D01*
X-400Y16275D02*
Y16475D01*
X-500Y12375D02*
X-300D01*
X-400Y12275D02*
Y12475D01*
X-500Y8375D02*
X-300D01*
X-400Y8275D02*
Y8475D01*
X500Y-1625D02*
X700D01*
X600Y-1725D02*
Y-1525D01*
X-500Y-3625D02*
X-300D01*
X-400Y-3725D02*
Y-3525D01*
X500Y-5625D02*
X700D01*
X600Y-5725D02*
Y-5525D01*
X-500Y-7625D02*
X-300D01*
X-400Y-7725D02*
Y-7525D01*
X-1500Y118375D02*
X-1300D01*
X-1400Y118275D02*
Y118475D01*
X-2500Y116375D02*
X-2300D01*
X-2400Y116275D02*
Y116475D01*
X-1500Y114375D02*
X-1300D01*
X-1400Y114275D02*
Y114475D01*
X-2500Y112375D02*
X-2300D01*
X-2400Y112275D02*
Y112475D01*
X-1500Y110375D02*
X-1300D01*
X-1400Y110275D02*
Y110475D01*
X-2500Y108375D02*
X-2300D01*
X-2400Y108275D02*
Y108475D01*
X-1500Y106375D02*
X-1300D01*
X-1400Y106275D02*
Y106475D01*
X-2500Y104375D02*
X-2300D01*
X-2400Y104275D02*
Y104475D01*
X-1500Y102375D02*
X-1300D01*
X-1400Y102275D02*
Y102475D01*
X-2500Y100375D02*
X-2300D01*
X-2400Y100275D02*
Y100475D01*
X-1500Y98375D02*
X-1300D01*
X-1400Y98275D02*
Y98475D01*
X-2500Y96375D02*
X-2300D01*
X-2400Y96275D02*
Y96475D01*
X-1500Y94375D02*
X-1300D01*
X-1400Y94275D02*
Y94475D01*
X-2500Y92375D02*
X-2300D01*
X-2400Y92275D02*
Y92475D01*
X-1500Y90375D02*
X-1300D01*
X-1400Y90275D02*
Y90475D01*
X-2500Y76375D02*
X-2300D01*
X-2400Y76275D02*
Y76475D01*
X-1500Y74375D02*
X-1300D01*
X-1400Y74275D02*
Y74475D01*
X-2500Y72375D02*
X-2300D01*
X-2400Y72275D02*
Y72475D01*
X-1500Y70375D02*
X-1300D01*
X-1400Y70275D02*
Y70475D01*
X-2500Y68375D02*
X-2300D01*
X-2400Y68275D02*
Y68475D01*
X-1500Y66375D02*
X-1300D01*
X-1400Y66275D02*
Y66475D01*
X-2500Y64375D02*
X-2300D01*
X-2400Y64275D02*
Y64475D01*
X-1500Y62375D02*
X-1300D01*
X-1400Y62275D02*
Y62475D01*
X-2500Y60375D02*
X-2300D01*
X-2400Y60275D02*
Y60475D01*
X-1500Y58375D02*
X-1300D01*
X-1400Y58275D02*
Y58475D01*
X-1500Y54375D02*
X-1300D01*
X-1400Y54275D02*
Y54475D01*
X-2500Y52375D02*
X-2300D01*
X-2400Y52275D02*
Y52475D01*
X-1500Y50375D02*
X-1300D01*
X-1400Y50275D02*
Y50475D01*
X-2500Y48375D02*
X-2300D01*
X-2400Y48275D02*
Y48475D01*
X-1500Y46375D02*
X-1300D01*
X-1400Y46275D02*
Y46475D01*
X-2500Y36375D02*
X-2300D01*
X-2400Y36275D02*
Y36475D01*
X-1500Y30375D02*
X-1300D01*
X-1400Y30275D02*
Y30475D01*
X-2500Y28375D02*
X-2300D01*
X-2400Y28275D02*
Y28475D01*
X-2500Y20375D02*
X-2300D01*
X-2400Y20275D02*
Y20475D01*
X-2500Y12375D02*
X-2300D01*
X-2400Y12275D02*
Y12475D01*
X-2500Y8375D02*
X-2300D01*
X-2400Y8275D02*
Y8475D01*
X-1500Y6375D02*
X-1300D01*
X-1400Y6275D02*
Y6475D01*
X-2500Y4375D02*
X-2300D01*
X-2400Y4275D02*
Y4475D01*
X-1500Y2375D02*
X-1300D01*
X-1400Y2275D02*
Y2475D01*
X-2500Y375D02*
X-2300D01*
X-2400Y275D02*
Y475D01*
X-1500Y-1625D02*
X-1300D01*
X-1400Y-1725D02*
Y-1525D01*
X-2500Y-3625D02*
X-2300D01*
X-2400Y-3725D02*
Y-3525D01*
X-1500Y-5625D02*
X-1300D01*
X-1400Y-5725D02*
Y-5525D01*
X-2500Y-7625D02*
X-2300D01*
X-2400Y-7725D02*
Y-7525D01*
X-4500Y112375D02*
X-4300D01*
X-4400Y112275D02*
Y112475D01*
X-3500Y110375D02*
X-3300D01*
X-3400Y110275D02*
Y110475D01*
X-4500Y108375D02*
X-4300D01*
X-4400Y108275D02*
Y108475D01*
X-3500Y106375D02*
X-3300D01*
X-3400Y106275D02*
Y106475D01*
X-4500Y104375D02*
X-4300D01*
X-4400Y104275D02*
Y104475D01*
X-3500Y102375D02*
X-3300D01*
X-3400Y102275D02*
Y102475D01*
X-4500Y100375D02*
X-4300D01*
X-4400Y100275D02*
Y100475D01*
X-3500Y98375D02*
X-3300D01*
X-3400Y98275D02*
Y98475D01*
X-4500Y96375D02*
X-4300D01*
X-4400Y96275D02*
Y96475D01*
X-3500Y94375D02*
X-3300D01*
X-3400Y94275D02*
Y94475D01*
X-4500Y92375D02*
X-4300D01*
X-4400Y92275D02*
Y92475D01*
X-3500Y90375D02*
X-3300D01*
X-3400Y90275D02*
Y90475D01*
X-4500Y88375D02*
X-4300D01*
X-4400Y88275D02*
Y88475D01*
X-3500Y86375D02*
X-3300D01*
X-3400Y86275D02*
Y86475D01*
X-4500Y84375D02*
X-4300D01*
X-4400Y84275D02*
Y84475D01*
X-3500Y82375D02*
X-3300D01*
X-3400Y82275D02*
Y82475D01*
X-4500Y80375D02*
X-4300D01*
X-4400Y80275D02*
Y80475D01*
X-3500Y78375D02*
X-3300D01*
X-3400Y78275D02*
Y78475D01*
X-4500Y76375D02*
X-4300D01*
X-4400Y76275D02*
Y76475D01*
X-3500Y74375D02*
X-3300D01*
X-3400Y74275D02*
Y74475D01*
X-4500Y72375D02*
X-4300D01*
X-4400Y72275D02*
Y72475D01*
X-3500Y70375D02*
X-3300D01*
X-3400Y70275D02*
Y70475D01*
X-4500Y68375D02*
X-4300D01*
X-4400Y68275D02*
Y68475D01*
X-3500Y66375D02*
X-3300D01*
X-3400Y66275D02*
Y66475D01*
X-4500Y64375D02*
X-4300D01*
X-4400Y64275D02*
Y64475D01*
X-3500Y62375D02*
X-3300D01*
X-3400Y62275D02*
Y62475D01*
X-4500Y60375D02*
X-4300D01*
X-4400Y60275D02*
Y60475D01*
X-3500Y58375D02*
X-3300D01*
X-3400Y58275D02*
Y58475D01*
X-4500Y56375D02*
X-4300D01*
X-4400Y56275D02*
Y56475D01*
X-4500Y52375D02*
X-4300D01*
X-4400Y52275D02*
Y52475D01*
X-3500Y50375D02*
X-3300D01*
X-3400Y50275D02*
Y50475D01*
X-4500Y48375D02*
X-4300D01*
X-4400Y48275D02*
Y48475D01*
X-4500Y40375D02*
X-4300D01*
X-4400Y40275D02*
Y40475D01*
X-3500Y38375D02*
X-3300D01*
X-3400Y38275D02*
Y38475D01*
X-4500Y36375D02*
X-4300D01*
X-4400Y36275D02*
Y36475D01*
X-3500Y30375D02*
X-3300D01*
X-3400Y30275D02*
Y30475D01*
X-4500Y28375D02*
X-4300D01*
X-4400Y28275D02*
Y28475D01*
X-4500Y20375D02*
X-4300D01*
X-4400Y20275D02*
Y20475D01*
X-3500Y18375D02*
X-3300D01*
X-3400Y18275D02*
Y18475D01*
X-4500Y16375D02*
X-4300D01*
X-4400Y16275D02*
Y16475D01*
X-3500Y14375D02*
X-3300D01*
X-3400Y14275D02*
Y14475D01*
X-4500Y12375D02*
X-4300D01*
X-4400Y12275D02*
Y12475D01*
X-3500Y10375D02*
X-3300D01*
X-3400Y10275D02*
Y10475D01*
X-4500Y8375D02*
X-4300D01*
X-4400Y8275D02*
Y8475D01*
X-3500Y6375D02*
X-3300D01*
X-3400Y6275D02*
Y6475D01*
X-4500Y4375D02*
X-4300D01*
X-4400Y4275D02*
Y4475D01*
X-3500Y2375D02*
X-3300D01*
X-3400Y2275D02*
Y2475D01*
X-4500Y375D02*
X-4300D01*
X-4400Y275D02*
Y475D01*
X-3500Y-1625D02*
X-3300D01*
X-3400Y-1725D02*
Y-1525D01*
X-6500Y112375D02*
X-6300D01*
X-6400Y112275D02*
Y112475D01*
X-5500Y110375D02*
X-5300D01*
X-5400Y110275D02*
Y110475D01*
X-6500Y108375D02*
X-6300D01*
X-6400Y108275D02*
Y108475D01*
X-5500Y106375D02*
X-5300D01*
X-5400Y106275D02*
Y106475D01*
X-6500Y104375D02*
X-6300D01*
X-6400Y104275D02*
Y104475D01*
X-5500Y102375D02*
X-5300D01*
X-5400Y102275D02*
Y102475D01*
X-6500Y100375D02*
X-6300D01*
X-6400Y100275D02*
Y100475D01*
X-5500Y98375D02*
X-5300D01*
X-5400Y98275D02*
Y98475D01*
X-6500Y96375D02*
X-6300D01*
X-6400Y96275D02*
Y96475D01*
X-5500Y94375D02*
X-5300D01*
X-5400Y94275D02*
Y94475D01*
X-6500Y92375D02*
X-6300D01*
X-6400Y92275D02*
Y92475D01*
X-5500Y90375D02*
X-5300D01*
X-5400Y90275D02*
Y90475D01*
X-6500Y88375D02*
X-6300D01*
X-6400Y88275D02*
Y88475D01*
X-5500Y86375D02*
X-5300D01*
X-5400Y86275D02*
Y86475D01*
X-6500Y84375D02*
X-6300D01*
X-6400Y84275D02*
Y84475D01*
X-5500Y82375D02*
X-5300D01*
X-5400Y82275D02*
Y82475D01*
X-6500Y80375D02*
X-6300D01*
X-6400Y80275D02*
Y80475D01*
X-5500Y78375D02*
X-5300D01*
X-5400Y78275D02*
Y78475D01*
X-6500Y76375D02*
X-6300D01*
X-6400Y76275D02*
Y76475D01*
X-5500Y74375D02*
X-5300D01*
X-5400Y74275D02*
Y74475D01*
X-6500Y72375D02*
X-6300D01*
X-6400Y72275D02*
Y72475D01*
X-5500Y70375D02*
X-5300D01*
X-5400Y70275D02*
Y70475D01*
X-6500Y68375D02*
X-6300D01*
X-6400Y68275D02*
Y68475D01*
X-5500Y66375D02*
X-5300D01*
X-5400Y66275D02*
Y66475D01*
X-6500Y64375D02*
X-6300D01*
X-6400Y64275D02*
Y64475D01*
X-5500Y62375D02*
X-5300D01*
X-5400Y62275D02*
Y62475D01*
X-6500Y60375D02*
X-6300D01*
X-6400Y60275D02*
Y60475D01*
X-5500Y58375D02*
X-5300D01*
X-5400Y58275D02*
Y58475D01*
X-6500Y56375D02*
X-6300D01*
X-6400Y56275D02*
Y56475D01*
X-6500Y52375D02*
X-6300D01*
X-6400Y52275D02*
Y52475D01*
X-5500Y50375D02*
X-5300D01*
X-5400Y50275D02*
Y50475D01*
X-6500Y48375D02*
X-6300D01*
X-6400Y48275D02*
Y48475D01*
X-6500Y40375D02*
X-6300D01*
X-6400Y40275D02*
Y40475D01*
X-5500Y38375D02*
X-5300D01*
X-5400Y38275D02*
Y38475D01*
X-6500Y36375D02*
X-6300D01*
X-6400Y36275D02*
Y36475D01*
X-6500Y32375D02*
X-6300D01*
X-6400Y32275D02*
Y32475D01*
X-5500Y30375D02*
X-5300D01*
X-5400Y30275D02*
Y30475D01*
X-6500Y28375D02*
X-6300D01*
X-6400Y28275D02*
Y28475D01*
X-6500Y20375D02*
X-6300D01*
X-6400Y20275D02*
Y20475D01*
X-5500Y18375D02*
X-5300D01*
X-5400Y18275D02*
Y18475D01*
X-6500Y16375D02*
X-6300D01*
X-6400Y16275D02*
Y16475D01*
X-5500Y14375D02*
X-5300D01*
X-5400Y14275D02*
Y14475D01*
X-6500Y12375D02*
X-6300D01*
X-6400Y12275D02*
Y12475D01*
X-5500Y10375D02*
X-5300D01*
X-5400Y10275D02*
Y10475D01*
X-6500Y8375D02*
X-6300D01*
X-6400Y8275D02*
Y8475D01*
X-5500Y6375D02*
X-5300D01*
X-5400Y6275D02*
Y6475D01*
X-6500Y4375D02*
X-6300D01*
X-6400Y4275D02*
Y4475D01*
X-5500Y2375D02*
X-5300D01*
X-5400Y2275D02*
Y2475D01*
X-6500Y375D02*
X-6300D01*
X-6400Y275D02*
Y475D01*
X-5500Y-1625D02*
X-5300D01*
X-5400Y-1725D02*
Y-1525D01*
X-8500Y112375D02*
X-8300D01*
X-8400Y112275D02*
Y112475D01*
X-7500Y110375D02*
X-7300D01*
X-7400Y110275D02*
Y110475D01*
X-8500Y108375D02*
X-8300D01*
X-8400Y108275D02*
Y108475D01*
X-7500Y106375D02*
X-7300D01*
X-7400Y106275D02*
Y106475D01*
X-8500Y104375D02*
X-8300D01*
X-8400Y104275D02*
Y104475D01*
X-7500Y102375D02*
X-7300D01*
X-7400Y102275D02*
Y102475D01*
X-8500Y100375D02*
X-8300D01*
X-8400Y100275D02*
Y100475D01*
X-7500Y98375D02*
X-7300D01*
X-7400Y98275D02*
Y98475D01*
X-8500Y96375D02*
X-8300D01*
X-8400Y96275D02*
Y96475D01*
X-7500Y94375D02*
X-7300D01*
X-7400Y94275D02*
Y94475D01*
X-8500Y92375D02*
X-8300D01*
X-8400Y92275D02*
Y92475D01*
X-7500Y90375D02*
X-7300D01*
X-7400Y90275D02*
Y90475D01*
X-8500Y88375D02*
X-8300D01*
X-8400Y88275D02*
Y88475D01*
X-7500Y86375D02*
X-7300D01*
X-7400Y86275D02*
Y86475D01*
X-8500Y84375D02*
X-8300D01*
X-8400Y84275D02*
Y84475D01*
X-7500Y82375D02*
X-7300D01*
X-7400Y82275D02*
Y82475D01*
X-8500Y80375D02*
X-8300D01*
X-8400Y80275D02*
Y80475D01*
X-7500Y78375D02*
X-7300D01*
X-7400Y78275D02*
Y78475D01*
X-8500Y76375D02*
X-8300D01*
X-8400Y76275D02*
Y76475D01*
X-7500Y74375D02*
X-7300D01*
X-7400Y74275D02*
Y74475D01*
X-8500Y72375D02*
X-8300D01*
X-8400Y72275D02*
Y72475D01*
X-7500Y70375D02*
X-7300D01*
X-7400Y70275D02*
Y70475D01*
X-8500Y68375D02*
X-8300D01*
X-8400Y68275D02*
Y68475D01*
X-7500Y66375D02*
X-7300D01*
X-7400Y66275D02*
Y66475D01*
X-8500Y64375D02*
X-8300D01*
X-8400Y64275D02*
Y64475D01*
X-7500Y62375D02*
X-7300D01*
X-7400Y62275D02*
Y62475D01*
X-8500Y60375D02*
X-8300D01*
X-8400Y60275D02*
Y60475D01*
X-8500Y48375D02*
X-8300D01*
X-8400Y48275D02*
Y48475D01*
X-8500Y44375D02*
X-8300D01*
X-8400Y44275D02*
Y44475D01*
X-8500Y40375D02*
X-8300D01*
X-8400Y40275D02*
Y40475D01*
X-8500Y36375D02*
X-8300D01*
X-8400Y36275D02*
Y36475D01*
X-7500Y30375D02*
X-7300D01*
X-7400Y30275D02*
Y30475D01*
X-8500Y28375D02*
X-8300D01*
X-8400Y28275D02*
Y28475D01*
X-8500Y24375D02*
X-8300D01*
X-8400Y24275D02*
Y24475D01*
X-8500Y20375D02*
X-8300D01*
X-8400Y20275D02*
Y20475D01*
X-7500Y18375D02*
X-7300D01*
X-7400Y18275D02*
Y18475D01*
X-8500Y16375D02*
X-8300D01*
X-8400Y16275D02*
Y16475D01*
X-7500Y14375D02*
X-7300D01*
X-7400Y14275D02*
Y14475D01*
X-8500Y12375D02*
X-8300D01*
X-8400Y12275D02*
Y12475D01*
X-7500Y10375D02*
X-7300D01*
X-7400Y10275D02*
Y10475D01*
X-8500Y8375D02*
X-8300D01*
X-8400Y8275D02*
Y8475D01*
X-7500Y6375D02*
X-7300D01*
X-7400Y6275D02*
Y6475D01*
X-8500Y4375D02*
X-8300D01*
X-8400Y4275D02*
Y4475D01*
X-7500Y2375D02*
X-7300D01*
X-7400Y2275D02*
Y2475D01*
X-8500Y375D02*
X-8300D01*
X-8400Y275D02*
Y475D01*
X-7500Y-1625D02*
X-7300D01*
X-7400Y-1725D02*
Y-1525D01*
X126325Y30075D02*
X126525D01*
X126425Y29975D02*
Y30175D01*
X139950Y40525D02*
X140150D01*
X140050Y40425D02*
Y40625D01*
X113217Y114332D02*
X113417D01*
X113317Y114232D02*
Y114432D01*
X113287Y113736D02*
X113487D01*
X113387Y113636D02*
Y113836D01*
X113622Y113238D02*
X113822D01*
X113722Y113138D02*
Y113338D01*
X113622Y112638D02*
X113822D01*
X113722Y112538D02*
Y112738D01*
X114019Y111108D02*
X114219D01*
X114119Y111008D02*
Y111208D01*
X114607Y111227D02*
X114807D01*
X114707Y111127D02*
Y111327D01*
X114616Y113009D02*
X114816D01*
X114716Y112909D02*
Y113109D01*
X114794Y113582D02*
X114994D01*
X114894Y113482D02*
Y113682D01*
X115033Y114132D02*
X115233D01*
X115133Y114032D02*
Y114232D01*
X115033Y114732D02*
X115233D01*
X115133Y114632D02*
Y114832D01*
X103392Y114827D02*
X103592D01*
X103492Y114727D02*
Y114927D01*
X103392Y114227D02*
X103592D01*
X103492Y114127D02*
Y114327D01*
X103667Y113694D02*
X103867D01*
X103767Y113594D02*
Y113794D01*
X103822Y113114D02*
X104022D01*
X103922Y113014D02*
Y113214D01*
X103804Y112514D02*
X104004D01*
X103904Y112414D02*
Y112614D01*
X104326Y111108D02*
X104526D01*
X104426Y111008D02*
Y111208D01*
X104816Y113126D02*
X105016D01*
X104916Y113026D02*
Y113226D01*
X104969Y113707D02*
X105169D01*
X105069Y113607D02*
Y113807D01*
X105208Y114257D02*
X105408D01*
X105308Y114157D02*
Y114357D01*
X105208Y114857D02*
X105408D01*
X105308Y114757D02*
Y114957D01*
X121406Y117503D02*
X121606D01*
X121506Y117403D02*
Y117603D01*
X120876Y117222D02*
X121076D01*
X120976Y117122D02*
Y117322D01*
X120489Y116764D02*
X120689D01*
X120589Y116664D02*
Y116864D01*
X119940Y116522D02*
X120140D01*
X120040Y116422D02*
Y116622D01*
X119340Y116522D02*
X119540D01*
X119440Y116422D02*
Y116622D01*
X118740Y116522D02*
X118940D01*
X118840Y116422D02*
Y116622D01*
X118140Y116522D02*
X118340D01*
X118240Y116422D02*
Y116622D01*
X117540Y116522D02*
X117740D01*
X117640Y116422D02*
Y116622D01*
X116940Y116522D02*
X117140D01*
X117040Y116422D02*
Y116622D01*
X116340Y116522D02*
X116540D01*
X116440Y116422D02*
Y116622D01*
X115740Y116522D02*
X115940D01*
X115840Y116422D02*
Y116622D01*
X115140Y116522D02*
X115340D01*
X115240Y116422D02*
Y116622D01*
X114673Y116898D02*
X114873D01*
X114773Y116798D02*
Y116998D01*
X114073Y116908D02*
X114273D01*
X114173Y116808D02*
Y117008D01*
X113473Y116878D02*
X113673D01*
X113573Y116778D02*
Y116978D01*
X113217Y116335D02*
X113417D01*
X113317Y116235D02*
Y116435D01*
X113217Y115735D02*
X113417D01*
X113317Y115635D02*
Y115835D01*
X113200Y115075D02*
X113400D01*
X113300Y114975D02*
Y115175D01*
X115116Y115528D02*
X115316D01*
X115216Y115428D02*
Y115628D01*
X115716Y115528D02*
X115916D01*
X115816Y115428D02*
Y115628D01*
X116316Y115528D02*
X116516D01*
X116416Y115428D02*
Y115628D01*
X116916Y115528D02*
X117116D01*
X117016Y115428D02*
Y115628D01*
X117516Y115528D02*
X117716D01*
X117616Y115428D02*
Y115628D01*
X118116Y115528D02*
X118316D01*
X118216Y115428D02*
Y115628D01*
X118716Y115528D02*
X118916D01*
X118816Y115428D02*
Y115628D01*
X119316Y115528D02*
X119516D01*
X119416Y115428D02*
Y115628D01*
X119916Y115528D02*
X120116D01*
X120016Y115428D02*
Y115628D01*
X120486Y115342D02*
X120686D01*
X120586Y115242D02*
Y115442D01*
X120871Y114881D02*
X121071D01*
X120971Y114781D02*
Y114981D01*
X121400Y114598D02*
X121600D01*
X121500Y114498D02*
Y114698D01*
X121998Y114552D02*
X122198D01*
X122098Y114452D02*
Y114652D01*
X122570Y114735D02*
X122770D01*
X122670Y114635D02*
Y114835D01*
X123020Y115131D02*
X123220D01*
X123120Y115031D02*
Y115231D01*
X123287Y115668D02*
X123487D01*
X123387Y115568D02*
Y115768D01*
X123317Y116268D02*
X123517D01*
X123417Y116168D02*
Y116368D01*
X123119Y116834D02*
X123319D01*
X123219Y116734D02*
Y116934D01*
X122709Y117272D02*
X122909D01*
X122809Y117172D02*
Y117372D01*
X122165Y117526D02*
X122365D01*
X122265Y117426D02*
Y117626D01*
X94797Y117501D02*
X94997D01*
X94897Y117401D02*
Y117601D01*
X94342Y117110D02*
X94542D01*
X94442Y117010D02*
Y117210D01*
X94068Y116576D02*
X94268D01*
X94168Y116476D02*
Y116676D01*
X94030Y115978D02*
X94230D01*
X94130Y115878D02*
Y116078D01*
X94222Y115409D02*
X94422D01*
X94322Y115309D02*
Y115509D01*
X94625Y114965D02*
X94825D01*
X94725Y114865D02*
Y115065D01*
X95166Y114705D02*
X95366D01*
X95266Y114605D02*
Y114805D01*
X95766Y114686D02*
X95966D01*
X95866Y114586D02*
Y114786D01*
X96330Y114892D02*
X96530D01*
X96430Y114792D02*
Y114992D01*
X96761Y115309D02*
X96961D01*
X96861Y115209D02*
Y115409D01*
X97253Y115653D02*
X97453D01*
X97353Y115553D02*
Y115753D01*
X97853Y115653D02*
X98052D01*
X97952Y115553D02*
Y115753D01*
X98452Y115653D02*
X98652D01*
X98552Y115553D02*
Y115753D01*
X99052Y115653D02*
X99253D01*
X99152Y115553D02*
Y115753D01*
X99652Y115653D02*
X99853D01*
X99753Y115553D02*
Y115753D01*
X100253Y115653D02*
X100452D01*
X100353Y115553D02*
Y115753D01*
X100853Y115653D02*
X101052D01*
X100952Y115553D02*
Y115753D01*
X101452Y115653D02*
X101652D01*
X101552Y115553D02*
Y115753D01*
X102052Y115653D02*
X102253D01*
X102152Y115553D02*
Y115753D01*
X102652Y115653D02*
X102852D01*
X102752Y115553D02*
Y115753D01*
X103252Y115653D02*
X103452D01*
X103352Y115553D02*
Y115753D01*
X105208Y115820D02*
X105408D01*
X105308Y115720D02*
Y115920D01*
X105208Y116420D02*
X105408D01*
X105308Y116320D02*
Y116520D01*
X104990Y116979D02*
X105190D01*
X105090Y116879D02*
Y117079D01*
X104392Y117033D02*
X104592D01*
X104492Y116933D02*
Y117133D01*
X103792Y117031D02*
X103992D01*
X103892Y116931D02*
Y117131D01*
X103331Y116647D02*
X103531D01*
X103431Y116547D02*
Y116747D01*
X102731Y116647D02*
X102931D01*
X102831Y116547D02*
Y116747D01*
X102131Y116647D02*
X102331D01*
X102231Y116547D02*
Y116747D01*
X101531Y116647D02*
X101731D01*
X101631Y116547D02*
Y116747D01*
X100931Y116647D02*
X101131D01*
X101031Y116547D02*
Y116747D01*
X100331Y116647D02*
X100531D01*
X100431Y116547D02*
Y116747D01*
X99731Y116647D02*
X99931D01*
X99831Y116547D02*
Y116747D01*
X99131Y116647D02*
X99331D01*
X99231Y116547D02*
Y116747D01*
X98531Y116647D02*
X98731D01*
X98631Y116547D02*
Y116747D01*
X97931Y116647D02*
X98131D01*
X98031Y116547D02*
Y116747D01*
X97331Y116647D02*
X97531D01*
X97431Y116547D02*
Y116747D01*
X96819Y116959D02*
X97019D01*
X96919Y116859D02*
Y117059D01*
X96409Y117397D02*
X96609D01*
X96509Y117297D02*
Y117497D01*
X95865Y117651D02*
X96065D01*
X95965Y117551D02*
Y117751D01*
X13550Y26375D02*
X13750D01*
X13650Y26275D02*
Y26475D01*
X13550Y25275D02*
X13750D01*
X13650Y25175D02*
Y25375D01*
X13550Y24175D02*
X13750D01*
X13650Y24075D02*
Y24275D01*
X13550Y23075D02*
X13750D01*
X13650Y22975D02*
Y23175D01*
X13550Y21975D02*
X13750D01*
X13650Y21875D02*
Y22075D01*
X12450Y26375D02*
X12650D01*
X12550Y26275D02*
Y26475D01*
X12450Y25275D02*
X12650D01*
X12550Y25175D02*
Y25375D01*
X12450Y24175D02*
X12650D01*
X12550Y24075D02*
Y24275D01*
X12450Y23075D02*
X12650D01*
X12550Y22975D02*
Y23175D01*
X12450Y21975D02*
X12650D01*
X12550Y21875D02*
Y22075D01*
X11350Y26375D02*
X11550D01*
X11450Y26275D02*
Y26475D01*
X11350Y25275D02*
X11550D01*
X11450Y25175D02*
Y25375D01*
X11350Y24175D02*
X11550D01*
X11450Y24075D02*
Y24275D01*
X11350Y23075D02*
X11550D01*
X11450Y22975D02*
Y23175D01*
X11350Y21975D02*
X11550D01*
X11450Y21875D02*
Y22075D01*
X10250Y26375D02*
X10450D01*
X10350Y26275D02*
Y26475D01*
X10250Y25275D02*
X10450D01*
X10350Y25175D02*
Y25375D01*
X10250Y24175D02*
X10450D01*
X10350Y24075D02*
Y24275D01*
X10250Y23075D02*
X10450D01*
X10350Y22975D02*
Y23175D01*
X10250Y21975D02*
X10450D01*
X10350Y21875D02*
Y22075D01*
X9150Y26375D02*
X9350D01*
X9250Y26275D02*
Y26475D01*
X9150Y25275D02*
X9350D01*
X9250Y25175D02*
Y25375D01*
X9150Y24175D02*
X9350D01*
X9250Y24075D02*
Y24275D01*
X9150Y23075D02*
X9350D01*
X9250Y22975D02*
Y23175D01*
X9150Y21975D02*
X9350D01*
X9250Y21875D02*
Y22075D01*
X10125Y33375D02*
X10325D01*
X10225Y33275D02*
Y33475D01*
X8550Y34275D02*
X8750D01*
X8650Y34175D02*
Y34375D01*
X13250Y30000D02*
X13450D01*
X13350Y29900D02*
Y30100D01*
X14800Y28875D02*
X15000D01*
X14900Y28775D02*
Y28975D01*
X14775Y29925D02*
X14975D01*
X14875Y29825D02*
Y30025D01*
X7875Y33650D02*
X8075D01*
X7975Y33550D02*
Y33750D01*
X8650Y32225D02*
X8850D01*
X8750Y32125D02*
Y32325D01*
X7850Y34550D02*
X8050D01*
X7950Y34450D02*
Y34650D01*
X7825Y35475D02*
X8025D01*
X7925Y35375D02*
Y35575D01*
X34200Y26950D02*
X34400D01*
X34300Y26850D02*
Y27050D01*
X34225Y27575D02*
X34425D01*
X34325Y27475D02*
Y27675D01*
X38575Y26950D02*
X38775D01*
X38675Y26850D02*
Y27050D01*
X38575Y27500D02*
X38775D01*
X38675Y27400D02*
Y27600D01*
X39950Y-7750D02*
X40150D01*
X40050Y-7850D02*
Y-7650D01*
X39975Y-6625D02*
X40175D01*
X40075Y-6725D02*
Y-6525D01*
X4350Y16525D02*
X4550D01*
X4450Y16425D02*
Y16625D01*
X4350Y15375D02*
X4550D01*
X4450Y15275D02*
Y15475D01*
X4350Y14225D02*
X4550D01*
X4450Y14125D02*
Y14325D01*
X4350Y13075D02*
X4550D01*
X4450Y12975D02*
Y13175D01*
X4350Y11925D02*
X4550D01*
X4450Y11825D02*
Y12025D01*
X4350Y10775D02*
X4550D01*
X4450Y10675D02*
Y10875D01*
X1675Y16525D02*
X1875D01*
X1775Y16425D02*
Y16625D01*
X1675Y15375D02*
X1875D01*
X1775Y15275D02*
Y15475D01*
X1675Y14225D02*
X1875D01*
X1775Y14125D02*
Y14325D01*
X1675Y13075D02*
X1875D01*
X1775Y12975D02*
Y13175D01*
X1675Y11925D02*
X1875D01*
X1775Y11825D02*
Y12025D01*
X1675Y10775D02*
X1875D01*
X1775Y10675D02*
Y10875D01*
X650Y10775D02*
X850D01*
X750Y10675D02*
Y10875D01*
X650Y11925D02*
X850D01*
X750Y11825D02*
Y12025D01*
X650Y13075D02*
X850D01*
X750Y12975D02*
Y13175D01*
X650Y14225D02*
X850D01*
X750Y14125D02*
Y14325D01*
X650Y15375D02*
X850D01*
X750Y15275D02*
Y15475D01*
X650Y16525D02*
X850D01*
X750Y16425D02*
Y16625D01*
X16550Y11925D02*
X16750D01*
X16650Y11825D02*
Y12025D01*
X13550Y11025D02*
X13750D01*
X13650Y10925D02*
Y11125D01*
X14544Y11025D02*
X14744D01*
X14644Y10925D02*
Y11125D01*
X15538Y11025D02*
X15738D01*
X15637Y10925D02*
Y11125D01*
X18525Y12650D02*
X18725D01*
X18625Y12550D02*
Y12750D01*
X17263Y12650D02*
X17462D01*
X17362Y12550D02*
Y12750D01*
X20050Y33750D02*
X20250D01*
X20150Y33650D02*
Y33850D01*
X17975Y33700D02*
X18175D01*
X18075Y33600D02*
Y33800D01*
X20050Y34700D02*
X20250D01*
X20150Y34600D02*
Y34800D01*
X20050Y35650D02*
X20250D01*
X20150Y35550D02*
Y35750D01*
X20050Y36600D02*
X20250D01*
X20150Y36500D02*
Y36700D01*
X20050Y37550D02*
X20250D01*
X20150Y37450D02*
Y37650D01*
X7650Y30125D02*
X7850D01*
X7750Y30025D02*
Y30225D01*
X8275Y30125D02*
X8475D01*
X8375Y30025D02*
Y30225D01*
X8975Y28625D02*
X9175D01*
X9075Y28525D02*
Y28725D01*
X8275Y28600D02*
X8475D01*
X8375Y28500D02*
Y28700D01*
X14700Y33100D02*
X14900D01*
X14800Y33000D02*
Y33200D01*
X14675Y31100D02*
X14875D01*
X14775Y31000D02*
Y31200D01*
X14700Y32325D02*
X14900D01*
X14800Y32225D02*
Y32425D01*
X14075Y32325D02*
X14275D01*
X14175Y32225D02*
Y32425D01*
X14050Y31100D02*
X14250D01*
X14150Y31000D02*
Y31200D01*
X62400Y3925D02*
X62600D01*
X62500Y3825D02*
Y4025D01*
X89200Y102900D02*
X89400D01*
X89300Y102800D02*
Y103000D01*
X89209Y105166D02*
X89409D01*
X89309Y105066D02*
Y105266D01*
X104116Y104466D02*
X104316D01*
X104216Y104366D02*
Y104566D01*
X104091Y105166D02*
X104291D01*
X104191Y105066D02*
Y105266D01*
X61775Y3625D02*
X61975D01*
X61875Y3525D02*
Y3725D01*
X129322Y74158D02*
X129522D01*
X129422Y74058D02*
Y74257D01*
X129322Y74908D02*
X129522D01*
X129422Y74808D02*
Y75007D01*
X102225Y107975D02*
X102425D01*
X102325Y107875D02*
Y108075D01*
X101000Y107975D02*
X101200D01*
X101100Y107875D02*
Y108075D01*
X107600Y91850D02*
X107800D01*
X107700Y91750D02*
Y91950D01*
X107600Y94450D02*
X107800D01*
X107700Y94350D02*
Y94550D01*
X107600Y95750D02*
X107800D01*
X107700Y95650D02*
Y95850D01*
X127100Y37600D02*
X127300D01*
X127200Y37500D02*
Y37700D01*
X136000Y18700D02*
X136200D01*
X136100Y18600D02*
Y18800D01*
X112300Y20700D02*
X112500D01*
X112400Y20600D02*
Y20800D01*
X117900Y51000D02*
X118100D01*
X118000Y50900D02*
Y51100D01*
X126000Y47075D02*
X126200D01*
X126100Y46975D02*
Y47175D01*
X122825Y59700D02*
X123025D01*
X122925Y59600D02*
Y59800D01*
X122675Y65025D02*
X122875D01*
X122775Y64925D02*
Y65125D01*
X124056Y67328D02*
X124256D01*
X124156Y67228D02*
Y67428D01*
X106675Y61025D02*
X106875D01*
X106775Y60925D02*
Y61125D01*
X116075Y48550D02*
X116275D01*
X116175Y48450D02*
Y48650D01*
X120025Y48100D02*
X120225D01*
X120125Y48000D02*
Y48200D01*
X61400Y29500D02*
X61600D01*
X61500Y29400D02*
Y29600D01*
X60428Y30401D02*
X60628D01*
X60528Y30301D02*
Y30501D01*
X13775Y13800D02*
X13975D01*
X13875Y13700D02*
Y13900D01*
X16725Y45375D02*
X16925D01*
X16825Y45275D02*
Y45475D01*
X19225Y45350D02*
X19425D01*
X19325Y45250D02*
Y45450D01*
X21725Y45375D02*
X21925D01*
X21825Y45275D02*
Y45475D01*
X24225Y45350D02*
X24425D01*
X24325Y45250D02*
Y45450D01*
X117525Y70200D02*
X117725D01*
X117625Y70100D02*
Y70300D01*
X113525Y70075D02*
X113725D01*
X113625Y69975D02*
Y70175D01*
X109250Y102000D02*
X109450D01*
X109350Y101900D02*
Y102100D01*
X109250Y103450D02*
X109450D01*
X109350Y103350D02*
Y103550D01*
X109225Y104750D02*
X109425D01*
X109325Y104650D02*
Y104850D01*
X109225Y106950D02*
X109425D01*
X109325Y106850D02*
Y107050D01*
X109175Y108375D02*
X109375D01*
X109275Y108275D02*
Y108475D01*
X109225Y109675D02*
X109425D01*
X109325Y109575D02*
Y109775D01*
X113075Y105825D02*
X113275D01*
X113175Y105725D02*
Y105925D01*
X111700Y105875D02*
X111900D01*
X111800Y105775D02*
Y105975D01*
X110250Y105875D02*
X110450D01*
X110350Y105775D02*
Y105975D01*
X108175Y105875D02*
X108375D01*
X108275Y105775D02*
Y105975D01*
X106725Y105900D02*
X106925D01*
X106825Y105800D02*
Y106000D01*
X105350Y105875D02*
X105550D01*
X105450Y105775D02*
Y105975D01*
X18200Y19800D02*
X18400D01*
X18300Y19700D02*
Y19900D01*
X18450Y15675D02*
X18650D01*
X18550Y15575D02*
Y15775D01*
X13775Y17600D02*
X13975D01*
X13875Y17500D02*
Y17700D01*
X16875Y14500D02*
X17075D01*
X16975Y14400D02*
Y14600D01*
X8350Y15675D02*
X8550D01*
X8450Y15575D02*
Y15775D01*
X12375Y15975D02*
X12575D01*
X12475Y15875D02*
Y16075D01*
X10100Y13925D02*
X10300D01*
X10200Y13825D02*
Y14025D01*
X9100Y15175D02*
X9300D01*
X9200Y15075D02*
Y15275D01*
X20350Y26300D02*
X20550D01*
X20450Y26200D02*
Y26400D01*
X20150Y28025D02*
X20350D01*
X20250Y27925D02*
Y28125D01*
X6000Y32675D02*
X6200D01*
X6100Y32575D02*
Y32775D01*
X9100Y33400D02*
X9300D01*
X9200Y33300D02*
Y33500D01*
X4100Y26000D02*
X4300D01*
X4200Y25900D02*
Y26100D01*
X4100Y27376D02*
X4300D01*
X4200Y27276D02*
Y27476D01*
X6725Y19550D02*
X6925D01*
X6825Y19450D02*
Y19650D01*
X503Y18278D02*
X703D01*
X603Y18178D02*
Y18378D01*
X1675Y30350D02*
X1875D01*
X1775Y30250D02*
Y30450D01*
X350Y29250D02*
X550D01*
X450Y29150D02*
Y29350D01*
X7300Y32625D02*
X7500D01*
X7400Y32525D02*
Y32725D01*
X16750Y36200D02*
X16950D01*
X16850Y36100D02*
Y36300D01*
X7450Y38600D02*
X7650D01*
X7550Y38500D02*
Y38700D01*
X125787Y-6488D02*
X125988D01*
X125887Y-6588D02*
Y-6387D01*
X118700Y-6625D02*
X118900D01*
X118800Y-6725D02*
Y-6525D01*
X110900Y-6675D02*
X111100D01*
X111000Y-6775D02*
Y-6575D01*
X105200Y-6650D02*
X105400D01*
X105300Y-6750D02*
Y-6550D01*
X106555Y53553D02*
X106755D01*
X106655Y53453D02*
Y53653D01*
X137800Y-4800D02*
X138000D01*
X137900Y-4900D02*
Y-4700D01*
X111525Y44075D02*
X111725D01*
X111625Y43975D02*
Y44175D01*
X118950Y40925D02*
X119150D01*
X119050Y40825D02*
Y41025D01*
X112025Y43275D02*
X112225D01*
X112125Y43175D02*
Y43375D01*
X112525Y47675D02*
X112725D01*
X112625Y47575D02*
Y47775D01*
X113525Y44200D02*
X113725D01*
X113625Y44100D02*
Y44300D01*
X114025Y44875D02*
X114225D01*
X114125Y44775D02*
Y44975D01*
X115025Y44875D02*
X115225D01*
X115125Y44775D02*
Y44975D01*
X114525Y44200D02*
X114725D01*
X114625Y44100D02*
Y44300D01*
X110480Y49052D02*
X110680D01*
X110580Y48952D02*
Y49152D01*
X110257Y48023D02*
X110457D01*
X110357Y47923D02*
Y48123D01*
X129500Y44967D02*
X129700D01*
X129600Y44868D02*
Y45068D01*
X116525Y44300D02*
X116725D01*
X116625Y44200D02*
Y44400D01*
X129500Y44318D02*
X129700D01*
X129600Y44217D02*
Y44417D01*
X141225Y45375D02*
X141425D01*
X141325Y45275D02*
Y45475D01*
X140800Y64600D02*
X141000D01*
X140900Y64500D02*
Y64700D01*
X126450Y67300D02*
X126650D01*
X126550Y67200D02*
Y67400D01*
X129656Y66553D02*
X129856D01*
X129756Y66453D02*
Y66653D01*
X128583Y53000D02*
X128783D01*
X128682Y52900D02*
Y53100D01*
X129450Y59208D02*
X129650D01*
X129550Y59107D02*
Y59307D01*
X138675Y90525D02*
X138875D01*
X138775Y90425D02*
Y90625D01*
X111475Y54475D02*
X111675D01*
X111575Y54375D02*
Y54575D01*
X114781Y66428D02*
X114981D01*
X114881Y66328D02*
Y66528D01*
X123225Y56000D02*
X123425D01*
X123325Y55900D02*
Y56100D01*
X121650Y39425D02*
X121850D01*
X121750Y39325D02*
Y39525D01*
X101725Y43200D02*
X101925D01*
X101825Y43100D02*
Y43300D01*
X101734Y41584D02*
X101934D01*
X101834Y41484D02*
Y41684D01*
X101725Y42225D02*
X101925D01*
X101825Y42125D02*
Y42325D01*
X101575Y34750D02*
X101775D01*
X101675Y34650D02*
Y34850D01*
X112650Y39325D02*
X112850D01*
X112750Y39225D02*
Y39425D01*
X108600Y39100D02*
X108800D01*
X108700Y39000D02*
Y39200D01*
X94475Y48975D02*
X94675D01*
X94575Y48875D02*
Y49075D01*
X94600Y43825D02*
X94800D01*
X94700Y43725D02*
Y43925D01*
X110325Y54025D02*
X110525D01*
X110425Y53925D02*
Y54125D01*
X106650Y48850D02*
X106850D01*
X106750Y48750D02*
Y48950D01*
X122375Y70225D02*
X122575D01*
X122475Y70125D02*
Y70325D01*
X121725Y70250D02*
X121925D01*
X121825Y70150D02*
Y70350D01*
X122800Y66125D02*
X123000D01*
X122900Y66025D02*
Y66225D01*
X129300Y82525D02*
X129500D01*
X129400Y82425D02*
Y82625D01*
X130325Y81275D02*
X130525D01*
X130425Y81175D02*
Y81375D01*
X126625Y52000D02*
X126825D01*
X126725Y51900D02*
Y52100D01*
X126825Y59700D02*
X127025D01*
X126925Y59600D02*
Y59800D01*
X125750Y67275D02*
X125950D01*
X125850Y67175D02*
Y67375D01*
X129225Y84400D02*
X129425D01*
X129325Y84300D02*
Y84500D01*
X124150Y77375D02*
X124350D01*
X124250Y77275D02*
Y77475D01*
X124175Y73500D02*
X124375D01*
X124275Y73400D02*
Y73600D01*
X121700Y74450D02*
X121900D01*
X121800Y74350D02*
Y74550D01*
X122575Y73475D02*
X122775D01*
X122675Y73375D02*
Y73575D01*
X120250Y70400D02*
X120450D01*
X120350Y70300D02*
Y70500D01*
X118900Y70300D02*
X119100D01*
X119000Y70200D02*
Y70400D01*
X121025Y66300D02*
X121225D01*
X121125Y66200D02*
Y66400D01*
X122050Y66450D02*
X122250D01*
X122150Y66350D02*
Y66550D01*
X122975Y63225D02*
X123175D01*
X123075Y63125D02*
Y63325D01*
X122975Y54375D02*
X123175D01*
X123075Y54275D02*
Y54475D01*
Y48600D02*
X123275D01*
X123175Y48500D02*
Y48700D01*
X121675Y76275D02*
X121875D01*
X121775Y76175D02*
Y76375D01*
X116800Y70375D02*
X117000D01*
X116900Y70275D02*
Y70475D01*
X117525Y44325D02*
X117725D01*
X117625Y44225D02*
Y44425D01*
X106550Y54375D02*
X106750D01*
X106650Y54275D02*
Y54475D01*
X106575Y56375D02*
X106775D01*
X106675Y56275D02*
Y56475D01*
X120525Y44175D02*
X120725D01*
X120625Y44075D02*
Y44275D01*
X124500Y40800D02*
X124700D01*
X124600Y40700D02*
Y40900D01*
X68028Y700D02*
X68228D01*
X68128Y600D02*
Y800D01*
X60932Y6557D02*
X61132D01*
X61032Y6457D02*
Y6657D01*
X64432Y2636D02*
X64632D01*
X64532Y2536D02*
Y2736D01*
X113025Y44875D02*
X113225D01*
X113125Y44775D02*
Y44975D01*
X63925Y3350D02*
X64125D01*
X64025Y3250D02*
Y3450D01*
X62925Y3350D02*
X63125D01*
X63025Y3250D02*
Y3450D01*
X63432Y2636D02*
X63632D01*
X63532Y2536D02*
Y2736D01*
X117025Y47925D02*
X117225D01*
X117125Y47825D02*
Y48025D01*
X116475Y65925D02*
X116675D01*
X116575Y65825D02*
Y66025D01*
X115525Y66025D02*
X115725D01*
X115625Y65925D02*
Y66125D01*
X116022Y66525D02*
X116222D01*
X116122Y66425D02*
Y66625D01*
X117025Y66200D02*
X117225D01*
X117125Y66100D02*
Y66300D01*
X113925Y66525D02*
X114125D01*
X114025Y66425D02*
Y66625D01*
X107400Y55000D02*
X107600D01*
X107500Y54900D02*
Y55100D01*
X98150Y86825D02*
X98350D01*
X98250Y86725D02*
Y86925D01*
X102475Y65250D02*
X102675D01*
X102575Y65150D02*
Y65350D01*
X102475Y66700D02*
X102675D01*
X102575Y66600D02*
Y66800D01*
X115950Y74475D02*
X116150D01*
X116050Y74375D02*
Y74575D01*
X114510Y74440D02*
X114710D01*
X114610Y74340D02*
Y74540D01*
X70432Y8808D02*
X70632D01*
X70532Y8708D02*
Y8908D01*
X70925Y9375D02*
X71125D01*
X71025Y9275D02*
Y9475D01*
X102475Y68275D02*
X102675D01*
X102575Y68175D02*
Y68375D01*
X113070Y74420D02*
X113270D01*
X113170Y74320D02*
Y74520D01*
X111630Y74445D02*
X111830D01*
X111730Y74345D02*
Y74545D01*
X110190Y74440D02*
X110390D01*
X110290Y74340D02*
Y74540D01*
X108750Y74450D02*
X108950D01*
X108850Y74350D02*
Y74550D01*
X92060Y103525D02*
X92260D01*
X92160Y103425D02*
Y103625D01*
X92060Y106500D02*
X92260D01*
X92160Y106400D02*
Y106600D01*
X92060Y107525D02*
X92260D01*
X92160Y107425D02*
Y107625D01*
X120175Y92725D02*
X120375D01*
X120275Y92625D02*
Y92825D01*
X96750Y88325D02*
X96950D01*
X96850Y88225D02*
Y88425D01*
X68925Y9500D02*
X69125D01*
X69025Y9400D02*
Y9600D01*
X97624Y87275D02*
X97824D01*
X97724Y87175D02*
Y87375D01*
X97175Y87775D02*
X97375D01*
X97275Y87675D02*
Y87875D01*
X69432Y8808D02*
X69632D01*
X69532Y8708D02*
Y8908D01*
X116575Y93375D02*
X116775D01*
X116675Y93275D02*
Y93475D01*
X116575Y92075D02*
X116775D01*
X116675Y91975D02*
Y92175D01*
X114475Y94025D02*
X114675D01*
X114575Y93925D02*
Y94125D01*
X114475Y94675D02*
X114675D01*
X114575Y94575D02*
Y94775D01*
X71975Y3100D02*
X72175D01*
X72075Y3000D02*
Y3200D01*
X71432Y2636D02*
X71632D01*
X71532Y2536D02*
Y2736D01*
X70950Y3125D02*
X71150D01*
X71050Y3025D02*
Y3225D01*
X70432Y2636D02*
X70632D01*
X70532Y2536D02*
Y2736D01*
X68925Y3225D02*
X69125D01*
X69025Y3125D02*
Y3325D01*
X69432Y2636D02*
X69632D01*
X69532Y2536D02*
Y2736D01*
X105300Y95100D02*
X105500D01*
X105400Y95000D02*
Y95200D01*
X105300Y97700D02*
X105500D01*
X105400Y97600D02*
Y97800D01*
X69400Y24500D02*
X69600D01*
X69500Y24400D02*
Y24600D01*
X70400Y27500D02*
X70600D01*
X70500Y27400D02*
Y27600D01*
X70400Y29500D02*
X70600D01*
X70500Y29400D02*
Y29600D01*
X67875Y9550D02*
X68075D01*
X67975Y9450D02*
Y9650D01*
X107400Y66000D02*
X107600D01*
X107500Y65900D02*
Y66100D01*
X122525Y47325D02*
X122725D01*
X122625Y47225D02*
Y47425D01*
X107400Y48000D02*
X107600D01*
X107500Y47900D02*
Y48100D01*
X122163Y44468D02*
X122363D01*
X122263Y44368D02*
Y44568D01*
X122163Y47732D02*
X122363D01*
X122263Y47632D02*
Y47832D01*
X121350Y44468D02*
X121550D01*
X121450Y44368D02*
Y44568D01*
X121141Y70845D02*
X121341D01*
X121241Y70745D02*
Y70945D01*
X113013Y65955D02*
X113213D01*
X113113Y65855D02*
Y66055D01*
X118702Y66768D02*
X118902D01*
X118802Y66668D02*
Y66868D01*
X115525Y47325D02*
X115725D01*
X115625Y47225D02*
Y47425D01*
X118099Y47732D02*
X118299D01*
X118199Y47632D02*
Y47832D01*
X116025Y44875D02*
X116225D01*
X116125Y44775D02*
Y44975D01*
X107400Y50000D02*
X107600D01*
X107500Y49900D02*
Y50100D01*
X126150Y50500D02*
X126350D01*
X126250Y50400D02*
Y50600D01*
X109850Y50500D02*
X110050D01*
X109950Y50400D02*
Y50600D01*
X107400Y51000D02*
X107600D01*
X107500Y50900D02*
Y51100D01*
X109850Y51500D02*
X110050D01*
X109950Y51400D02*
Y51600D01*
X107400Y52000D02*
X107600D01*
X107500Y51900D02*
Y52100D01*
X109850Y52500D02*
X110050D01*
X109950Y52400D02*
Y52600D01*
X107400Y53000D02*
X107600D01*
X107500Y52900D02*
Y53100D01*
X123700Y61000D02*
X123900D01*
X123800Y60900D02*
Y61100D01*
X126150Y53500D02*
X126350D01*
X126250Y53400D02*
Y53600D01*
X110257Y61028D02*
X110457D01*
X110357Y60928D02*
Y61128D01*
X126557Y55097D02*
X126757D01*
X126657Y54997D02*
Y55197D01*
X111070Y55338D02*
X111270D01*
X111170Y55238D02*
Y55438D01*
X106180Y55338D02*
X106380D01*
X106280Y55238D02*
Y55438D01*
X123700Y58000D02*
X123900D01*
X123800Y57900D02*
Y58100D01*
X126557Y55910D02*
X126757D01*
X126657Y55810D02*
Y56010D01*
X114475Y97925D02*
X114675D01*
X114575Y97825D02*
Y98025D01*
X105300Y96400D02*
X105500D01*
X105400Y96300D02*
Y96500D01*
X68432Y8808D02*
X68632D01*
X68532Y8708D02*
Y8908D01*
X68400Y21475D02*
X68600D01*
X68500Y21375D02*
Y21575D01*
X63400Y22500D02*
X63600D01*
X63500Y22400D02*
Y22600D01*
X72850Y116625D02*
X73050D01*
X72950Y116525D02*
Y116725D01*
X72875Y113175D02*
X73075D01*
X72975Y113075D02*
Y113275D01*
X69625Y113150D02*
X69825D01*
X69725Y113050D02*
Y113250D01*
X69600Y116675D02*
X69800D01*
X69700Y116575D02*
Y116775D01*
X67050Y116675D02*
X67250D01*
X67150Y116575D02*
Y116775D01*
X38425Y112925D02*
X38625D01*
X38525Y112825D02*
Y113025D01*
X40275Y112925D02*
X40475D01*
X40375Y112825D02*
Y113025D01*
X40300Y116675D02*
X40500D01*
X40400Y116575D02*
Y116775D01*
X38425Y116700D02*
X38625D01*
X38525Y116600D02*
Y116800D01*
X36650Y114400D02*
X36850D01*
X36750Y114300D02*
Y114500D01*
X23075Y112975D02*
X23275D01*
X23175Y112875D02*
Y113075D01*
X24875Y112825D02*
X25075D01*
X24975Y112725D02*
Y112925D01*
X24850Y116700D02*
X25050D01*
X24950Y116600D02*
Y116800D01*
X23125Y116700D02*
X23325D01*
X23225Y116600D02*
Y116800D01*
X21475Y114500D02*
X21675D01*
X21575Y114400D02*
Y114600D01*
X10975Y115575D02*
X11175D01*
X11075Y115475D02*
Y115675D01*
X10900Y113975D02*
X11100D01*
X11000Y113875D02*
Y114075D01*
X7125Y113975D02*
X7325D01*
X7225Y113875D02*
Y114075D01*
X8075Y116525D02*
X8275D01*
X8175Y116425D02*
Y116625D01*
X6300Y114525D02*
X6500D01*
X6400Y114425D02*
Y114625D01*
X51850Y114550D02*
X52050D01*
X51950Y114450D02*
Y114650D01*
X55500Y116500D02*
X55700D01*
X55600Y116400D02*
Y116600D01*
X53775Y116525D02*
X53975D01*
X53875Y116425D02*
Y116625D01*
X53775Y112875D02*
X53975D01*
X53875Y112775D02*
Y112975D01*
X55500Y112900D02*
X55700D01*
X55600Y112800D02*
Y113000D01*
X65400Y32500D02*
X65600D01*
X65500Y32400D02*
Y32600D01*
X70400Y25500D02*
X70600D01*
X70500Y25400D02*
Y25600D01*
X81050Y35375D02*
X81250D01*
X81150Y35275D02*
Y35475D01*
X83404Y41027D02*
X83604D01*
X83504Y40927D02*
Y41127D01*
X35275Y85100D02*
X35475D01*
X35375Y85000D02*
Y85200D01*
X35775Y76075D02*
X35975D01*
X35875Y75975D02*
Y76175D01*
X49900Y85075D02*
X50100D01*
X50000Y84975D02*
Y85175D01*
X20150Y84800D02*
X20350D01*
X20250Y84700D02*
Y84900D01*
X20150Y75975D02*
X20350D01*
X20250Y75875D02*
Y76075D01*
X35250Y114375D02*
X35450D01*
X35350Y114275D02*
Y114475D01*
X20000Y114500D02*
X20200D01*
X20100Y114400D02*
Y114600D01*
X20173Y106000D02*
X20373D01*
X20273Y105900D02*
Y106100D01*
X4950Y114475D02*
X5150D01*
X5050Y114375D02*
Y114575D01*
X5150Y105975D02*
X5350D01*
X5250Y105875D02*
Y106075D01*
X65875Y107800D02*
X66075D01*
X65975Y107700D02*
Y107900D01*
X65900Y108600D02*
X66100D01*
X66000Y108500D02*
Y108700D01*
X64428Y108530D02*
X64628D01*
X64528Y108430D02*
Y108630D01*
X63825Y108825D02*
X64025D01*
X63925Y108725D02*
Y108925D01*
X51425Y108625D02*
X51625D01*
X51525Y108525D02*
Y108725D01*
X51600Y110200D02*
X51800D01*
X51700Y110100D02*
Y110300D01*
X50625Y108625D02*
X50825D01*
X50725Y108525D02*
Y108725D01*
X50675Y110200D02*
X50875D01*
X50775Y110100D02*
Y110300D01*
X35601Y108500D02*
X35801D01*
X35701Y108400D02*
Y108600D01*
X36401Y108500D02*
X36601D01*
X36501Y108400D02*
Y108600D01*
X36001Y108100D02*
X36201D01*
X36101Y108000D02*
Y108200D01*
X35176Y108100D02*
X35376D01*
X35276Y108000D02*
Y108200D01*
X20576Y108500D02*
X20776D01*
X20676Y108400D02*
Y108600D01*
X21376Y108500D02*
X21576D01*
X21476Y108400D02*
Y108600D01*
X20976Y108100D02*
X21176D01*
X21076Y108000D02*
Y108200D01*
X20151Y108100D02*
X20351D01*
X20251Y108000D02*
Y108200D01*
X5125Y108100D02*
X5325D01*
X5225Y108000D02*
Y108200D01*
X5950Y108100D02*
X6150D01*
X6050Y108000D02*
Y108200D01*
X6350Y108500D02*
X6550D01*
X6450Y108400D02*
Y108600D01*
X5550Y108500D02*
X5750D01*
X5650Y108400D02*
Y108600D01*
X40625Y43400D02*
X40825D01*
X40725Y43300D02*
Y43500D01*
X44600Y39125D02*
X44800D01*
X44700Y39025D02*
Y39225D01*
X34552Y35398D02*
X34752D01*
X34652Y35298D02*
Y35498D01*
X28300Y87050D02*
X28500D01*
X28400Y86950D02*
Y87150D01*
X23525Y83625D02*
X23725D01*
X23625Y83525D02*
Y83725D01*
X23525Y87000D02*
X23725D01*
X23625Y86900D02*
Y87100D01*
X72304Y41502D02*
X72504D01*
X72404Y41402D02*
Y41602D01*
X75975Y43200D02*
X76175D01*
X76075Y43100D02*
Y43300D01*
X35950Y104425D02*
X36150D01*
X36050Y104325D02*
Y104525D01*
X84700Y47700D02*
X84900D01*
X84800Y47600D02*
Y47800D01*
X80125Y41250D02*
X80325D01*
X80225Y41150D02*
Y41350D01*
X80450Y39050D02*
X80650D01*
X80550Y38950D02*
Y39150D01*
X80075Y37825D02*
X80275D01*
X80175Y37725D02*
Y37925D01*
X80575Y78575D02*
X80775D01*
X80675Y78475D02*
Y78675D01*
X80525Y81250D02*
X80725D01*
X80625Y81150D02*
Y81350D01*
X73200Y83350D02*
X73400D01*
X73300Y83250D02*
Y83450D01*
X73175Y87100D02*
X73375D01*
X73275Y87000D02*
Y87200D01*
X45075Y36075D02*
X45275D01*
X45175Y35975D02*
Y36175D01*
X57000Y11675D02*
X57200D01*
X57100Y11575D02*
Y11775D01*
X53925Y31875D02*
X54125D01*
X54025Y31775D02*
Y31975D01*
X44750Y32125D02*
X44950D01*
X44850Y32025D02*
Y32225D01*
X4925Y84975D02*
X5125D01*
X5025Y84875D02*
Y85075D01*
X4975Y75075D02*
X5175D01*
X5075Y74975D02*
Y75175D01*
X36475Y33525D02*
X36675D01*
X36575Y33425D02*
Y33625D01*
X35275Y39950D02*
X35475D01*
X35375Y39850D02*
Y40050D01*
X26250Y50100D02*
X26450D01*
X26350Y50000D02*
Y50200D01*
X38975Y83275D02*
X39175D01*
X39075Y83175D02*
Y83375D01*
X39025Y86825D02*
X39225D01*
X39125Y86725D02*
Y86925D01*
X36688Y104425D02*
X36888D01*
X36787Y104325D02*
Y104525D01*
X66400Y35500D02*
X66600D01*
X66500Y35400D02*
Y35600D01*
X65400Y39500D02*
X65600D01*
X65500Y39400D02*
Y39600D01*
X58650Y6075D02*
X58850D01*
X58750Y5975D02*
Y6175D01*
X58150Y6075D02*
X58350D01*
X58250Y5975D02*
Y6175D01*
X57500Y11675D02*
X57700D01*
X57600Y11575D02*
Y11775D01*
X59375Y12375D02*
X59575D01*
X59475Y12275D02*
Y12475D01*
X58875Y12375D02*
X59075D01*
X58975Y12275D02*
Y12475D01*
X55950Y12775D02*
X56150D01*
X56050Y12675D02*
Y12875D01*
X55450Y12775D02*
X55650D01*
X55550Y12675D02*
Y12875D01*
X52200Y27400D02*
X52400D01*
X52300Y27300D02*
Y27500D01*
X60400D02*
X60600D01*
X60500Y27400D02*
Y27600D01*
X89086Y116623D02*
X89286D01*
X89186Y116523D02*
Y116723D01*
X85360Y116623D02*
X85560D01*
X85460Y116523D02*
Y116723D01*
X89085Y113373D02*
X89285D01*
X89185Y113273D02*
Y113473D01*
X85425Y113300D02*
X85625D01*
X85525Y113200D02*
Y113400D01*
X82241Y114800D02*
X82441D01*
X82341Y114700D02*
Y114900D01*
X11485Y84623D02*
X11685D01*
X11585Y84523D02*
Y84723D01*
X11485Y86223D02*
X11685D01*
X11585Y86123D02*
Y86323D01*
X9085Y84623D02*
X9285D01*
X9185Y84523D02*
Y84723D01*
X9085Y86223D02*
X9285D01*
X9185Y86123D02*
Y86323D01*
X6550Y85475D02*
X6750D01*
X6650Y85375D02*
Y85575D01*
X21655Y85475D02*
X21855D01*
X21755Y85375D02*
Y85575D01*
X36760Y85475D02*
X36960D01*
X36860Y85375D02*
Y85575D01*
X51865Y85475D02*
X52065D01*
X51965Y85375D02*
Y85575D01*
X55916Y84223D02*
X56116D01*
X56016Y84123D02*
Y84323D01*
X55916Y85823D02*
X56116D01*
X56016Y85723D02*
Y85923D01*
X58316Y85823D02*
X58516D01*
X58416Y85723D02*
Y85923D01*
X58316Y84223D02*
X58516D01*
X58416Y84123D02*
Y84323D01*
X66970Y85475D02*
X67170D01*
X67070Y85375D02*
Y85575D01*
X82075Y85475D02*
X82275D01*
X82175Y85375D02*
Y85575D01*
X85150Y84400D02*
X85350D01*
X85250Y84300D02*
Y84500D01*
X85150Y86000D02*
X85350D01*
X85250Y85900D02*
Y86100D01*
X87575Y86000D02*
X87775D01*
X87675Y85900D02*
Y86100D01*
X87725Y84400D02*
X87925D01*
X87825Y84300D02*
Y84500D01*
X74900Y58950D02*
X75100D01*
X75000Y58850D02*
Y59050D01*
X79750Y58950D02*
X79950D01*
X79850Y58850D02*
Y59050D01*
X82450Y46750D02*
X82650D01*
X82550Y46650D02*
Y46850D01*
X91750Y46875D02*
X91950D01*
X91850Y46775D02*
Y46975D01*
X88550Y46875D02*
X88750D01*
X88650Y46775D02*
Y46975D01*
X88550Y43742D02*
X88750D01*
X88650Y43642D02*
Y43842D01*
X91750Y43742D02*
X91950D01*
X91850Y43642D02*
Y43842D01*
X91750Y40608D02*
X91950D01*
X91850Y40508D02*
Y40708D01*
X91750Y39125D02*
X91950D01*
X91850Y39025D02*
Y39225D01*
X88550Y39125D02*
X88750D01*
X88650Y39025D02*
Y39225D01*
X88575Y40450D02*
X88775D01*
X88675Y40350D02*
Y40550D01*
X80825Y44050D02*
X81025D01*
X80925Y43950D02*
Y44150D01*
X79700Y42875D02*
X79900D01*
X79800Y42775D02*
Y42975D01*
X84675Y35725D02*
X84875D01*
X84775Y35625D02*
Y35825D01*
X39925Y34900D02*
X40125D01*
X40025Y34800D02*
Y35000D01*
X28075Y41450D02*
X28275D01*
X28175Y41350D02*
Y41550D01*
X30475Y41250D02*
X30675D01*
X30575Y41150D02*
Y41350D01*
X28175Y37100D02*
X28375D01*
X28275Y37000D02*
Y37200D01*
X49725Y26500D02*
X49925D01*
X49825Y26400D02*
Y26600D01*
X83275Y31825D02*
X83475D01*
X83375Y31725D02*
Y31925D01*
X92700Y32975D02*
X92900D01*
X92800Y32875D02*
Y33075D01*
X92725Y30950D02*
X92925D01*
X92825Y30850D02*
Y31050D01*
X92725Y29000D02*
X92925D01*
X92825Y28900D02*
Y29100D01*
X92775Y27000D02*
X92975D01*
X92875Y26900D02*
Y27100D01*
X92800Y24975D02*
X93000D01*
X92900Y24875D02*
Y25075D01*
X92800Y23050D02*
X93000D01*
X92900Y22950D02*
Y23150D01*
X86550Y15850D02*
X86750D01*
X86650Y15750D02*
Y15950D01*
X90954Y5835D02*
X91154D01*
X91054Y5735D02*
Y5935D01*
X88354Y1645D02*
X88554D01*
X88454Y1545D02*
Y1745D01*
X87950Y-475D02*
X88150D01*
X88050Y-575D02*
Y-375D01*
X90375Y350D02*
X90575D01*
X90475Y250D02*
Y450D01*
X93400Y1550D02*
X93600D01*
X93500Y1450D02*
Y1650D01*
X51103Y15120D02*
X51303D01*
X51203Y15020D02*
Y15220D01*
X50278Y11096D02*
X50478D01*
X50378Y10996D02*
Y11196D01*
X45575Y11100D02*
X45775D01*
X45675Y11000D02*
Y11200D01*
X46103Y14296D02*
X46303D01*
X46203Y14196D02*
Y14396D01*
X41928Y11096D02*
X42128D01*
X42028Y10996D02*
Y11196D01*
X41928Y14296D02*
X42128D01*
X42028Y14196D02*
Y14396D01*
X-3175Y34975D02*
X-2975D01*
X-3075Y34875D02*
Y35075D01*
X-4475Y33450D02*
X-4275D01*
X-4375Y33350D02*
Y33550D01*
X-3175Y44100D02*
X-2975D01*
X-3075Y44000D02*
Y44200D01*
X-3175Y40950D02*
X-2975D01*
X-3075Y40850D02*
Y41050D01*
X-3505Y45395D02*
X-3305D01*
X-3405Y45295D02*
Y45495D01*
X-3500Y47125D02*
X-3300D01*
X-3400Y47025D02*
Y47225D01*
X-8925Y53575D02*
X-8725D01*
X-8825Y53475D02*
Y53675D01*
X-4775Y58575D02*
X-4575D01*
X-4675Y58475D02*
Y58675D01*
X-6525Y58575D02*
X-6325D01*
X-6425Y58475D02*
Y58675D01*
X51100Y24800D02*
X51300D01*
X51200Y24700D02*
Y24900D01*
X42500Y27200D02*
X42700D01*
X42600Y27100D02*
Y27300D01*
X68400Y32500D02*
X68600D01*
X68500Y32400D02*
Y32600D01*
X68400Y33500D02*
X68600D01*
X68500Y33400D02*
Y33600D01*
X75400Y21500D02*
X75600D01*
X75500Y21400D02*
Y21600D01*
X69400Y29500D02*
X69600D01*
X69500Y29400D02*
Y29600D01*
X72400Y30500D02*
X72600D01*
X72500Y30400D02*
Y30600D01*
X69400Y31500D02*
X69600D01*
X69500Y31400D02*
Y31600D01*
X69400Y30500D02*
X69600D01*
X69500Y30400D02*
Y30600D01*
X68400Y30500D02*
X68600D01*
X68500Y30400D02*
Y30600D01*
X70400Y37500D02*
X70600D01*
X70500Y37400D02*
Y37600D01*
X71400Y34500D02*
X71600D01*
X71500Y34400D02*
Y34600D01*
X74400Y35500D02*
X74600D01*
X74500Y35400D02*
Y35600D01*
X73400Y38500D02*
X73600D01*
X73500Y38400D02*
Y38600D01*
X76900Y39000D02*
X77100D01*
X77000Y38900D02*
Y39100D01*
X53900Y42000D02*
X54100D01*
X54000Y41900D02*
Y42100D01*
X55400Y39500D02*
X55600D01*
X55500Y39400D02*
Y39600D01*
X56400Y36500D02*
X56600D01*
X56500Y36400D02*
Y36600D01*
X58400Y40500D02*
X58600D01*
X58500Y40400D02*
Y40600D01*
X61400Y41500D02*
X61600D01*
X61500Y41400D02*
Y41600D01*
X64900Y43000D02*
X65100D01*
X65000Y42900D02*
Y43100D01*
X69400Y40500D02*
X69600D01*
X69500Y40400D02*
Y40600D01*
X59400Y37500D02*
X59600D01*
X59500Y37400D02*
Y37600D01*
X62400Y38500D02*
X62600D01*
X62500Y38400D02*
Y38600D01*
X64400Y35500D02*
X64600D01*
X64500Y35400D02*
Y35600D01*
X60400Y33500D02*
X60600D01*
X60500Y33400D02*
Y33600D01*
X62400Y31500D02*
X62600D01*
X62500Y31400D02*
Y31600D01*
X61400Y31500D02*
X61600D01*
X61500Y31400D02*
Y31600D01*
X61400Y30500D02*
X61600D01*
X61500Y30400D02*
Y30600D01*
X63400Y30500D02*
X63600D01*
X63500Y30400D02*
Y30600D01*
X64400Y30500D02*
X64600D01*
X64500Y30400D02*
Y30600D01*
X65400Y30500D02*
X65600D01*
X65500Y30400D02*
Y30600D01*
X65400Y29500D02*
X65600D01*
X65500Y29400D02*
Y29600D01*
X65400Y28500D02*
X65600D01*
X65500Y28400D02*
Y28600D01*
X64400Y28500D02*
X64600D01*
X64500Y28400D02*
Y28600D01*
X68400Y28500D02*
X68600D01*
X68500Y28400D02*
Y28600D01*
X69400Y27500D02*
X69600D01*
X69500Y27400D02*
Y27600D01*
X67400Y27500D02*
X67600D01*
X67500Y27400D02*
Y27600D01*
X65400Y27500D02*
X65600D01*
X65500Y27400D02*
Y27600D01*
X66400Y26500D02*
X66600D01*
X66500Y26400D02*
Y26600D01*
X76900Y29000D02*
X77100D01*
X77000Y28900D02*
Y29100D01*
X73400Y24500D02*
X73600D01*
X73500Y24400D02*
Y24600D01*
X73400Y27500D02*
X73600D01*
X73500Y27400D02*
Y27600D01*
X71400Y24500D02*
X71600D01*
X71500Y24400D02*
Y24600D01*
X68400Y22500D02*
X68600D01*
X68500Y22400D02*
Y22600D01*
X71900Y20000D02*
X72100D01*
X72000Y19900D02*
Y20100D01*
X65400Y21500D02*
X65600D01*
X65500Y21400D02*
Y21600D01*
X61900Y20000D02*
X62100D01*
X62000Y19900D02*
Y20100D01*
X64400Y24500D02*
X64600D01*
X64500Y24400D02*
Y24600D01*
X64400Y26500D02*
X64600D01*
X64500Y26400D02*
Y26600D01*
X63400Y27500D02*
X63600D01*
X63500Y27400D02*
Y27600D01*
X62400Y28500D02*
X62600D01*
X62500Y28400D02*
Y28600D01*
X61400Y28500D02*
X61600D01*
X61500Y28400D02*
Y28600D01*
X61400Y27500D02*
X61600D01*
X61500Y27400D02*
Y27600D01*
X62400Y26500D02*
X62600D01*
X62500Y26400D02*
Y26600D01*
X61400Y26500D02*
X61600D01*
X61500Y26400D02*
Y26600D01*
X61400Y24500D02*
X61600D01*
X61500Y24400D02*
Y24600D01*
X60400Y25500D02*
X60600D01*
X60500Y25400D02*
Y25600D01*
X60400Y24500D02*
X60600D01*
X60500Y24400D02*
Y24600D01*
X59400Y24500D02*
X59600D01*
X59500Y24400D02*
Y24600D01*
X58400Y27500D02*
X58600D01*
X58500Y27400D02*
Y27600D01*
X58400Y26500D02*
X58600D01*
X58500Y26400D02*
Y26600D01*
X57400Y27500D02*
X57600D01*
X57500Y27400D02*
Y27600D01*
X57400Y32500D02*
X57600D01*
X57500Y32400D02*
Y32600D01*
X53900Y29000D02*
X54100D01*
X54000Y28900D02*
Y29100D01*
X53900Y27000D02*
X54100D01*
X54000Y26900D02*
Y27100D01*
X56400Y25500D02*
X56600D01*
X56500Y25400D02*
Y25600D01*
X58400Y23500D02*
X58600D01*
X58500Y23400D02*
Y23600D01*
X57400Y23500D02*
X57600D01*
X57500Y23400D02*
Y23600D01*
X57400Y22500D02*
X57600D01*
X57500Y22400D02*
Y22600D01*
X56400Y22500D02*
X56600D01*
X56500Y22400D02*
Y22600D01*
X55400Y22500D02*
X55600D01*
X55500Y22400D02*
Y22600D01*
X53900Y22000D02*
X54100D01*
X54000Y21900D02*
Y22100D01*
X53900Y23000D02*
X54100D01*
X54000Y22900D02*
Y23100D01*
X53900Y25000D02*
X54100D01*
X54000Y24900D02*
Y25100D01*
X56400Y29500D02*
X56600D01*
X56500Y29400D02*
Y29600D01*
X58400Y30500D02*
X58600D01*
X58500Y30400D02*
Y30600D01*
X59400Y30500D02*
X59600D01*
X59500Y30400D02*
Y30600D01*
X59400Y31500D02*
X59600D01*
X59500Y31400D02*
Y31600D01*
X57400Y31500D02*
X57600D01*
X57500Y31400D02*
Y31600D01*
X56400Y31500D02*
X56600D01*
X56500Y31400D02*
Y31600D01*
X55400Y31500D02*
X55600D01*
X55500Y31400D02*
Y31600D01*
X53900Y31000D02*
X54100D01*
X54000Y30900D02*
Y31100D01*
X68400Y29500D02*
X68600D01*
X68500Y29400D02*
Y29600D01*
X69400Y26500D02*
X69600D01*
X69500Y26400D02*
Y26600D01*
X67400Y26500D02*
X67600D01*
X67500Y26400D02*
Y26600D01*
X65400Y26500D02*
X65600D01*
X65500Y26400D02*
Y26600D01*
X63400Y26500D02*
X63600D01*
X63500Y26400D02*
Y26600D01*
X63400Y31500D02*
X63600D01*
X63500Y31400D02*
Y31600D01*
X59900Y43000D02*
X60100D01*
X60000Y42900D02*
Y43100D01*
X56400Y41500D02*
X56600D01*
X56500Y41400D02*
Y41600D01*
X63400Y40500D02*
X63600D01*
X63500Y40400D02*
Y40600D01*
X60400Y39500D02*
X60600D01*
X60500Y39400D02*
Y39600D01*
X57400Y38500D02*
X57600D01*
X57500Y38400D02*
Y38600D01*
X65400Y37500D02*
X65600D01*
X65500Y37400D02*
Y37600D01*
X61400Y36500D02*
X61600D01*
X61500Y36400D02*
Y36600D01*
X53900Y37000D02*
X54100D01*
X54000Y36900D02*
Y37100D01*
X58400Y35500D02*
X58600D01*
X58500Y35400D02*
Y35600D01*
X59400Y32500D02*
X59600D01*
X59500Y32400D02*
Y32600D01*
X62400Y33500D02*
X62600D01*
X62500Y33400D02*
Y33600D01*
X66400Y34500D02*
X66600D01*
X66500Y34400D02*
Y34600D01*
X68400Y38500D02*
X68600D01*
X68500Y38400D02*
Y38600D01*
X71400Y39500D02*
X71600D01*
X71500Y39400D02*
Y39600D01*
X74400Y40500D02*
X74600D01*
X74500Y40400D02*
Y40600D01*
X75400Y37500D02*
X75600D01*
X75500Y37400D02*
Y37600D01*
X72400Y36500D02*
X72600D01*
X72500Y36400D02*
Y36600D01*
X69400Y35500D02*
X69600D01*
X69500Y35400D02*
Y35600D01*
X70400Y32500D02*
X70600D01*
X70500Y32400D02*
Y32600D01*
X73400Y33500D02*
X73600D01*
X73500Y33400D02*
Y33600D01*
X76900Y34000D02*
X77100D01*
X77000Y33900D02*
Y34100D01*
X75400Y27500D02*
X75600D01*
X75500Y27400D02*
Y27600D01*
X61400Y25500D02*
X61600D01*
X61500Y25400D02*
Y25600D01*
X72400Y25500D02*
X72600D01*
X72500Y25400D02*
Y25600D01*
X76900Y24000D02*
X77100D01*
X77000Y23900D02*
Y24100D01*
X73400Y22500D02*
X73600D01*
X73500Y22400D02*
Y22600D01*
X66400Y23500D02*
X66600D01*
X66500Y23400D02*
Y23600D01*
X70400Y21500D02*
X70600D01*
X70500Y21400D02*
Y21600D01*
X66900Y20000D02*
X67100D01*
X67000Y19900D02*
Y20100D01*
X60400Y21500D02*
X60600D01*
X60500Y21400D02*
Y21600D01*
X56900Y20000D02*
X57100D01*
X57000Y19900D02*
Y20100D01*
X57400Y29500D02*
X57600D01*
X57500Y29400D02*
Y29600D01*
X59400Y28500D02*
X59600D01*
X59500Y28400D02*
Y28600D01*
X59400Y27500D02*
X59600D01*
X59500Y27400D02*
Y27600D01*
X57400Y25500D02*
X57600D01*
X57500Y25400D02*
Y25600D01*
X56400Y24500D02*
X56600D01*
X56500Y24400D02*
Y24600D01*
X56400Y27500D02*
X56600D01*
X56500Y27400D02*
Y27600D01*
X56400Y28500D02*
X56600D01*
X56500Y28400D02*
Y28600D01*
X55400Y30500D02*
X55600D01*
X55500Y30400D02*
Y30600D01*
X66400Y32500D02*
X66600D01*
X66500Y32400D02*
Y32600D01*
X63400Y29500D02*
X63600D01*
X63500Y29400D02*
Y29600D01*
X63400Y32500D02*
X63600D01*
X63500Y32400D02*
Y32600D01*
X61400Y32500D02*
X61600D01*
X61500Y32400D02*
Y32600D01*
X69400Y28500D02*
X69600D01*
X69500Y28400D02*
Y28600D01*
X66400Y27500D02*
X66600D01*
X66500Y27400D02*
Y27600D01*
X68400Y27500D02*
X68600D01*
X68500Y27400D02*
Y27600D01*
X67400Y30500D02*
X67600D01*
X67500Y30400D02*
Y30600D01*
X65400Y31500D02*
X65600D01*
X65500Y31400D02*
Y31600D01*
X62400Y30500D02*
X62600D01*
X62500Y30400D02*
Y30600D01*
X64400Y27500D02*
X64600D01*
X64500Y27400D02*
Y27600D01*
X63400Y28500D02*
X63600D01*
X63500Y28400D02*
Y28600D01*
X62400Y27500D02*
X62600D01*
X62500Y27400D02*
Y27600D01*
X60650Y5775D02*
X60850D01*
X60750Y5675D02*
Y5875D01*
X60150Y5775D02*
X60350D01*
X60250Y5675D02*
Y5875D01*
X57425Y2925D02*
X57625D01*
X57525Y2825D02*
Y3025D01*
X57425Y6650D02*
X57625D01*
X57525Y6550D02*
Y6750D01*
X87975Y36800D02*
X88175D01*
X88075Y36700D02*
Y36900D01*
X82100Y40075D02*
X82300D01*
X82200Y39975D02*
Y40175D01*
X16725Y150D02*
X16925D01*
X16825Y50D02*
Y250D01*
X19225Y150D02*
X19425D01*
X19325Y50D02*
Y250D01*
X21725Y150D02*
X21925D01*
X21825Y50D02*
Y250D01*
X24225Y150D02*
X24425D01*
X24325Y50D02*
Y250D01*
X26722Y263D02*
X26922D01*
X26822Y163D02*
Y363D01*
X69929Y150D02*
X70129D01*
X70029Y50D02*
Y250D01*
X67429Y150D02*
X67629D01*
X67529Y50D02*
Y250D01*
X64929Y150D02*
X65129D01*
X65029Y50D02*
Y250D01*
X62429Y150D02*
X62629D01*
X62529Y50D02*
Y250D01*
X59929Y150D02*
X60129D01*
X60029Y50D02*
Y250D01*
X66925Y6400D02*
X67125D01*
X67025Y6300D02*
Y6500D01*
X16725Y51542D02*
X16925D01*
X16825Y51442D02*
Y51642D01*
X19225Y51542D02*
X19425D01*
X19325Y51442D02*
Y51642D01*
X21725Y51542D02*
X21925D01*
X21825Y51442D02*
Y51642D01*
X24225Y51542D02*
X24425D01*
X24325Y51442D02*
Y51642D01*
X26725Y45370D02*
X26925D01*
X26825Y45270D02*
Y45470D01*
X81375Y110275D02*
X81575D01*
X81475Y110175D02*
Y110375D01*
X79375Y108425D02*
X79575D01*
X79475Y108325D02*
Y108525D01*
X79350Y39000D02*
X79550D01*
X79450Y38900D02*
Y39100D01*
X78575Y108425D02*
X78775D01*
X78675Y108325D02*
Y108525D01*
X77975Y28475D02*
X78175D01*
X78075Y28375D02*
Y28575D01*
X77775Y108400D02*
X77975D01*
X77875Y108300D02*
Y108500D01*
X76969Y108406D02*
X77169D01*
X77069Y108306D02*
Y108506D01*
X77000Y40600D02*
X77200D01*
X77100Y40500D02*
Y40700D01*
X76175Y108400D02*
X76375D01*
X76275Y108300D02*
Y108500D01*
X81369Y105881D02*
X81569D01*
X81469Y105781D02*
Y105981D01*
X80175Y105875D02*
X80375D01*
X80275Y105775D02*
Y105975D01*
X78950Y105675D02*
X79150D01*
X79050Y105575D02*
Y105775D01*
X78950Y37450D02*
X79150D01*
X79050Y37350D02*
Y37550D01*
X78129Y105655D02*
X78329D01*
X78229Y105555D02*
Y105755D01*
X77950Y27225D02*
X78150D01*
X78050Y27125D02*
Y27325D01*
X77350Y105625D02*
X77550D01*
X77450Y105525D02*
Y105725D01*
X77350Y41900D02*
X77550D01*
X77450Y41800D02*
Y42000D01*
X76600Y105625D02*
X76800D01*
X76700Y105525D02*
Y105725D01*
X76600Y44125D02*
X76800D01*
X76700Y44025D02*
Y44225D01*
X75804Y105630D02*
X76004D01*
X75904Y105530D02*
Y105730D01*
X75675Y44675D02*
X75875D01*
X75775Y44575D02*
Y44775D01*
X82163Y106150D02*
X82363D01*
X82263Y106050D02*
Y106250D01*
X81775Y107750D02*
X81975D01*
X81875Y107650D02*
Y107850D01*
X79775Y107750D02*
X79975D01*
X79875Y107650D02*
Y107850D01*
X78975Y107750D02*
X79175D01*
X79075Y107650D02*
Y107850D01*
X78175Y107750D02*
X78375D01*
X78275Y107650D02*
Y107850D01*
X77375Y107750D02*
X77575D01*
X77475Y107650D02*
Y107850D01*
X76575Y107750D02*
X76775D01*
X76675Y107650D02*
Y107850D01*
X75775Y107750D02*
X75975D01*
X75875Y107650D02*
Y107850D01*
X75775Y110250D02*
X75975D01*
X75875Y110150D02*
Y110350D01*
X76575Y110250D02*
X76775D01*
X76675Y110150D02*
Y110350D01*
X77375Y110250D02*
X77575D01*
X77475Y110150D02*
Y110350D01*
X78175Y110250D02*
X78375D01*
X78275Y110150D02*
Y110350D01*
X78975Y110250D02*
X79175D01*
X79075Y110150D02*
Y110350D01*
X79775Y110250D02*
X79975D01*
X79875Y110150D02*
Y110350D01*
X82175Y110250D02*
X82375D01*
X82275Y110150D02*
Y110350D01*
X81763Y108650D02*
X81963D01*
X81863Y108550D02*
Y108750D01*
X80575Y107750D02*
X80775D01*
X80675Y107650D02*
Y107850D01*
X80750Y105875D02*
X80950D01*
X80850Y105775D02*
Y105975D01*
X80963Y108625D02*
X81163D01*
X81063Y108525D02*
Y108725D01*
X80163Y108625D02*
X80363D01*
X80263Y108525D02*
Y108725D01*
X80575Y110275D02*
X80775D01*
X80675Y110175D02*
Y110375D01*
X80650Y114075D02*
X80850D01*
X80750Y113975D02*
Y114175D01*
X81975Y75800D02*
X82175D01*
X82075Y75700D02*
Y75900D01*
X78700Y24975D02*
X78900D01*
X78800Y24875D02*
Y25075D01*
X80750Y75800D02*
X80950D01*
X80850Y75700D02*
Y75900D01*
X78175Y26000D02*
X78375D01*
X78275Y25900D02*
Y26100D01*
X79775Y75775D02*
X79975D01*
X79875Y75675D02*
Y75875D01*
X77600Y29525D02*
X77800D01*
X77700Y29425D02*
Y29625D01*
X79750Y74775D02*
X79950D01*
X79850Y74675D02*
Y74875D01*
X79704Y78404D02*
X79904D01*
X79804Y78304D02*
Y78504D01*
X77379Y30201D02*
X77579D01*
X77479Y30101D02*
Y30301D01*
X79750Y73425D02*
X79950D01*
X79850Y73325D02*
Y73525D01*
X76400Y26450D02*
X76600D01*
X76500Y26350D02*
Y26550D01*
X79775Y72525D02*
X79975D01*
X79875Y72425D02*
Y72625D01*
X75425Y29475D02*
X75625D01*
X75525Y29375D02*
Y29575D01*
X79775Y71425D02*
X79975D01*
X79875Y71325D02*
Y71525D01*
X74400Y38525D02*
X74600D01*
X74500Y38425D02*
Y38625D01*
X36611Y80338D02*
X36811D01*
X36711Y80238D02*
Y80438D01*
X35811Y80338D02*
X36011D01*
X35911Y80238D02*
Y80438D01*
X35411Y78562D02*
X35611D01*
X35511Y78462D02*
Y78662D01*
X36211Y78562D02*
X36411D01*
X36311Y78462D02*
Y78662D01*
X20950Y78562D02*
X21150D01*
X21050Y78462D02*
Y78662D01*
X20150Y78562D02*
X20350D01*
X20250Y78462D02*
Y78662D01*
X20550Y80338D02*
X20750D01*
X20650Y80238D02*
Y80438D01*
X21350Y80338D02*
X21550D01*
X21450Y80238D02*
Y80438D01*
X5775Y78562D02*
X5975D01*
X5875Y78462D02*
Y78662D01*
X4975Y78562D02*
X5175D01*
X5075Y78462D02*
Y78662D01*
X5375Y80338D02*
X5575D01*
X5475Y80238D02*
Y80438D01*
X6175Y80338D02*
X6375D01*
X6275Y80238D02*
Y80438D01*
X75375Y78800D02*
X75575D01*
X75475Y78700D02*
Y78900D01*
X75375Y78200D02*
X75575D01*
X75475Y78100D02*
Y78300D01*
X75375Y77600D02*
X75575D01*
X75475Y77500D02*
Y77700D01*
X75400Y76950D02*
X75600D01*
X75500Y76850D02*
Y77050D01*
X76575Y43400D02*
X76775D01*
X76675Y43300D02*
Y43500D01*
X77775Y39775D02*
X77975D01*
X77875Y39675D02*
Y39875D01*
X77352Y40227D02*
X77552D01*
X77452Y40127D02*
Y40327D01*
X75400Y41500D02*
X75600D01*
X75500Y41400D02*
Y41600D01*
X73400Y25500D02*
X73600D01*
X73500Y25400D02*
Y25600D01*
X80529Y80429D02*
X80729D01*
X80629Y80329D02*
Y80529D01*
X81900Y78600D02*
X82100D01*
X82000Y78500D02*
Y78700D01*
X80675Y84150D02*
X80875D01*
X80775Y84050D02*
Y84250D01*
X74900Y43000D02*
X75100D01*
X75000Y42900D02*
Y43100D01*
X69900Y43000D02*
X70100D01*
X70000Y42900D02*
Y43100D01*
X43700Y40450D02*
X43900D01*
X43800Y40350D02*
Y40550D01*
X31925Y32475D02*
X32125D01*
X32025Y32375D02*
Y32575D01*
X67428Y41502D02*
X67628D01*
X67528Y41402D02*
Y41602D01*
X46200Y111425D02*
X46400D01*
X46300Y111325D02*
Y111525D01*
X47025Y110925D02*
X47225D01*
X47125Y110825D02*
Y111025D01*
X47850Y110425D02*
X48050D01*
X47950Y110325D02*
Y110525D01*
X48625Y108725D02*
X48825D01*
X48725Y108625D02*
Y108825D01*
X49400Y108600D02*
X49600D01*
X49500Y108500D02*
Y108700D01*
X46225Y108250D02*
X46425D01*
X46325Y108150D02*
Y108350D01*
X47025Y107800D02*
X47225D01*
X47125Y107700D02*
Y107900D01*
X47825Y106125D02*
X48025D01*
X47925Y106025D02*
Y106225D01*
X51325Y74425D02*
X51525D01*
X51425Y74325D02*
Y74525D01*
X48625Y106100D02*
X48825D01*
X48725Y106000D02*
Y106200D01*
X49425Y106125D02*
X49625D01*
X49525Y106025D02*
Y106225D01*
X50200Y106075D02*
X50400D01*
X50300Y105975D02*
Y106175D01*
X51425Y105550D02*
X51625D01*
X51525Y105450D02*
Y105650D01*
X55400Y34500D02*
X55600D01*
X55500Y34400D02*
Y34600D01*
X1151Y112499D02*
X1351D01*
X1251Y112399D02*
Y112599D01*
X1950Y111800D02*
X2150D01*
X2050Y111700D02*
Y111900D01*
X2790Y111085D02*
X2990D01*
X2890Y110985D02*
Y111185D01*
X3550Y110688D02*
X3750D01*
X3650Y110588D02*
Y110788D01*
X4350Y110300D02*
X4550D01*
X4450Y110200D02*
Y110400D01*
X39775Y33575D02*
X39975D01*
X39875Y33475D02*
Y33675D01*
X59500Y6350D02*
X59700D01*
X59600Y6250D02*
Y6450D01*
X65100Y106200D02*
X65300D01*
X65200Y106100D02*
Y106300D01*
X65450Y114450D02*
X65650D01*
X65550Y114350D02*
Y114550D01*
X50200Y113950D02*
X50400D01*
X50300Y113850D02*
Y114050D01*
X65475Y84625D02*
X65675D01*
X65575Y84525D02*
Y84725D01*
X69225Y87100D02*
X69425D01*
X69325Y87000D02*
Y87200D01*
X69225Y83450D02*
X69425D01*
X69325Y83350D02*
Y83550D01*
X6350Y102325D02*
X6550D01*
X6450Y102225D02*
Y102425D01*
X44300Y85850D02*
X44500D01*
X44400Y85750D02*
Y85950D01*
X44300Y84225D02*
X44500D01*
X44400Y84125D02*
Y84325D01*
X65475Y75025D02*
X65675D01*
X65575Y74925D02*
Y75125D01*
X3375Y36875D02*
X3575D01*
X3475Y36775D02*
Y36975D01*
X1825Y36764D02*
X2025D01*
X1925Y36664D02*
Y36864D01*
X1825Y38036D02*
X2025D01*
X1925Y37936D02*
Y38136D01*
X1825Y32950D02*
X2025D01*
X1925Y32850D02*
Y33050D01*
X1825Y40579D02*
X2025D01*
X1925Y40479D02*
Y40679D01*
X3325Y40675D02*
X3525D01*
X3425Y40575D02*
Y40775D01*
X1825Y41850D02*
X2025D01*
X1925Y41750D02*
Y41950D01*
X1825Y39307D02*
X2025D01*
X1925Y39207D02*
Y39407D01*
X1825Y35493D02*
X2025D01*
X1925Y35393D02*
Y35593D01*
X1825Y34221D02*
X2025D01*
X1925Y34121D02*
Y34321D01*
X1175Y34946D02*
X1375D01*
X1275Y34846D02*
Y35046D01*
X1175Y36218D02*
X1375D01*
X1275Y36118D02*
Y36318D01*
X1175Y40032D02*
X1375D01*
X1275Y39932D02*
Y40132D01*
X1175Y41304D02*
X1375D01*
X1275Y41204D02*
Y41404D01*
X1175Y33675D02*
X1375D01*
X1275Y33575D02*
Y33775D01*
X1175Y38761D02*
X1375D01*
X1275Y38661D02*
Y38861D01*
X1175Y37489D02*
X1375D01*
X1275Y37389D02*
Y37589D01*
X15825Y22425D02*
X16025D01*
X15925Y22325D02*
Y22525D01*
X3350Y20800D02*
X3550D01*
X3450Y20700D02*
Y20900D01*
X4600Y20775D02*
X4800D01*
X4700Y20675D02*
Y20875D01*
X500Y23000D02*
X700D01*
X600Y22900D02*
Y23100D01*
X14725Y27850D02*
X14925D01*
X14825Y27750D02*
Y27950D01*
X15450Y27850D02*
X15650D01*
X15550Y27750D02*
Y27950D01*
X16275Y27850D02*
X16475D01*
X16375Y27750D02*
Y27950D01*
X16275Y28675D02*
X16475D01*
X16375Y28575D02*
Y28775D01*
X15075Y27375D02*
X15275D01*
X15175Y27275D02*
Y27475D01*
X7425Y28050D02*
X7625D01*
X7525Y27950D02*
Y28150D01*
X3350Y28250D02*
X3550D01*
X3450Y28150D02*
Y28350D01*
X12600Y19675D02*
X12800D01*
X12700Y19575D02*
Y19775D01*
X12100Y19650D02*
X12300D01*
X12200Y19550D02*
Y19750D01*
X10100Y19700D02*
X10300D01*
X10200Y19600D02*
Y19800D01*
X9100Y19300D02*
X9300D01*
X9200Y19200D02*
Y19400D01*
X10975Y19250D02*
X11175D01*
X11075Y19150D02*
Y19350D01*
X8050Y27700D02*
X8250D01*
X8150Y27600D02*
Y27800D01*
X25726Y19001D02*
X25926D01*
X25826Y18901D02*
Y19101D01*
X30800Y20950D02*
X31000D01*
X30900Y20850D02*
Y21050D01*
X43426Y-2451D02*
X43626D01*
X43526Y-2551D02*
Y-2351D01*
X39616Y-2659D02*
X39816D01*
X39716Y-2759D02*
Y-2559D01*
X39616Y-1159D02*
X39816D01*
X39716Y-1259D02*
Y-1059D01*
X11100Y28600D02*
X11300D01*
X11200Y28500D02*
Y28700D01*
X12050Y34375D02*
X12250D01*
X12150Y34275D02*
Y34475D01*
X11600Y28575D02*
X11800D01*
X11700Y28475D02*
Y28675D01*
X12775Y34700D02*
X12975D01*
X12875Y34600D02*
Y34800D01*
X12100Y28575D02*
X12300D01*
X12200Y28475D02*
Y28675D01*
X12875Y33300D02*
X13075D01*
X12975Y33200D02*
Y33400D01*
X6900Y22925D02*
X7100D01*
X7000Y22825D02*
Y23025D01*
X6875Y22425D02*
X7075D01*
X6975Y22325D02*
Y22525D01*
X15850Y21050D02*
X16050D01*
X15950Y20950D02*
Y21150D01*
X16325Y26300D02*
X16525D01*
X16425Y26200D02*
Y26400D01*
X15875Y25875D02*
X16075D01*
X15975Y25775D02*
Y25975D01*
X6975Y21425D02*
X7175D01*
X7075Y21325D02*
Y21525D01*
X13600Y28600D02*
X13800D01*
X13700Y28500D02*
Y28700D01*
X8100Y32800D02*
X8300D01*
X8200Y32700D02*
Y32900D01*
X6725Y25425D02*
X6925D01*
X6825Y25325D02*
Y25525D01*
X7000Y25925D02*
X7200D01*
X7100Y25825D02*
Y26025D01*
X6975Y26925D02*
X7175D01*
X7075Y26825D02*
Y27025D01*
X750Y26900D02*
X950D01*
X850Y26800D02*
Y27000D01*
X6400Y26351D02*
X6600D01*
X6500Y26251D02*
Y26451D01*
X5950Y28250D02*
X6150D01*
X6050Y28150D02*
Y28350D01*
X4855Y28445D02*
X5055D01*
X4955Y28345D02*
Y28545D01*
X107600Y97050D02*
X107800D01*
X107700Y96950D02*
Y97150D01*
X113575Y93675D02*
X113775D01*
X113675Y93575D02*
Y93775D01*
X100550Y91200D02*
X100750D01*
X100650Y91100D02*
Y91300D01*
X101325Y98475D02*
X101525D01*
X101425Y98375D02*
Y98575D01*
X118675Y90650D02*
X118875D01*
X118775Y90550D02*
Y90750D01*
X127642Y97842D02*
X127842D01*
X127742Y97742D02*
Y97942D01*
X127625Y95075D02*
X127825D01*
X127725Y94975D02*
Y95175D01*
X127592Y92308D02*
X127792D01*
X127692Y92208D02*
Y92408D01*
X121325Y98600D02*
X121525D01*
X121425Y98500D02*
Y98700D01*
X16000Y12650D02*
X16200D01*
X16100Y12550D02*
Y12750D01*
X16531Y11025D02*
X16731D01*
X16631Y10925D02*
Y11125D01*
X19100Y19625D02*
X19300D01*
X19200Y19525D02*
Y19725D01*
X18650Y17700D02*
X18850D01*
X18750Y17600D02*
Y17800D01*
X6675Y32250D02*
X6875D01*
X6775Y32150D02*
Y32350D01*
X5325Y32225D02*
X5525D01*
X5425Y32125D02*
Y32325D01*
X20450Y31975D02*
X20650D01*
X20550Y31875D02*
Y32075D01*
X19205Y33745D02*
X19405D01*
X19305Y33645D02*
Y33845D01*
X17900Y31975D02*
X18100D01*
X18000Y31875D02*
Y32075D01*
X15150Y20175D02*
X15350D01*
X15250Y20075D02*
Y20275D01*
X20075Y22500D02*
X20275D01*
X20175Y22400D02*
Y22600D01*
X20425Y25525D02*
X20625D01*
X20525Y25425D02*
Y25625D01*
X2575Y23201D02*
X2775D01*
X2675Y23101D02*
Y23301D01*
X450Y24150D02*
X650D01*
X550Y24050D02*
Y24250D01*
X28260Y12065D02*
X28460D01*
X28360Y11965D02*
Y12165D01*
X29530Y12055D02*
X29730D01*
X29630Y11955D02*
Y12155D01*
X28275Y11425D02*
X28475D01*
X28375Y11325D02*
Y11525D01*
X28925Y12000D02*
X29125D01*
X29025Y11900D02*
Y12100D01*
X28275Y10725D02*
X28475D01*
X28375Y10625D02*
Y10825D01*
X41275Y-6125D02*
X41475D01*
X41375Y-6225D02*
Y-6025D01*
X40475Y-6075D02*
X40675D01*
X40575Y-6175D02*
Y-5975D01*
X107621Y-5021D02*
X107821D01*
X107721Y-5121D02*
Y-4921D01*
X114704Y-5021D02*
X114904D01*
X114804Y-5121D02*
Y-4921D01*
X121796Y-5021D02*
X121996D01*
X121896Y-5121D02*
Y-4921D01*
X128946Y-5021D02*
X129146D01*
X129046Y-5121D02*
Y-4921D01*
X146127Y-3827D02*
X146327D01*
X146227Y-3927D02*
Y-3727D01*
X146350Y19775D02*
X146550D01*
X146450Y19675D02*
Y19875D01*
X146127Y44177D02*
X146327D01*
X146227Y44077D02*
Y44277D01*
X146155Y67945D02*
X146355D01*
X146255Y67845D02*
Y68045D01*
X146075Y91600D02*
X146275D01*
X146175Y91500D02*
Y91700D01*
X133075Y84400D02*
X133275D01*
X133175Y84300D02*
Y84500D01*
X133075Y82525D02*
X133275D01*
X133175Y82425D02*
Y82625D01*
X98325Y100475D02*
X98525D01*
X98425Y100375D02*
Y100575D01*
X65000Y80700D02*
X65200D01*
X65100Y80600D02*
Y80800D01*
X65863Y80637D02*
X66063D01*
X65963Y80537D02*
Y80737D01*
X66263Y80137D02*
X66463D01*
X66363Y80037D02*
Y80237D01*
X66650Y80625D02*
X66850D01*
X66750Y80525D02*
Y80725D01*
X50425Y80375D02*
X50625D01*
X50525Y80275D02*
Y80475D01*
X50825Y81175D02*
X51025D01*
X50925Y81075D02*
Y81275D01*
X51225Y80325D02*
X51425D01*
X51325Y80225D02*
Y80425D01*
X51625Y81175D02*
X51825D01*
X51725Y81075D02*
Y81275D01*
X90475Y17550D02*
X90675D01*
X90575Y17450D02*
Y17650D01*
X86225Y59650D02*
X86425D01*
X86325Y59550D02*
Y59750D01*
X86300Y57675D02*
X86500D01*
X86400Y57575D02*
Y57775D01*
X84975Y55675D02*
X85175D01*
X85075Y55575D02*
Y55775D01*
X88550Y51875D02*
X88750D01*
X88650Y51775D02*
Y51975D01*
X129500Y70957D02*
X129700D01*
X129600Y70857D02*
Y71058D01*
X129500Y70308D02*
X129700D01*
X129600Y70207D02*
Y70408D01*
X129650Y67357D02*
X129850D01*
X129750Y67257D02*
Y67457D01*
X129075Y63682D02*
X129275D01*
X129175Y63583D02*
Y63783D01*
X129075Y63033D02*
X129275D01*
X129175Y62932D02*
Y63132D01*
X129450Y59857D02*
X129650D01*
X129550Y59757D02*
Y59958D01*
X129125Y56158D02*
X129325D01*
X129225Y56057D02*
Y56257D01*
X129125Y55507D02*
X129325D01*
X129225Y55408D02*
Y55607D01*
X129232Y53000D02*
X129432D01*
X129333Y52900D02*
Y53100D01*
X129607Y49175D02*
X129807D01*
X129708Y49075D02*
Y49275D01*
X128958Y49175D02*
X129158D01*
X129057Y49075D02*
Y49275D01*
X74400Y37500D02*
X74600D01*
X74500Y37400D02*
Y37600D01*
X74400Y30500D02*
X74600D01*
X74500Y30400D02*
Y30600D01*
X76147Y45197D02*
X76347D01*
X76247Y45097D02*
Y45297D01*
X122800Y61275D02*
X123000D01*
X122900Y61175D02*
Y61375D01*
X111450Y42725D02*
X111650D01*
X111550Y42625D02*
Y42825D01*
X110525Y42325D02*
X110725D01*
X110625Y42225D02*
Y42425D01*
X129175Y41243D02*
X129375D01*
X129275Y41143D02*
Y41342D01*
X129175Y40592D02*
X129375D01*
X129275Y40493D02*
Y40693D01*
M02*
