G04 Layer_Physical_Order=5*
G04 Layer_Color=128*
%FSLAX43Y43*%
%MOMM*%
G71*
G01*
G75*
%ADD10C,0.100*%
%ADD49C,0.200*%
%ADD51C,0.250*%
%ADD54C,0.300*%
%ADD65C,1.000*%
%ADD66C,1.300*%
%ADD67C,2.000*%
%ADD68C,1.400*%
%ADD69C,3.600*%
%ADD70C,1.900*%
%ADD71C,1.416*%
%ADD72C,2.100*%
%ADD73C,3.575*%
%ADD74C,0.600*%
%ADD77C,0.254*%
G36*
X163425Y-10000D02*
X146846D01*
Y120000D01*
X163425Y120000D01*
X163425Y-10000D01*
D02*
G37*
D10*
X163425Y-10000D02*
Y120000D01*
X-10000Y-10000D02*
X163425D01*
X-10000D02*
Y120000D01*
X163425D01*
D49*
X65966Y123450D02*
Y124450D01*
X66466D01*
X66633Y124283D01*
Y123950D01*
X66466Y123783D01*
X65966D01*
X67466Y124450D02*
X67132D01*
X66966Y124283D01*
Y123617D01*
X67132Y123450D01*
X67466D01*
X67632Y123617D01*
Y124283D01*
X67466Y124450D01*
X67966D02*
Y123450D01*
X68299Y123783D01*
X68632Y123450D01*
Y124450D01*
X69632D02*
X68965D01*
Y123450D01*
X69632D01*
X68965Y123950D02*
X69298D01*
X69965Y123450D02*
Y124450D01*
X70465D01*
X70631Y124283D01*
Y123950D01*
X70465Y123783D01*
X69965D01*
X70298D02*
X70631Y123450D01*
X71964D02*
Y124450D01*
X72464D01*
X72631Y124283D01*
Y123950D01*
X72464Y123783D01*
X71964D01*
X72964Y124450D02*
Y123450D01*
X73630D01*
X73964D02*
Y124116D01*
X74297Y124450D01*
X74630Y124116D01*
Y123450D01*
Y123950D01*
X73964D01*
X74963Y123450D02*
Y124450D01*
X75630Y123450D01*
Y124450D01*
X76629D02*
X75963D01*
Y123450D01*
X76629D01*
X75963Y123950D02*
X76296D01*
X65050Y124450D02*
Y123450D01*
X65550D01*
X65716Y123617D01*
Y123783D01*
X65550Y123950D01*
X65050D01*
X65550D01*
X65716Y124116D01*
Y124283D01*
X65550Y124450D01*
X65050D01*
X66549D02*
X66216D01*
X66050Y124283D01*
Y123617D01*
X66216Y123450D01*
X66549D01*
X66716Y123617D01*
Y124283D01*
X66549Y124450D01*
X67049Y123450D02*
Y124116D01*
X67382Y124450D01*
X67716Y124116D01*
Y123450D01*
Y123950D01*
X67049D01*
X68049Y123450D02*
Y124450D01*
X68549D01*
X68715Y124283D01*
Y123950D01*
X68549Y123783D01*
X68049D01*
X68382D02*
X68715Y123450D01*
X69049Y124450D02*
Y123450D01*
X69548D01*
X69715Y123617D01*
Y124283D01*
X69548Y124450D01*
X69049D01*
X71548D02*
X71215D01*
X71048Y124283D01*
Y123617D01*
X71215Y123450D01*
X71548D01*
X71714Y123617D01*
Y124283D01*
X71548Y124450D01*
X72048D02*
Y123617D01*
X72214Y123450D01*
X72547D01*
X72714Y123617D01*
Y124450D01*
X73047D02*
X73714D01*
X73380D01*
Y123450D01*
X74047Y124450D02*
Y123450D01*
X74713D01*
X75047Y124450D02*
X75380D01*
X75213D01*
Y123450D01*
X75047D01*
X75380D01*
X75880D02*
Y124450D01*
X76546Y123450D01*
Y124450D01*
X77546D02*
X76879D01*
Y123450D01*
X77546D01*
X76879Y123950D02*
X77213D01*
D51*
X15800Y31825D02*
Y33600D01*
X15475D02*
X15800D01*
Y31825D02*
Y32100D01*
Y29688D02*
Y31825D01*
X9975Y29688D02*
X15800D01*
X9975Y28150D02*
Y29688D01*
X6925Y28150D02*
X9975D01*
X6925D02*
Y31425D01*
X125225Y51175D02*
Y54200D01*
X125175Y83350D02*
Y85450D01*
X125225Y51175D02*
X128000D01*
Y83400D01*
X131625D01*
Y85450D01*
X125175D02*
X131625D01*
X125200Y89625D02*
X128525D01*
X125200Y87675D02*
Y89625D01*
X128525D02*
Y100500D01*
Y16950D02*
Y37838D01*
X125200Y41162D02*
X128525Y37838D01*
X123625Y43050D02*
Y43100D01*
X120825D02*
X123625D01*
X120825D02*
Y48825D01*
X122150D01*
Y64775D01*
X120150D02*
X122150D01*
X120150D02*
Y68675D01*
X118375D02*
X120150D01*
X117250Y77525D02*
X118350D01*
X118375Y68675D02*
Y70350D01*
Y75325D01*
X123625Y68900D02*
Y75325D01*
X118375D02*
X123625D01*
X116106Y71075D02*
X116125Y77525D01*
X116106Y70150D02*
Y71075D01*
X118350Y77525D02*
X121100D01*
X108200Y70150D02*
X116106D01*
X116800Y68675D02*
X118375D01*
X109350D02*
X116800D01*
X109350Y57850D02*
Y68675D01*
Y57850D02*
X111100D01*
Y52900D02*
Y57850D01*
X109525Y52900D02*
X111100D01*
X109525Y46725D02*
Y52900D01*
Y46725D02*
X116700D01*
Y48575D01*
X118750D01*
Y43600D02*
Y48575D01*
X116675Y43600D02*
X118750D01*
X116675D02*
Y45425D01*
X108525D02*
X116675D01*
X108525D02*
Y52925D01*
X105900D02*
X108525D01*
X105900D02*
Y57850D01*
X108200D01*
Y70150D01*
X116125Y77525D02*
X117250D01*
X121100D02*
X123625D01*
X13150Y-4225D02*
Y15275D01*
X10225D02*
X13150D01*
X10225D02*
Y17575D01*
X18225D01*
Y21150D01*
X20175D01*
Y10375D02*
Y21150D01*
X15200Y10375D02*
X20175D01*
X15200Y-3925D02*
Y10375D01*
X90625Y108725D02*
X104600D01*
Y106625D02*
Y108725D01*
X93875Y106625D02*
X104600D01*
X93875Y102575D02*
Y106625D01*
Y102575D02*
X102075D01*
Y92300D02*
Y102575D01*
Y92300D02*
X119475D01*
Y100500D01*
X128525D01*
X120525Y16800D02*
X123625D01*
Y89650D01*
X99150D02*
X123625D01*
X99150D02*
Y101150D01*
X90625D02*
X99150D01*
X90625D02*
Y108725D01*
X125200Y41162D02*
Y87675D01*
D54*
X19263Y31375D02*
X20931D01*
X18706Y33600D02*
X19263Y33044D01*
Y31375D02*
Y33044D01*
X13550Y31375D02*
Y33600D01*
X12500Y31375D02*
X13550D01*
X14375Y38350D02*
X14475D01*
X9925Y33900D02*
X14375Y38350D01*
X4150Y33900D02*
X9925D01*
X20931Y31375D02*
X26525D01*
X4150D02*
X12500D01*
X69800Y31800D02*
X72700D01*
X69800D02*
Y34050D01*
X66975D02*
X69800D01*
X72700Y26800D02*
Y31800D01*
X60150Y26925D02*
X61075Y26000D01*
X61200Y21425D02*
Y23825D01*
X60050Y15000D02*
X60150D01*
X59175Y14125D02*
X60050Y15000D01*
X60150D02*
X128525D01*
X31450Y18331D02*
Y26450D01*
X26875Y9675D02*
X33500D01*
X26875D02*
Y14900D01*
X70924Y27024D02*
Y30100D01*
X68125D02*
X70924D01*
X67874Y31050D02*
X68100D01*
X67325D02*
X67874D01*
X66226D02*
X67325D01*
X68100Y30125D02*
X68125Y30100D01*
X68100Y30125D02*
Y31050D01*
X71175Y24900D02*
X72700Y26425D01*
Y26950D01*
X57350Y34025D02*
X57550Y33825D01*
X48325Y34025D02*
X57350D01*
X57550Y33825D02*
X58900Y32475D01*
X59350Y32025D02*
X61125D01*
X58900Y32475D02*
X59350Y32025D01*
X62875Y29875D02*
X63925Y30925D01*
Y32025D01*
X66801Y25875D02*
X69775D01*
X70924Y27024D01*
X65688Y23050D02*
Y24900D01*
X62775Y16800D02*
Y23050D01*
X65688D01*
Y24900D02*
X71175D01*
X66975Y33100D02*
Y34050D01*
X65050Y30500D02*
Y32000D01*
X66226D01*
Y31050D02*
Y32000D01*
X65050Y28975D02*
Y30500D01*
X61438Y33100D02*
X62838D01*
X60925D02*
X61438D01*
X57000Y23875D02*
Y25075D01*
X60075Y26925D02*
X60150D01*
X46150Y-3925D02*
Y5100D01*
X47825Y23875D02*
X57000D01*
X46125Y22175D02*
X47825Y23875D01*
X36601Y26450D02*
Y27875D01*
X45975D01*
X50600Y32500D01*
X56500D01*
X58050Y30950D01*
X60075Y28925D01*
Y26925D02*
Y28925D01*
X58475Y26925D02*
X60075D01*
X58475Y23875D02*
Y26925D01*
X57000Y23875D02*
X58475D01*
X60925Y32025D02*
X63925D01*
X46150Y18000D02*
X48069D01*
X46150Y16081D02*
Y18000D01*
X46125D02*
X57775D01*
X55775Y31000D02*
X57000Y29775D01*
Y26602D02*
Y29775D01*
X35225Y26450D02*
X46350D01*
X48775Y28875D01*
X50900Y31000D02*
X55775D01*
X48775Y28875D02*
X50900Y31000D01*
X60925Y32025D02*
Y33100D01*
X46150Y5100D02*
Y16081D01*
X13150Y-7075D02*
X48550D01*
Y14125D01*
X59175D01*
X62838Y33100D02*
X66975D01*
X62875Y28975D02*
X65050D01*
X62875D02*
Y29875D01*
X33500Y9675D02*
Y22200D01*
X46125D01*
X61200Y25875D02*
X66801D01*
X57775Y18000D02*
X61200Y21425D01*
X57000Y23875D02*
Y26602D01*
X4150Y31375D02*
Y33900D01*
X13550Y33600D02*
X18706D01*
X26525Y31375D02*
X31450Y26450D01*
X35225D01*
X45125Y30825D02*
X48325Y34025D01*
X31200Y30825D02*
X45125D01*
X23675Y38350D02*
X31200Y30825D01*
X14475Y38350D02*
X23675D01*
X15200Y-3925D02*
X46150D01*
X13150Y-7075D02*
Y-4225D01*
X62775Y16800D02*
X120525D01*
X128525Y15000D02*
Y16800D01*
X26875Y14900D02*
Y18331D01*
X31450D01*
X73500Y39500D02*
X73500Y39500D01*
D65*
X-10000Y-10000D02*
Y120000D01*
X163425D01*
Y-10000D02*
Y120000D01*
X-10000Y-10000D02*
X163425D01*
D66*
X146147Y1980D02*
D03*
X143607Y3250D02*
D03*
X146147Y4520D02*
D03*
Y7060D02*
D03*
Y9600D02*
D03*
X143607Y10870D02*
D03*
Y8330D02*
D03*
Y5790D02*
D03*
X146148Y25570D02*
D03*
X143608Y26840D02*
D03*
X146148Y28110D02*
D03*
X143608Y29380D02*
D03*
X146148Y30650D02*
D03*
X143608Y31920D02*
D03*
X146148Y33190D02*
D03*
X143608Y34460D02*
D03*
X146172Y49605D02*
D03*
X143632Y50875D02*
D03*
X146172Y52145D02*
D03*
X143632Y53415D02*
D03*
X146172Y54685D02*
D03*
X143632Y55955D02*
D03*
X146172Y57225D02*
D03*
X143632Y58495D02*
D03*
X146270Y97055D02*
D03*
X143730Y98325D02*
D03*
X146270Y99595D02*
D03*
Y102135D02*
D03*
Y104675D02*
D03*
X143730Y105945D02*
D03*
Y103405D02*
D03*
Y100865D02*
D03*
X146250Y73310D02*
D03*
X143710Y74580D02*
D03*
X146250Y75850D02*
D03*
X143710Y77120D02*
D03*
X146250Y78390D02*
D03*
X143710Y79660D02*
D03*
X146250Y80930D02*
D03*
X143710Y82200D02*
D03*
X93600Y99540D02*
D03*
D67*
X149449Y-1322D02*
D03*
Y14172D02*
D03*
X149450Y22268D02*
D03*
Y37762D02*
D03*
X149474Y46303D02*
D03*
Y61797D02*
D03*
X149572Y93753D02*
D03*
Y109247D02*
D03*
X149552Y70008D02*
D03*
Y85502D02*
D03*
X119385Y118590D02*
D03*
Y113510D02*
D03*
X124465D02*
D03*
Y118590D02*
D03*
X93085Y118715D02*
D03*
Y113635D02*
D03*
X98165D02*
D03*
Y118715D02*
D03*
D68*
X157399Y101D02*
D03*
X155875Y2641D02*
D03*
Y12750D02*
D03*
X157399Y10210D02*
D03*
X157400Y23691D02*
D03*
X155876Y26231D02*
D03*
Y36340D02*
D03*
X157400Y33800D02*
D03*
X157424Y47726D02*
D03*
X155900Y50266D02*
D03*
Y60375D02*
D03*
X157424Y57835D02*
D03*
X157522Y95175D02*
D03*
X155998Y97715D02*
D03*
Y107825D02*
D03*
X157522Y105285D02*
D03*
X157502Y71430D02*
D03*
X155978Y73970D02*
D03*
Y84080D02*
D03*
X157502Y81540D02*
D03*
X88975Y32000D02*
D03*
Y22000D02*
D03*
X95425Y62600D02*
D03*
Y52600D02*
D03*
D69*
X152497Y710D02*
D03*
Y12140D02*
D03*
X152498Y24300D02*
D03*
Y35730D02*
D03*
X152522Y48335D02*
D03*
Y59765D02*
D03*
X152620Y95785D02*
D03*
Y107215D02*
D03*
X152600Y72040D02*
D03*
Y83470D02*
D03*
D70*
X121925Y116050D02*
D03*
X95625Y116175D02*
D03*
D71*
X30816Y2666D02*
D03*
X12340D02*
D03*
X74020Y47886D02*
D03*
X55544D02*
D03*
X30816D02*
D03*
X12340D02*
D03*
X74020Y2666D02*
D03*
X55544D02*
D03*
D72*
X-5425Y26956D02*
D03*
Y22994D02*
D03*
D73*
X-6650Y116650D02*
D03*
X-6600Y-6600D02*
D03*
X160175Y-6700D02*
D03*
Y116675D02*
D03*
X3175Y3175D02*
D03*
Y51435D02*
D03*
X83185D02*
D03*
Y3175D02*
D03*
D74*
X144600Y118375D02*
D03*
Y114375D02*
D03*
X143600Y112375D02*
D03*
X144600Y110375D02*
D03*
X143600Y108375D02*
D03*
Y-7625D02*
D03*
X141600Y112375D02*
D03*
Y108375D02*
D03*
Y104375D02*
D03*
Y92375D02*
D03*
Y84375D02*
D03*
Y-3625D02*
D03*
Y-7625D02*
D03*
X140600Y118375D02*
D03*
X139600Y116375D02*
D03*
X140600Y114375D02*
D03*
X139600Y112375D02*
D03*
X140600Y110375D02*
D03*
X139600Y108375D02*
D03*
X140600Y106375D02*
D03*
X139600Y104375D02*
D03*
X140600Y94375D02*
D03*
X139600Y92375D02*
D03*
Y88375D02*
D03*
X140600Y86375D02*
D03*
X139600Y84375D02*
D03*
X140600Y82375D02*
D03*
X139600Y80375D02*
D03*
Y72375D02*
D03*
X140600Y70375D02*
D03*
X139600Y68375D02*
D03*
Y64375D02*
D03*
X140600Y62375D02*
D03*
X139600Y60375D02*
D03*
X140600Y58375D02*
D03*
X139600Y48375D02*
D03*
Y36375D02*
D03*
X140600Y34375D02*
D03*
X139600Y24375D02*
D03*
X140600Y22375D02*
D03*
X139600Y20375D02*
D03*
X140600Y14375D02*
D03*
X139600Y12375D02*
D03*
X140600Y10375D02*
D03*
Y2375D02*
D03*
X139600Y375D02*
D03*
X140600Y-1625D02*
D03*
X139600Y-3625D02*
D03*
Y-7625D02*
D03*
X138600Y118375D02*
D03*
X137600Y116375D02*
D03*
X138600Y114375D02*
D03*
X137600Y112375D02*
D03*
X138600Y110375D02*
D03*
X137600Y108375D02*
D03*
X138600Y106375D02*
D03*
X137600Y104375D02*
D03*
Y100375D02*
D03*
Y96375D02*
D03*
X138600Y94375D02*
D03*
X137600Y92375D02*
D03*
Y88375D02*
D03*
X138600Y82375D02*
D03*
X137600Y80375D02*
D03*
X138600Y70375D02*
D03*
Y66375D02*
D03*
Y50375D02*
D03*
Y46375D02*
D03*
Y42375D02*
D03*
Y34375D02*
D03*
X137600Y24375D02*
D03*
X138600Y22375D02*
D03*
X137600Y20375D02*
D03*
Y16375D02*
D03*
X138600Y14375D02*
D03*
X137600Y12375D02*
D03*
X138600Y10375D02*
D03*
X137600Y8375D02*
D03*
Y4375D02*
D03*
X138600Y2375D02*
D03*
X137600Y375D02*
D03*
X138600Y-1625D02*
D03*
X137600Y-3625D02*
D03*
X138600Y-5625D02*
D03*
X137600Y-7625D02*
D03*
X136600Y118375D02*
D03*
X135600Y116375D02*
D03*
X136600Y114375D02*
D03*
X135600Y112375D02*
D03*
X136600Y110375D02*
D03*
X135600Y108375D02*
D03*
X136600Y106375D02*
D03*
X135600Y104375D02*
D03*
Y100375D02*
D03*
X136600Y94375D02*
D03*
X135600Y92375D02*
D03*
X136600Y90375D02*
D03*
X135600Y88375D02*
D03*
Y84375D02*
D03*
X136600Y82375D02*
D03*
X135600Y80375D02*
D03*
X136600Y62375D02*
D03*
Y34375D02*
D03*
X135600Y32375D02*
D03*
X136600Y30375D02*
D03*
X135600Y28375D02*
D03*
X136600Y26375D02*
D03*
X135600Y24375D02*
D03*
Y16375D02*
D03*
X136600Y14375D02*
D03*
X135600Y12375D02*
D03*
X136600Y10375D02*
D03*
Y2375D02*
D03*
X135600Y375D02*
D03*
X136600Y-1625D02*
D03*
X135600Y-3625D02*
D03*
X136600Y-5625D02*
D03*
X135600Y-7625D02*
D03*
X134600Y118375D02*
D03*
X133600Y116375D02*
D03*
X134600Y114375D02*
D03*
X133600Y112375D02*
D03*
X134600Y110375D02*
D03*
X133600Y108375D02*
D03*
X134600Y106375D02*
D03*
X133600Y104375D02*
D03*
Y100375D02*
D03*
X134600Y98375D02*
D03*
X133600Y96375D02*
D03*
Y92375D02*
D03*
Y88375D02*
D03*
X134600Y74375D02*
D03*
Y70375D02*
D03*
Y62375D02*
D03*
Y50375D02*
D03*
X133600Y48375D02*
D03*
X134600Y34375D02*
D03*
Y30375D02*
D03*
Y26375D02*
D03*
Y22375D02*
D03*
Y14375D02*
D03*
Y10375D02*
D03*
X133600Y4375D02*
D03*
X134600Y2375D02*
D03*
X133600Y375D02*
D03*
Y-3625D02*
D03*
X134600Y-5625D02*
D03*
X133600Y-7625D02*
D03*
X132600Y118375D02*
D03*
X131600Y116375D02*
D03*
X132600Y114375D02*
D03*
X131600Y112375D02*
D03*
X132600Y110375D02*
D03*
X131600Y108375D02*
D03*
X132600Y106375D02*
D03*
X131600Y104375D02*
D03*
X132600Y98375D02*
D03*
Y94375D02*
D03*
Y90375D02*
D03*
X131600Y48375D02*
D03*
Y36375D02*
D03*
X132600Y34375D02*
D03*
X131600Y32375D02*
D03*
X132600Y30375D02*
D03*
X131600Y28375D02*
D03*
Y24375D02*
D03*
Y20375D02*
D03*
Y16375D02*
D03*
X132600Y14375D02*
D03*
X131600Y12375D02*
D03*
X132600Y10375D02*
D03*
X131600Y8375D02*
D03*
X132600Y6375D02*
D03*
X131600Y4375D02*
D03*
X132600Y2375D02*
D03*
X131600Y375D02*
D03*
X132600Y-1625D02*
D03*
X131600Y-3625D02*
D03*
X132600Y-5625D02*
D03*
X131600Y-7625D02*
D03*
X130600Y118375D02*
D03*
X129600Y116375D02*
D03*
X130600Y114375D02*
D03*
X129600Y112375D02*
D03*
X130600Y110375D02*
D03*
X129600Y108375D02*
D03*
X130600Y106375D02*
D03*
X129600Y104375D02*
D03*
X130600Y102375D02*
D03*
X129600Y100375D02*
D03*
Y96375D02*
D03*
Y92375D02*
D03*
Y88375D02*
D03*
Y72375D02*
D03*
Y68375D02*
D03*
Y64375D02*
D03*
Y36375D02*
D03*
X130600Y34375D02*
D03*
X129600Y32375D02*
D03*
X130600Y30375D02*
D03*
X129600Y28375D02*
D03*
X130600Y26375D02*
D03*
Y22375D02*
D03*
X129600Y20375D02*
D03*
Y16375D02*
D03*
X130600Y14375D02*
D03*
X129600Y12375D02*
D03*
X130600Y10375D02*
D03*
X129600Y8375D02*
D03*
X130600Y6375D02*
D03*
X129600Y4375D02*
D03*
Y375D02*
D03*
X130600Y-1625D02*
D03*
X129600Y-3625D02*
D03*
X130600Y-5625D02*
D03*
X129600Y-7625D02*
D03*
X128600Y118375D02*
D03*
X127600Y116375D02*
D03*
X128600Y114375D02*
D03*
X127600Y112375D02*
D03*
X128600Y110375D02*
D03*
X127600Y108375D02*
D03*
X128600Y106375D02*
D03*
X127600Y104375D02*
D03*
X128600Y102375D02*
D03*
X127600Y100375D02*
D03*
X128600Y98375D02*
D03*
Y94375D02*
D03*
Y90375D02*
D03*
X127600Y88375D02*
D03*
Y84375D02*
D03*
X128600Y82375D02*
D03*
Y78375D02*
D03*
X127600Y60375D02*
D03*
X128600Y58375D02*
D03*
X127600Y36375D02*
D03*
X128600Y34375D02*
D03*
X127600Y32375D02*
D03*
Y28375D02*
D03*
Y24375D02*
D03*
X128600Y22375D02*
D03*
X127600Y20375D02*
D03*
Y16375D02*
D03*
X128600Y14375D02*
D03*
X127600Y12375D02*
D03*
X128600Y10375D02*
D03*
X127600Y8375D02*
D03*
X128600Y6375D02*
D03*
X127600Y4375D02*
D03*
X128600Y2375D02*
D03*
X127600Y375D02*
D03*
X128600Y-1625D02*
D03*
X127600Y-3625D02*
D03*
X125600Y116375D02*
D03*
X126600Y110375D02*
D03*
X125600Y108375D02*
D03*
X126600Y106375D02*
D03*
X125600Y104375D02*
D03*
X126600Y102375D02*
D03*
X125600Y100375D02*
D03*
Y88375D02*
D03*
Y84375D02*
D03*
X126600Y82375D02*
D03*
X125600Y80375D02*
D03*
X126600Y78375D02*
D03*
X125600Y76375D02*
D03*
X126600Y74375D02*
D03*
Y70375D02*
D03*
Y34375D02*
D03*
X125600Y32375D02*
D03*
X126600Y26375D02*
D03*
Y22375D02*
D03*
Y14375D02*
D03*
Y10375D02*
D03*
Y2375D02*
D03*
Y-1625D02*
D03*
Y-5625D02*
D03*
X125600Y-7625D02*
D03*
X124600Y110375D02*
D03*
X123600Y108375D02*
D03*
X124600Y106375D02*
D03*
X123600Y104375D02*
D03*
X124600Y102375D02*
D03*
X123600Y100375D02*
D03*
Y88375D02*
D03*
Y84375D02*
D03*
X124600Y82375D02*
D03*
X123600Y80375D02*
D03*
X124600Y78375D02*
D03*
X123600Y72375D02*
D03*
X124600Y70375D02*
D03*
Y46375D02*
D03*
X123600Y32375D02*
D03*
X124600Y26375D02*
D03*
X123600Y24375D02*
D03*
X124600Y22375D02*
D03*
X123600Y20375D02*
D03*
Y16375D02*
D03*
X124600Y14375D02*
D03*
X123600Y12375D02*
D03*
X124600Y10375D02*
D03*
X123600Y8375D02*
D03*
X124600Y6375D02*
D03*
X123600Y4375D02*
D03*
X124600Y2375D02*
D03*
X123600Y375D02*
D03*
X124600Y-1625D02*
D03*
X123600Y-3625D02*
D03*
X124600Y-5625D02*
D03*
X123600Y-7625D02*
D03*
X121600Y112375D02*
D03*
X122600Y110375D02*
D03*
X121600Y108375D02*
D03*
X122600Y106375D02*
D03*
X121600Y104375D02*
D03*
X122600Y102375D02*
D03*
X121600Y100375D02*
D03*
Y88375D02*
D03*
Y84375D02*
D03*
X122600Y82375D02*
D03*
X121600Y80375D02*
D03*
Y72375D02*
D03*
Y60375D02*
D03*
Y56375D02*
D03*
X122600Y50375D02*
D03*
X121600Y48375D02*
D03*
Y40375D02*
D03*
X122600Y30375D02*
D03*
X121600Y28375D02*
D03*
X122600Y26375D02*
D03*
X121600Y24375D02*
D03*
X122600Y22375D02*
D03*
X121600Y20375D02*
D03*
Y16375D02*
D03*
X122600Y14375D02*
D03*
X121600Y12375D02*
D03*
Y8375D02*
D03*
X122600Y6375D02*
D03*
X121600Y4375D02*
D03*
X122600Y2375D02*
D03*
X121600Y375D02*
D03*
X122600Y-1625D02*
D03*
X121600Y-3625D02*
D03*
X122600Y-5625D02*
D03*
X120600Y110375D02*
D03*
Y106375D02*
D03*
Y102375D02*
D03*
X119600Y88375D02*
D03*
Y84375D02*
D03*
X120600Y82375D02*
D03*
X119600Y80375D02*
D03*
X120600Y78375D02*
D03*
Y74375D02*
D03*
X119600Y64375D02*
D03*
X120600Y62375D02*
D03*
Y50375D02*
D03*
X119600Y36375D02*
D03*
X120600Y30375D02*
D03*
X119600Y28375D02*
D03*
X120600Y26375D02*
D03*
X119600Y24375D02*
D03*
X120600Y22375D02*
D03*
X119600Y20375D02*
D03*
Y16375D02*
D03*
X120600Y14375D02*
D03*
X119600Y12375D02*
D03*
X120600Y10375D02*
D03*
X119600Y8375D02*
D03*
X120600Y6375D02*
D03*
X119600Y4375D02*
D03*
X120600Y2375D02*
D03*
X119600Y375D02*
D03*
X120600Y-1625D02*
D03*
X119600Y-3625D02*
D03*
X118600Y110375D02*
D03*
X117600Y92375D02*
D03*
Y88375D02*
D03*
Y84375D02*
D03*
X118600Y82375D02*
D03*
X117600Y80375D02*
D03*
X118600Y78375D02*
D03*
X117600Y76375D02*
D03*
X118600Y74375D02*
D03*
X117600Y72375D02*
D03*
X118600Y62375D02*
D03*
X117600Y60375D02*
D03*
X118600Y58375D02*
D03*
Y50375D02*
D03*
Y34375D02*
D03*
Y30375D02*
D03*
Y26375D02*
D03*
Y22375D02*
D03*
X117600Y20375D02*
D03*
Y16375D02*
D03*
Y12375D02*
D03*
X118600Y10375D02*
D03*
X117600Y8375D02*
D03*
X118600Y6375D02*
D03*
X117600Y4375D02*
D03*
X118600Y2375D02*
D03*
X117600Y-3625D02*
D03*
Y-7625D02*
D03*
X116600Y118375D02*
D03*
Y102375D02*
D03*
Y90375D02*
D03*
X115600Y88375D02*
D03*
X116600Y82375D02*
D03*
X115600Y80375D02*
D03*
X116600Y78375D02*
D03*
X115600Y76375D02*
D03*
Y60375D02*
D03*
X116600Y54375D02*
D03*
Y26375D02*
D03*
Y18375D02*
D03*
Y14375D02*
D03*
Y10375D02*
D03*
Y6375D02*
D03*
X115600Y375D02*
D03*
X116600Y-1625D02*
D03*
X115600Y-3625D02*
D03*
X116600Y-5625D02*
D03*
X115600Y-7625D02*
D03*
X114600Y118375D02*
D03*
Y86375D02*
D03*
X113600Y84375D02*
D03*
X114600Y82375D02*
D03*
X113600Y80375D02*
D03*
X114600Y78375D02*
D03*
X113600Y76375D02*
D03*
X114600Y58375D02*
D03*
X113600Y56375D02*
D03*
X114600Y54375D02*
D03*
X113600Y48375D02*
D03*
Y16375D02*
D03*
X114600Y14375D02*
D03*
X113600Y12375D02*
D03*
X114600Y10375D02*
D03*
X113600Y8375D02*
D03*
X114600Y6375D02*
D03*
X113600Y4375D02*
D03*
X114600Y2375D02*
D03*
X113600Y375D02*
D03*
X114600Y-1625D02*
D03*
X113600Y-3625D02*
D03*
X114600Y-5625D02*
D03*
X112600Y118375D02*
D03*
X111600Y116375D02*
D03*
X112600Y86375D02*
D03*
X111600Y84375D02*
D03*
Y80375D02*
D03*
Y76375D02*
D03*
Y60375D02*
D03*
Y56375D02*
D03*
Y32375D02*
D03*
Y28375D02*
D03*
X112600Y22375D02*
D03*
X111600Y20375D02*
D03*
Y16375D02*
D03*
X112600Y14375D02*
D03*
X111600Y12375D02*
D03*
X112600Y10375D02*
D03*
X111600Y8375D02*
D03*
X112600Y6375D02*
D03*
X111600Y4375D02*
D03*
X112600Y2375D02*
D03*
X111600Y375D02*
D03*
X112600Y-1625D02*
D03*
X111600Y-3625D02*
D03*
X112600Y-5625D02*
D03*
X111600Y-7625D02*
D03*
X110600Y118375D02*
D03*
X109600Y116375D02*
D03*
X110600Y114375D02*
D03*
Y86375D02*
D03*
X109600Y84375D02*
D03*
X110600Y82375D02*
D03*
X109600Y80375D02*
D03*
X110600Y78375D02*
D03*
X109600Y76375D02*
D03*
X110600Y66375D02*
D03*
Y58375D02*
D03*
Y18375D02*
D03*
Y14375D02*
D03*
Y10375D02*
D03*
Y6375D02*
D03*
Y2375D02*
D03*
Y-1625D02*
D03*
X109600Y-3625D02*
D03*
Y-7625D02*
D03*
X108600Y118375D02*
D03*
X107600Y116375D02*
D03*
X108600Y94375D02*
D03*
Y90375D02*
D03*
X107600Y84375D02*
D03*
X108600Y82375D02*
D03*
X107600Y80375D02*
D03*
X108600Y78375D02*
D03*
X107600Y76375D02*
D03*
Y44375D02*
D03*
X108600Y42375D02*
D03*
X107600Y40375D02*
D03*
Y36375D02*
D03*
Y32375D02*
D03*
Y28375D02*
D03*
Y24375D02*
D03*
Y16375D02*
D03*
Y12375D02*
D03*
X108600Y10375D02*
D03*
X107600Y8375D02*
D03*
X108600Y6375D02*
D03*
X107600Y4375D02*
D03*
X108600Y2375D02*
D03*
X107600Y375D02*
D03*
X108600Y-1625D02*
D03*
X107600Y-3625D02*
D03*
X108600Y-5625D02*
D03*
X106600Y118375D02*
D03*
Y90375D02*
D03*
Y78375D02*
D03*
Y74375D02*
D03*
Y58375D02*
D03*
Y50375D02*
D03*
Y46375D02*
D03*
Y42375D02*
D03*
Y38375D02*
D03*
Y34375D02*
D03*
Y30375D02*
D03*
Y26375D02*
D03*
Y14375D02*
D03*
Y10375D02*
D03*
Y6375D02*
D03*
Y2375D02*
D03*
Y-1625D02*
D03*
X103600Y92375D02*
D03*
X104600Y90375D02*
D03*
X103600Y8375D02*
D03*
X104600Y6375D02*
D03*
X103600Y4375D02*
D03*
X104600Y2375D02*
D03*
X103600Y375D02*
D03*
X104600Y-1625D02*
D03*
X103600Y-3625D02*
D03*
X104600Y-5625D02*
D03*
X103600Y-7625D02*
D03*
X102600Y118375D02*
D03*
X101600Y112375D02*
D03*
Y100375D02*
D03*
X102600Y90375D02*
D03*
Y86375D02*
D03*
Y82375D02*
D03*
Y78375D02*
D03*
Y74375D02*
D03*
Y6375D02*
D03*
X101600Y4375D02*
D03*
X102600Y2375D02*
D03*
X101600Y375D02*
D03*
X102600Y-1625D02*
D03*
X101600Y-3625D02*
D03*
X102600Y-5625D02*
D03*
X101600Y-7625D02*
D03*
X100600Y118375D02*
D03*
Y110375D02*
D03*
X99600Y100375D02*
D03*
Y4375D02*
D03*
X100600Y2375D02*
D03*
X99600Y375D02*
D03*
X100600Y-1625D02*
D03*
X99600Y-3625D02*
D03*
X100600Y-5625D02*
D03*
X99600Y-7625D02*
D03*
X98600Y110375D02*
D03*
X97600Y100375D02*
D03*
X98600Y94375D02*
D03*
X97600Y92375D02*
D03*
Y76375D02*
D03*
Y72375D02*
D03*
X98600Y6375D02*
D03*
Y2375D02*
D03*
X97600Y375D02*
D03*
X98600Y-1625D02*
D03*
X97600Y-3625D02*
D03*
X98600Y-5625D02*
D03*
X97600Y-7625D02*
D03*
X95600Y112375D02*
D03*
Y108375D02*
D03*
Y100375D02*
D03*
Y92375D02*
D03*
Y84375D02*
D03*
Y76375D02*
D03*
Y72375D02*
D03*
Y68375D02*
D03*
Y32375D02*
D03*
Y28375D02*
D03*
Y24375D02*
D03*
X96600Y6375D02*
D03*
X95600Y4375D02*
D03*
Y375D02*
D03*
X96600Y-1625D02*
D03*
X95600Y-3625D02*
D03*
X96600Y-5625D02*
D03*
X95600Y-7625D02*
D03*
X94600Y110375D02*
D03*
X93600Y108375D02*
D03*
X94600Y106375D02*
D03*
Y90375D02*
D03*
Y82375D02*
D03*
Y78375D02*
D03*
Y74375D02*
D03*
Y70375D02*
D03*
Y66375D02*
D03*
Y50375D02*
D03*
X93600Y16375D02*
D03*
X94600Y6375D02*
D03*
Y2375D02*
D03*
Y-1625D02*
D03*
X93600Y-3625D02*
D03*
X94600Y-5625D02*
D03*
X93600Y-7625D02*
D03*
X91600Y116375D02*
D03*
Y100375D02*
D03*
X92600Y98375D02*
D03*
X91600Y96375D02*
D03*
X92600Y94375D02*
D03*
X91600Y92375D02*
D03*
X92600Y90375D02*
D03*
X91600Y88375D02*
D03*
Y84375D02*
D03*
X92600Y82375D02*
D03*
X91600Y80375D02*
D03*
X92600Y78375D02*
D03*
X91600Y76375D02*
D03*
X92600Y74375D02*
D03*
X91600Y72375D02*
D03*
X92600Y70375D02*
D03*
X91600Y68375D02*
D03*
X92600Y66375D02*
D03*
Y50375D02*
D03*
X91600Y36375D02*
D03*
X92600Y18375D02*
D03*
X91600Y16375D02*
D03*
Y-3625D02*
D03*
X92600Y-5625D02*
D03*
X91600Y-7625D02*
D03*
X90600Y118375D02*
D03*
Y114375D02*
D03*
X89600Y112375D02*
D03*
X90600Y110375D02*
D03*
X89600Y108375D02*
D03*
X90600Y106375D02*
D03*
X89600Y104375D02*
D03*
X90600Y102375D02*
D03*
X89600Y100375D02*
D03*
X90600Y98375D02*
D03*
X89600Y96375D02*
D03*
X90600Y94375D02*
D03*
X89600Y92375D02*
D03*
X90600Y90375D02*
D03*
X89600Y88375D02*
D03*
X90600Y86375D02*
D03*
X89600Y84375D02*
D03*
X90600Y82375D02*
D03*
X89600Y80375D02*
D03*
X90600Y78375D02*
D03*
X89600Y76375D02*
D03*
X90600Y74375D02*
D03*
X89600Y72375D02*
D03*
X90600Y70375D02*
D03*
X89600Y68375D02*
D03*
X90600Y66375D02*
D03*
X89600Y64375D02*
D03*
X90600Y62375D02*
D03*
X89600Y52375D02*
D03*
X90600Y50375D02*
D03*
X89600Y40375D02*
D03*
X90600Y18375D02*
D03*
X89600Y-3625D02*
D03*
X90600Y-5625D02*
D03*
X89600Y-7625D02*
D03*
X88600Y118375D02*
D03*
X87600Y112375D02*
D03*
X88600Y110375D02*
D03*
X87600Y108375D02*
D03*
X88600Y106375D02*
D03*
Y102375D02*
D03*
X87600Y100375D02*
D03*
X88600Y98375D02*
D03*
X87600Y96375D02*
D03*
X88600Y94375D02*
D03*
X87600Y92375D02*
D03*
X88600Y90375D02*
D03*
X87600Y88375D02*
D03*
X88600Y82375D02*
D03*
X87600Y80375D02*
D03*
X88600Y78375D02*
D03*
X87600Y76375D02*
D03*
X88600Y74375D02*
D03*
X87600Y72375D02*
D03*
X88600Y70375D02*
D03*
X87600Y68375D02*
D03*
X88600Y66375D02*
D03*
X87600Y64375D02*
D03*
X88600Y62375D02*
D03*
X87600Y60375D02*
D03*
Y56375D02*
D03*
Y44375D02*
D03*
X88600Y34375D02*
D03*
X87600Y-3625D02*
D03*
X88600Y-5625D02*
D03*
X87600Y-7625D02*
D03*
X86600Y118375D02*
D03*
X85600Y112375D02*
D03*
X86600Y110375D02*
D03*
X85600Y108375D02*
D03*
X86600Y106375D02*
D03*
X85600Y104375D02*
D03*
X86600Y102375D02*
D03*
X85600Y100375D02*
D03*
X86600Y98375D02*
D03*
X85600Y96375D02*
D03*
X86600Y94375D02*
D03*
X85600Y92375D02*
D03*
X86600Y90375D02*
D03*
X85600Y88375D02*
D03*
X86600Y82375D02*
D03*
X85600Y80375D02*
D03*
X86600Y78375D02*
D03*
X85600Y76375D02*
D03*
X86600Y74375D02*
D03*
X85600Y72375D02*
D03*
X86600Y70375D02*
D03*
X85600Y68375D02*
D03*
X86600Y66375D02*
D03*
X85600Y64375D02*
D03*
X86600Y62375D02*
D03*
X85600Y60375D02*
D03*
X86600Y58375D02*
D03*
Y38375D02*
D03*
Y34375D02*
D03*
Y18375D02*
D03*
X85600Y16375D02*
D03*
Y-3625D02*
D03*
X86600Y-5625D02*
D03*
X85600Y-7625D02*
D03*
X84600Y118375D02*
D03*
X83600Y116375D02*
D03*
Y112375D02*
D03*
X84600Y110375D02*
D03*
X83600Y108375D02*
D03*
X84600Y106375D02*
D03*
X83600Y104375D02*
D03*
X84600Y102375D02*
D03*
X83600Y100375D02*
D03*
X84600Y98375D02*
D03*
X83600Y96375D02*
D03*
X84600Y94375D02*
D03*
X83600Y92375D02*
D03*
X84600Y90375D02*
D03*
X83600Y88375D02*
D03*
X84600Y82375D02*
D03*
Y78375D02*
D03*
Y74375D02*
D03*
Y70375D02*
D03*
Y66375D02*
D03*
Y62375D02*
D03*
X83600Y56375D02*
D03*
X84600Y30375D02*
D03*
Y26375D02*
D03*
Y22375D02*
D03*
X83600Y20375D02*
D03*
Y16375D02*
D03*
Y-3625D02*
D03*
X84600Y-5625D02*
D03*
X83600Y-7625D02*
D03*
X82600Y118375D02*
D03*
X81600Y112375D02*
D03*
X82600Y102375D02*
D03*
Y98375D02*
D03*
Y94375D02*
D03*
Y90375D02*
D03*
Y82375D02*
D03*
Y58375D02*
D03*
X81600Y56375D02*
D03*
Y44375D02*
D03*
X82600Y34375D02*
D03*
X81600Y32375D02*
D03*
Y20375D02*
D03*
Y16375D02*
D03*
Y-3625D02*
D03*
X82600Y-5625D02*
D03*
X81600Y-7625D02*
D03*
X80600Y118375D02*
D03*
X79600Y116375D02*
D03*
Y112375D02*
D03*
X80600Y46375D02*
D03*
Y34375D02*
D03*
Y22375D02*
D03*
X79600Y20375D02*
D03*
Y16375D02*
D03*
Y4375D02*
D03*
Y375D02*
D03*
Y-3625D02*
D03*
X80600Y-5625D02*
D03*
X79600Y-7625D02*
D03*
X78600Y118375D02*
D03*
X77600Y116375D02*
D03*
X78600Y114375D02*
D03*
X77600Y112375D02*
D03*
Y20375D02*
D03*
Y16375D02*
D03*
X78600Y2375D02*
D03*
X77600Y375D02*
D03*
Y-3625D02*
D03*
X78600Y-5625D02*
D03*
X77600Y-7625D02*
D03*
X76600Y118375D02*
D03*
X75600Y116375D02*
D03*
X76600Y114375D02*
D03*
X75600Y112375D02*
D03*
Y16375D02*
D03*
Y4375D02*
D03*
X76600Y2375D02*
D03*
X75600Y375D02*
D03*
Y-3625D02*
D03*
X76600Y-5625D02*
D03*
X75600Y-7625D02*
D03*
X74600Y118375D02*
D03*
Y114375D02*
D03*
X73600Y112375D02*
D03*
Y108375D02*
D03*
X74600Y102375D02*
D03*
Y98375D02*
D03*
Y90375D02*
D03*
Y82375D02*
D03*
Y70375D02*
D03*
Y66375D02*
D03*
Y62375D02*
D03*
Y58375D02*
D03*
Y54375D02*
D03*
Y50375D02*
D03*
X73600Y16375D02*
D03*
Y375D02*
D03*
Y-3625D02*
D03*
X74600Y-5625D02*
D03*
X73600Y-7625D02*
D03*
X72600Y118375D02*
D03*
X71600Y112375D02*
D03*
X72600Y110375D02*
D03*
X71600Y108375D02*
D03*
Y16375D02*
D03*
X72600Y2375D02*
D03*
X71600Y375D02*
D03*
Y-3625D02*
D03*
X72600Y-5625D02*
D03*
X71600Y-7625D02*
D03*
X70600Y118375D02*
D03*
X69600Y112375D02*
D03*
X70600Y110375D02*
D03*
X69600Y96375D02*
D03*
Y92375D02*
D03*
Y76375D02*
D03*
Y16375D02*
D03*
Y-3625D02*
D03*
X70600Y-5625D02*
D03*
X69600Y-7625D02*
D03*
X68600Y118375D02*
D03*
X67600Y112375D02*
D03*
Y96375D02*
D03*
X68600Y94375D02*
D03*
X67600Y92375D02*
D03*
X68600Y90375D02*
D03*
X67600Y88375D02*
D03*
Y84375D02*
D03*
X68600Y82375D02*
D03*
X67600Y-3625D02*
D03*
X68600Y-5625D02*
D03*
X67600Y-7625D02*
D03*
X66600Y118375D02*
D03*
Y114375D02*
D03*
X65600Y100375D02*
D03*
X66600Y98375D02*
D03*
X65600Y96375D02*
D03*
X66600Y94375D02*
D03*
X65600Y92375D02*
D03*
X66600Y90375D02*
D03*
X65600Y88375D02*
D03*
X66600Y82375D02*
D03*
X65600Y16375D02*
D03*
Y-3625D02*
D03*
X66600Y-5625D02*
D03*
X65600Y-7625D02*
D03*
X64600Y118375D02*
D03*
X63600Y116375D02*
D03*
X64600Y114375D02*
D03*
Y98375D02*
D03*
Y94375D02*
D03*
Y90375D02*
D03*
Y86375D02*
D03*
Y82375D02*
D03*
Y70375D02*
D03*
X63600Y-3625D02*
D03*
X64600Y-5625D02*
D03*
X63600Y-7625D02*
D03*
X62600Y118375D02*
D03*
X61600Y116375D02*
D03*
X62600Y114375D02*
D03*
X61600Y16375D02*
D03*
X62600Y14375D02*
D03*
X61600Y-3625D02*
D03*
X62600Y-5625D02*
D03*
X61600Y-7625D02*
D03*
X60600Y118375D02*
D03*
X59600Y116375D02*
D03*
X60600Y114375D02*
D03*
X59600Y112375D02*
D03*
Y104375D02*
D03*
X60600Y14375D02*
D03*
Y-1625D02*
D03*
X59600Y-3625D02*
D03*
X60600Y-5625D02*
D03*
X59600Y-7625D02*
D03*
X58600Y118375D02*
D03*
X57600Y116375D02*
D03*
X58600Y114375D02*
D03*
X57600Y112375D02*
D03*
X58600Y106375D02*
D03*
Y102375D02*
D03*
X57600Y100375D02*
D03*
Y96375D02*
D03*
Y92375D02*
D03*
Y88375D02*
D03*
Y68375D02*
D03*
Y375D02*
D03*
X58600Y-1625D02*
D03*
X57600Y-3625D02*
D03*
X58600Y-5625D02*
D03*
X57600Y-7625D02*
D03*
X56600Y118375D02*
D03*
X55600Y108375D02*
D03*
Y100375D02*
D03*
Y96375D02*
D03*
Y92375D02*
D03*
Y88375D02*
D03*
Y76375D02*
D03*
Y72375D02*
D03*
Y4375D02*
D03*
X56600Y2375D02*
D03*
X55600Y375D02*
D03*
X56600Y-1625D02*
D03*
X55600Y-3625D02*
D03*
X56600Y-5625D02*
D03*
X55600Y-7625D02*
D03*
X54600Y118375D02*
D03*
Y110375D02*
D03*
Y106375D02*
D03*
X53600Y100375D02*
D03*
X54600Y98375D02*
D03*
X53600Y96375D02*
D03*
X54600Y94375D02*
D03*
X53600Y92375D02*
D03*
X54600Y90375D02*
D03*
X53600Y88375D02*
D03*
Y84375D02*
D03*
X54600Y78375D02*
D03*
X53600Y72375D02*
D03*
X54600Y18375D02*
D03*
X53600Y16375D02*
D03*
X54600Y14375D02*
D03*
X53600Y12375D02*
D03*
X54600Y10375D02*
D03*
X53600Y8375D02*
D03*
X54600Y6375D02*
D03*
X53600Y4375D02*
D03*
X54600Y2375D02*
D03*
X53600Y375D02*
D03*
X54600Y-1625D02*
D03*
X53600Y-3625D02*
D03*
X54600Y-5625D02*
D03*
X53600Y-7625D02*
D03*
X52600Y118375D02*
D03*
X51600Y112375D02*
D03*
Y104375D02*
D03*
X52600Y102375D02*
D03*
X51600Y100375D02*
D03*
X52600Y98375D02*
D03*
X51600Y96375D02*
D03*
X52600Y94375D02*
D03*
X51600Y92375D02*
D03*
X52600Y90375D02*
D03*
X51600Y88375D02*
D03*
Y84375D02*
D03*
X52600Y82375D02*
D03*
Y18375D02*
D03*
Y10375D02*
D03*
X51600Y8375D02*
D03*
X52600Y6375D02*
D03*
X51600Y4375D02*
D03*
X52600Y2375D02*
D03*
X51600Y375D02*
D03*
X52600Y-1625D02*
D03*
X51600Y-3625D02*
D03*
X52600Y-5625D02*
D03*
X51600Y-7625D02*
D03*
X50600Y118375D02*
D03*
X49600Y112375D02*
D03*
Y104375D02*
D03*
X50600Y102375D02*
D03*
X49600Y100375D02*
D03*
X50600Y98375D02*
D03*
X49600Y96375D02*
D03*
X50600Y94375D02*
D03*
X49600Y92375D02*
D03*
X50600Y90375D02*
D03*
X49600Y88375D02*
D03*
X50600Y82375D02*
D03*
Y74375D02*
D03*
Y26375D02*
D03*
X49600Y20375D02*
D03*
Y8375D02*
D03*
X50600Y6375D02*
D03*
X49600Y4375D02*
D03*
X50600Y2375D02*
D03*
X49600Y375D02*
D03*
X50600Y-1625D02*
D03*
X49600Y-3625D02*
D03*
X50600Y-5625D02*
D03*
X48600Y118375D02*
D03*
X47600Y116375D02*
D03*
X48600Y114375D02*
D03*
X47600Y112375D02*
D03*
Y104375D02*
D03*
X48600Y102375D02*
D03*
X47600Y100375D02*
D03*
X48600Y98375D02*
D03*
X47600Y96375D02*
D03*
X48600Y94375D02*
D03*
X47600Y92375D02*
D03*
X48600Y90375D02*
D03*
X47600Y88375D02*
D03*
X48600Y86375D02*
D03*
X47600Y84375D02*
D03*
X48600Y82375D02*
D03*
Y26375D02*
D03*
Y22375D02*
D03*
X47600Y20375D02*
D03*
Y16375D02*
D03*
X48600Y10375D02*
D03*
X47600Y8375D02*
D03*
X48600Y6375D02*
D03*
X47600Y4375D02*
D03*
X48600Y2375D02*
D03*
X47600Y375D02*
D03*
X48600Y-1625D02*
D03*
X47600Y-3625D02*
D03*
X48600Y-5625D02*
D03*
X46600Y118375D02*
D03*
X45600Y116375D02*
D03*
X46600Y114375D02*
D03*
X45600Y112375D02*
D03*
X46600Y102375D02*
D03*
Y98375D02*
D03*
Y94375D02*
D03*
Y90375D02*
D03*
Y86375D02*
D03*
Y82375D02*
D03*
Y26375D02*
D03*
X45600Y24375D02*
D03*
X46600Y22375D02*
D03*
X45600Y20375D02*
D03*
X46600Y18375D02*
D03*
X45600Y12375D02*
D03*
Y8375D02*
D03*
X46600Y6375D02*
D03*
X45600Y4375D02*
D03*
X46600Y2375D02*
D03*
X45600Y375D02*
D03*
X46600Y-1625D02*
D03*
X45600Y-3625D02*
D03*
X46600Y-5625D02*
D03*
X45600Y-7625D02*
D03*
X44600Y118375D02*
D03*
X43600Y116375D02*
D03*
X44600Y114375D02*
D03*
X43600Y112375D02*
D03*
X44600Y110375D02*
D03*
Y30375D02*
D03*
Y26375D02*
D03*
X43600Y24375D02*
D03*
X44600Y22375D02*
D03*
Y18375D02*
D03*
X43600Y16375D02*
D03*
X44600Y10375D02*
D03*
X43600Y8375D02*
D03*
X44600Y6375D02*
D03*
X43600Y4375D02*
D03*
X44600Y2375D02*
D03*
Y-5625D02*
D03*
X42600Y118375D02*
D03*
Y114375D02*
D03*
X41600Y108375D02*
D03*
X42600Y106375D02*
D03*
X41600Y104375D02*
D03*
X42600Y102375D02*
D03*
X41600Y100375D02*
D03*
X42600Y98375D02*
D03*
Y30375D02*
D03*
Y22375D02*
D03*
X41600Y20375D02*
D03*
X42600Y18375D02*
D03*
X41600Y16375D02*
D03*
Y8375D02*
D03*
X42600Y6375D02*
D03*
X41600Y4375D02*
D03*
X42600Y-1625D02*
D03*
X40600Y118375D02*
D03*
X39600Y108375D02*
D03*
X40600Y106375D02*
D03*
X39600Y104375D02*
D03*
X40600Y102375D02*
D03*
X39600Y88375D02*
D03*
Y36375D02*
D03*
X40600Y30375D02*
D03*
X39600Y24375D02*
D03*
X40600Y22375D02*
D03*
X39600Y20375D02*
D03*
X40600Y18375D02*
D03*
Y14375D02*
D03*
X39600Y12375D02*
D03*
X40600Y10375D02*
D03*
X39600Y8375D02*
D03*
X40600Y6375D02*
D03*
Y-1625D02*
D03*
X38600Y118375D02*
D03*
Y106375D02*
D03*
X37600Y104375D02*
D03*
X38600Y102375D02*
D03*
X37600Y96375D02*
D03*
Y92375D02*
D03*
X38600Y90375D02*
D03*
X37600Y88375D02*
D03*
X38600Y78375D02*
D03*
Y74375D02*
D03*
Y46375D02*
D03*
Y38375D02*
D03*
X37600Y36375D02*
D03*
X38600Y34375D02*
D03*
Y30375D02*
D03*
Y22375D02*
D03*
X37600Y20375D02*
D03*
X38600Y18375D02*
D03*
X37600Y16375D02*
D03*
X38600Y14375D02*
D03*
X37600Y12375D02*
D03*
X38600Y10375D02*
D03*
X37600Y8375D02*
D03*
X38600Y6375D02*
D03*
X37600Y4375D02*
D03*
X38600Y2375D02*
D03*
X37600Y375D02*
D03*
X38600Y-1625D02*
D03*
X37600Y-3625D02*
D03*
X38600Y-5625D02*
D03*
X36600Y118375D02*
D03*
X35600Y96375D02*
D03*
X36600Y94375D02*
D03*
X35600Y92375D02*
D03*
X36600Y90375D02*
D03*
X35600Y88375D02*
D03*
Y48375D02*
D03*
X36600Y38375D02*
D03*
Y30375D02*
D03*
X35600Y24375D02*
D03*
X36600Y22375D02*
D03*
X35600Y20375D02*
D03*
X36600Y18375D02*
D03*
X35600Y16375D02*
D03*
X36600Y14375D02*
D03*
X35600Y12375D02*
D03*
X36600Y10375D02*
D03*
Y6375D02*
D03*
X35600Y4375D02*
D03*
X36600Y2375D02*
D03*
X35600Y375D02*
D03*
X36600Y-1625D02*
D03*
X35600Y-3625D02*
D03*
X36600Y-5625D02*
D03*
X34600Y118375D02*
D03*
X33600Y116375D02*
D03*
X34600Y114375D02*
D03*
X33600Y100375D02*
D03*
X34600Y98375D02*
D03*
X33600Y96375D02*
D03*
X34600Y94375D02*
D03*
X33600Y92375D02*
D03*
X34600Y90375D02*
D03*
X33600Y88375D02*
D03*
X34600Y50375D02*
D03*
Y42375D02*
D03*
Y38375D02*
D03*
X33600Y32375D02*
D03*
X34600Y26375D02*
D03*
X33600Y24375D02*
D03*
X34600Y22375D02*
D03*
X33600Y20375D02*
D03*
Y16375D02*
D03*
X34600Y14375D02*
D03*
X33600Y12375D02*
D03*
X34600Y10375D02*
D03*
X33600Y8375D02*
D03*
X34600Y6375D02*
D03*
X33600Y4375D02*
D03*
X34600Y2375D02*
D03*
X33600Y375D02*
D03*
X34600Y-1625D02*
D03*
X33600Y-3625D02*
D03*
X34600Y-5625D02*
D03*
X33600Y-7625D02*
D03*
X32600Y118375D02*
D03*
X31600Y116375D02*
D03*
X32600Y114375D02*
D03*
X31600Y100375D02*
D03*
X32600Y98375D02*
D03*
X31600Y96375D02*
D03*
X32600Y94375D02*
D03*
X31600Y92375D02*
D03*
X32600Y90375D02*
D03*
X31600Y88375D02*
D03*
X32600Y86375D02*
D03*
X31600Y52375D02*
D03*
Y48375D02*
D03*
Y44375D02*
D03*
X32600Y22375D02*
D03*
X31600Y20375D02*
D03*
Y16375D02*
D03*
Y8375D02*
D03*
X32600Y6375D02*
D03*
X31600Y4375D02*
D03*
X32600Y2375D02*
D03*
X31600Y375D02*
D03*
X32600Y-1625D02*
D03*
X31600Y-3625D02*
D03*
X32600Y-5625D02*
D03*
X31600Y-7625D02*
D03*
X30600Y118375D02*
D03*
X29600Y116375D02*
D03*
X30600Y114375D02*
D03*
X29600Y112375D02*
D03*
X30600Y54375D02*
D03*
X29600Y44375D02*
D03*
X30600Y34375D02*
D03*
X29600Y32375D02*
D03*
X30600Y30375D02*
D03*
X29600Y24375D02*
D03*
X30600Y22375D02*
D03*
X29600Y16375D02*
D03*
Y8375D02*
D03*
X30600Y6375D02*
D03*
X29600Y4375D02*
D03*
Y375D02*
D03*
X30600Y-1625D02*
D03*
X29600Y-3625D02*
D03*
X30600Y-5625D02*
D03*
X29600Y-7625D02*
D03*
X28600Y118375D02*
D03*
X27600Y116375D02*
D03*
X28600Y114375D02*
D03*
X27600Y56375D02*
D03*
Y40375D02*
D03*
X28600Y38375D02*
D03*
Y34375D02*
D03*
X27600Y32375D02*
D03*
X28600Y30375D02*
D03*
X27600Y24375D02*
D03*
X28600Y22375D02*
D03*
X27600Y16375D02*
D03*
X28600Y6375D02*
D03*
X27600Y4375D02*
D03*
X28600Y-1625D02*
D03*
X27600Y-3625D02*
D03*
X28600Y-5625D02*
D03*
X27600Y-7625D02*
D03*
X26600Y118375D02*
D03*
Y114375D02*
D03*
X25600Y108375D02*
D03*
X26600Y106375D02*
D03*
X25600Y104375D02*
D03*
Y100375D02*
D03*
X26600Y98375D02*
D03*
X25600Y48375D02*
D03*
Y44375D02*
D03*
Y40375D02*
D03*
X26600Y38375D02*
D03*
X25600Y36375D02*
D03*
X26600Y34375D02*
D03*
X25600Y32375D02*
D03*
X26600Y30375D02*
D03*
X25600Y24375D02*
D03*
X26600Y22375D02*
D03*
X25600Y20375D02*
D03*
Y16375D02*
D03*
Y12375D02*
D03*
Y4375D02*
D03*
X26600Y-1625D02*
D03*
X25600Y-3625D02*
D03*
X26600Y-5625D02*
D03*
X25600Y-7625D02*
D03*
X24600Y118375D02*
D03*
X23600Y108375D02*
D03*
X24600Y106375D02*
D03*
X23600Y104375D02*
D03*
X24600Y102375D02*
D03*
X23600Y88375D02*
D03*
Y76375D02*
D03*
X24600Y66375D02*
D03*
X23600Y64375D02*
D03*
X24600Y62375D02*
D03*
Y42375D02*
D03*
X23600Y40375D02*
D03*
X24600Y38375D02*
D03*
X23600Y36375D02*
D03*
X24600Y34375D02*
D03*
X23600Y32375D02*
D03*
X24600Y30375D02*
D03*
Y26375D02*
D03*
X23600Y24375D02*
D03*
X24600Y22375D02*
D03*
X23600Y20375D02*
D03*
X24600Y18375D02*
D03*
X23600Y16375D02*
D03*
X24600Y14375D02*
D03*
X23600Y12375D02*
D03*
X24600Y10375D02*
D03*
X23600Y4375D02*
D03*
X24600Y-1625D02*
D03*
X23600Y-3625D02*
D03*
X24600Y-5625D02*
D03*
X23600Y-7625D02*
D03*
X22600Y118375D02*
D03*
Y102375D02*
D03*
X21600Y88375D02*
D03*
Y84375D02*
D03*
Y68375D02*
D03*
X22600Y66375D02*
D03*
X21600Y64375D02*
D03*
X22600Y62375D02*
D03*
Y50375D02*
D03*
Y42375D02*
D03*
X21600Y40375D02*
D03*
X22600Y38375D02*
D03*
X21600Y36375D02*
D03*
X22600Y34375D02*
D03*
X21600Y32375D02*
D03*
X22600Y30375D02*
D03*
Y26375D02*
D03*
X21600Y24375D02*
D03*
X22600Y22375D02*
D03*
X21600Y20375D02*
D03*
X22600Y18375D02*
D03*
X21600Y16375D02*
D03*
X22600Y14375D02*
D03*
X21600Y12375D02*
D03*
X22600Y10375D02*
D03*
X21600Y4375D02*
D03*
X22600Y-1625D02*
D03*
X21600Y-3625D02*
D03*
X22600Y-5625D02*
D03*
X21600Y-7625D02*
D03*
X20600Y118375D02*
D03*
X19600Y92375D02*
D03*
X20600Y90375D02*
D03*
X19600Y88375D02*
D03*
Y84375D02*
D03*
X20600Y70375D02*
D03*
X19600Y68375D02*
D03*
X20600Y66375D02*
D03*
X19600Y64375D02*
D03*
Y56375D02*
D03*
X20600Y54375D02*
D03*
Y50375D02*
D03*
Y42375D02*
D03*
X19600Y40375D02*
D03*
X20600Y18375D02*
D03*
Y14375D02*
D03*
Y10375D02*
D03*
Y6375D02*
D03*
X19600Y4375D02*
D03*
X20600Y-1625D02*
D03*
X19600Y-3625D02*
D03*
X20600Y-5625D02*
D03*
X19600Y-7625D02*
D03*
X18600Y118375D02*
D03*
X17600Y116375D02*
D03*
X18600Y114375D02*
D03*
Y94375D02*
D03*
X17600Y92375D02*
D03*
X18600Y90375D02*
D03*
X17600Y88375D02*
D03*
X18600Y86375D02*
D03*
X17600Y84375D02*
D03*
Y72375D02*
D03*
X18600Y70375D02*
D03*
X17600Y68375D02*
D03*
X18600Y66375D02*
D03*
X17600Y56375D02*
D03*
X18600Y42375D02*
D03*
X17600Y40375D02*
D03*
Y4375D02*
D03*
X18600Y-1625D02*
D03*
X17600Y-3625D02*
D03*
X18600Y-5625D02*
D03*
X17600Y-7625D02*
D03*
X16600Y118375D02*
D03*
X15600Y116375D02*
D03*
X16600Y114375D02*
D03*
X15600Y112375D02*
D03*
Y100375D02*
D03*
Y96375D02*
D03*
X16600Y94375D02*
D03*
X15600Y92375D02*
D03*
X16600Y90375D02*
D03*
X15600Y88375D02*
D03*
X16600Y86375D02*
D03*
X15600Y84375D02*
D03*
Y72375D02*
D03*
X16600Y70375D02*
D03*
X15600Y68375D02*
D03*
Y56375D02*
D03*
Y48375D02*
D03*
Y44375D02*
D03*
X16600Y42375D02*
D03*
X15600Y40375D02*
D03*
Y4375D02*
D03*
X16600Y-1625D02*
D03*
X15600Y-3625D02*
D03*
X16600Y-5625D02*
D03*
X15600Y-7625D02*
D03*
X14600Y118375D02*
D03*
X13600Y116375D02*
D03*
X14600Y114375D02*
D03*
X13600Y112375D02*
D03*
X14600Y110375D02*
D03*
X13600Y104375D02*
D03*
X14600Y102375D02*
D03*
X13600Y100375D02*
D03*
X14600Y98375D02*
D03*
X13600Y96375D02*
D03*
X14600Y94375D02*
D03*
X13600Y92375D02*
D03*
X14600Y90375D02*
D03*
X13600Y88375D02*
D03*
X14600Y86375D02*
D03*
X13600Y84375D02*
D03*
X14600Y82375D02*
D03*
X13600Y76375D02*
D03*
X14600Y74375D02*
D03*
X13600Y72375D02*
D03*
X14600Y70375D02*
D03*
X13600Y56375D02*
D03*
Y52375D02*
D03*
X14600Y50375D02*
D03*
X13600Y48375D02*
D03*
Y44375D02*
D03*
X14600Y42375D02*
D03*
X13600Y40375D02*
D03*
Y8375D02*
D03*
X14600Y6375D02*
D03*
X13600Y4375D02*
D03*
Y375D02*
D03*
X14600Y-1625D02*
D03*
X13600Y-3625D02*
D03*
X14600Y-5625D02*
D03*
X13600Y-7625D02*
D03*
X12600Y118375D02*
D03*
Y114375D02*
D03*
X11600Y104375D02*
D03*
X12600Y102375D02*
D03*
X11600Y100375D02*
D03*
X12600Y98375D02*
D03*
X11600Y96375D02*
D03*
X12600Y94375D02*
D03*
X11600Y92375D02*
D03*
X12600Y90375D02*
D03*
X11600Y88375D02*
D03*
X12600Y78375D02*
D03*
X11600Y76375D02*
D03*
X12600Y74375D02*
D03*
X11600Y72375D02*
D03*
Y64375D02*
D03*
X12600Y54375D02*
D03*
X11600Y52375D02*
D03*
X12600Y50375D02*
D03*
Y46375D02*
D03*
X11600Y44375D02*
D03*
X12600Y42375D02*
D03*
X11600Y12375D02*
D03*
X12600Y10375D02*
D03*
X11600Y8375D02*
D03*
X12600Y6375D02*
D03*
X11600Y4375D02*
D03*
Y375D02*
D03*
X12600Y-1625D02*
D03*
X11600Y-3625D02*
D03*
X12600Y-5625D02*
D03*
X11600Y-7625D02*
D03*
X10600Y118375D02*
D03*
Y110375D02*
D03*
X9600Y108375D02*
D03*
X10600Y106375D02*
D03*
X9600Y104375D02*
D03*
X10600Y102375D02*
D03*
X9600Y100375D02*
D03*
X10600Y98375D02*
D03*
X9600Y96375D02*
D03*
X10600Y94375D02*
D03*
X9600Y92375D02*
D03*
X10600Y90375D02*
D03*
X9600Y88375D02*
D03*
Y80375D02*
D03*
X10600Y78375D02*
D03*
X9600Y76375D02*
D03*
X10600Y74375D02*
D03*
X9600Y64375D02*
D03*
Y56375D02*
D03*
X10600Y54375D02*
D03*
X9600Y52375D02*
D03*
X10600Y50375D02*
D03*
X9600Y48375D02*
D03*
X10600Y46375D02*
D03*
X9600Y44375D02*
D03*
X10600Y42375D02*
D03*
X9600Y12375D02*
D03*
X10600Y10375D02*
D03*
X9600Y8375D02*
D03*
X10600Y6375D02*
D03*
X9600Y4375D02*
D03*
X10600Y2375D02*
D03*
X9600Y375D02*
D03*
X10600Y-1625D02*
D03*
X9600Y-3625D02*
D03*
X10600Y-5625D02*
D03*
X9600Y-7625D02*
D03*
X8600Y118375D02*
D03*
Y106375D02*
D03*
X7600Y104375D02*
D03*
X8600Y102375D02*
D03*
Y98375D02*
D03*
Y94375D02*
D03*
Y90375D02*
D03*
Y78375D02*
D03*
Y66375D02*
D03*
X7600Y56375D02*
D03*
X8600Y54375D02*
D03*
X7600Y52375D02*
D03*
X8600Y50375D02*
D03*
X7600Y48375D02*
D03*
X8600Y46375D02*
D03*
X7600Y44375D02*
D03*
X8600Y42375D02*
D03*
Y10375D02*
D03*
X7600Y8375D02*
D03*
X8600Y6375D02*
D03*
X7600Y4375D02*
D03*
X8600Y2375D02*
D03*
X7600Y375D02*
D03*
X8600Y-1625D02*
D03*
X7600Y-3625D02*
D03*
X8600Y-5625D02*
D03*
X7600Y-7625D02*
D03*
X6600Y118375D02*
D03*
Y98375D02*
D03*
Y94375D02*
D03*
Y90375D02*
D03*
X5600Y88375D02*
D03*
Y84375D02*
D03*
Y68375D02*
D03*
Y56375D02*
D03*
X6600Y46375D02*
D03*
X5600Y44375D02*
D03*
X6600Y42375D02*
D03*
X5600Y8375D02*
D03*
X6600Y-1625D02*
D03*
X5600Y-3625D02*
D03*
X6600Y-5625D02*
D03*
X5600Y-7625D02*
D03*
X4600Y118375D02*
D03*
X3600Y116375D02*
D03*
Y88375D02*
D03*
Y84375D02*
D03*
Y60375D02*
D03*
X4600Y58375D02*
D03*
X3600Y56375D02*
D03*
X4600Y46375D02*
D03*
X3600Y44375D02*
D03*
X4600Y18375D02*
D03*
Y-1625D02*
D03*
X3600Y-3625D02*
D03*
X4600Y-5625D02*
D03*
X3600Y-7625D02*
D03*
X2600Y118375D02*
D03*
X1600Y116375D02*
D03*
X2600Y114375D02*
D03*
X1600Y100375D02*
D03*
Y96375D02*
D03*
Y92375D02*
D03*
X2600Y86375D02*
D03*
X1600Y84375D02*
D03*
Y60375D02*
D03*
X2600Y58375D02*
D03*
X1600Y56375D02*
D03*
X2600Y46375D02*
D03*
X1600Y8375D02*
D03*
X2600Y-1625D02*
D03*
X1600Y-3625D02*
D03*
X2600Y-5625D02*
D03*
X1600Y-7625D02*
D03*
X600Y118375D02*
D03*
X-400Y116375D02*
D03*
X600Y114375D02*
D03*
X-400Y112375D02*
D03*
Y108375D02*
D03*
Y104375D02*
D03*
X600Y102375D02*
D03*
X-400Y100375D02*
D03*
X600Y98375D02*
D03*
X-400Y96375D02*
D03*
X600Y94375D02*
D03*
X-400Y92375D02*
D03*
X600Y74375D02*
D03*
X-400Y72375D02*
D03*
X600Y70375D02*
D03*
X-400Y68375D02*
D03*
X600Y66375D02*
D03*
X-400Y64375D02*
D03*
X600Y62375D02*
D03*
X-400Y60375D02*
D03*
X600Y58375D02*
D03*
X-400Y56375D02*
D03*
X600Y46375D02*
D03*
X-400Y44375D02*
D03*
Y40375D02*
D03*
Y36375D02*
D03*
Y32375D02*
D03*
Y20375D02*
D03*
Y16375D02*
D03*
Y12375D02*
D03*
Y8375D02*
D03*
X600Y-1625D02*
D03*
X-400Y-3625D02*
D03*
X600Y-5625D02*
D03*
X-400Y-7625D02*
D03*
X-1400Y118375D02*
D03*
X-2400Y116375D02*
D03*
X-1400Y114375D02*
D03*
X-2400Y112375D02*
D03*
X-1400Y110375D02*
D03*
X-2400Y108375D02*
D03*
X-1400Y106375D02*
D03*
X-2400Y104375D02*
D03*
X-1400Y102375D02*
D03*
X-2400Y100375D02*
D03*
X-1400Y98375D02*
D03*
X-2400Y96375D02*
D03*
X-1400Y94375D02*
D03*
X-2400Y92375D02*
D03*
X-1400Y90375D02*
D03*
X-2400Y76375D02*
D03*
X-1400Y74375D02*
D03*
X-2400Y72375D02*
D03*
X-1400Y70375D02*
D03*
X-2400Y68375D02*
D03*
X-1400Y66375D02*
D03*
X-2400Y64375D02*
D03*
X-1400Y62375D02*
D03*
X-2400Y60375D02*
D03*
X-1400Y58375D02*
D03*
Y54375D02*
D03*
X-2400Y52375D02*
D03*
X-1400Y50375D02*
D03*
X-2400Y48375D02*
D03*
X-1400Y46375D02*
D03*
X-2400Y36375D02*
D03*
X-1400Y30375D02*
D03*
X-2400Y28375D02*
D03*
Y20375D02*
D03*
Y12375D02*
D03*
Y8375D02*
D03*
X-1400Y6375D02*
D03*
X-2400Y4375D02*
D03*
X-1400Y2375D02*
D03*
X-2400Y375D02*
D03*
X-1400Y-1625D02*
D03*
X-2400Y-3625D02*
D03*
X-1400Y-5625D02*
D03*
X-2400Y-7625D02*
D03*
X-4400Y112375D02*
D03*
X-3400Y110375D02*
D03*
X-4400Y108375D02*
D03*
X-3400Y106375D02*
D03*
X-4400Y104375D02*
D03*
X-3400Y102375D02*
D03*
X-4400Y100375D02*
D03*
X-3400Y98375D02*
D03*
X-4400Y96375D02*
D03*
X-3400Y94375D02*
D03*
X-4400Y92375D02*
D03*
X-3400Y90375D02*
D03*
X-4400Y88375D02*
D03*
X-3400Y86375D02*
D03*
X-4400Y84375D02*
D03*
X-3400Y82375D02*
D03*
X-4400Y80375D02*
D03*
X-3400Y78375D02*
D03*
X-4400Y76375D02*
D03*
X-3400Y74375D02*
D03*
X-4400Y72375D02*
D03*
X-3400Y70375D02*
D03*
X-4400Y68375D02*
D03*
X-3400Y66375D02*
D03*
X-4400Y64375D02*
D03*
X-3400Y62375D02*
D03*
X-4400Y60375D02*
D03*
X-3400Y58375D02*
D03*
X-4400Y56375D02*
D03*
Y52375D02*
D03*
X-3400Y50375D02*
D03*
X-4400Y48375D02*
D03*
Y40375D02*
D03*
X-3400Y38375D02*
D03*
X-4400Y36375D02*
D03*
X-3400Y30375D02*
D03*
X-4400Y28375D02*
D03*
Y20375D02*
D03*
X-3400Y18375D02*
D03*
X-4400Y16375D02*
D03*
X-3400Y14375D02*
D03*
X-4400Y12375D02*
D03*
X-3400Y10375D02*
D03*
X-4400Y8375D02*
D03*
X-3400Y6375D02*
D03*
X-4400Y4375D02*
D03*
X-3400Y2375D02*
D03*
X-4400Y375D02*
D03*
X-3400Y-1625D02*
D03*
X-6400Y112375D02*
D03*
X-5400Y110375D02*
D03*
X-6400Y108375D02*
D03*
X-5400Y106375D02*
D03*
X-6400Y104375D02*
D03*
X-5400Y102375D02*
D03*
X-6400Y100375D02*
D03*
X-5400Y98375D02*
D03*
X-6400Y96375D02*
D03*
X-5400Y94375D02*
D03*
X-6400Y92375D02*
D03*
X-5400Y90375D02*
D03*
X-6400Y88375D02*
D03*
X-5400Y86375D02*
D03*
X-6400Y84375D02*
D03*
X-5400Y82375D02*
D03*
X-6400Y80375D02*
D03*
X-5400Y78375D02*
D03*
X-6400Y76375D02*
D03*
X-5400Y74375D02*
D03*
X-6400Y72375D02*
D03*
X-5400Y70375D02*
D03*
X-6400Y68375D02*
D03*
X-5400Y66375D02*
D03*
X-6400Y64375D02*
D03*
X-5400Y62375D02*
D03*
X-6400Y60375D02*
D03*
X-5400Y58375D02*
D03*
X-6400Y56375D02*
D03*
Y52375D02*
D03*
X-5400Y50375D02*
D03*
X-6400Y48375D02*
D03*
Y40375D02*
D03*
X-5400Y38375D02*
D03*
X-6400Y36375D02*
D03*
Y32375D02*
D03*
X-5400Y30375D02*
D03*
X-6400Y28375D02*
D03*
Y20375D02*
D03*
X-5400Y18375D02*
D03*
X-6400Y16375D02*
D03*
X-5400Y14375D02*
D03*
X-6400Y12375D02*
D03*
X-5400Y10375D02*
D03*
X-6400Y8375D02*
D03*
X-5400Y6375D02*
D03*
X-6400Y4375D02*
D03*
X-5400Y2375D02*
D03*
X-6400Y375D02*
D03*
X-5400Y-1625D02*
D03*
X-8400Y112375D02*
D03*
X-7400Y110375D02*
D03*
X-8400Y108375D02*
D03*
X-7400Y106375D02*
D03*
X-8400Y104375D02*
D03*
X-7400Y102375D02*
D03*
X-8400Y100375D02*
D03*
X-7400Y98375D02*
D03*
X-8400Y96375D02*
D03*
X-7400Y94375D02*
D03*
X-8400Y92375D02*
D03*
X-7400Y90375D02*
D03*
X-8400Y88375D02*
D03*
X-7400Y86375D02*
D03*
X-8400Y84375D02*
D03*
X-7400Y82375D02*
D03*
X-8400Y80375D02*
D03*
X-7400Y78375D02*
D03*
X-8400Y76375D02*
D03*
X-7400Y74375D02*
D03*
X-8400Y72375D02*
D03*
X-7400Y70375D02*
D03*
X-8400Y68375D02*
D03*
X-7400Y66375D02*
D03*
X-8400Y64375D02*
D03*
X-7400Y62375D02*
D03*
X-8400Y60375D02*
D03*
Y48375D02*
D03*
Y44375D02*
D03*
Y40375D02*
D03*
Y36375D02*
D03*
X-7400Y30375D02*
D03*
X-8400Y28375D02*
D03*
Y24375D02*
D03*
Y20375D02*
D03*
X-7400Y18375D02*
D03*
X-8400Y16375D02*
D03*
X-7400Y14375D02*
D03*
X-8400Y12375D02*
D03*
X-7400Y10375D02*
D03*
X-8400Y8375D02*
D03*
X-7400Y6375D02*
D03*
X-8400Y4375D02*
D03*
X-7400Y2375D02*
D03*
X-8400Y375D02*
D03*
X-7400Y-1625D02*
D03*
X126425Y30075D02*
D03*
X140050Y40525D02*
D03*
X113317Y114332D02*
D03*
X113387Y113736D02*
D03*
X113722Y113238D02*
D03*
Y112638D02*
D03*
X114119Y111108D02*
D03*
X114707Y111227D02*
D03*
X114716Y113009D02*
D03*
X114894Y113582D02*
D03*
X115133Y114132D02*
D03*
Y114732D02*
D03*
X103492Y114827D02*
D03*
Y114227D02*
D03*
X103767Y113694D02*
D03*
X103922Y113114D02*
D03*
X103904Y112514D02*
D03*
X104426Y111108D02*
D03*
X104916Y113126D02*
D03*
X105069Y113707D02*
D03*
X105308Y114257D02*
D03*
Y114857D02*
D03*
X121506Y117503D02*
D03*
X120976Y117222D02*
D03*
X120589Y116764D02*
D03*
X120040Y116522D02*
D03*
X119440D02*
D03*
X118840D02*
D03*
X118240D02*
D03*
X117640D02*
D03*
X117040D02*
D03*
X116440D02*
D03*
X115840D02*
D03*
X115240D02*
D03*
X114773Y116898D02*
D03*
X114173Y116908D02*
D03*
X113573Y116878D02*
D03*
X113317Y116335D02*
D03*
Y115735D02*
D03*
X113300Y115075D02*
D03*
X115216Y115528D02*
D03*
X115816D02*
D03*
X116416D02*
D03*
X117016D02*
D03*
X117616D02*
D03*
X118216D02*
D03*
X118816D02*
D03*
X119416D02*
D03*
X120016D02*
D03*
X120586Y115342D02*
D03*
X120971Y114881D02*
D03*
X121500Y114598D02*
D03*
X122098Y114552D02*
D03*
X122670Y114735D02*
D03*
X123120Y115131D02*
D03*
X123387Y115668D02*
D03*
X123417Y116268D02*
D03*
X123219Y116834D02*
D03*
X122809Y117272D02*
D03*
X122265Y117526D02*
D03*
X94897Y117501D02*
D03*
X94442Y117110D02*
D03*
X94168Y116576D02*
D03*
X94130Y115978D02*
D03*
X94322Y115409D02*
D03*
X94725Y114965D02*
D03*
X95266Y114705D02*
D03*
X95866Y114686D02*
D03*
X96430Y114892D02*
D03*
X96861Y115309D02*
D03*
X97353Y115653D02*
D03*
X97952D02*
D03*
X98552D02*
D03*
X99152D02*
D03*
X99753D02*
D03*
X100353D02*
D03*
X100952D02*
D03*
X101552D02*
D03*
X102152D02*
D03*
X102752D02*
D03*
X103352D02*
D03*
X105308Y115820D02*
D03*
Y116420D02*
D03*
X105090Y116979D02*
D03*
X104492Y117033D02*
D03*
X103892Y117031D02*
D03*
X103431Y116647D02*
D03*
X102831D02*
D03*
X102231D02*
D03*
X101631D02*
D03*
X101031D02*
D03*
X100431D02*
D03*
X99831D02*
D03*
X99231D02*
D03*
X98631D02*
D03*
X98031D02*
D03*
X97431D02*
D03*
X96919Y116959D02*
D03*
X96509Y117397D02*
D03*
X95965Y117651D02*
D03*
X13650Y26375D02*
D03*
Y25275D02*
D03*
Y24175D02*
D03*
Y23075D02*
D03*
Y21975D02*
D03*
X12550Y26375D02*
D03*
Y25275D02*
D03*
Y24175D02*
D03*
Y23075D02*
D03*
Y21975D02*
D03*
X11450Y26375D02*
D03*
Y25275D02*
D03*
Y24175D02*
D03*
Y23075D02*
D03*
Y21975D02*
D03*
X10350Y26375D02*
D03*
Y25275D02*
D03*
Y24175D02*
D03*
Y23075D02*
D03*
Y21975D02*
D03*
X9250Y26375D02*
D03*
Y25275D02*
D03*
Y24175D02*
D03*
Y23075D02*
D03*
Y21975D02*
D03*
X10225Y33375D02*
D03*
X8650Y34275D02*
D03*
X13350Y30000D02*
D03*
X14900Y28875D02*
D03*
X14875Y29925D02*
D03*
X7975Y33650D02*
D03*
X8750Y32225D02*
D03*
X7950Y34550D02*
D03*
X7925Y35475D02*
D03*
X40050Y-7750D02*
D03*
X40075Y-6625D02*
D03*
X4450Y16525D02*
D03*
Y15375D02*
D03*
Y14225D02*
D03*
Y13075D02*
D03*
Y11925D02*
D03*
Y10775D02*
D03*
X1775Y16525D02*
D03*
Y15375D02*
D03*
Y14225D02*
D03*
Y13075D02*
D03*
Y11925D02*
D03*
Y10775D02*
D03*
X750D02*
D03*
Y11925D02*
D03*
Y13075D02*
D03*
Y14225D02*
D03*
Y15375D02*
D03*
Y16525D02*
D03*
X18075Y33700D02*
D03*
X62500Y3925D02*
D03*
X89300Y102900D02*
D03*
X89309Y105166D02*
D03*
X104216Y104466D02*
D03*
X104191Y105166D02*
D03*
X61875Y3625D02*
D03*
X129422Y74158D02*
D03*
Y74908D02*
D03*
X107700Y91850D02*
D03*
Y94450D02*
D03*
Y95750D02*
D03*
X127200Y37600D02*
D03*
X136100Y18700D02*
D03*
X112400Y20700D02*
D03*
X118000Y51000D02*
D03*
X126100Y47075D02*
D03*
X122925Y59700D02*
D03*
X122775Y65025D02*
D03*
X124156Y67328D02*
D03*
X106775Y61025D02*
D03*
X116175Y48550D02*
D03*
X120125Y48100D02*
D03*
X59000Y30000D02*
D03*
X61500Y29500D02*
D03*
X59525Y25525D02*
D03*
X16825Y45375D02*
D03*
X19325Y45350D02*
D03*
X21825Y45375D02*
D03*
X24325Y45350D02*
D03*
X113625Y70075D02*
D03*
X109350Y102000D02*
D03*
Y103450D02*
D03*
X109325Y104750D02*
D03*
Y106950D02*
D03*
X109275Y108375D02*
D03*
X109325Y109675D02*
D03*
X113175Y105825D02*
D03*
X111800Y105875D02*
D03*
X110350D02*
D03*
X108275D02*
D03*
X106825Y105900D02*
D03*
X105450Y105875D02*
D03*
X18300Y19800D02*
D03*
X18550Y15675D02*
D03*
X13875Y17600D02*
D03*
X16975Y14500D02*
D03*
X8450Y15675D02*
D03*
X12475Y15975D02*
D03*
X10200Y13925D02*
D03*
X9200Y15175D02*
D03*
X20450Y26300D02*
D03*
X20250Y28025D02*
D03*
X6100Y32675D02*
D03*
X9200Y33400D02*
D03*
X4200Y26000D02*
D03*
X4200Y27376D02*
D03*
X6825Y19550D02*
D03*
X603Y18278D02*
D03*
X1775Y30350D02*
D03*
X450Y29250D02*
D03*
X7400Y32625D02*
D03*
X16850Y36200D02*
D03*
X7550Y38600D02*
D03*
X125887Y-6488D02*
D03*
X118800Y-6625D02*
D03*
X111000Y-6675D02*
D03*
X105300Y-6650D02*
D03*
X106655Y53553D02*
D03*
X137900Y-4800D02*
D03*
X111625Y44075D02*
D03*
X119050Y40925D02*
D03*
X112125Y43275D02*
D03*
X112625Y47675D02*
D03*
X113625Y44200D02*
D03*
X114125Y44875D02*
D03*
X115125D02*
D03*
X114625Y44200D02*
D03*
X110580Y49052D02*
D03*
X110357Y48023D02*
D03*
X129600Y44967D02*
D03*
X116625Y44300D02*
D03*
X129600Y44318D02*
D03*
X141325Y45375D02*
D03*
X140900Y64600D02*
D03*
X129756Y66553D02*
D03*
X128682Y53000D02*
D03*
X129550Y59208D02*
D03*
X138775Y90525D02*
D03*
X111575Y54475D02*
D03*
X114881Y66428D02*
D03*
X123325Y56000D02*
D03*
X121750Y39425D02*
D03*
X112750Y39325D02*
D03*
X108700Y39100D02*
D03*
X94700Y43825D02*
D03*
X106750Y48850D02*
D03*
X121825Y70250D02*
D03*
X122900Y66125D02*
D03*
X129400Y82525D02*
D03*
X130425Y81275D02*
D03*
X120625Y44175D02*
D03*
X68128Y700D02*
D03*
X61032Y6557D02*
D03*
X64532Y2636D02*
D03*
X113125Y44875D02*
D03*
X64025Y3350D02*
D03*
X63025D02*
D03*
X63532Y2636D02*
D03*
X117125Y47925D02*
D03*
X116575Y65925D02*
D03*
X115625Y66025D02*
D03*
X116122Y66525D02*
D03*
X117125Y66200D02*
D03*
X114025Y66525D02*
D03*
X107500Y55000D02*
D03*
X98250Y86825D02*
D03*
X102575Y65250D02*
D03*
Y66700D02*
D03*
X116050Y74475D02*
D03*
X114610Y74440D02*
D03*
X70532Y8808D02*
D03*
X71025Y9375D02*
D03*
X102575Y68275D02*
D03*
X113170Y74420D02*
D03*
X111730Y74445D02*
D03*
X110290Y74440D02*
D03*
X108850Y74450D02*
D03*
X96850Y88325D02*
D03*
X69025Y9500D02*
D03*
X97724Y87275D02*
D03*
X97275Y87775D02*
D03*
X69532Y8808D02*
D03*
X116675Y93375D02*
D03*
Y92075D02*
D03*
X114575Y94025D02*
D03*
X114575Y94675D02*
D03*
X72075Y3100D02*
D03*
X71532Y2636D02*
D03*
X71050Y3125D02*
D03*
X70532Y2636D02*
D03*
X69025Y3225D02*
D03*
X69532Y2636D02*
D03*
X105400Y95100D02*
D03*
Y97700D02*
D03*
X70000Y25000D02*
D03*
X67975Y9550D02*
D03*
X107500Y66000D02*
D03*
X122625Y47325D02*
D03*
X107500Y48000D02*
D03*
X122263Y44468D02*
D03*
X121450D02*
D03*
X121241Y70845D02*
D03*
X113113Y65955D02*
D03*
X118802Y66768D02*
D03*
X115625Y47325D02*
D03*
X116125Y44875D02*
D03*
X107500Y50000D02*
D03*
X126250Y50500D02*
D03*
X109950D02*
D03*
X107500Y51000D02*
D03*
X109950Y51500D02*
D03*
X107500Y52000D02*
D03*
X109950Y52500D02*
D03*
X107500Y53000D02*
D03*
X123800Y61000D02*
D03*
X126250Y53500D02*
D03*
X110357Y61028D02*
D03*
X126657Y55097D02*
D03*
X111170Y55338D02*
D03*
X106280D02*
D03*
X123800Y58000D02*
D03*
X114575Y97925D02*
D03*
X105400Y96400D02*
D03*
X68532Y8808D02*
D03*
X68500Y21475D02*
D03*
X63500Y22500D02*
D03*
X72950Y116625D02*
D03*
X69700Y116675D02*
D03*
X40400D02*
D03*
X38525Y116700D02*
D03*
X24950D02*
D03*
X23225D02*
D03*
X11075Y115575D02*
D03*
X8175Y116525D02*
D03*
X55600Y116500D02*
D03*
X53875Y116525D02*
D03*
X73475Y32000D02*
D03*
X65500Y32500D02*
D03*
X70500Y25500D02*
D03*
X81150Y35375D02*
D03*
X83504Y41027D02*
D03*
X72500Y35500D02*
D03*
X35375Y85100D02*
D03*
X35875Y76075D02*
D03*
X50000Y85075D02*
D03*
X20250Y84800D02*
D03*
X20250Y75975D02*
D03*
X76000Y36000D02*
D03*
X35350Y114375D02*
D03*
X20100Y114500D02*
D03*
X20273Y106000D02*
D03*
X5050Y114475D02*
D03*
X5250Y105975D02*
D03*
X40725Y43400D02*
D03*
X34652Y35398D02*
D03*
X23625Y83625D02*
D03*
X72404Y41502D02*
D03*
X76075Y43200D02*
D03*
X36050Y104425D02*
D03*
X80225Y41250D02*
D03*
X80550Y39050D02*
D03*
X80175Y37825D02*
D03*
X73275Y87100D02*
D03*
X45175Y36075D02*
D03*
X57100Y11675D02*
D03*
X54025Y31875D02*
D03*
X5025Y84975D02*
D03*
X5075Y75075D02*
D03*
X36575Y33525D02*
D03*
X35375Y39950D02*
D03*
X26350Y50100D02*
D03*
X39125Y86825D02*
D03*
X64000Y32000D02*
D03*
X63000Y33000D02*
D03*
X36787Y104425D02*
D03*
X66500Y35500D02*
D03*
X65500Y39500D02*
D03*
X58750Y6075D02*
D03*
X58250D02*
D03*
X57600Y11675D02*
D03*
X59475Y12375D02*
D03*
X58975D02*
D03*
X56050Y12775D02*
D03*
X55550D02*
D03*
X52300Y27400D02*
D03*
X60500Y27500D02*
D03*
X89186Y116623D02*
D03*
X85460D02*
D03*
X11585Y86223D02*
D03*
X9185Y86223D02*
D03*
X56016Y85823D02*
D03*
X58416Y85823D02*
D03*
X85250Y86000D02*
D03*
X87675D02*
D03*
X79850Y58950D02*
D03*
X91850Y46875D02*
D03*
Y43742D02*
D03*
Y40608D02*
D03*
X91850Y39125D02*
D03*
X84775Y35725D02*
D03*
X30575Y41250D02*
D03*
X92800Y32975D02*
D03*
X92825Y30950D02*
D03*
Y29000D02*
D03*
X92875Y27000D02*
D03*
X92900Y24975D02*
D03*
Y23050D02*
D03*
X91054Y5835D02*
D03*
X90475Y350D02*
D03*
X51203Y15120D02*
D03*
X46203Y14296D02*
D03*
X42028D02*
D03*
X-3075Y34975D02*
D03*
X-4375Y33450D02*
D03*
X-3075Y44100D02*
D03*
Y40950D02*
D03*
X-3405Y45395D02*
D03*
X-8825Y53575D02*
D03*
X68500Y33500D02*
D03*
X75500Y21500D02*
D03*
X69500Y29500D02*
D03*
X72500Y30500D02*
D03*
X69500Y31500D02*
D03*
Y30500D02*
D03*
X68500D02*
D03*
X70500Y37500D02*
D03*
X71500Y34500D02*
D03*
X74500Y35500D02*
D03*
X73500Y38500D02*
D03*
X77000Y39000D02*
D03*
X54000Y42000D02*
D03*
X55500Y39500D02*
D03*
X56500Y36500D02*
D03*
X58500Y40500D02*
D03*
X61500Y41500D02*
D03*
X65000Y43000D02*
D03*
X69500Y40500D02*
D03*
X59500Y37500D02*
D03*
X62500Y38500D02*
D03*
X64500Y35500D02*
D03*
X60500Y33500D02*
D03*
X62500Y31500D02*
D03*
X61500D02*
D03*
Y30500D02*
D03*
X63500D02*
D03*
X64500D02*
D03*
X65500D02*
D03*
Y29500D02*
D03*
Y28500D02*
D03*
X64500D02*
D03*
X68500D02*
D03*
X69500Y27500D02*
D03*
X67500D02*
D03*
X65500D02*
D03*
X66500Y26500D02*
D03*
X77000Y29000D02*
D03*
X73500Y24500D02*
D03*
Y27500D02*
D03*
X71500Y24500D02*
D03*
X68500Y22500D02*
D03*
X72000Y20000D02*
D03*
X65500Y21500D02*
D03*
X62000Y20000D02*
D03*
X64500Y24500D02*
D03*
Y26500D02*
D03*
X63500Y27500D02*
D03*
X62500Y28500D02*
D03*
X61500D02*
D03*
Y27500D02*
D03*
X62500Y26500D02*
D03*
X61500D02*
D03*
X61500Y24500D02*
D03*
X60500Y25500D02*
D03*
Y24500D02*
D03*
X59500D02*
D03*
X58500Y27500D02*
D03*
Y26500D02*
D03*
X57500Y27500D02*
D03*
Y32500D02*
D03*
X54000Y29000D02*
D03*
Y27000D02*
D03*
X56500Y25500D02*
D03*
X58500Y23500D02*
D03*
X57500D02*
D03*
Y22500D02*
D03*
X56500D02*
D03*
X55500D02*
D03*
X54000Y22000D02*
D03*
Y23000D02*
D03*
Y25000D02*
D03*
X56500Y29500D02*
D03*
X58500Y30500D02*
D03*
X59500D02*
D03*
Y31500D02*
D03*
X57500D02*
D03*
X56500D02*
D03*
X55500D02*
D03*
X54000Y31000D02*
D03*
X61500Y25500D02*
D03*
X66500Y23500D02*
D03*
X67000Y20000D02*
D03*
X60500Y21500D02*
D03*
X57000Y20000D02*
D03*
X60750Y5775D02*
D03*
X60250D02*
D03*
X57525Y2925D02*
D03*
Y6650D02*
D03*
X88075Y36800D02*
D03*
X82200Y40075D02*
D03*
X16825Y150D02*
D03*
X19325D02*
D03*
X21825D02*
D03*
X24325D02*
D03*
X26822Y263D02*
D03*
X70029Y150D02*
D03*
X67529D02*
D03*
X65029D02*
D03*
X62529D02*
D03*
X60029D02*
D03*
X67025Y6400D02*
D03*
X16825Y51542D02*
D03*
X19325D02*
D03*
X21825D02*
D03*
X24325D02*
D03*
X26825Y45370D02*
D03*
X79475Y108425D02*
D03*
X79450Y39000D02*
D03*
X78675Y108425D02*
D03*
X78075Y28475D02*
D03*
X77875Y108400D02*
D03*
X77069Y108406D02*
D03*
X77100Y40600D02*
D03*
X76275Y108400D02*
D03*
X81469Y105881D02*
D03*
X80275Y105875D02*
D03*
X79050Y105675D02*
D03*
Y37450D02*
D03*
X78229Y105655D02*
D03*
X78050Y27225D02*
D03*
X77450Y105625D02*
D03*
Y41900D02*
D03*
X76700Y105625D02*
D03*
Y44125D02*
D03*
X75904Y105630D02*
D03*
X75775Y44675D02*
D03*
X82263Y106150D02*
D03*
X81875Y107750D02*
D03*
X79875D02*
D03*
X79075D02*
D03*
X78275D02*
D03*
X77475D02*
D03*
X76675D02*
D03*
X75875D02*
D03*
Y110250D02*
D03*
X76675D02*
D03*
X77475D02*
D03*
X78275D02*
D03*
X79075D02*
D03*
X79875D02*
D03*
X82275D02*
D03*
X81863Y108650D02*
D03*
X80675Y107750D02*
D03*
X80850Y105875D02*
D03*
X80750Y114075D02*
D03*
X82075Y75800D02*
D03*
X78800Y24975D02*
D03*
X80850Y75800D02*
D03*
X78275Y26000D02*
D03*
X79875Y75775D02*
D03*
X77700Y29525D02*
D03*
X79850Y74775D02*
D03*
X79804Y78404D02*
D03*
X77479Y30201D02*
D03*
X79850Y73425D02*
D03*
X76500Y26450D02*
D03*
X79875Y72525D02*
D03*
X75525Y29475D02*
D03*
X79875Y71425D02*
D03*
X74500Y38525D02*
D03*
X75475Y78800D02*
D03*
Y78200D02*
D03*
Y77600D02*
D03*
X75500Y76950D02*
D03*
X76675Y43400D02*
D03*
X77875Y39775D02*
D03*
X77452Y40227D02*
D03*
X75500Y41500D02*
D03*
X73500Y25500D02*
D03*
X80775Y84150D02*
D03*
X70000Y32000D02*
D03*
X71000Y42625D02*
D03*
X75000Y42000D02*
D03*
X75000Y43000D02*
D03*
X69000Y40000D02*
D03*
X68000D02*
D03*
X69000Y42750D02*
D03*
X68000D02*
D03*
X70000Y40000D02*
D03*
X43800Y40450D02*
D03*
X65000Y31000D02*
D03*
X32025Y32475D02*
D03*
X72000Y41000D02*
D03*
X70000Y37000D02*
D03*
X68000Y33000D02*
D03*
X63978Y35002D02*
D03*
X64500Y34500D02*
D03*
Y36500D02*
D03*
X64475Y33375D02*
D03*
X65500Y33500D02*
D03*
X66000Y34000D02*
D03*
Y32000D02*
D03*
X66500Y36500D02*
D03*
X66525Y37475D02*
D03*
X67000Y36000D02*
D03*
X67500Y34500D02*
D03*
X46300Y111425D02*
D03*
X47125Y110925D02*
D03*
X47950Y110425D02*
D03*
X48725Y108725D02*
D03*
X49500Y108600D02*
D03*
X46325Y108250D02*
D03*
X47125Y107800D02*
D03*
X47925Y106125D02*
D03*
X51425Y74425D02*
D03*
X48725Y106100D02*
D03*
X49525Y106125D02*
D03*
X50300Y106075D02*
D03*
X51525Y105550D02*
D03*
X62000Y32000D02*
D03*
X59500Y33500D02*
D03*
X61000Y34000D02*
D03*
X61500Y35500D02*
D03*
X62000Y36000D02*
D03*
X1251Y112499D02*
D03*
X2050Y111800D02*
D03*
X2890Y111085D02*
D03*
X3650Y110688D02*
D03*
X4450Y110300D02*
D03*
X60600Y34500D02*
D03*
X39875Y33575D02*
D03*
X59600Y6350D02*
D03*
X65200Y106200D02*
D03*
X65550Y114450D02*
D03*
X50300Y113950D02*
D03*
X65575Y84625D02*
D03*
X69325Y87100D02*
D03*
X6450Y102325D02*
D03*
X44400Y85850D02*
D03*
X65575Y75025D02*
D03*
X15925Y22425D02*
D03*
X3450Y20800D02*
D03*
X4700Y20775D02*
D03*
X600Y23000D02*
D03*
X14825Y27850D02*
D03*
X15550D02*
D03*
X16375D02*
D03*
Y28675D02*
D03*
X15175Y27375D02*
D03*
X7525Y28050D02*
D03*
X3450Y28250D02*
D03*
X12700Y19675D02*
D03*
X12200Y19650D02*
D03*
X10200Y19700D02*
D03*
X9200Y19300D02*
D03*
X11075Y19250D02*
D03*
X8150Y27700D02*
D03*
X25826Y19001D02*
D03*
X30900Y20950D02*
D03*
X43526Y-2451D02*
D03*
X39716Y-2659D02*
D03*
Y-1159D02*
D03*
X11200Y28600D02*
D03*
X12150Y34375D02*
D03*
X11700Y28575D02*
D03*
X12875Y34700D02*
D03*
X12200Y28575D02*
D03*
X12975Y33300D02*
D03*
X7000Y22925D02*
D03*
X6975Y22425D02*
D03*
X15950Y21050D02*
D03*
X16425Y26300D02*
D03*
X15975Y25875D02*
D03*
X7075Y21425D02*
D03*
X13700Y28600D02*
D03*
X8200Y32800D02*
D03*
X6825Y25425D02*
D03*
X7100Y25925D02*
D03*
X7075Y26925D02*
D03*
X850Y26900D02*
D03*
X6500Y26351D02*
D03*
X6050Y28250D02*
D03*
X4955Y28445D02*
D03*
X107700Y97050D02*
D03*
X113675Y93675D02*
D03*
X18000Y31975D02*
D03*
X15250Y20175D02*
D03*
X2675Y23201D02*
D03*
X550Y24150D02*
D03*
X41375Y-6125D02*
D03*
X40575Y-6075D02*
D03*
X107721Y-5021D02*
D03*
X114804D02*
D03*
X121896D02*
D03*
X129046D02*
D03*
X146227Y-3827D02*
D03*
X146450Y19775D02*
D03*
X146227Y44177D02*
D03*
X146255Y67945D02*
D03*
X146175Y91600D02*
D03*
X133175Y84400D02*
D03*
Y82525D02*
D03*
X86325Y59650D02*
D03*
X86400Y57675D02*
D03*
X85075Y55675D02*
D03*
X88650Y51875D02*
D03*
X129600Y70957D02*
D03*
Y70308D02*
D03*
X129750Y67357D02*
D03*
X129175Y63682D02*
D03*
Y63033D02*
D03*
X129550Y59857D02*
D03*
X129225Y56158D02*
D03*
Y55507D02*
D03*
X129333Y53000D02*
D03*
X129708Y49175D02*
D03*
X129057D02*
D03*
X74500Y37500D02*
D03*
X75000Y35000D02*
D03*
X76247Y45197D02*
D03*
X122900Y61275D02*
D03*
X111550Y42725D02*
D03*
X110625Y42325D02*
D03*
X129275Y41243D02*
D03*
Y40592D02*
D03*
D77*
X61225Y23825D02*
X63275Y25875D01*
X61200Y23825D02*
X61225D01*
M02*
