G04 Layer_Color=32896*
%FSLAX43Y43*%
%MOMM*%
G71*
G01*
G75*
%ADD10C,0.100*%
%ADD49C,0.200*%
%ADD54C,0.300*%
D10*
X38871Y-5747D02*
X44371D01*
X38871Y1974D02*
X44371D01*
X38871Y-5747D02*
Y1974D01*
X44371Y-5747D02*
Y1974D01*
X26245Y12537D02*
X31745D01*
X26245Y20259D02*
X31745D01*
X26245Y12537D02*
Y20259D01*
X31745Y12537D02*
Y20259D01*
X43325Y-8050D02*
Y-6550D01*
X40225Y-8050D02*
Y-6550D01*
Y-8050D02*
X43325D01*
X40225Y-6550D02*
X43325D01*
X31925Y10025D02*
Y11525D01*
X28825Y10025D02*
Y11525D01*
Y10025D02*
X31925D01*
X28825Y11525D02*
X31925D01*
X5750Y31775D02*
X7250D01*
X5750Y28675D02*
X7250D01*
Y31775D01*
X5750Y28675D02*
Y31775D01*
X2700Y21100D02*
Y22600D01*
X5800Y21100D02*
Y22600D01*
X2700D02*
X5800D01*
X2700Y21100D02*
X5800D01*
X4900Y17525D02*
Y19025D01*
X8000Y17525D02*
Y19025D01*
X4900D02*
X8000D01*
X4900Y17525D02*
X8000D01*
X8250Y19125D02*
X10150D01*
Y15725D02*
Y19125D01*
X8250Y15725D02*
Y19125D01*
Y15725D02*
X10150D01*
X10125Y19125D02*
X12025D01*
Y15725D02*
Y19125D01*
X10125Y15725D02*
Y19125D01*
Y15725D02*
X12025D01*
X15400Y17700D02*
Y19200D01*
X12300Y17700D02*
Y19200D01*
Y17700D02*
X15400D01*
X12300Y19200D02*
X15400D01*
X8750Y38161D02*
X14250D01*
X8750Y30439D02*
X14250D01*
Y38161D01*
X8750Y30439D02*
Y38161D01*
X7350Y37450D02*
Y39750D01*
X2650Y37450D02*
Y39750D01*
Y37450D02*
X7350D01*
X2650Y39750D02*
X7350D01*
X11625Y28750D02*
Y30250D01*
X14725Y28750D02*
Y30250D01*
X11625D02*
X14725D01*
X11625Y28750D02*
X14725D01*
X16575Y27400D02*
Y29300D01*
X19975D01*
X16575Y27400D02*
X19975D01*
Y29300D01*
X32525Y25100D02*
Y26350D01*
X29650D02*
X32525D01*
X29650Y25100D02*
Y26350D01*
Y25100D02*
X32525D01*
X20000Y21750D02*
Y23250D01*
X16900Y21750D02*
Y23250D01*
Y21750D02*
X20000D01*
X16900Y23250D02*
X20000D01*
X19975Y17975D02*
Y19475D01*
X16875Y17975D02*
Y19475D01*
Y17975D02*
X19975D01*
X16875Y19475D02*
X19975D01*
X17325Y15350D02*
X19625D01*
X17325Y10650D02*
X19625D01*
Y15350D01*
X17325Y10650D02*
Y15350D01*
X7275Y10225D02*
Y12525D01*
X2575Y10225D02*
Y12525D01*
Y10225D02*
X7275D01*
X2575Y12525D02*
X7275D01*
X99250Y105425D02*
X100750D01*
X99250Y108525D02*
X100750D01*
X99250Y105425D02*
Y108525D01*
X100750Y105425D02*
Y108525D01*
X99250Y102025D02*
X100750D01*
X99250Y105125D02*
X100750D01*
X99250Y102025D02*
Y105125D01*
X100750Y102025D02*
Y105125D01*
X95825Y101600D02*
Y103500D01*
X99225D01*
X95825Y101600D02*
X99225D01*
Y103500D01*
X94500Y101850D02*
Y103350D01*
X91400Y101850D02*
Y103350D01*
Y101850D02*
X94500D01*
X91400Y103350D02*
X94500D01*
X101400Y89500D02*
Y91000D01*
X98300Y89500D02*
Y91000D01*
Y89500D02*
X101400D01*
X98300Y91000D02*
X101400D01*
X111025Y96300D02*
Y97800D01*
X107925Y96300D02*
Y97800D01*
Y96300D02*
X111025D01*
X107925Y97800D02*
X111025D01*
X112925Y90325D02*
X114425D01*
X112925Y93425D02*
X114425D01*
X112925Y90325D02*
Y93425D01*
X114425Y90325D02*
Y93425D01*
X119100Y89900D02*
Y91400D01*
X122200Y89900D02*
Y91400D01*
X119100D02*
X122200D01*
X119100Y89900D02*
X122200D01*
X94500Y44225D02*
Y47100D01*
X95750Y44225D02*
Y47100D01*
X94500Y44225D02*
X95750D01*
X94500Y48675D02*
X95750D01*
X94500Y45800D02*
Y48675D01*
X95750Y45800D02*
Y48675D01*
X93876Y36929D02*
Y42429D01*
X101598Y36929D02*
Y42429D01*
X93876D02*
X101598D01*
X93876Y36929D02*
X101598D01*
X123525Y32875D02*
Y34375D01*
X120425Y32875D02*
Y34375D01*
Y32875D02*
X123525D01*
X120425Y34375D02*
X123525D01*
X116475Y32975D02*
Y34475D01*
X113375Y32975D02*
Y34475D01*
Y32975D02*
X116475D01*
X113375Y34475D02*
X116475D01*
X9225Y113225D02*
Y116325D01*
X10725Y113225D02*
Y116325D01*
X9225Y113225D02*
X10725D01*
X9225Y116325D02*
X10725D01*
X7425Y113250D02*
Y116350D01*
X8925Y113250D02*
Y116350D01*
X7425Y113250D02*
X8925D01*
X7425Y116350D02*
X8925D01*
X24200Y113225D02*
Y116325D01*
X25700Y113225D02*
Y116325D01*
X24200Y113225D02*
X25700D01*
X24200Y116325D02*
X25700D01*
X22450Y113225D02*
Y116325D01*
X23950Y113225D02*
Y116325D01*
X22450Y113225D02*
X23950D01*
X22450Y116325D02*
X23950D01*
X39650Y113200D02*
Y116300D01*
X41150Y113200D02*
Y116300D01*
X39650Y113200D02*
X41150D01*
X39650Y116300D02*
X41150D01*
X37775Y113200D02*
Y116300D01*
X39275Y113200D02*
Y116300D01*
X37775Y113200D02*
X39275D01*
X37775Y116300D02*
X39275D01*
X54850Y113125D02*
Y116225D01*
X56350Y113125D02*
Y116225D01*
X54850Y113125D02*
X56350D01*
X54850Y116225D02*
X56350D01*
X53129Y113123D02*
Y116223D01*
X54629Y113123D02*
Y116223D01*
X53129Y113123D02*
X54629D01*
X53129Y116223D02*
X54629D01*
X72186Y113323D02*
Y116423D01*
X73686Y113323D02*
Y116423D01*
X72186Y113323D02*
X73686D01*
X72186Y116423D02*
X73686D01*
X68961Y113323D02*
Y116423D01*
X70461Y113323D02*
Y116423D01*
X68961Y113323D02*
X70461D01*
X68961Y116423D02*
X70461D01*
X88435Y113448D02*
Y116548D01*
X89935Y113448D02*
Y116548D01*
X88435Y113448D02*
X89935D01*
X88435Y116548D02*
X89935D01*
X84710Y113448D02*
Y116548D01*
X86210Y113448D02*
Y116548D01*
X84710Y113448D02*
X86210D01*
X84710Y116548D02*
X86210D01*
X11660Y83873D02*
Y86973D01*
X13160Y83873D02*
Y86973D01*
X11660Y83873D02*
X13160D01*
X11660Y86973D02*
X13160D01*
X7610Y83873D02*
Y86973D01*
X9110Y83873D02*
Y86973D01*
X7610Y83873D02*
X9110D01*
X7610Y86973D02*
X9110D01*
X24590Y83727D02*
Y86827D01*
X23090Y83727D02*
Y86827D01*
X24590D01*
X23090Y83727D02*
X24590D01*
X28641D02*
Y86827D01*
X27140Y83727D02*
Y86827D01*
X28641D01*
X27140Y83727D02*
X28641D01*
X42416Y83473D02*
Y86573D01*
X43916Y83473D02*
Y86573D01*
X42416Y83473D02*
X43916D01*
X42416Y86573D02*
X43916D01*
X38366Y83473D02*
Y86573D01*
X39866Y83473D02*
Y86573D01*
X38366Y83473D02*
X39866D01*
X38366Y86573D02*
X39866D01*
X58491Y83473D02*
Y86573D01*
X59991Y83473D02*
Y86573D01*
X58491Y83473D02*
X59991D01*
X58491Y86573D02*
X59991D01*
X54441Y83473D02*
Y86573D01*
X55941Y83473D02*
Y86573D01*
X54441Y83473D02*
X55941D01*
X54441Y86573D02*
X55941D01*
X72540Y83673D02*
Y86773D01*
X74040Y83673D02*
Y86773D01*
X72540Y83673D02*
X74040D01*
X72540Y86773D02*
X74040D01*
X68640Y83673D02*
Y86773D01*
X70140Y83673D02*
Y86773D01*
X68640Y83673D02*
X70140D01*
X68640Y86773D02*
X70140D01*
X87900Y83650D02*
Y86750D01*
X89400Y83650D02*
Y86750D01*
X87900Y83650D02*
X89400D01*
X87900Y86750D02*
X89400D01*
X83675Y83650D02*
Y86750D01*
X85175Y83650D02*
Y86750D01*
X83675Y83650D02*
X85175D01*
X83675Y86750D02*
X85175D01*
X-6936Y46145D02*
X-3836D01*
X-6936Y44645D02*
X-3836D01*
X-6936D02*
Y46145D01*
X-3836Y44645D02*
Y46145D01*
X78100Y40575D02*
Y43675D01*
X79600Y40575D02*
Y43675D01*
X78100Y40575D02*
X79600D01*
X78100Y43675D02*
X79600D01*
X42850Y34160D02*
X45950D01*
X42850Y35660D02*
X45950D01*
Y34160D02*
Y35660D01*
X42850Y34160D02*
Y35660D01*
X87300Y-400D02*
X90400D01*
X87300Y1100D02*
X90400D01*
Y-400D02*
Y1100D01*
X87300Y-400D02*
Y1100D01*
X-3675Y53650D02*
Y56525D01*
X-2425D01*
Y53650D02*
Y56525D01*
X-3675Y53650D02*
X-2425D01*
X86850Y16475D02*
X89725D01*
X86850Y15225D02*
X89725D01*
X86850D02*
Y16475D01*
X91300Y15225D02*
Y16475D01*
X88425D02*
X91300D01*
X88425Y15225D02*
X91300D01*
X50578Y10471D02*
Y13346D01*
X51828Y10471D02*
Y13346D01*
X50578Y10471D02*
X51828D01*
X50578Y14921D02*
X51828D01*
X50578Y12046D02*
Y14921D01*
X51828Y12046D02*
Y14921D01*
X46403Y10471D02*
Y13346D01*
X47653Y10471D02*
Y13346D01*
X46403Y10471D02*
X47653D01*
X46403Y14921D02*
X47653D01*
X46403Y12046D02*
Y14921D01*
X47653Y12046D02*
Y14921D01*
X42228Y10471D02*
Y13346D01*
X43478Y10471D02*
Y13346D01*
X42228Y10471D02*
X43478D01*
X42228Y14921D02*
X43478D01*
X42228Y12046D02*
Y14921D01*
X43478Y12046D02*
Y14921D01*
X75200Y59575D02*
X78075D01*
X75200Y58325D02*
X78075D01*
X75200D02*
Y59575D01*
X79650Y58325D02*
Y59575D01*
X76775D02*
X79650D01*
X76775Y58325D02*
X79650D01*
X88025Y48325D02*
X90900D01*
X88025Y47075D02*
X90900D01*
X88025D02*
Y48325D01*
X92475Y47075D02*
Y48325D01*
X89600D02*
X92475D01*
X89600Y47075D02*
X92475D01*
X88025Y45192D02*
X90900D01*
X88025Y43942D02*
X90900D01*
X88025D02*
Y45192D01*
X92475Y43942D02*
Y45192D01*
X89600D02*
X92475D01*
X89600Y43942D02*
X92475D01*
X88025Y42058D02*
X90900D01*
X88025Y40808D02*
X90900D01*
X88025D02*
Y42058D01*
X92475Y40808D02*
Y42058D01*
X89600D02*
X92475D01*
X89600Y40808D02*
X92475D01*
X88025Y38925D02*
X90900D01*
X88025Y37675D02*
X90900D01*
X88025D02*
Y38925D01*
X92475Y37675D02*
Y38925D01*
X89600D02*
X92475D01*
X89600Y37675D02*
X92475D01*
X-2653Y111700D02*
X10747D01*
Y93200D02*
Y111700D01*
X-2653Y93200D02*
X10747D01*
X-2653D02*
Y111700D01*
X12373D02*
X25773D01*
Y93200D02*
Y111700D01*
X12373Y93200D02*
X25773D01*
X12373D02*
Y111700D01*
X27398D02*
X40798D01*
Y93200D02*
Y111700D01*
X27398Y93200D02*
X40798D01*
X27398D02*
Y111700D01*
X42424D02*
X55824D01*
Y93200D02*
Y111700D01*
X42424Y93200D02*
X55824D01*
X42424D02*
Y111700D01*
X57300Y111725D02*
X70700D01*
Y93225D02*
Y111725D01*
X57300Y93225D02*
X70700D01*
X57300D02*
Y111725D01*
X72369Y111700D02*
X85769D01*
Y93200D02*
Y111700D01*
X72369Y93200D02*
X85769D01*
X72369D02*
Y111700D01*
X-2825Y81700D02*
X10575D01*
Y63200D02*
Y81700D01*
X-2825Y63200D02*
X10575D01*
X-2825D02*
Y81700D01*
X12350D02*
X25750D01*
Y63200D02*
Y81700D01*
X12350Y63200D02*
X25750D01*
X12350D02*
Y81700D01*
X27612D02*
X41012D01*
Y63200D02*
Y81700D01*
X27612Y63200D02*
X41012D01*
X27612D02*
Y81700D01*
X42625D02*
X56025D01*
Y63200D02*
Y81700D01*
X42625Y63200D02*
X56025D01*
X42625D02*
Y81700D01*
X57663D02*
X71063D01*
Y63200D02*
Y81700D01*
X57663Y63200D02*
X71063D01*
X57663D02*
Y81700D01*
X72689D02*
X86089D01*
Y63200D02*
Y81700D01*
X72689Y63200D02*
X86089D01*
X72689D02*
Y81700D01*
X85165Y18364D02*
X92785D01*
Y35636D01*
X85165D02*
X92785D01*
X85165Y18364D02*
Y35636D01*
X-10378Y28912D02*
X-345D01*
X-10378Y20784D02*
Y28912D01*
Y20784D02*
X-345D01*
Y28912D01*
X-8627Y32158D02*
Y43842D01*
Y32158D02*
X-2023D01*
Y43842D01*
X-8627D02*
X-2023D01*
X4076Y114863D02*
X7124D01*
X4076Y116375D02*
X7124D01*
Y114863D02*
Y116375D01*
X4076Y114863D02*
Y116375D01*
X19264Y114863D02*
X22312D01*
X19264Y116375D02*
X22312D01*
Y114863D02*
Y116375D01*
X19264Y114863D02*
Y116375D01*
X34452Y114863D02*
X37500D01*
X34452Y116375D02*
X37500D01*
Y114863D02*
Y116375D01*
X34452Y114863D02*
Y116375D01*
X49641Y114863D02*
X52689D01*
X49641Y116375D02*
X52689D01*
Y114863D02*
Y116375D01*
X49641Y114863D02*
Y116375D01*
X64829Y114863D02*
X67877D01*
X64829Y116375D02*
X67877D01*
Y114863D02*
Y116375D01*
X64829Y114863D02*
Y116375D01*
X80017Y114863D02*
X83065D01*
X80017Y116375D02*
X83065D01*
Y114863D02*
Y116375D01*
X80017Y114863D02*
Y116375D01*
X4326Y85538D02*
X7374D01*
X4326Y87050D02*
X7374D01*
Y85538D02*
Y87050D01*
X4326Y85538D02*
Y87050D01*
X19431Y85538D02*
X22479D01*
X19431Y87050D02*
X22479D01*
Y85538D02*
Y87050D01*
X19431Y85538D02*
Y87050D01*
X34536Y85538D02*
X37584D01*
X34536Y87050D02*
X37584D01*
Y85538D02*
Y87050D01*
X34536Y85538D02*
Y87050D01*
X49641Y85538D02*
X52689D01*
X49641Y87050D02*
X52689D01*
Y85538D02*
Y87050D01*
X49641Y85538D02*
Y87050D01*
X64746Y85538D02*
X67794D01*
X64746Y87050D02*
X67794D01*
Y85538D02*
Y87050D01*
X64746Y85538D02*
Y87050D01*
X79851Y85538D02*
X82899D01*
X79851Y87050D02*
X82899D01*
Y85538D02*
Y87050D01*
X79851Y85538D02*
Y87050D01*
X31251Y31972D02*
X34299D01*
X31251Y30460D02*
X34299D01*
X31251D02*
Y31972D01*
X34299Y30460D02*
Y31972D01*
X81026Y30088D02*
X84074D01*
X81026Y31600D02*
X84074D01*
Y30088D02*
Y31600D01*
X81026Y30088D02*
Y31600D01*
X-5399Y58162D02*
X-2351D01*
X-5399Y56650D02*
X-2351D01*
X-5399D02*
Y58162D01*
X-2351Y56650D02*
Y58162D01*
X-8749Y56713D02*
X-5701D01*
X-8749Y58225D02*
X-5701D01*
Y56713D02*
Y58225D01*
X-8749Y56713D02*
Y58225D01*
X-6910Y46358D02*
X-3862D01*
X-6910Y47870D02*
X-3862D01*
Y46358D02*
Y47870D01*
X-6910Y46358D02*
Y47870D01*
X84137Y44426D02*
Y47474D01*
X82625Y44426D02*
Y47474D01*
X84137D01*
X82625Y44426D02*
X84137D01*
X85587D02*
Y47474D01*
X84075Y44426D02*
Y47474D01*
X85587D01*
X84075Y44426D02*
X85587D01*
X43038Y38151D02*
Y41199D01*
X44550Y38151D02*
Y41199D01*
X43038Y38151D02*
X44550D01*
X43038Y41199D02*
X44550D01*
X27451Y43272D02*
X30499D01*
X27451Y41760D02*
X30499D01*
X27451D02*
Y43272D01*
X30499Y41760D02*
Y43272D01*
X42876Y32473D02*
X45924D01*
X42876Y33985D02*
X45924D01*
Y32473D02*
Y33985D01*
X42876Y32473D02*
Y33985D01*
X27501Y36922D02*
X30549D01*
X27501Y35410D02*
X30549D01*
X27501D02*
Y36922D01*
X30549Y35410D02*
Y36922D01*
X92738Y1651D02*
Y4699D01*
X94250Y1651D02*
Y4699D01*
X92738Y1651D02*
X94250D01*
X92738Y4699D02*
X94250D01*
X49076Y26763D02*
X52124D01*
X49076Y28275D02*
X52124D01*
Y26763D02*
Y28275D01*
X49076Y26763D02*
Y28275D01*
X81126Y22213D02*
X84174D01*
X81126Y23725D02*
X84174D01*
Y22213D02*
Y23725D01*
X81126Y22213D02*
Y23725D01*
X81076Y24238D02*
X84124D01*
X81076Y25750D02*
X84124D01*
Y24238D02*
Y25750D01*
X81076Y24238D02*
Y25750D01*
X81126Y26238D02*
X84174D01*
X81126Y27750D02*
X84174D01*
Y26238D02*
Y27750D01*
X81126Y26238D02*
Y27750D01*
X81126Y28213D02*
X84174D01*
X81126Y29725D02*
X84174D01*
Y28213D02*
Y29725D01*
X81126Y28213D02*
Y29725D01*
X86901Y7937D02*
X89949D01*
X86901Y6425D02*
X89949D01*
X86901D02*
Y7937D01*
X89949Y6425D02*
Y7937D01*
X-8505Y56303D02*
X-4695D01*
Y52747D02*
Y56303D01*
X-8505Y52747D02*
X-4695D01*
X-8505D02*
Y56303D01*
X53500Y21213D02*
X55213Y19500D01*
X53500Y21213D02*
Y21340D01*
Y19500D02*
Y43500D01*
X77500D01*
Y19500D02*
Y43500D01*
X53500Y19500D02*
X77500D01*
X85616Y36018D02*
Y43740D01*
X80116Y36018D02*
Y43740D01*
X85616D01*
X80116Y36018D02*
X85616D01*
X32225Y33075D02*
X41025D01*
X32225D02*
Y43100D01*
X41025D01*
Y33075D02*
Y43100D01*
X88154Y1240D02*
X91354D01*
X88154D02*
Y6240D01*
X91354D01*
Y1240D02*
Y6240D01*
X137075Y44783D02*
Y46283D01*
X133975Y44783D02*
Y46283D01*
Y44783D02*
X137075D01*
X133975Y46283D02*
X137075D01*
Y67183D02*
Y68683D01*
X133975Y67183D02*
Y68683D01*
Y67183D02*
X137075D01*
X133975Y68683D02*
X137075D01*
Y63450D02*
Y64950D01*
X133975Y63450D02*
Y64950D01*
Y63450D02*
X137075D01*
X133975Y64950D02*
X137075D01*
Y41050D02*
Y42550D01*
X133975Y41050D02*
Y42550D01*
Y41050D02*
X137075D01*
X133975Y42550D02*
X137075D01*
Y52250D02*
Y53750D01*
X133975Y52250D02*
Y53750D01*
Y52250D02*
X137075D01*
X133975Y53750D02*
X137075D01*
Y74650D02*
Y76150D01*
X133975Y74650D02*
Y76150D01*
Y74650D02*
X137075D01*
X133975Y76150D02*
X137075D01*
Y48517D02*
Y50017D01*
X133975Y48517D02*
Y50017D01*
Y48517D02*
X137075D01*
X133975Y50017D02*
X137075D01*
Y70917D02*
Y72417D01*
X133975Y70917D02*
Y72417D01*
Y70917D02*
X137075D01*
X133975Y72417D02*
X137075D01*
Y59717D02*
Y61217D01*
X133975Y59717D02*
Y61217D01*
Y59717D02*
X137075D01*
X133975Y61217D02*
X137075D01*
Y55983D02*
Y57483D01*
X133975Y55983D02*
Y57483D01*
Y55983D02*
X137075D01*
X133975Y57483D02*
X137075D01*
X103650Y113800D02*
X105150D01*
X103650Y116900D02*
X105150D01*
X103650Y113800D02*
Y116900D01*
X105150Y113800D02*
Y116900D01*
X113475Y113675D02*
X114975D01*
X113475Y116775D02*
X114975D01*
X113475Y113675D02*
Y116775D01*
X114975Y113675D02*
Y116775D01*
X98575Y42475D02*
Y43975D01*
X101675Y42475D02*
Y43975D01*
X98575D02*
X101675D01*
X98575Y42475D02*
X101675D01*
X14925Y34600D02*
Y37800D01*
X19625D01*
Y34600D02*
Y37800D01*
X14925Y34600D02*
X19625D01*
X140706Y42300D02*
Y43550D01*
Y42300D02*
X143581D01*
Y43550D01*
X140706D02*
X143581D01*
X140677Y-5575D02*
Y-4325D01*
Y-5575D02*
X143552D01*
Y-4325D01*
X140677D02*
X143552D01*
X140334Y66186D02*
Y67436D01*
Y66186D02*
X143209D01*
Y67436D01*
X140334D02*
X143209D01*
X140053Y18165D02*
Y19415D01*
Y18165D02*
X142928D01*
Y19415D01*
X140053D02*
X142928D01*
X139900Y89900D02*
Y91150D01*
Y89900D02*
X142775D01*
Y91150D01*
X139900D02*
X142775D01*
X114225Y-7325D02*
Y-4450D01*
X112975Y-7325D02*
Y-4450D01*
X114225D01*
X112975Y-8900D02*
X114225D01*
Y-6025D01*
X112975Y-8900D02*
Y-6025D01*
X107225Y-7275D02*
Y-4400D01*
X105975Y-7275D02*
Y-4400D01*
X107225D01*
X105975Y-8850D02*
X107225D01*
Y-5975D01*
X105975Y-8850D02*
Y-5975D01*
X128575Y-7275D02*
Y-4400D01*
X127325Y-7275D02*
Y-4400D01*
X128575D01*
X127325Y-8850D02*
X128575D01*
Y-5975D01*
X127325Y-8850D02*
Y-5975D01*
X121575Y-7300D02*
Y-4425D01*
X120325Y-7300D02*
Y-4425D01*
X121575D01*
X120325Y-8875D02*
X121575D01*
Y-6000D01*
X120325Y-8875D02*
Y-6000D01*
X35189Y26450D02*
Y27950D01*
X37989Y26450D02*
Y27950D01*
X35189D02*
X37989D01*
X35189Y26450D02*
X37989D01*
X91615Y48964D02*
X99235D01*
Y66236D01*
X91615D02*
X99235D01*
X91615Y48964D02*
Y66236D01*
X2700Y25263D02*
Y26763D01*
X5800Y25263D02*
Y26763D01*
X2700D02*
X5800D01*
X2700Y25263D02*
X5800D01*
X11500Y28825D02*
Y30325D01*
X8400Y28825D02*
Y30325D01*
Y28825D02*
X11500D01*
X8400Y30325D02*
X11500D01*
X42642Y-7241D02*
X42775Y-7375D01*
X43042D01*
X43175Y-7241D01*
Y-6708D01*
X43042Y-6575D01*
X42775D01*
X42642Y-6708D01*
X42375Y-6575D02*
X42109D01*
X42242D01*
Y-7375D01*
X42375Y-7241D01*
X41176Y-7375D02*
X41442Y-7241D01*
X41709Y-6975D01*
Y-6708D01*
X41576Y-6575D01*
X41309D01*
X41176Y-6708D01*
Y-6842D01*
X41309Y-6975D01*
X41709D01*
X40376Y-7375D02*
X40642Y-7241D01*
X40909Y-6975D01*
Y-6708D01*
X40776Y-6575D01*
X40509D01*
X40376Y-6708D01*
Y-6842D01*
X40509Y-6975D01*
X40909D01*
X31242Y10834D02*
X31375Y10700D01*
X31642D01*
X31775Y10834D01*
Y11367D01*
X31642Y11500D01*
X31375D01*
X31242Y11367D01*
X30975Y10834D02*
X30842Y10700D01*
X30575D01*
X30442Y10834D01*
Y10967D01*
X30575Y11100D01*
X30709D01*
X30575D01*
X30442Y11233D01*
Y11367D01*
X30575Y11500D01*
X30842D01*
X30975Y11367D01*
X29776Y11500D02*
Y10700D01*
X30176Y11100D01*
X29642D01*
X6441Y31092D02*
X6575Y31225D01*
Y31492D01*
X6441Y31625D01*
X5908D01*
X5775Y31492D01*
Y31225D01*
X5908Y31092D01*
X5775Y30425D02*
X6575D01*
X6175Y30825D01*
Y30292D01*
X6575Y29492D02*
X6441Y29759D01*
X6175Y30026D01*
X5908D01*
X5775Y29892D01*
Y29626D01*
X5908Y29492D01*
X6042D01*
X6175Y29626D01*
Y30026D01*
X3383Y21791D02*
X3250Y21925D01*
X2983D01*
X2850Y21791D01*
Y21258D01*
X2983Y21125D01*
X3250D01*
X3383Y21258D01*
X3650Y21791D02*
X3783Y21925D01*
X4050D01*
X4183Y21791D01*
Y21658D01*
X4050Y21525D01*
X3916D01*
X4050D01*
X4183Y21392D01*
Y21258D01*
X4050Y21125D01*
X3783D01*
X3650Y21258D01*
X4983Y21925D02*
X4716Y21791D01*
X4449Y21525D01*
Y21258D01*
X4583Y21125D01*
X4849D01*
X4983Y21258D01*
Y21392D01*
X4849Y21525D01*
X4449D01*
X5583Y18216D02*
X5450Y18350D01*
X5183D01*
X5050Y18216D01*
Y17683D01*
X5183Y17550D01*
X5450D01*
X5583Y17683D01*
X6250Y17550D02*
Y18350D01*
X5850Y17950D01*
X6383D01*
X7049Y17550D02*
Y18350D01*
X6649Y17950D01*
X7183D01*
X9117Y16591D02*
X8950Y16425D01*
Y16092D01*
X9117Y15925D01*
X9783D01*
X9950Y16092D01*
Y16425D01*
X9783Y16591D01*
X9117Y16925D02*
X8950Y17091D01*
Y17425D01*
X9117Y17591D01*
X9284D01*
X9450Y17425D01*
Y17258D01*
Y17425D01*
X9617Y17591D01*
X9783D01*
X9950Y17425D01*
Y17091D01*
X9783Y16925D01*
X9950Y17924D02*
Y18258D01*
Y18091D01*
X8950D01*
X9117Y17924D01*
X10992Y16591D02*
X10825Y16425D01*
Y16092D01*
X10992Y15925D01*
X11658D01*
X11825Y16092D01*
Y16425D01*
X11658Y16591D01*
X10992Y16925D02*
X10825Y17091D01*
Y17425D01*
X10992Y17591D01*
X11159D01*
X11325Y17425D01*
Y17258D01*
Y17425D01*
X11492Y17591D01*
X11658D01*
X11825Y17425D01*
Y17091D01*
X11658Y16925D01*
X11825Y18591D02*
Y17924D01*
X11159Y18591D01*
X10992D01*
X10825Y18424D01*
Y18091D01*
X10992Y17924D01*
X14717Y18509D02*
X14850Y18375D01*
X15117D01*
X15250Y18509D01*
Y19042D01*
X15117Y19175D01*
X14850D01*
X14717Y19042D01*
X14450Y18509D02*
X14317Y18375D01*
X14050D01*
X13917Y18509D01*
Y18642D01*
X14050Y18775D01*
X14184D01*
X14050D01*
X13917Y18908D01*
Y19042D01*
X14050Y19175D01*
X14317D01*
X14450Y19042D01*
X13651Y18509D02*
X13517Y18375D01*
X13251D01*
X13117Y18509D01*
Y18642D01*
X13251Y18775D01*
X13117Y18908D01*
Y19042D01*
X13251Y19175D01*
X13517D01*
X13651Y19042D01*
Y18908D01*
X13517Y18775D01*
X13651Y18642D01*
Y18509D01*
X13517Y18775D02*
X13251D01*
X6409Y38667D02*
X6575Y38500D01*
X6908D01*
X7075Y38667D01*
Y39333D01*
X6908Y39500D01*
X6575D01*
X6409Y39333D01*
X6075Y39500D02*
X5742D01*
X5909D01*
Y38500D01*
X6075Y38667D01*
X5242Y39333D02*
X5076Y39500D01*
X4742D01*
X4576Y39333D01*
Y38667D01*
X4742Y38500D01*
X5076D01*
X5242Y38667D01*
Y38834D01*
X5076Y39000D01*
X4576D01*
X4243Y38667D02*
X4076Y38500D01*
X3743D01*
X3576Y38667D01*
Y38834D01*
X3743Y39000D01*
X3909D01*
X3743D01*
X3576Y39167D01*
Y39333D01*
X3743Y39500D01*
X4076D01*
X4243Y39333D01*
X12308Y29441D02*
X12175Y29575D01*
X11908D01*
X11775Y29441D01*
Y28908D01*
X11908Y28775D01*
X12175D01*
X12308Y28908D01*
X12575Y28775D02*
X12841D01*
X12708D01*
Y29575D01*
X12575Y29441D01*
X13241Y28908D02*
X13374Y28775D01*
X13641D01*
X13774Y28908D01*
Y29441D01*
X13641Y29575D01*
X13374D01*
X13241Y29441D01*
Y29308D01*
X13374Y29175D01*
X13774D01*
X14574Y28775D02*
X14041D01*
X14574Y29308D01*
Y29441D01*
X14441Y29575D01*
X14174D01*
X14041Y29441D01*
X19109Y28267D02*
X19275Y28100D01*
X19608D01*
X19775Y28267D01*
Y28933D01*
X19608Y29100D01*
X19275D01*
X19109Y28933D01*
X18775Y28267D02*
X18609Y28100D01*
X18275D01*
X18109Y28267D01*
Y28434D01*
X18275Y28600D01*
X18442D01*
X18275D01*
X18109Y28767D01*
Y28933D01*
X18275Y29100D01*
X18609D01*
X18775Y28933D01*
X17776Y28267D02*
X17609Y28100D01*
X17276D01*
X17109Y28267D01*
Y28933D01*
X17276Y29100D01*
X17609D01*
X17776Y28933D01*
Y28267D01*
X19317Y22559D02*
X19450Y22425D01*
X19717D01*
X19850Y22559D01*
Y23092D01*
X19717Y23225D01*
X19450D01*
X19317Y23092D01*
X19050Y23225D02*
X18784D01*
X18917D01*
Y22425D01*
X19050Y22559D01*
X18384Y23092D02*
X18251Y23225D01*
X17984D01*
X17851Y23092D01*
Y22559D01*
X17984Y22425D01*
X18251D01*
X18384Y22559D01*
Y22692D01*
X18251Y22825D01*
X17851D01*
X17584Y22559D02*
X17451Y22425D01*
X17184D01*
X17051Y22559D01*
Y23092D01*
X17184Y23225D01*
X17451D01*
X17584Y23092D01*
Y22559D01*
X19292Y18784D02*
X19425Y18650D01*
X19692D01*
X19825Y18784D01*
Y19317D01*
X19692Y19450D01*
X19425D01*
X19292Y19317D01*
X18492Y19450D02*
X19025D01*
X18492Y18917D01*
Y18784D01*
X18625Y18650D01*
X18892D01*
X19025Y18784D01*
X18226Y19317D02*
X18092Y19450D01*
X17826D01*
X17692Y19317D01*
Y18784D01*
X17826Y18650D01*
X18092D01*
X18226Y18784D01*
Y18917D01*
X18092Y19050D01*
X17692D01*
X18408Y14409D02*
X18575Y14575D01*
Y14908D01*
X18408Y15075D01*
X17742D01*
X17575Y14908D01*
Y14575D01*
X17742Y14409D01*
X18408Y14075D02*
X18575Y13909D01*
Y13575D01*
X18408Y13409D01*
X18241D01*
X18075Y13575D01*
Y13742D01*
Y13575D01*
X17908Y13409D01*
X17742D01*
X17575Y13575D01*
Y13909D01*
X17742Y14075D01*
X18575Y13076D02*
Y12409D01*
X18408D01*
X17742Y13076D01*
X17575D01*
X6334Y11442D02*
X6500Y11275D01*
X6833D01*
X7000Y11442D01*
Y12108D01*
X6833Y12275D01*
X6500D01*
X6334Y12108D01*
X5500Y12275D02*
Y11275D01*
X6000Y11775D01*
X5334D01*
X5001Y11442D02*
X4834Y11275D01*
X4501D01*
X4334Y11442D01*
Y11609D01*
X4501Y11775D01*
X4667D01*
X4501D01*
X4334Y11942D01*
Y12108D01*
X4501Y12275D01*
X4834D01*
X5001Y12108D01*
X100059Y106108D02*
X99925Y105975D01*
Y105708D01*
X100059Y105575D01*
X100592D01*
X100725Y105708D01*
Y105975D01*
X100592Y106108D01*
X100725Y106375D02*
Y106641D01*
Y106508D01*
X99925D01*
X100059Y106375D01*
Y107041D02*
X99925Y107174D01*
Y107441D01*
X100059Y107574D01*
X100192D01*
X100325Y107441D01*
X100458Y107574D01*
X100592D01*
X100725Y107441D01*
Y107174D01*
X100592Y107041D01*
X100458D01*
X100325Y107174D01*
X100192Y107041D01*
X100059D01*
X100325Y107174D02*
Y107441D01*
X100059Y107841D02*
X99925Y107974D01*
Y108241D01*
X100059Y108374D01*
X100592D01*
X100725Y108241D01*
Y107974D01*
X100592Y107841D01*
X100059D01*
Y102708D02*
X99925Y102575D01*
Y102308D01*
X100059Y102175D01*
X100592D01*
X100725Y102308D01*
Y102575D01*
X100592Y102708D01*
X100725Y102975D02*
Y103241D01*
Y103108D01*
X99925D01*
X100059Y102975D01*
Y103641D02*
X99925Y103774D01*
Y104041D01*
X100059Y104174D01*
X100192D01*
X100325Y104041D01*
X100458Y104174D01*
X100592D01*
X100725Y104041D01*
Y103774D01*
X100592Y103641D01*
X100458D01*
X100325Y103774D01*
X100192Y103641D01*
X100059D01*
X100325Y103774D02*
Y104041D01*
X100725Y104441D02*
Y104708D01*
Y104574D01*
X99925D01*
X100059Y104441D01*
X98359Y102467D02*
X98525Y102300D01*
X98858D01*
X99025Y102467D01*
Y103133D01*
X98858Y103300D01*
X98525D01*
X98359Y103133D01*
X98025Y103300D02*
X97692D01*
X97859D01*
Y102300D01*
X98025Y102467D01*
X97192Y102300D02*
X96526D01*
Y102467D01*
X97192Y103133D01*
Y103300D01*
X96193Y103133D02*
X96026Y103300D01*
X95693D01*
X95526Y103133D01*
Y102467D01*
X95693Y102300D01*
X96026D01*
X96193Y102467D01*
Y102634D01*
X96026Y102800D01*
X95526D01*
X93817Y102659D02*
X93950Y102525D01*
X94217D01*
X94350Y102659D01*
Y103192D01*
X94217Y103325D01*
X93950D01*
X93817Y103192D01*
X93550Y103325D02*
X93284D01*
X93417D01*
Y102525D01*
X93550Y102659D01*
X92884D02*
X92751Y102525D01*
X92484D01*
X92351Y102659D01*
Y102792D01*
X92484Y102925D01*
X92351Y103058D01*
Y103192D01*
X92484Y103325D01*
X92751D01*
X92884Y103192D01*
Y103058D01*
X92751Y102925D01*
X92884Y102792D01*
Y102659D01*
X92751Y102925D02*
X92484D01*
X92084Y103192D02*
X91951Y103325D01*
X91684D01*
X91551Y103192D01*
Y102659D01*
X91684Y102525D01*
X91951D01*
X92084Y102659D01*
Y102792D01*
X91951Y102925D01*
X91551D01*
X100717Y90309D02*
X100850Y90175D01*
X101117D01*
X101250Y90309D01*
Y90842D01*
X101117Y90975D01*
X100850D01*
X100717Y90842D01*
X100450Y90975D02*
X100184D01*
X100317D01*
Y90175D01*
X100450Y90309D01*
X99784Y90175D02*
X99251D01*
Y90309D01*
X99784Y90842D01*
Y90975D01*
X98984Y90309D02*
X98851Y90175D01*
X98584D01*
X98451Y90309D01*
Y90442D01*
X98584Y90575D01*
X98451Y90708D01*
Y90842D01*
X98584Y90975D01*
X98851D01*
X98984Y90842D01*
Y90708D01*
X98851Y90575D01*
X98984Y90442D01*
Y90309D01*
X98851Y90575D02*
X98584D01*
X110342Y97109D02*
X110475Y96975D01*
X110742D01*
X110875Y97109D01*
Y97642D01*
X110742Y97775D01*
X110475D01*
X110342Y97642D01*
X110075Y97775D02*
X109809D01*
X109942D01*
Y96975D01*
X110075Y97109D01*
X109409Y96975D02*
X108876D01*
Y97109D01*
X109409Y97642D01*
Y97775D01*
X108609Y96975D02*
X108076D01*
Y97109D01*
X108609Y97642D01*
Y97775D01*
X113734Y91008D02*
X113600Y90875D01*
Y90608D01*
X113734Y90475D01*
X114267D01*
X114400Y90608D01*
Y90875D01*
X114267Y91008D01*
X114400Y91275D02*
Y91541D01*
Y91408D01*
X113600D01*
X113734Y91275D01*
Y91941D02*
X113600Y92074D01*
Y92341D01*
X113734Y92474D01*
X113867D01*
X114000Y92341D01*
X114133Y92474D01*
X114267D01*
X114400Y92341D01*
Y92074D01*
X114267Y91941D01*
X114133D01*
X114000Y92074D01*
X113867Y91941D01*
X113734D01*
X114000Y92074D02*
Y92341D01*
X113734Y92741D02*
X113600Y92874D01*
Y93141D01*
X113734Y93274D01*
X113867D01*
X114000Y93141D01*
Y93008D01*
Y93141D01*
X114133Y93274D01*
X114267D01*
X114400Y93141D01*
Y92874D01*
X114267Y92741D01*
X119783Y90591D02*
X119650Y90725D01*
X119383D01*
X119250Y90591D01*
Y90058D01*
X119383Y89925D01*
X119650D01*
X119783Y90058D01*
X120050Y89925D02*
X120316D01*
X120183D01*
Y90725D01*
X120050Y90591D01*
X120716D02*
X120849Y90725D01*
X121116D01*
X121249Y90591D01*
Y90458D01*
X121116Y90325D01*
X121249Y90192D01*
Y90058D01*
X121116Y89925D01*
X120849D01*
X120716Y90058D01*
Y90192D01*
X120849Y90325D01*
X120716Y90458D01*
Y90591D01*
X120849Y90325D02*
X121116D01*
X121916Y89925D02*
Y90725D01*
X121516Y90325D01*
X122049D01*
X122842Y33684D02*
X122975Y33550D01*
X123242D01*
X123375Y33684D01*
Y34217D01*
X123242Y34350D01*
X122975D01*
X122842Y34217D01*
X122575Y34350D02*
X122309D01*
X122442D01*
Y33550D01*
X122575Y33684D01*
X121376Y33550D02*
X121642Y33684D01*
X121909Y33950D01*
Y34217D01*
X121776Y34350D01*
X121509D01*
X121376Y34217D01*
Y34083D01*
X121509Y33950D01*
X121909D01*
X120709Y34350D02*
Y33550D01*
X121109Y33950D01*
X120576D01*
X115792Y33784D02*
X115925Y33650D01*
X116192D01*
X116325Y33784D01*
Y34317D01*
X116192Y34450D01*
X115925D01*
X115792Y34317D01*
X115525Y34450D02*
X115259D01*
X115392D01*
Y33650D01*
X115525Y33784D01*
X114326Y33650D02*
X114592Y33784D01*
X114859Y34050D01*
Y34317D01*
X114726Y34450D01*
X114459D01*
X114326Y34317D01*
Y34183D01*
X114459Y34050D01*
X114859D01*
X113526Y33650D02*
X114059D01*
Y34050D01*
X113792Y33917D01*
X113659D01*
X113526Y34050D01*
Y34317D01*
X113659Y34450D01*
X113926D01*
X114059Y34317D01*
X9628Y114115D02*
X9461Y113949D01*
Y113616D01*
X9628Y113449D01*
X10294D01*
X10461Y113616D01*
Y113949D01*
X10294Y114115D01*
X10461Y114449D02*
Y114782D01*
Y114615D01*
X9461D01*
X9628Y114449D01*
X7828Y114140D02*
X7661Y113974D01*
Y113641D01*
X7828Y113474D01*
X8494D01*
X8661Y113641D01*
Y113974D01*
X8494Y114140D01*
X8661Y115140D02*
Y114474D01*
X7995Y115140D01*
X7828D01*
X7661Y114974D01*
Y114640D01*
X7828Y114474D01*
X24603Y114115D02*
X24436Y113949D01*
Y113616D01*
X24603Y113449D01*
X25269D01*
X25436Y113616D01*
Y113949D01*
X25269Y114115D01*
X24603Y114449D02*
X24436Y114615D01*
Y114949D01*
X24603Y115115D01*
X24770D01*
X24936Y114949D01*
Y114782D01*
Y114949D01*
X25103Y115115D01*
X25269D01*
X25436Y114949D01*
Y114615D01*
X25269Y114449D01*
X22853Y114115D02*
X22686Y113949D01*
Y113616D01*
X22853Y113449D01*
X23519D01*
X23686Y113616D01*
Y113949D01*
X23519Y114115D01*
X23686Y114949D02*
X22686D01*
X23186Y114449D01*
Y115115D01*
X40053Y114090D02*
X39886Y113924D01*
Y113591D01*
X40053Y113424D01*
X40719D01*
X40886Y113591D01*
Y113924D01*
X40719Y114090D01*
X39886Y115090D02*
Y114424D01*
X40386D01*
X40220Y114757D01*
Y114924D01*
X40386Y115090D01*
X40719D01*
X40886Y114924D01*
Y114590D01*
X40719Y114424D01*
X38178Y114090D02*
X38011Y113924D01*
Y113591D01*
X38178Y113424D01*
X38844D01*
X39011Y113591D01*
Y113924D01*
X38844Y114090D01*
X38011Y115090D02*
X38178Y114757D01*
X38511Y114424D01*
X38844D01*
X39011Y114590D01*
Y114924D01*
X38844Y115090D01*
X38678D01*
X38511Y114924D01*
Y114424D01*
X55253Y114015D02*
X55086Y113849D01*
Y113516D01*
X55253Y113349D01*
X55919D01*
X56086Y113516D01*
Y113849D01*
X55919Y114015D01*
X55086Y114349D02*
Y115015D01*
X55253D01*
X55919Y114349D01*
X56086D01*
X53532Y114014D02*
X53366Y113847D01*
Y113514D01*
X53532Y113347D01*
X54199D01*
X54365Y113514D01*
Y113847D01*
X54199Y114014D01*
X53532Y114347D02*
X53366Y114513D01*
Y114847D01*
X53532Y115013D01*
X53699D01*
X53866Y114847D01*
X54032Y115013D01*
X54199D01*
X54365Y114847D01*
Y114513D01*
X54199Y114347D01*
X54032D01*
X53866Y114513D01*
X53699Y114347D01*
X53532D01*
X53866Y114513D02*
Y114847D01*
X72589Y114214D02*
X72422Y114047D01*
Y113714D01*
X72589Y113547D01*
X73255D01*
X73422Y113714D01*
Y114047D01*
X73255Y114214D01*
Y114547D02*
X73422Y114713D01*
Y115047D01*
X73255Y115213D01*
X72589D01*
X72422Y115047D01*
Y114713D01*
X72589Y114547D01*
X72755D01*
X72922Y114713D01*
Y115213D01*
X69364Y114214D02*
X69197Y114047D01*
Y113714D01*
X69364Y113547D01*
X70030D01*
X70197Y113714D01*
Y114047D01*
X70030Y114214D01*
X70197Y114547D02*
Y114880D01*
Y114713D01*
X69197D01*
X69364Y114547D01*
Y115380D02*
X69197Y115546D01*
Y115880D01*
X69364Y116046D01*
X70030D01*
X70197Y115880D01*
Y115546D01*
X70030Y115380D01*
X69364D01*
X88838Y114339D02*
X88672Y114172D01*
Y113839D01*
X88838Y113672D01*
X89505D01*
X89671Y113839D01*
Y114172D01*
X89505Y114339D01*
X89671Y114672D02*
Y115005D01*
Y114838D01*
X88672D01*
X88838Y114672D01*
X89671Y115505D02*
Y115838D01*
Y115671D01*
X88672D01*
X88838Y115505D01*
X85113Y114339D02*
X84947Y114172D01*
Y113839D01*
X85113Y113672D01*
X85780D01*
X85946Y113839D01*
Y114172D01*
X85780Y114339D01*
X85946Y114672D02*
Y115005D01*
Y114838D01*
X84947D01*
X85113Y114672D01*
X85946Y116171D02*
Y115505D01*
X85280Y116171D01*
X85113D01*
X84947Y116005D01*
Y115671D01*
X85113Y115505D01*
X12063Y84764D02*
X11896Y84597D01*
Y84264D01*
X12063Y84097D01*
X12729D01*
X12896Y84264D01*
Y84597D01*
X12729Y84764D01*
X12896Y85097D02*
Y85430D01*
Y85263D01*
X11896D01*
X12063Y85097D01*
Y85930D02*
X11896Y86096D01*
Y86430D01*
X12063Y86596D01*
X12230D01*
X12396Y86430D01*
Y86263D01*
Y86430D01*
X12563Y86596D01*
X12729D01*
X12896Y86430D01*
Y86096D01*
X12729Y85930D01*
X8013Y84764D02*
X7846Y84597D01*
Y84264D01*
X8013Y84097D01*
X8679D01*
X8846Y84264D01*
Y84597D01*
X8679Y84764D01*
X8846Y85097D02*
Y85430D01*
Y85263D01*
X7846D01*
X8013Y85097D01*
X8846Y86430D02*
X7846D01*
X8346Y85930D01*
Y86596D01*
X23567Y84691D02*
X23400Y84525D01*
Y84192D01*
X23567Y84025D01*
X24233D01*
X24400Y84192D01*
Y84525D01*
X24233Y84691D01*
X24400Y85025D02*
Y85358D01*
Y85191D01*
X23400D01*
X23567Y85025D01*
X23400Y86524D02*
Y85858D01*
X23900D01*
X23734Y86191D01*
Y86358D01*
X23900Y86524D01*
X24233D01*
X24400Y86358D01*
Y86024D01*
X24233Y85858D01*
X27567Y84616D02*
X27400Y84450D01*
Y84117D01*
X27567Y83950D01*
X28233D01*
X28400Y84117D01*
Y84450D01*
X28233Y84616D01*
X28400Y84950D02*
Y85283D01*
Y85116D01*
X27400D01*
X27567Y84950D01*
X27400Y86449D02*
X27567Y86116D01*
X27900Y85783D01*
X28233D01*
X28400Y85949D01*
Y86283D01*
X28233Y86449D01*
X28067D01*
X27900Y86283D01*
Y85783D01*
X42819Y84364D02*
X42653Y84197D01*
Y83864D01*
X42819Y83697D01*
X43486D01*
X43652Y83864D01*
Y84197D01*
X43486Y84364D01*
X43652Y84697D02*
Y85030D01*
Y84863D01*
X42653D01*
X42819Y84697D01*
X42653Y85530D02*
Y86196D01*
X42819D01*
X43486Y85530D01*
X43652D01*
X38769Y84364D02*
X38602Y84197D01*
Y83864D01*
X38769Y83697D01*
X39435D01*
X39602Y83864D01*
Y84197D01*
X39435Y84364D01*
X39602Y84697D02*
Y85030D01*
Y84863D01*
X38602D01*
X38769Y84697D01*
Y85530D02*
X38602Y85696D01*
Y86030D01*
X38769Y86196D01*
X38936D01*
X39102Y86030D01*
X39269Y86196D01*
X39435D01*
X39602Y86030D01*
Y85696D01*
X39435Y85530D01*
X39269D01*
X39102Y85696D01*
X38936Y85530D01*
X38769D01*
X39102Y85696D02*
Y86030D01*
X58894Y84364D02*
X58727Y84197D01*
Y83864D01*
X58894Y83697D01*
X59560D01*
X59727Y83864D01*
Y84197D01*
X59560Y84364D01*
X59727Y84697D02*
Y85030D01*
Y84863D01*
X58727D01*
X58894Y84697D01*
X59560Y85530D02*
X59727Y85696D01*
Y86030D01*
X59560Y86196D01*
X58894D01*
X58727Y86030D01*
Y85696D01*
X58894Y85530D01*
X59060D01*
X59227Y85696D01*
Y86196D01*
X54844Y84364D02*
X54677Y84197D01*
Y83864D01*
X54844Y83697D01*
X55510D01*
X55677Y83864D01*
Y84197D01*
X55510Y84364D01*
X55677Y85363D02*
Y84697D01*
X55010Y85363D01*
X54844D01*
X54677Y85197D01*
Y84863D01*
X54844Y84697D01*
Y85696D02*
X54677Y85863D01*
Y86196D01*
X54844Y86363D01*
X55510D01*
X55677Y86196D01*
Y85863D01*
X55510Y85696D01*
X54844D01*
X72943Y84564D02*
X72777Y84397D01*
Y84064D01*
X72943Y83897D01*
X73610D01*
X73776Y84064D01*
Y84397D01*
X73610Y84564D01*
X73776Y85563D02*
Y84897D01*
X73110Y85563D01*
X72943D01*
X72777Y85397D01*
Y85063D01*
X72943Y84897D01*
X73776Y85896D02*
Y86230D01*
Y86063D01*
X72777D01*
X72943Y85896D01*
X69043Y84564D02*
X68877Y84397D01*
Y84064D01*
X69043Y83897D01*
X69710D01*
X69876Y84064D01*
Y84397D01*
X69710Y84564D01*
X69876Y85563D02*
Y84897D01*
X69210Y85563D01*
X69043D01*
X68877Y85397D01*
Y85063D01*
X69043Y84897D01*
X69876Y86563D02*
Y85896D01*
X69210Y86563D01*
X69043D01*
X68877Y86396D01*
Y86063D01*
X69043Y85896D01*
X88303Y84540D02*
X88137Y84374D01*
Y84041D01*
X88303Y83874D01*
X88970D01*
X89136Y84041D01*
Y84374D01*
X88970Y84540D01*
X89136Y85540D02*
Y84874D01*
X88470Y85540D01*
X88303D01*
X88137Y85374D01*
Y85040D01*
X88303Y84874D01*
Y85873D02*
X88137Y86040D01*
Y86373D01*
X88303Y86540D01*
X88470D01*
X88636Y86373D01*
Y86207D01*
Y86373D01*
X88803Y86540D01*
X88970D01*
X89136Y86373D01*
Y86040D01*
X88970Y85873D01*
X84078Y84540D02*
X83911Y84374D01*
Y84041D01*
X84078Y83874D01*
X84744D01*
X84911Y84041D01*
Y84374D01*
X84744Y84540D01*
X84911Y85540D02*
Y84874D01*
X84245Y85540D01*
X84078D01*
X83911Y85374D01*
Y85040D01*
X84078Y84874D01*
X84911Y86373D02*
X83911D01*
X84411Y85873D01*
Y86540D01*
X-6009Y45758D02*
X-6175Y45925D01*
X-6508D01*
X-6675Y45758D01*
Y45092D01*
X-6508Y44925D01*
X-6175D01*
X-6009Y45092D01*
X-5009Y44925D02*
X-5675D01*
X-5009Y45591D01*
Y45758D01*
X-5175Y45925D01*
X-5509D01*
X-5675Y45758D01*
X-4009Y45925D02*
X-4676D01*
Y45425D01*
X-4342Y45591D01*
X-4176D01*
X-4009Y45425D01*
Y45092D01*
X-4176Y44925D01*
X-4509D01*
X-4676Y45092D01*
X78503Y41465D02*
X78336Y41299D01*
Y40966D01*
X78503Y40799D01*
X79169D01*
X79336Y40966D01*
Y41299D01*
X79169Y41465D01*
X79336Y42465D02*
Y41799D01*
X78670Y42465D01*
X78503D01*
X78336Y42299D01*
Y41965D01*
X78503Y41799D01*
X78336Y43465D02*
X78503Y43132D01*
X78836Y42798D01*
X79169D01*
X79336Y42965D01*
Y43298D01*
X79169Y43465D01*
X79003D01*
X78836Y43298D01*
Y42798D01*
X43816Y35158D02*
X43650Y35325D01*
X43317D01*
X43150Y35158D01*
Y34492D01*
X43317Y34325D01*
X43650D01*
X43816Y34492D01*
X44816Y34325D02*
X44150D01*
X44816Y34991D01*
Y35158D01*
X44650Y35325D01*
X44316D01*
X44150Y35158D01*
X45149Y35325D02*
X45816D01*
Y35158D01*
X45149Y34492D01*
Y34325D01*
X88166Y708D02*
X88000Y875D01*
X87667D01*
X87500Y708D01*
Y42D01*
X87667Y-125D01*
X88000D01*
X88166Y42D01*
X89166Y-125D02*
X88500D01*
X89166Y541D01*
Y708D01*
X89000Y875D01*
X88666D01*
X88500Y708D01*
X89499D02*
X89666Y875D01*
X89999D01*
X90166Y708D01*
Y541D01*
X89999Y375D01*
X90166Y208D01*
Y42D01*
X89999Y-125D01*
X89666D01*
X89499Y42D01*
Y208D01*
X89666Y375D01*
X89499Y541D01*
Y708D01*
X89666Y375D02*
X89999D01*
X136392Y45592D02*
X136525Y45459D01*
X136792D01*
X136925Y45592D01*
Y46125D01*
X136792Y46258D01*
X136525D01*
X136392Y46125D01*
X136125Y46258D02*
X135859D01*
X135992D01*
Y45459D01*
X136125Y45592D01*
X134926Y45459D02*
X135192Y45592D01*
X135459Y45858D01*
Y46125D01*
X135326Y46258D01*
X135059D01*
X134926Y46125D01*
Y45992D01*
X135059Y45858D01*
X135459D01*
X134659Y45459D02*
X134126D01*
Y45592D01*
X134659Y46125D01*
Y46258D01*
X136392Y67992D02*
X136525Y67859D01*
X136792D01*
X136925Y67992D01*
Y68525D01*
X136792Y68658D01*
X136525D01*
X136392Y68525D01*
X136125Y68658D02*
X135859D01*
X135992D01*
Y67859D01*
X136125Y67992D01*
X134926Y67859D02*
X135192Y67992D01*
X135459Y68258D01*
Y68525D01*
X135326Y68658D01*
X135059D01*
X134926Y68525D01*
Y68392D01*
X135059Y68258D01*
X135459D01*
X134659Y67992D02*
X134526Y67859D01*
X134259D01*
X134126Y67992D01*
Y68125D01*
X134259Y68258D01*
X134126Y68392D01*
Y68525D01*
X134259Y68658D01*
X134526D01*
X134659Y68525D01*
Y68392D01*
X134526Y68258D01*
X134659Y68125D01*
Y67992D01*
X134526Y68258D02*
X134259D01*
X136392Y64259D02*
X136525Y64125D01*
X136792D01*
X136925Y64259D01*
Y64792D01*
X136792Y64925D01*
X136525D01*
X136392Y64792D01*
X136125Y64925D02*
X135859D01*
X135992D01*
Y64125D01*
X136125Y64259D01*
X134926Y64125D02*
X135192Y64259D01*
X135459Y64525D01*
Y64792D01*
X135326Y64925D01*
X135059D01*
X134926Y64792D01*
Y64658D01*
X135059Y64525D01*
X135459D01*
X134659Y64792D02*
X134526Y64925D01*
X134259D01*
X134126Y64792D01*
Y64259D01*
X134259Y64125D01*
X134526D01*
X134659Y64259D01*
Y64392D01*
X134526Y64525D01*
X134126D01*
X136392Y41859D02*
X136525Y41725D01*
X136792D01*
X136925Y41859D01*
Y42392D01*
X136792Y42525D01*
X136525D01*
X136392Y42392D01*
X136125Y42525D02*
X135859D01*
X135992D01*
Y41725D01*
X136125Y41859D01*
X135459Y41725D02*
X134926D01*
Y41859D01*
X135459Y42392D01*
Y42525D01*
X134659Y41859D02*
X134526Y41725D01*
X134259D01*
X134126Y41859D01*
Y42392D01*
X134259Y42525D01*
X134526D01*
X134659Y42392D01*
Y41859D01*
X136392Y53059D02*
X136525Y52925D01*
X136792D01*
X136925Y53059D01*
Y53592D01*
X136792Y53725D01*
X136525D01*
X136392Y53592D01*
X136125Y53725D02*
X135859D01*
X135992D01*
Y52925D01*
X136125Y53059D01*
X135459Y52925D02*
X134926D01*
Y53059D01*
X135459Y53592D01*
Y53725D01*
X134659D02*
X134392D01*
X134526D01*
Y52925D01*
X134659Y53059D01*
X136392Y75459D02*
X136525Y75325D01*
X136792D01*
X136925Y75459D01*
Y75992D01*
X136792Y76125D01*
X136525D01*
X136392Y75992D01*
X136125Y76125D02*
X135859D01*
X135992D01*
Y75325D01*
X136125Y75459D01*
X135459Y75325D02*
X134926D01*
Y75459D01*
X135459Y75992D01*
Y76125D01*
X134126D02*
X134659D01*
X134126Y75592D01*
Y75459D01*
X134259Y75325D01*
X134526D01*
X134659Y75459D01*
X136392Y49325D02*
X136525Y49192D01*
X136792D01*
X136925Y49325D01*
Y49858D01*
X136792Y49992D01*
X136525D01*
X136392Y49858D01*
X136125Y49992D02*
X135859D01*
X135992D01*
Y49192D01*
X136125Y49325D01*
X135459Y49192D02*
X134926D01*
Y49325D01*
X135459Y49858D01*
Y49992D01*
X134659Y49325D02*
X134526Y49192D01*
X134259D01*
X134126Y49325D01*
Y49458D01*
X134259Y49592D01*
X134392D01*
X134259D01*
X134126Y49725D01*
Y49858D01*
X134259Y49992D01*
X134526D01*
X134659Y49858D01*
X136392Y71725D02*
X136525Y71592D01*
X136792D01*
X136925Y71725D01*
Y72258D01*
X136792Y72392D01*
X136525D01*
X136392Y72258D01*
X136125Y72392D02*
X135859D01*
X135992D01*
Y71592D01*
X136125Y71725D01*
X135459Y71592D02*
X134926D01*
Y71725D01*
X135459Y72258D01*
Y72392D01*
X134259D02*
Y71592D01*
X134659Y71992D01*
X134126D01*
X136392Y60525D02*
X136525Y60392D01*
X136792D01*
X136925Y60525D01*
Y61058D01*
X136792Y61192D01*
X136525D01*
X136392Y61058D01*
X136125Y61192D02*
X135859D01*
X135992D01*
Y60392D01*
X136125Y60525D01*
X135459Y60392D02*
X134926D01*
Y60525D01*
X135459Y61058D01*
Y61192D01*
X134126Y60392D02*
X134659D01*
Y60792D01*
X134392Y60659D01*
X134259D01*
X134126Y60792D01*
Y61058D01*
X134259Y61192D01*
X134526D01*
X134659Y61058D01*
X136392Y56792D02*
X136525Y56659D01*
X136792D01*
X136925Y56792D01*
Y57325D01*
X136792Y57458D01*
X136525D01*
X136392Y57325D01*
X136125Y57458D02*
X135859D01*
X135992D01*
Y56659D01*
X136125Y56792D01*
X135459Y56659D02*
X134926D01*
Y56792D01*
X135459Y57325D01*
Y57458D01*
X134126Y56659D02*
X134392Y56792D01*
X134659Y57058D01*
Y57325D01*
X134526Y57458D01*
X134259D01*
X134126Y57325D01*
Y57192D01*
X134259Y57058D01*
X134659D01*
X104459Y114483D02*
X104325Y114350D01*
Y114083D01*
X104459Y113950D01*
X104992D01*
X105125Y114083D01*
Y114350D01*
X104992Y114483D01*
X105125Y114750D02*
Y115016D01*
Y114883D01*
X104325D01*
X104459Y114750D01*
Y115416D02*
X104325Y115549D01*
Y115816D01*
X104459Y115949D01*
X104592D01*
X104725Y115816D01*
X104858Y115949D01*
X104992D01*
X105125Y115816D01*
Y115549D01*
X104992Y115416D01*
X104858D01*
X104725Y115549D01*
X104592Y115416D01*
X104459D01*
X104725Y115549D02*
Y115816D01*
X105125Y116749D02*
Y116216D01*
X104592Y116749D01*
X104459D01*
X104325Y116616D01*
Y116349D01*
X104459Y116216D01*
X114284Y114358D02*
X114150Y114225D01*
Y113958D01*
X114284Y113825D01*
X114817D01*
X114950Y113958D01*
Y114225D01*
X114817Y114358D01*
X114950Y114625D02*
Y114891D01*
Y114758D01*
X114150D01*
X114284Y114625D01*
Y115291D02*
X114150Y115424D01*
Y115691D01*
X114284Y115824D01*
X114417D01*
X114550Y115691D01*
X114683Y115824D01*
X114817D01*
X114950Y115691D01*
Y115424D01*
X114817Y115291D01*
X114683D01*
X114550Y115424D01*
X114417Y115291D01*
X114284D01*
X114550Y115424D02*
Y115691D01*
X114150Y116624D02*
Y116091D01*
X114550D01*
X114417Y116358D01*
Y116491D01*
X114550Y116624D01*
X114817D01*
X114950Y116491D01*
Y116224D01*
X114817Y116091D01*
X99258Y43166D02*
X99125Y43300D01*
X98858D01*
X98725Y43166D01*
Y42633D01*
X98858Y42500D01*
X99125D01*
X99258Y42633D01*
X99525Y42500D02*
X99791D01*
X99658D01*
Y43300D01*
X99525Y43166D01*
X100191D02*
X100324Y43300D01*
X100591D01*
X100724Y43166D01*
Y43033D01*
X100591Y42900D01*
X100724Y42767D01*
Y42633D01*
X100591Y42500D01*
X100324D01*
X100191Y42633D01*
Y42767D01*
X100324Y42900D01*
X100191Y43033D01*
Y43166D01*
X100324Y42900D02*
X100591D01*
X101524Y43300D02*
X101258Y43166D01*
X100991Y42900D01*
Y42633D01*
X101124Y42500D01*
X101391D01*
X101524Y42633D01*
Y42767D01*
X101391Y42900D01*
X100991D01*
X15891Y36383D02*
X15725Y36550D01*
X15392D01*
X15225Y36383D01*
Y35717D01*
X15392Y35550D01*
X15725D01*
X15891Y35717D01*
X16225Y35550D02*
X16558D01*
X16391D01*
Y36550D01*
X16225Y36383D01*
X17058D02*
X17224Y36550D01*
X17558D01*
X17724Y36383D01*
Y36216D01*
X17558Y36050D01*
X17724Y35883D01*
Y35717D01*
X17558Y35550D01*
X17224D01*
X17058Y35717D01*
Y35883D01*
X17224Y36050D01*
X17058Y36216D01*
Y36383D01*
X17224Y36050D02*
X17558D01*
X18057Y36550D02*
X18724D01*
Y36383D01*
X18057Y35717D01*
Y35550D01*
X3383Y25954D02*
X3250Y26087D01*
X2983D01*
X2850Y25954D01*
Y25421D01*
X2983Y25288D01*
X3250D01*
X3383Y25421D01*
X3650Y25954D02*
X3783Y26087D01*
X4050D01*
X4183Y25954D01*
Y25821D01*
X4050Y25687D01*
X3916D01*
X4050D01*
X4183Y25554D01*
Y25421D01*
X4050Y25288D01*
X3783D01*
X3650Y25421D01*
X4449D02*
X4583Y25288D01*
X4849D01*
X4983Y25421D01*
Y25954D01*
X4849Y26087D01*
X4583D01*
X4449Y25954D01*
Y25821D01*
X4583Y25687D01*
X4983D01*
X10817Y29634D02*
X10950Y29500D01*
X11217D01*
X11350Y29634D01*
Y30167D01*
X11217Y30300D01*
X10950D01*
X10817Y30167D01*
X10550Y30300D02*
X10284D01*
X10417D01*
Y29500D01*
X10550Y29634D01*
X9484Y30300D02*
Y29500D01*
X9884Y29900D01*
X9351D01*
X8551Y30300D02*
X9084D01*
X8551Y29767D01*
Y29634D01*
X8684Y29500D01*
X8951D01*
X9084Y29634D01*
X40621Y-1887D02*
X41454D01*
X41621Y-1720D01*
Y-1387D01*
X41454Y-1220D01*
X40621D01*
X41621Y-887D02*
Y-554D01*
Y-720D01*
X40621D01*
X40788Y-887D01*
X41621Y613D02*
Y-54D01*
X40954Y613D01*
X40788D01*
X40621Y446D01*
Y113D01*
X40788Y-54D01*
X27995Y16398D02*
X28828D01*
X28995Y16564D01*
Y16898D01*
X28828Y17064D01*
X27995D01*
X28995Y18064D02*
Y17397D01*
X28328Y18064D01*
X28162D01*
X27995Y17897D01*
Y17564D01*
X28162Y17397D01*
X11667Y33634D02*
X12333D01*
X12500Y33800D01*
Y34133D01*
X12333Y34300D01*
X11667D01*
X11500Y34133D01*
Y33800D01*
X11833Y33967D02*
X11500Y33634D01*
Y33800D02*
X11667Y33634D01*
X11500Y32634D02*
Y33300D01*
X12166Y32634D01*
X12333D01*
X12500Y32800D01*
Y33134D01*
X12333Y33300D01*
X32370Y25333D02*
Y26233D01*
X31920D01*
X31770Y26083D01*
Y25483D01*
X31920Y25333D01*
X32370D01*
X31470Y26233D02*
X31170D01*
X31320D01*
Y25333D01*
X31470Y25483D01*
X30721Y25333D02*
X30121D01*
Y25483D01*
X30721Y26083D01*
Y26233D01*
X95625Y47850D02*
Y48150D01*
Y48000D01*
X94875D01*
X94725Y48150D01*
Y48300D01*
X94875Y48450D01*
X94725Y47550D02*
X95625D01*
X95325Y47250D01*
X95625Y46950D01*
X94725D01*
Y46651D02*
Y46351D01*
Y46501D01*
X95625D01*
X95475Y46651D01*
Y45901D02*
X95625Y45751D01*
Y45451D01*
X95475Y45301D01*
X95325D01*
X95175Y45451D01*
X95025Y45301D01*
X94875D01*
X94725Y45451D01*
Y45751D01*
X94875Y45901D01*
X95025D01*
X95175Y45751D01*
X95325Y45901D01*
X95475D01*
X95175Y45751D02*
Y45451D01*
X97737Y40679D02*
Y39846D01*
X97904Y39679D01*
X98237D01*
X98404Y39846D01*
Y40679D01*
X98737Y39679D02*
X99070D01*
X98904D01*
Y40679D01*
X98737Y40512D01*
X100236Y40679D02*
X99903Y40512D01*
X99570Y40179D01*
Y39846D01*
X99737Y39679D01*
X100070D01*
X100236Y39846D01*
Y40012D01*
X100070Y40179D01*
X99570D01*
X-3525Y54050D02*
X-2625D01*
Y54500D01*
X-2775Y54650D01*
X-3375D01*
X-3525Y54500D01*
Y54050D01*
X-2625Y54950D02*
Y55250D01*
Y55100D01*
X-3525D01*
X-3375Y54950D01*
X90475Y15350D02*
X90775D01*
X90625D01*
Y16100D01*
X90775Y16250D01*
X90925D01*
X91075Y16100D01*
X90175Y16250D02*
Y15350D01*
X89875Y15650D01*
X89575Y15350D01*
Y16250D01*
X89276D02*
X88976D01*
X89126D01*
Y15350D01*
X89276Y15500D01*
X51703Y14096D02*
Y14396D01*
Y14246D01*
X50953D01*
X50803Y14396D01*
Y14546D01*
X50953Y14696D01*
X50803Y13796D02*
X51703D01*
X51403Y13496D01*
X51703Y13196D01*
X50803D01*
Y12296D02*
Y12896D01*
X51403Y12296D01*
X51553D01*
X51703Y12446D01*
Y12746D01*
X51553Y12896D01*
X47528Y14096D02*
Y14396D01*
Y14246D01*
X46778D01*
X46628Y14396D01*
Y14546D01*
X46778Y14696D01*
X46628Y13796D02*
X47528D01*
X47228Y13496D01*
X47528Y13196D01*
X46628D01*
X47378Y12896D02*
X47528Y12746D01*
Y12446D01*
X47378Y12296D01*
X47228D01*
X47078Y12446D01*
Y12596D01*
Y12446D01*
X46928Y12296D01*
X46778D01*
X46628Y12446D01*
Y12746D01*
X46778Y12896D01*
X43352Y14096D02*
Y14396D01*
Y14246D01*
X42603D01*
X42453Y14396D01*
Y14546D01*
X42603Y14696D01*
X42453Y13796D02*
X43352D01*
X43052Y13496D01*
X43352Y13196D01*
X42453D01*
Y12446D02*
X43352D01*
X42902Y12896D01*
Y12296D01*
X78825Y58450D02*
X79125D01*
X78975D01*
Y59200D01*
X79125Y59350D01*
X79275D01*
X79425Y59200D01*
X78525Y59350D02*
Y58450D01*
X78225Y58750D01*
X77925Y58450D01*
Y59350D01*
X77026Y58450D02*
X77626D01*
Y58900D01*
X77326Y58750D01*
X77176D01*
X77026Y58900D01*
Y59200D01*
X77176Y59350D01*
X77476D01*
X77626Y59200D01*
X91650Y47200D02*
X91950D01*
X91800D01*
Y47950D01*
X91950Y48100D01*
X92100D01*
X92250Y47950D01*
X91350Y48100D02*
Y47200D01*
X91050Y47500D01*
X90750Y47200D01*
Y48100D01*
X89851Y47200D02*
X90151Y47350D01*
X90451Y47650D01*
Y47950D01*
X90301Y48100D01*
X90001D01*
X89851Y47950D01*
Y47800D01*
X90001Y47650D01*
X90451D01*
X91650Y44067D02*
X91950D01*
X91800D01*
Y44817D01*
X91950Y44967D01*
X92100D01*
X92250Y44817D01*
X91350Y44967D02*
Y44067D01*
X91050Y44367D01*
X90750Y44067D01*
Y44967D01*
X90451Y44067D02*
X89851D01*
Y44217D01*
X90451Y44817D01*
Y44967D01*
X91650Y40934D02*
X91950D01*
X91800D01*
Y41683D01*
X91950Y41833D01*
X92100D01*
X92250Y41683D01*
X91350Y41833D02*
Y40934D01*
X91050Y41234D01*
X90750Y40934D01*
Y41833D01*
X90451Y41084D02*
X90301Y40934D01*
X90001D01*
X89851Y41084D01*
Y41234D01*
X90001Y41383D01*
X89851Y41533D01*
Y41683D01*
X90001Y41833D01*
X90301D01*
X90451Y41683D01*
Y41533D01*
X90301Y41383D01*
X90451Y41234D01*
Y41084D01*
X90301Y41383D02*
X90001D01*
X91650Y37800D02*
X91950D01*
X91800D01*
Y38550D01*
X91950Y38700D01*
X92100D01*
X92250Y38550D01*
X91350Y38700D02*
Y37800D01*
X91050Y38100D01*
X90750Y37800D01*
Y38700D01*
X90451Y38550D02*
X90301Y38700D01*
X90001D01*
X89851Y38550D01*
Y37950D01*
X90001Y37800D01*
X90301D01*
X90451Y37950D01*
Y38100D01*
X90301Y38250D01*
X89851D01*
X3316Y103953D02*
X3150Y104120D01*
X2816D01*
X2650Y103953D01*
Y103786D01*
X2816Y103620D01*
X3150D01*
X3316Y103453D01*
Y103287D01*
X3150Y103120D01*
X2816D01*
X2650Y103287D01*
X3650Y104120D02*
Y103120D01*
X4149D01*
X4316Y103287D01*
Y103953D01*
X4149Y104120D01*
X3650D01*
X4649Y103120D02*
X4982D01*
X4816D01*
Y104120D01*
X4649Y103953D01*
X18342D02*
X18175Y104120D01*
X17842D01*
X17676Y103953D01*
Y103786D01*
X17842Y103620D01*
X18175D01*
X18342Y103453D01*
Y103287D01*
X18175Y103120D01*
X17842D01*
X17676Y103287D01*
X18675Y104120D02*
Y103120D01*
X19175D01*
X19342Y103287D01*
Y103953D01*
X19175Y104120D01*
X18675D01*
X20341Y103120D02*
X19675D01*
X20341Y103786D01*
Y103953D01*
X20175Y104120D01*
X19842D01*
X19675Y103953D01*
X33368D02*
X33201Y104120D01*
X32868D01*
X32701Y103953D01*
Y103786D01*
X32868Y103620D01*
X33201D01*
X33368Y103453D01*
Y103287D01*
X33201Y103120D01*
X32868D01*
X32701Y103287D01*
X33701Y104120D02*
Y103120D01*
X34201D01*
X34367Y103287D01*
Y103953D01*
X34201Y104120D01*
X33701D01*
X34701Y103953D02*
X34867Y104120D01*
X35201D01*
X35367Y103953D01*
Y103786D01*
X35201Y103620D01*
X35034D01*
X35201D01*
X35367Y103453D01*
Y103287D01*
X35201Y103120D01*
X34867D01*
X34701Y103287D01*
X48394Y103953D02*
X48227Y104120D01*
X47894D01*
X47727Y103953D01*
Y103786D01*
X47894Y103620D01*
X48227D01*
X48394Y103453D01*
Y103287D01*
X48227Y103120D01*
X47894D01*
X47727Y103287D01*
X48727Y104120D02*
Y103120D01*
X49227D01*
X49393Y103287D01*
Y103953D01*
X49227Y104120D01*
X48727D01*
X50226Y103120D02*
Y104120D01*
X49726Y103620D01*
X50393D01*
X63269Y103978D02*
X63103Y104145D01*
X62770D01*
X62603Y103978D01*
Y103811D01*
X62770Y103645D01*
X63103D01*
X63269Y103478D01*
Y103312D01*
X63103Y103145D01*
X62770D01*
X62603Y103312D01*
X63603Y104145D02*
Y103145D01*
X64103D01*
X64269Y103312D01*
Y103978D01*
X64103Y104145D01*
X63603D01*
X65269D02*
X64602D01*
Y103645D01*
X64936Y103811D01*
X65102D01*
X65269Y103645D01*
Y103312D01*
X65102Y103145D01*
X64769D01*
X64602Y103312D01*
X78339Y103953D02*
X78172Y104120D01*
X77839D01*
X77672Y103953D01*
Y103786D01*
X77839Y103620D01*
X78172D01*
X78339Y103453D01*
Y103287D01*
X78172Y103120D01*
X77839D01*
X77672Y103287D01*
X78672Y104120D02*
Y103120D01*
X79172D01*
X79338Y103287D01*
Y103953D01*
X79172Y104120D01*
X78672D01*
X80338D02*
X80005Y103953D01*
X79671Y103620D01*
Y103287D01*
X79838Y103120D01*
X80171D01*
X80338Y103287D01*
Y103453D01*
X80171Y103620D01*
X79671D01*
X3144Y73953D02*
X2978Y74120D01*
X2645D01*
X2478Y73953D01*
Y73786D01*
X2645Y73620D01*
X2978D01*
X3144Y73453D01*
Y73287D01*
X2978Y73120D01*
X2645D01*
X2478Y73287D01*
X3478Y74120D02*
Y73120D01*
X3977D01*
X4144Y73287D01*
Y73953D01*
X3977Y74120D01*
X3478D01*
X4477D02*
X5144D01*
Y73953D01*
X4477Y73287D01*
Y73120D01*
X18319Y73953D02*
X18153Y74120D01*
X17820D01*
X17653Y73953D01*
Y73786D01*
X17820Y73620D01*
X18153D01*
X18319Y73453D01*
Y73287D01*
X18153Y73120D01*
X17820D01*
X17653Y73287D01*
X18653Y74120D02*
Y73120D01*
X19153D01*
X19319Y73287D01*
Y73953D01*
X19153Y74120D01*
X18653D01*
X19652Y73953D02*
X19819Y74120D01*
X20152D01*
X20319Y73953D01*
Y73786D01*
X20152Y73620D01*
X20319Y73453D01*
Y73287D01*
X20152Y73120D01*
X19819D01*
X19652Y73287D01*
Y73453D01*
X19819Y73620D01*
X19652Y73786D01*
Y73953D01*
X19819Y73620D02*
X20152D01*
X33581Y73953D02*
X33414Y74120D01*
X33081D01*
X32915Y73953D01*
Y73786D01*
X33081Y73620D01*
X33414D01*
X33581Y73453D01*
Y73287D01*
X33414Y73120D01*
X33081D01*
X32915Y73287D01*
X33914Y74120D02*
Y73120D01*
X34414D01*
X34581Y73287D01*
Y73953D01*
X34414Y74120D01*
X33914D01*
X34914Y73287D02*
X35081Y73120D01*
X35414D01*
X35580Y73287D01*
Y73953D01*
X35414Y74120D01*
X35081D01*
X34914Y73953D01*
Y73786D01*
X35081Y73620D01*
X35580D01*
X48594Y73953D02*
X48428Y74120D01*
X48095D01*
X47928Y73953D01*
Y73786D01*
X48095Y73620D01*
X48428D01*
X48594Y73453D01*
Y73287D01*
X48428Y73120D01*
X48095D01*
X47928Y73287D01*
X48928Y74120D02*
Y73120D01*
X49428D01*
X49594Y73287D01*
Y73953D01*
X49428Y74120D01*
X48928D01*
X49927Y73120D02*
X50261D01*
X50094D01*
Y74120D01*
X49927Y73953D01*
X50760D02*
X50927Y74120D01*
X51260D01*
X51427Y73953D01*
Y73287D01*
X51260Y73120D01*
X50927D01*
X50760Y73287D01*
Y73953D01*
X63632D02*
X63466Y74120D01*
X63133D01*
X62966Y73953D01*
Y73786D01*
X63133Y73620D01*
X63466D01*
X63632Y73453D01*
Y73287D01*
X63466Y73120D01*
X63133D01*
X62966Y73287D01*
X63966Y74120D02*
Y73120D01*
X64466D01*
X64632Y73287D01*
Y73953D01*
X64466Y74120D01*
X63966D01*
X64965Y73120D02*
X65299D01*
X65132D01*
Y74120D01*
X64965Y73953D01*
X65798Y73120D02*
X66132D01*
X65965D01*
Y74120D01*
X65798Y73953D01*
X78658D02*
X78492Y74120D01*
X78158D01*
X77992Y73953D01*
Y73786D01*
X78158Y73620D01*
X78492D01*
X78658Y73453D01*
Y73287D01*
X78492Y73120D01*
X78158D01*
X77992Y73287D01*
X78991Y74120D02*
Y73120D01*
X79491D01*
X79658Y73287D01*
Y73953D01*
X79491Y74120D01*
X78991D01*
X79991Y73120D02*
X80324D01*
X80158D01*
Y74120D01*
X79991Y73953D01*
X81491Y73120D02*
X80824D01*
X81491Y73786D01*
Y73953D01*
X81324Y74120D01*
X80991D01*
X80824Y73953D01*
X87875Y27025D02*
Y28025D01*
X88375D01*
X88541Y27858D01*
Y27525D01*
X88375Y27358D01*
X87875D01*
X88875Y27025D02*
X89208D01*
X89041D01*
Y28025D01*
X88875Y27858D01*
X89708Y28025D02*
X90374D01*
Y27858D01*
X89708Y27192D01*
Y27025D01*
X-5975Y24425D02*
Y25425D01*
X-5475D01*
X-5309Y25258D01*
Y24925D01*
X-5475Y24758D01*
X-5975D01*
X-4975Y24425D02*
X-4642D01*
X-4809D01*
Y25425D01*
X-4975Y25258D01*
X-4142D02*
X-3976Y25425D01*
X-3642D01*
X-3476Y25258D01*
Y25091D01*
X-3642Y24925D01*
X-3476Y24758D01*
Y24592D01*
X-3642Y24425D01*
X-3976D01*
X-4142Y24592D01*
Y24758D01*
X-3976Y24925D01*
X-4142Y25091D01*
Y25258D01*
X-3976Y24925D02*
X-3642D01*
X-6400Y37950D02*
Y38950D01*
X-5900D01*
X-5734Y38783D01*
Y38450D01*
X-5900Y38283D01*
X-6400D01*
X-5400Y38950D02*
Y37950D01*
X-4900D01*
X-4734Y38117D01*
Y38283D01*
X-4900Y38450D01*
X-5400D01*
X-4900D01*
X-4734Y38616D01*
Y38783D01*
X-4900Y38950D01*
X-5400D01*
X-4401Y37950D02*
X-4067D01*
X-4234D01*
Y38950D01*
X-4401Y38783D01*
X4203Y115117D02*
Y116117D01*
X4703D01*
X4869Y115950D01*
Y115617D01*
X4703Y115450D01*
X4203D01*
X4536D02*
X4869Y115117D01*
X5203D02*
X5536D01*
X5369D01*
Y116117D01*
X5203Y115950D01*
X19391Y115117D02*
Y116117D01*
X19891D01*
X20058Y115950D01*
Y115617D01*
X19891Y115450D01*
X19391D01*
X19724D02*
X20058Y115117D01*
X21057D02*
X20391D01*
X21057Y115783D01*
Y115950D01*
X20891Y116117D01*
X20557D01*
X20391Y115950D01*
X34579Y115117D02*
Y116117D01*
X35079D01*
X35246Y115950D01*
Y115617D01*
X35079Y115450D01*
X34579D01*
X34913D02*
X35246Y115117D01*
X35579Y115950D02*
X35746Y116117D01*
X36079D01*
X36246Y115950D01*
Y115783D01*
X36079Y115617D01*
X35912D01*
X36079D01*
X36246Y115450D01*
Y115284D01*
X36079Y115117D01*
X35746D01*
X35579Y115284D01*
X49768Y115117D02*
Y116117D01*
X50267D01*
X50434Y115950D01*
Y115617D01*
X50267Y115450D01*
X49768D01*
X50101D02*
X50434Y115117D01*
X51267D02*
Y116117D01*
X50767Y115617D01*
X51434D01*
X64956Y115117D02*
Y116117D01*
X65456D01*
X65622Y115950D01*
Y115617D01*
X65456Y115450D01*
X64956D01*
X65289D02*
X65622Y115117D01*
X66622Y116117D02*
X65955D01*
Y115617D01*
X66289Y115783D01*
X66455D01*
X66622Y115617D01*
Y115284D01*
X66455Y115117D01*
X66122D01*
X65955Y115284D01*
X80144Y115117D02*
Y116117D01*
X80644D01*
X80810Y115950D01*
Y115617D01*
X80644Y115450D01*
X80144D01*
X80477D02*
X80810Y115117D01*
X81810Y116117D02*
X81477Y115950D01*
X81144Y115617D01*
Y115284D01*
X81310Y115117D01*
X81643D01*
X81810Y115284D01*
Y115450D01*
X81643Y115617D01*
X81144D01*
X4453Y85792D02*
Y86792D01*
X4953D01*
X5119Y86625D01*
Y86292D01*
X4953Y86125D01*
X4453D01*
X4786D02*
X5119Y85792D01*
X5453Y86792D02*
X6119D01*
Y86625D01*
X5453Y85959D01*
Y85792D01*
X19558D02*
Y86792D01*
X20058D01*
X20224Y86625D01*
Y86292D01*
X20058Y86125D01*
X19558D01*
X19891D02*
X20224Y85792D01*
X20558Y86625D02*
X20724Y86792D01*
X21058D01*
X21224Y86625D01*
Y86458D01*
X21058Y86292D01*
X21224Y86125D01*
Y85959D01*
X21058Y85792D01*
X20724D01*
X20558Y85959D01*
Y86125D01*
X20724Y86292D01*
X20558Y86458D01*
Y86625D01*
X20724Y86292D02*
X21058D01*
X34663Y85792D02*
Y86792D01*
X35163D01*
X35329Y86625D01*
Y86292D01*
X35163Y86125D01*
X34663D01*
X34996D02*
X35329Y85792D01*
X35663Y85959D02*
X35829Y85792D01*
X36163D01*
X36329Y85959D01*
Y86625D01*
X36163Y86792D01*
X35829D01*
X35663Y86625D01*
Y86458D01*
X35829Y86292D01*
X36329D01*
X49768Y85792D02*
Y86792D01*
X50268D01*
X50434Y86625D01*
Y86292D01*
X50268Y86125D01*
X49768D01*
X50101D02*
X50434Y85792D01*
X50768D02*
X51101D01*
X50934D01*
Y86792D01*
X50768Y86625D01*
X51601D02*
X51767Y86792D01*
X52101D01*
X52267Y86625D01*
Y85959D01*
X52101Y85792D01*
X51767D01*
X51601Y85959D01*
Y86625D01*
X64873Y85792D02*
Y86792D01*
X65373D01*
X65539Y86625D01*
Y86292D01*
X65373Y86125D01*
X64873D01*
X65206D02*
X65539Y85792D01*
X65873D02*
X66206D01*
X66039D01*
Y86792D01*
X65873Y86625D01*
X66706Y85792D02*
X67039D01*
X66872D01*
Y86792D01*
X66706Y86625D01*
X79978Y85792D02*
Y86792D01*
X80478D01*
X80644Y86625D01*
Y86292D01*
X80478Y86125D01*
X79978D01*
X80311D02*
X80644Y85792D01*
X80978D02*
X81311D01*
X81144D01*
Y86792D01*
X80978Y86625D01*
X82477Y85792D02*
X81811D01*
X82477Y86458D01*
Y86625D01*
X82311Y86792D01*
X81977D01*
X81811Y86625D01*
X31523Y30756D02*
Y31756D01*
X32023D01*
X32189Y31589D01*
Y31256D01*
X32023Y31089D01*
X31523D01*
X31856D02*
X32189Y30756D01*
X32523D02*
X32856D01*
X32689D01*
Y31756D01*
X32523Y31589D01*
X33356D02*
X33522Y31756D01*
X33856D01*
X34022Y31589D01*
Y31422D01*
X33856Y31256D01*
X33689D01*
X33856D01*
X34022Y31089D01*
Y30923D01*
X33856Y30756D01*
X33522D01*
X33356Y30923D01*
X81153Y30342D02*
Y31342D01*
X81653D01*
X81819Y31175D01*
Y30842D01*
X81653Y30675D01*
X81153D01*
X81486D02*
X81819Y30342D01*
X82153D02*
X82486D01*
X82319D01*
Y31342D01*
X82153Y31175D01*
X83486Y30342D02*
Y31342D01*
X82986Y30842D01*
X83652D01*
X-5127Y56946D02*
Y57946D01*
X-4627D01*
X-4461Y57779D01*
Y57446D01*
X-4627Y57279D01*
X-5127D01*
X-4794D02*
X-4461Y56946D01*
X-4127D02*
X-3794D01*
X-3961D01*
Y57946D01*
X-4127Y57779D01*
X-2628Y57946D02*
X-3294D01*
Y57446D01*
X-2961Y57612D01*
X-2794D01*
X-2628Y57446D01*
Y57113D01*
X-2794Y56946D01*
X-3128D01*
X-3294Y57113D01*
X-8500Y56975D02*
Y57975D01*
X-8000D01*
X-7834Y57808D01*
Y57475D01*
X-8000Y57308D01*
X-8500D01*
X-8167D02*
X-7834Y56975D01*
X-7500D02*
X-7167D01*
X-7334D01*
Y57975D01*
X-7500Y57808D01*
X-6001Y57975D02*
X-6334Y57808D01*
X-6667Y57475D01*
Y57142D01*
X-6501Y56975D01*
X-6167D01*
X-6001Y57142D01*
Y57308D01*
X-6167Y57475D01*
X-6667D01*
X-6783Y46612D02*
Y47612D01*
X-6283D01*
X-6116Y47445D01*
Y47112D01*
X-6283Y46946D01*
X-6783D01*
X-6449D02*
X-6116Y46612D01*
X-5783D02*
X-5450D01*
X-5616D01*
Y47612D01*
X-5783Y47445D01*
X-4950Y47612D02*
X-4283D01*
Y47445D01*
X-4950Y46779D01*
Y46612D01*
X83883Y44553D02*
X82883D01*
Y45053D01*
X83050Y45219D01*
X83383D01*
X83550Y45053D01*
Y44553D01*
Y44886D02*
X83883Y45219D01*
Y45553D02*
Y45886D01*
Y45719D01*
X82883D01*
X83050Y45553D01*
Y46386D02*
X82883Y46552D01*
Y46886D01*
X83050Y47052D01*
X83217D01*
X83383Y46886D01*
X83550Y47052D01*
X83716D01*
X83883Y46886D01*
Y46552D01*
X83716Y46386D01*
X83550D01*
X83383Y46552D01*
X83217Y46386D01*
X83050D01*
X83383Y46552D02*
Y46886D01*
X85333Y44553D02*
X84333D01*
Y45053D01*
X84500Y45219D01*
X84833D01*
X85000Y45053D01*
Y44553D01*
Y44886D02*
X85333Y45219D01*
Y45553D02*
Y45886D01*
Y45719D01*
X84333D01*
X84500Y45553D01*
X85166Y46386D02*
X85333Y46552D01*
Y46886D01*
X85166Y47052D01*
X84500D01*
X84333Y46886D01*
Y46552D01*
X84500Y46386D01*
X84667D01*
X84833Y46552D01*
Y47052D01*
X44325Y38400D02*
X43325D01*
Y38900D01*
X43492Y39066D01*
X43825D01*
X43992Y38900D01*
Y38400D01*
Y38733D02*
X44325Y39066D01*
Y40066D02*
Y39400D01*
X43659Y40066D01*
X43492D01*
X43325Y39900D01*
Y39566D01*
X43492Y39400D01*
Y40399D02*
X43325Y40566D01*
Y40899D01*
X43492Y41066D01*
X44158D01*
X44325Y40899D01*
Y40566D01*
X44158Y40399D01*
X43492D01*
X27723Y42056D02*
Y43056D01*
X28223D01*
X28389Y42889D01*
Y42556D01*
X28223Y42389D01*
X27723D01*
X28056D02*
X28389Y42056D01*
X29389D02*
X28723D01*
X29389Y42722D01*
Y42889D01*
X29223Y43056D01*
X28889D01*
X28723Y42889D01*
X29722Y42056D02*
X30056D01*
X29889D01*
Y43056D01*
X29722Y42889D01*
X43050Y32725D02*
Y33725D01*
X43550D01*
X43716Y33558D01*
Y33225D01*
X43550Y33058D01*
X43050D01*
X43383D02*
X43716Y32725D01*
X44716D02*
X44050D01*
X44716Y33391D01*
Y33558D01*
X44550Y33725D01*
X44216D01*
X44050Y33558D01*
X45716Y32725D02*
X45049D01*
X45716Y33391D01*
Y33558D01*
X45549Y33725D01*
X45216D01*
X45049Y33558D01*
X27773Y35706D02*
Y36706D01*
X28273D01*
X28439Y36539D01*
Y36206D01*
X28273Y36039D01*
X27773D01*
X28106D02*
X28439Y35706D01*
X29439D02*
X28773D01*
X29439Y36372D01*
Y36539D01*
X29273Y36706D01*
X28939D01*
X28773Y36539D01*
X29772D02*
X29939Y36706D01*
X30272D01*
X30439Y36539D01*
Y36372D01*
X30272Y36206D01*
X30106D01*
X30272D01*
X30439Y36039D01*
Y35873D01*
X30272Y35706D01*
X29939D01*
X29772Y35873D01*
X94000Y1825D02*
X93000D01*
Y2325D01*
X93167Y2491D01*
X93500D01*
X93667Y2325D01*
Y1825D01*
Y2158D02*
X94000Y2491D01*
Y3491D02*
Y2825D01*
X93334Y3491D01*
X93167D01*
X93000Y3325D01*
Y2991D01*
X93167Y2825D01*
X94000Y4324D02*
X93000D01*
X93500Y3824D01*
Y4491D01*
X49203Y27017D02*
Y28017D01*
X49703D01*
X49869Y27850D01*
Y27517D01*
X49703Y27350D01*
X49203D01*
X49536D02*
X49869Y27017D01*
X50203Y27850D02*
X50369Y28017D01*
X50703D01*
X50869Y27850D01*
Y27683D01*
X50703Y27517D01*
X50536D01*
X50703D01*
X50869Y27350D01*
Y27184D01*
X50703Y27017D01*
X50369D01*
X50203Y27184D01*
X51202Y27850D02*
X51369Y28017D01*
X51702D01*
X51869Y27850D01*
Y27683D01*
X51702Y27517D01*
X51536D01*
X51702D01*
X51869Y27350D01*
Y27184D01*
X51702Y27017D01*
X51369D01*
X51202Y27184D01*
X81253Y22467D02*
Y23467D01*
X81753D01*
X81919Y23300D01*
Y22967D01*
X81753Y22800D01*
X81253D01*
X81586D02*
X81919Y22467D01*
X82253Y23300D02*
X82419Y23467D01*
X82753D01*
X82919Y23300D01*
Y23133D01*
X82753Y22967D01*
X82586D01*
X82753D01*
X82919Y22800D01*
Y22634D01*
X82753Y22467D01*
X82419D01*
X82253Y22634D01*
X83752Y22467D02*
Y23467D01*
X83252Y22967D01*
X83919D01*
X81203Y24492D02*
Y25492D01*
X81703D01*
X81869Y25325D01*
Y24992D01*
X81703Y24825D01*
X81203D01*
X81536D02*
X81869Y24492D01*
X82203Y25325D02*
X82369Y25492D01*
X82703D01*
X82869Y25325D01*
Y25158D01*
X82703Y24992D01*
X82536D01*
X82703D01*
X82869Y24825D01*
Y24659D01*
X82703Y24492D01*
X82369D01*
X82203Y24659D01*
X83869Y25492D02*
X83202D01*
Y24992D01*
X83536Y25158D01*
X83702D01*
X83869Y24992D01*
Y24659D01*
X83702Y24492D01*
X83369D01*
X83202Y24659D01*
X81253Y26492D02*
Y27492D01*
X81753D01*
X81919Y27325D01*
Y26992D01*
X81753Y26825D01*
X81253D01*
X81586D02*
X81919Y26492D01*
X82253Y27325D02*
X82419Y27492D01*
X82753D01*
X82919Y27325D01*
Y27158D01*
X82753Y26992D01*
X82586D01*
X82753D01*
X82919Y26825D01*
Y26659D01*
X82753Y26492D01*
X82419D01*
X82253Y26659D01*
X83919Y27492D02*
X83586Y27325D01*
X83252Y26992D01*
Y26659D01*
X83419Y26492D01*
X83752D01*
X83919Y26659D01*
Y26825D01*
X83752Y26992D01*
X83252D01*
X81253Y28467D02*
Y29467D01*
X81753D01*
X81919Y29300D01*
Y28967D01*
X81753Y28800D01*
X81253D01*
X81586D02*
X81919Y28467D01*
X82253Y29300D02*
X82419Y29467D01*
X82753D01*
X82919Y29300D01*
Y29133D01*
X82753Y28967D01*
X82586D01*
X82753D01*
X82919Y28800D01*
Y28634D01*
X82753Y28467D01*
X82419D01*
X82253Y28634D01*
X83252Y29467D02*
X83919D01*
Y29300D01*
X83252Y28634D01*
Y28467D01*
X87173Y6721D02*
Y7721D01*
X87673D01*
X87839Y7554D01*
Y7221D01*
X87673Y7054D01*
X87173D01*
X87506D02*
X87839Y6721D01*
X88173Y7554D02*
X88339Y7721D01*
X88673D01*
X88839Y7554D01*
Y7387D01*
X88673Y7221D01*
X88506D01*
X88673D01*
X88839Y7054D01*
Y6888D01*
X88673Y6721D01*
X88339D01*
X88173Y6888D01*
X89172Y7554D02*
X89339Y7721D01*
X89672D01*
X89839Y7554D01*
Y7387D01*
X89672Y7221D01*
X89839Y7054D01*
Y6888D01*
X89672Y6721D01*
X89339D01*
X89172Y6888D01*
Y7054D01*
X89339Y7221D01*
X89172Y7387D01*
Y7554D01*
X89339Y7221D02*
X89672D01*
X-7616Y55271D02*
X-6950D01*
X-7283D01*
Y54271D01*
X-6616D02*
X-6283D01*
X-6450D01*
Y55271D01*
X-6616Y55104D01*
X82100Y40700D02*
Y39867D01*
X82267Y39700D01*
X82600D01*
X82766Y39867D01*
Y40700D01*
X83600Y39700D02*
Y40700D01*
X83100Y40200D01*
X83766D01*
X35151Y38538D02*
Y37705D01*
X35318Y37538D01*
X35651D01*
X35817Y37705D01*
Y38538D01*
X36817D02*
X36151D01*
Y38038D01*
X36484Y38204D01*
X36651D01*
X36817Y38038D01*
Y37705D01*
X36651Y37538D01*
X36317D01*
X36151Y37705D01*
X89225Y4250D02*
X89891Y3250D01*
Y4250D02*
X89225Y3250D01*
X90225D02*
X90558D01*
X90391D01*
Y4250D01*
X90225Y4083D01*
X140861Y43317D02*
Y42417D01*
X141311D01*
X141461Y42567D01*
Y43167D01*
X141311Y43317D01*
X140861D01*
X141761Y42417D02*
X142061D01*
X141911D01*
Y43317D01*
X141761Y43167D01*
X143110Y42417D02*
X142510D01*
X143110Y43017D01*
Y43167D01*
X142960Y43317D01*
X142660D01*
X142510Y43167D01*
X140832Y-4558D02*
Y-5458D01*
X141282D01*
X141432Y-5308D01*
Y-4708D01*
X141282Y-4558D01*
X140832D01*
X141732Y-5458D02*
X142031D01*
X141881D01*
Y-4558D01*
X141732Y-4708D01*
X142481D02*
X142631Y-4558D01*
X142931D01*
X143081Y-4708D01*
Y-4858D01*
X142931Y-5008D01*
X142781D01*
X142931D01*
X143081Y-5158D01*
Y-5308D01*
X142931Y-5458D01*
X142631D01*
X142481Y-5308D01*
X140489Y67203D02*
Y66303D01*
X140939D01*
X141089Y66453D01*
Y67053D01*
X140939Y67203D01*
X140489D01*
X141389Y66303D02*
X141689D01*
X141539D01*
Y67203D01*
X141389Y67053D01*
X142589Y66303D02*
Y67203D01*
X142139Y66753D01*
X142738D01*
X140208Y19182D02*
Y18282D01*
X140658D01*
X140808Y18432D01*
Y19032D01*
X140658Y19182D01*
X140208D01*
X141107Y18282D02*
X141407D01*
X141257D01*
Y19182D01*
X141107Y19032D01*
X142457Y19182D02*
X141857D01*
Y18732D01*
X142157Y18882D01*
X142307D01*
X142457Y18732D01*
Y18432D01*
X142307Y18282D01*
X142007D01*
X141857Y18432D01*
X140055Y90917D02*
Y90017D01*
X140505D01*
X140655Y90167D01*
Y90767D01*
X140505Y90917D01*
X140055D01*
X140955Y90017D02*
X141255D01*
X141105D01*
Y90917D01*
X140955Y90767D01*
X142304Y90917D02*
X142004Y90767D01*
X141704Y90467D01*
Y90167D01*
X141854Y90017D01*
X142154D01*
X142304Y90167D01*
Y90317D01*
X142154Y90467D01*
X141704D01*
X113100Y-8075D02*
Y-8375D01*
Y-8225D01*
X113850D01*
X114000Y-8375D01*
Y-8525D01*
X113850Y-8675D01*
X114000Y-7775D02*
X113100D01*
X113400Y-7475D01*
X113100Y-7175D01*
X114000D01*
Y-6876D02*
Y-6576D01*
Y-6726D01*
X113100D01*
X113250Y-6876D01*
X114000Y-5676D02*
X113100D01*
X113550Y-6126D01*
Y-5526D01*
X106100Y-8025D02*
Y-8325D01*
Y-8175D01*
X106850D01*
X107000Y-8325D01*
Y-8475D01*
X106850Y-8625D01*
X107000Y-7725D02*
X106100D01*
X106400Y-7425D01*
X106100Y-7125D01*
X107000D01*
Y-6826D02*
Y-6526D01*
Y-6676D01*
X106100D01*
X106250Y-6826D01*
X106100Y-5476D02*
Y-6076D01*
X106550D01*
X106400Y-5776D01*
Y-5626D01*
X106550Y-5476D01*
X106850D01*
X107000Y-5626D01*
Y-5926D01*
X106850Y-6076D01*
X127450Y-8025D02*
Y-8325D01*
Y-8175D01*
X128200D01*
X128350Y-8325D01*
Y-8475D01*
X128200Y-8625D01*
X128350Y-7725D02*
X127450D01*
X127750Y-7425D01*
X127450Y-7125D01*
X128350D01*
Y-6826D02*
Y-6526D01*
Y-6676D01*
X127450D01*
X127600Y-6826D01*
X127450Y-5476D02*
X127600Y-5776D01*
X127900Y-6076D01*
X128200D01*
X128350Y-5926D01*
Y-5626D01*
X128200Y-5476D01*
X128050D01*
X127900Y-5626D01*
Y-6076D01*
X120450Y-8050D02*
Y-8350D01*
Y-8200D01*
X121200D01*
X121350Y-8350D01*
Y-8500D01*
X121200Y-8650D01*
X121350Y-7750D02*
X120450D01*
X120750Y-7450D01*
X120450Y-7150D01*
X121350D01*
Y-6851D02*
Y-6551D01*
Y-6701D01*
X120450D01*
X120600Y-6851D01*
X120450Y-6101D02*
Y-5501D01*
X120600D01*
X121200Y-6101D01*
X121350D01*
X35331Y27692D02*
Y26692D01*
X35998D01*
X36331D02*
X36664D01*
X36498D01*
Y27692D01*
X36331Y27525D01*
X37164Y26692D02*
X37497D01*
X37331D01*
Y27692D01*
X37164Y27525D01*
X95494Y57489D02*
X94494D01*
Y57989D01*
X94661Y58155D01*
X94994D01*
X95161Y57989D01*
Y57489D01*
X94494Y59155D02*
Y58489D01*
X94994D01*
X94828Y58822D01*
Y58989D01*
X94994Y59155D01*
X95327D01*
X95494Y58989D01*
Y58655D01*
X95327Y58489D01*
X163425Y-10000D02*
Y120000D01*
X-10000Y-10000D02*
X163425D01*
X-10000D02*
Y120000D01*
X163425D01*
D49*
X39783Y-5012D02*
G03*
X39783Y-5012I-212J0D01*
G01*
X27157Y13273D02*
G03*
X27157Y13273I-212J0D01*
G01*
X13762Y37425D02*
G03*
X13762Y37425I-212J0D01*
G01*
X94824Y41729D02*
G03*
X94824Y41729I-212J0D01*
G01*
X81028Y36754D02*
G03*
X81028Y36754I-212J0D01*
G01*
X40647Y33700D02*
G03*
X40647Y33700I-347J0D01*
G01*
X90927Y1931D02*
G03*
X90953Y1948I127J-173D01*
G01*
X64800Y33524D02*
Y31858D01*
X65133Y31525D01*
X65800D01*
X66133Y31858D01*
Y33524D01*
X66799Y31525D02*
X67466D01*
X67133D01*
Y33524D01*
X66799Y33191D01*
X65050Y124450D02*
Y123450D01*
X65550D01*
X65716Y123617D01*
Y123783D01*
X65550Y123950D01*
X65050D01*
X65550D01*
X65716Y124116D01*
Y124283D01*
X65550Y124450D01*
X65050D01*
X66549D02*
X66216D01*
X66050Y124283D01*
Y123617D01*
X66216Y123450D01*
X66549D01*
X66716Y123617D01*
Y124283D01*
X66549Y124450D01*
X67049Y123450D02*
Y124116D01*
X67382Y124450D01*
X67716Y124116D01*
Y123450D01*
Y123950D01*
X67049D01*
X68049Y123450D02*
Y124450D01*
X68549D01*
X68715Y124283D01*
Y123950D01*
X68549Y123783D01*
X68049D01*
X68382D02*
X68715Y123450D01*
X69049Y124450D02*
Y123450D01*
X69548D01*
X69715Y123617D01*
Y124283D01*
X69548Y124450D01*
X69049D01*
X71548D02*
X71215D01*
X71048Y124283D01*
Y123617D01*
X71215Y123450D01*
X71548D01*
X71714Y123617D01*
Y124283D01*
X71548Y124450D01*
X72048D02*
Y123617D01*
X72214Y123450D01*
X72547D01*
X72714Y123617D01*
Y124450D01*
X73047D02*
X73714D01*
X73380D01*
Y123450D01*
X74047Y124450D02*
Y123450D01*
X74713D01*
X75047Y124450D02*
X75380D01*
X75213D01*
Y123450D01*
X75047D01*
X75380D01*
X75880D02*
Y124450D01*
X76546Y123450D01*
Y124450D01*
X77546D02*
X76879D01*
Y123450D01*
X77546D01*
X76879Y123950D02*
X77213D01*
D54*
X73500Y39500D02*
X73500Y39500D01*
M02*
