G04 Layer_Color=255*
%FSLAX43Y43*%
%MOMM*%
G71*
G01*
G75*
%ADD10C,0.100*%
%ADD14R,0.950X1.000*%
%ADD15R,1.000X0.950*%
%ADD16R,1.000X0.900*%
%ADD20R,0.900X1.000*%
%ADD21R,1.400X1.050*%
%ADD25R,1.050X1.400*%
%ADD28R,1.000X1.000*%
%ADD35C,1.000*%
%ADD39R,0.950X1.000*%
%ADD44C,0.500*%
%ADD49C,0.200*%
%ADD54C,0.300*%
%ADD57C,1.600*%
%ADD58C,2.300*%
%ADD59C,1.700*%
%ADD60C,2.200*%
%ADD61C,0.800*%
%ADD62C,2.400*%
%ADD63R,6.350X6.350*%
%ADD79R,1.000X1.000*%
%ADD80R,0.600X1.000*%
%ADD81R,1.450X1.150*%
%ADD82R,0.305X1.448*%
%ADD83R,1.150X1.450*%
%ADD84R,1.800X1.150*%
%ADD85R,1.150X1.800*%
D10*
X163425Y-10000D02*
Y120000D01*
X-10000Y-10000D02*
X163425D01*
X-10000D02*
Y120000D01*
X163425D01*
D14*
X107800Y48950D02*
D03*
X109400D02*
D03*
X109500Y60475D02*
D03*
X107900D02*
D03*
X107875Y54000D02*
D03*
X109475D02*
D03*
X125850Y66225D02*
D03*
X124250D02*
D03*
X124225Y62775D02*
D03*
X125825D02*
D03*
X125775Y59700D02*
D03*
X124175D02*
D03*
X125775Y56750D02*
D03*
X124175D02*
D03*
Y55000D02*
D03*
X125775D02*
D03*
Y52025D02*
D03*
X124175D02*
D03*
X124500Y48925D02*
D03*
X126100D02*
D03*
X5075Y24600D02*
D03*
X3475D02*
D03*
X5050Y26000D02*
D03*
X3450D02*
D03*
X5100Y29275D02*
D03*
X3500D02*
D03*
X17675Y26300D02*
D03*
X19275D02*
D03*
X17625Y22475D02*
D03*
X19225D02*
D03*
X17675Y18751D02*
D03*
X19275D02*
D03*
X78625Y24000D02*
D03*
X77025D02*
D03*
X74950Y33825D02*
D03*
X73350D02*
D03*
X77075Y27525D02*
D03*
X75475D02*
D03*
X74100Y36525D02*
D03*
X72500D02*
D03*
X76600Y30400D02*
D03*
X75000D02*
D03*
X58900Y39500D02*
D03*
X60500D02*
D03*
X55875Y38500D02*
D03*
X57475D02*
D03*
X65900Y41500D02*
D03*
X67500D02*
D03*
X73350Y32550D02*
D03*
X71750D02*
D03*
X55600Y37000D02*
D03*
X54000D02*
D03*
X53275Y40850D02*
D03*
X54875D02*
D03*
X53900Y34500D02*
D03*
X55500D02*
D03*
X77100Y37525D02*
D03*
X75500D02*
D03*
X78700Y34000D02*
D03*
X77100D02*
D03*
X59900Y36525D02*
D03*
X61500D02*
D03*
X55700Y29500D02*
D03*
X57300D02*
D03*
X58125Y26575D02*
D03*
X56525D02*
D03*
X55700Y25325D02*
D03*
X57300D02*
D03*
X53500Y23950D02*
D03*
X55100D02*
D03*
X53200Y27000D02*
D03*
X54800D02*
D03*
X53225Y28300D02*
D03*
X54825D02*
D03*
X52300Y30025D02*
D03*
X53900D02*
D03*
X69300Y31125D02*
D03*
X67700D02*
D03*
X72225Y29800D02*
D03*
X70625D02*
D03*
X61700Y28500D02*
D03*
X63300D02*
D03*
X72225Y28475D02*
D03*
X70625D02*
D03*
X58700Y32500D02*
D03*
X60300D02*
D03*
X71500Y34525D02*
D03*
X69900D02*
D03*
D15*
X115000Y67450D02*
D03*
Y69050D02*
D03*
X116900Y69125D02*
D03*
Y67525D02*
D03*
X118750Y69150D02*
D03*
Y67550D02*
D03*
X122475Y69075D02*
D03*
Y67475D02*
D03*
X121575Y46975D02*
D03*
Y45375D02*
D03*
X120125Y45350D02*
D03*
Y46950D02*
D03*
X117625Y45275D02*
D03*
Y46875D02*
D03*
X9575Y18375D02*
D03*
Y16775D02*
D03*
X14625Y18450D02*
D03*
Y16850D02*
D03*
X63100Y34300D02*
D03*
Y32700D02*
D03*
X61575Y34100D02*
D03*
Y32500D02*
D03*
X68575Y34275D02*
D03*
Y32675D02*
D03*
X64350Y34850D02*
D03*
Y33250D02*
D03*
X60475Y28300D02*
D03*
Y26700D02*
D03*
X68550Y28375D02*
D03*
Y26775D02*
D03*
X62500Y31300D02*
D03*
Y29700D02*
D03*
X66550Y30050D02*
D03*
Y28450D02*
D03*
X60525Y31200D02*
D03*
Y29600D02*
D03*
X65800Y33300D02*
D03*
Y31700D02*
D03*
X55175Y32300D02*
D03*
Y30700D02*
D03*
X56500Y32300D02*
D03*
Y30700D02*
D03*
X59275Y30275D02*
D03*
Y28675D02*
D03*
X65525Y39350D02*
D03*
Y37750D02*
D03*
X56475Y43100D02*
D03*
Y41500D02*
D03*
X58275Y36925D02*
D03*
Y35325D02*
D03*
X59550Y35350D02*
D03*
Y33750D02*
D03*
X68500Y40125D02*
D03*
Y38525D02*
D03*
X60000Y44550D02*
D03*
Y42950D02*
D03*
X69500Y37375D02*
D03*
Y35775D02*
D03*
X67325Y35850D02*
D03*
Y34250D02*
D03*
X73200Y20900D02*
D03*
Y22500D02*
D03*
X72525Y23825D02*
D03*
Y25425D02*
D03*
X70000Y41425D02*
D03*
Y43025D02*
D03*
X61900Y19850D02*
D03*
Y21450D02*
D03*
X63250Y20750D02*
D03*
Y22350D02*
D03*
X68500Y19875D02*
D03*
Y21475D02*
D03*
X67025Y18375D02*
D03*
Y19975D02*
D03*
X66575Y21750D02*
D03*
Y23350D02*
D03*
X60250Y19850D02*
D03*
Y21450D02*
D03*
X70525Y19900D02*
D03*
Y21500D02*
D03*
X59300Y24700D02*
D03*
Y26300D02*
D03*
X56500Y21700D02*
D03*
Y23300D02*
D03*
X64375Y30350D02*
D03*
Y31950D02*
D03*
X68600Y23400D02*
D03*
Y25000D02*
D03*
X67300Y24775D02*
D03*
Y26375D02*
D03*
D16*
X6825Y16775D02*
D03*
Y18375D02*
D03*
X10950D02*
D03*
Y16775D02*
D03*
X12675Y16875D02*
D03*
Y18475D02*
D03*
X16125Y16825D02*
D03*
Y15225D02*
D03*
X9500Y29425D02*
D03*
Y31025D02*
D03*
D20*
X122875Y39425D02*
D03*
X124475D02*
D03*
X3450Y21850D02*
D03*
X5050D02*
D03*
X5000Y23200D02*
D03*
X3400D02*
D03*
X3450Y27375D02*
D03*
X5050D02*
D03*
X3500Y31000D02*
D03*
X5100D02*
D03*
X17650Y24425D02*
D03*
X19250D02*
D03*
X19200Y20500D02*
D03*
X17600D02*
D03*
X19275Y16875D02*
D03*
X17675D02*
D03*
X17675Y27875D02*
D03*
X19275D02*
D03*
X11800Y15050D02*
D03*
X10200D02*
D03*
D21*
X112800Y69100D02*
D03*
Y67300D02*
D03*
X120650Y67450D02*
D03*
Y69250D02*
D03*
X7250Y31050D02*
D03*
Y29250D02*
D03*
X-1400Y25825D02*
D03*
Y24025D02*
D03*
D25*
X109675Y56025D02*
D03*
X107875D02*
D03*
X124125Y64550D02*
D03*
X125925D02*
D03*
D28*
X8200Y16825D02*
D03*
Y18325D02*
D03*
D35*
X152497Y710D02*
D03*
Y12140D02*
D03*
X152498Y24300D02*
D03*
Y35730D02*
D03*
X152522Y48335D02*
D03*
Y59765D02*
D03*
X152620Y95785D02*
D03*
Y107215D02*
D03*
X152600Y72040D02*
D03*
Y83470D02*
D03*
D39*
X124600Y42300D02*
D03*
X123000D02*
D03*
X124275Y74450D02*
D03*
X122675D02*
D03*
X124250Y76275D02*
D03*
X122650D02*
D03*
X132025Y84400D02*
D03*
X130425D02*
D03*
X132025Y82525D02*
D03*
X130425D02*
D03*
D44*
X88975Y32000D02*
D03*
Y22000D02*
D03*
X95425Y62600D02*
D03*
Y52600D02*
D03*
D49*
X65050Y124450D02*
Y123450D01*
X65550D01*
X65716Y123617D01*
Y123783D01*
X65550Y123950D01*
X65050D01*
X65550D01*
X65716Y124116D01*
Y124283D01*
X65550Y124450D01*
X65050D01*
X66549D02*
X66216D01*
X66050Y124283D01*
Y123617D01*
X66216Y123450D01*
X66549D01*
X66716Y123617D01*
Y124283D01*
X66549Y124450D01*
X67049Y123450D02*
Y124116D01*
X67382Y124450D01*
X67716Y124116D01*
Y123450D01*
Y123950D01*
X67049D01*
X68049Y123450D02*
Y124450D01*
X68549D01*
X68715Y124283D01*
Y123950D01*
X68549Y123783D01*
X68049D01*
X68382D02*
X68715Y123450D01*
X69049Y124450D02*
Y123450D01*
X69548D01*
X69715Y123617D01*
Y124283D01*
X69548Y124450D01*
X69049D01*
X71548D02*
X71215D01*
X71048Y124283D01*
Y123617D01*
X71215Y123450D01*
X71548D01*
X71714Y123617D01*
Y124283D01*
X71548Y124450D01*
X72048D02*
Y123617D01*
X72214Y123450D01*
X72547D01*
X72714Y123617D01*
Y124450D01*
X73047D02*
X73714D01*
X73380D01*
Y123450D01*
X74047Y124450D02*
Y123450D01*
X74713D01*
X75047Y124450D02*
X75380D01*
X75213D01*
Y123450D01*
X75047D01*
X75380D01*
X75880D02*
Y124450D01*
X76546Y123450D01*
Y124450D01*
X77546D02*
X76879D01*
Y123450D01*
X77546D01*
X76879Y123950D02*
X77213D01*
D54*
X73500Y39500D02*
X73500Y39500D01*
D57*
X146147Y1980D02*
D03*
X143607Y3250D02*
D03*
X146147Y4520D02*
D03*
Y7060D02*
D03*
Y9600D02*
D03*
X143607Y10870D02*
D03*
Y8330D02*
D03*
Y5790D02*
D03*
X146148Y25570D02*
D03*
X143608Y26840D02*
D03*
X146148Y28110D02*
D03*
X143608Y29380D02*
D03*
X146148Y30650D02*
D03*
X143608Y31920D02*
D03*
X146148Y33190D02*
D03*
X143608Y34460D02*
D03*
X146172Y49605D02*
D03*
X143632Y50875D02*
D03*
X146172Y52145D02*
D03*
X143632Y53415D02*
D03*
X146172Y54685D02*
D03*
X143632Y55955D02*
D03*
X146172Y57225D02*
D03*
X143632Y58495D02*
D03*
X146270Y97055D02*
D03*
X143730Y98325D02*
D03*
X146270Y99595D02*
D03*
Y102135D02*
D03*
Y104675D02*
D03*
X143730Y105945D02*
D03*
Y103405D02*
D03*
Y100865D02*
D03*
X146250Y73310D02*
D03*
X143710Y74580D02*
D03*
X146250Y75850D02*
D03*
X143710Y77120D02*
D03*
X146250Y78390D02*
D03*
X143710Y79660D02*
D03*
X146250Y80930D02*
D03*
X143710Y82200D02*
D03*
X93600Y99540D02*
D03*
Y97000D02*
D03*
D58*
X149449Y-1322D02*
D03*
Y14172D02*
D03*
X149450Y22268D02*
D03*
Y37762D02*
D03*
X149474Y46303D02*
D03*
Y61797D02*
D03*
X149572Y93753D02*
D03*
Y109247D02*
D03*
X149552Y70008D02*
D03*
Y85502D02*
D03*
X119385Y118590D02*
D03*
Y113510D02*
D03*
X124465D02*
D03*
Y118590D02*
D03*
X93085Y118715D02*
D03*
Y113635D02*
D03*
X98165D02*
D03*
Y118715D02*
D03*
D59*
X157399Y101D02*
D03*
X155875Y2641D02*
D03*
Y12750D02*
D03*
X157399Y10210D02*
D03*
X157400Y23691D02*
D03*
X155876Y26231D02*
D03*
Y36340D02*
D03*
X157400Y33800D02*
D03*
X157424Y47726D02*
D03*
X155900Y50266D02*
D03*
Y60375D02*
D03*
X157424Y57835D02*
D03*
X157522Y95175D02*
D03*
X155998Y97715D02*
D03*
Y107825D02*
D03*
X157522Y105285D02*
D03*
X157502Y71430D02*
D03*
X155978Y73970D02*
D03*
Y84080D02*
D03*
X157502Y81540D02*
D03*
D60*
X121925Y116050D02*
D03*
X95625Y116175D02*
D03*
D61*
X30816Y2666D02*
D03*
X12340D02*
D03*
X74020Y47886D02*
D03*
X55544D02*
D03*
X30816D02*
D03*
X12340D02*
D03*
X74020Y2666D02*
D03*
X55544D02*
D03*
D62*
X-5425Y26956D02*
D03*
Y22994D02*
D03*
D63*
X-6650Y116650D02*
D03*
X-6600Y-6600D02*
D03*
X160175Y-6700D02*
D03*
Y116675D02*
D03*
X3175Y3175D02*
D03*
Y51435D02*
D03*
X83185D02*
D03*
Y3175D02*
D03*
D79*
X140400Y99325D02*
D03*
Y103225D02*
D03*
X140100Y79425D02*
D03*
X140050Y75625D02*
D03*
X140200Y55725D02*
D03*
X140225Y52075D02*
D03*
X139975Y31850D02*
D03*
X140025Y28075D02*
D03*
Y8275D02*
D03*
Y4500D02*
D03*
D80*
X142100Y99325D02*
D03*
Y97025D02*
D03*
X140200D02*
D03*
X142100Y103225D02*
D03*
Y100925D02*
D03*
X140200D02*
D03*
X141800Y79425D02*
D03*
Y77125D02*
D03*
X139900D02*
D03*
X141750Y75625D02*
D03*
Y73325D02*
D03*
X139850D02*
D03*
X141900Y55725D02*
D03*
Y53425D02*
D03*
X140000D02*
D03*
X141925Y52075D02*
D03*
Y49775D02*
D03*
X140025D02*
D03*
X141675Y31850D02*
D03*
Y29550D02*
D03*
X139775D02*
D03*
X141725Y28075D02*
D03*
Y25775D02*
D03*
X139825D02*
D03*
X141725Y8275D02*
D03*
Y5975D02*
D03*
X139825D02*
D03*
X141725Y4500D02*
D03*
Y2200D02*
D03*
X139825D02*
D03*
D81*
X71000Y35875D02*
D03*
Y37675D02*
D03*
X51700Y36350D02*
D03*
Y34550D02*
D03*
X56650Y20000D02*
D03*
Y18200D02*
D03*
X41450Y27175D02*
D03*
Y25375D02*
D03*
X51200Y24800D02*
D03*
Y23000D02*
D03*
D82*
X28328Y1612D02*
D03*
X28828D02*
D03*
X22328D02*
D03*
X22828D02*
D03*
X27328D02*
D03*
X27828D02*
D03*
X28828Y7784D02*
D03*
X28328D02*
D03*
X27828D02*
D03*
X27328D02*
D03*
X26828D02*
D03*
Y1612D02*
D03*
X26328Y7784D02*
D03*
Y1612D02*
D03*
X25828Y7784D02*
D03*
Y1612D02*
D03*
X25328Y7784D02*
D03*
Y1612D02*
D03*
X24828Y7784D02*
D03*
Y1612D02*
D03*
X24328Y7784D02*
D03*
Y1612D02*
D03*
X23828Y7784D02*
D03*
Y1612D02*
D03*
X23328Y7784D02*
D03*
Y1612D02*
D03*
X22828Y7784D02*
D03*
X22328D02*
D03*
X21828D02*
D03*
Y1612D02*
D03*
X21328Y7784D02*
D03*
Y1612D02*
D03*
X20828Y7784D02*
D03*
Y1612D02*
D03*
X20328Y7784D02*
D03*
Y1612D02*
D03*
X19828Y7784D02*
D03*
Y1612D02*
D03*
X19328Y7784D02*
D03*
Y1612D02*
D03*
X18828Y7784D02*
D03*
Y1612D02*
D03*
X18328Y7784D02*
D03*
Y1612D02*
D03*
X17828Y7784D02*
D03*
Y1612D02*
D03*
X17328Y7784D02*
D03*
Y1612D02*
D03*
X16828Y7784D02*
D03*
Y1612D02*
D03*
X16328Y7784D02*
D03*
Y1612D02*
D03*
X15828Y7784D02*
D03*
Y1612D02*
D03*
X14828Y7784D02*
D03*
Y1612D02*
D03*
X14328Y7784D02*
D03*
Y1612D02*
D03*
X15328Y7784D02*
D03*
Y1612D02*
D03*
X71532Y46832D02*
D03*
X72032D02*
D03*
X65532D02*
D03*
X66032D02*
D03*
X70532D02*
D03*
X71032D02*
D03*
X72032Y53004D02*
D03*
X71532D02*
D03*
X71032D02*
D03*
X70532D02*
D03*
X70032D02*
D03*
Y46832D02*
D03*
X69532Y53004D02*
D03*
Y46832D02*
D03*
X69032Y53004D02*
D03*
Y46832D02*
D03*
X68532Y53004D02*
D03*
Y46832D02*
D03*
X68032Y53004D02*
D03*
Y46832D02*
D03*
X67532Y53004D02*
D03*
Y46832D02*
D03*
X67032Y53004D02*
D03*
Y46832D02*
D03*
X66532Y53004D02*
D03*
Y46832D02*
D03*
X66032Y53004D02*
D03*
X65532D02*
D03*
X65032D02*
D03*
Y46832D02*
D03*
X64532Y53004D02*
D03*
Y46832D02*
D03*
X64032Y53004D02*
D03*
Y46832D02*
D03*
X63532Y53004D02*
D03*
Y46832D02*
D03*
X63032Y53004D02*
D03*
Y46832D02*
D03*
X62532Y53004D02*
D03*
Y46832D02*
D03*
X62032Y53004D02*
D03*
Y46832D02*
D03*
X61532Y53004D02*
D03*
Y46832D02*
D03*
X61032Y53004D02*
D03*
Y46832D02*
D03*
X60532Y53004D02*
D03*
Y46832D02*
D03*
X60032Y53004D02*
D03*
Y46832D02*
D03*
X59532Y53004D02*
D03*
Y46832D02*
D03*
X59032Y53004D02*
D03*
Y46832D02*
D03*
X58032Y53004D02*
D03*
Y46832D02*
D03*
X57532Y53004D02*
D03*
Y46832D02*
D03*
X58532Y53004D02*
D03*
Y46832D02*
D03*
X28328D02*
D03*
X28828D02*
D03*
X22328D02*
D03*
X22828D02*
D03*
X27328D02*
D03*
X27828D02*
D03*
X28828Y53004D02*
D03*
X28328D02*
D03*
X27828D02*
D03*
X27328D02*
D03*
X26828D02*
D03*
Y46832D02*
D03*
X26328Y53004D02*
D03*
Y46832D02*
D03*
X25828Y53004D02*
D03*
Y46832D02*
D03*
X25328Y53004D02*
D03*
Y46832D02*
D03*
X24828Y53004D02*
D03*
Y46832D02*
D03*
X24328Y53004D02*
D03*
Y46832D02*
D03*
X23828Y53004D02*
D03*
Y46832D02*
D03*
X23328Y53004D02*
D03*
Y46832D02*
D03*
X22828Y53004D02*
D03*
X22328D02*
D03*
X21828D02*
D03*
Y46832D02*
D03*
X21328Y53004D02*
D03*
Y46832D02*
D03*
X20828Y53004D02*
D03*
Y46832D02*
D03*
X20328Y53004D02*
D03*
Y46832D02*
D03*
X19828Y53004D02*
D03*
Y46832D02*
D03*
X19328Y53004D02*
D03*
Y46832D02*
D03*
X18828Y53004D02*
D03*
Y46832D02*
D03*
X18328Y53004D02*
D03*
Y46832D02*
D03*
X17828Y53004D02*
D03*
Y46832D02*
D03*
X17328Y53004D02*
D03*
Y46832D02*
D03*
X16828Y53004D02*
D03*
Y46832D02*
D03*
X16328Y53004D02*
D03*
Y46832D02*
D03*
X15828Y53004D02*
D03*
Y46832D02*
D03*
X14828Y53004D02*
D03*
Y46832D02*
D03*
X14328Y53004D02*
D03*
Y46832D02*
D03*
X15328Y53004D02*
D03*
Y46832D02*
D03*
X71532Y1612D02*
D03*
X72032D02*
D03*
X65532D02*
D03*
X66032D02*
D03*
X70532D02*
D03*
X71032D02*
D03*
X72032Y7784D02*
D03*
X71532D02*
D03*
X71032D02*
D03*
X70532D02*
D03*
X70032D02*
D03*
Y1612D02*
D03*
X69532Y7784D02*
D03*
Y1612D02*
D03*
X69032Y7784D02*
D03*
Y1612D02*
D03*
X68532Y7784D02*
D03*
Y1612D02*
D03*
X68032Y7784D02*
D03*
Y1612D02*
D03*
X67532Y7784D02*
D03*
Y1612D02*
D03*
X67032Y7784D02*
D03*
Y1612D02*
D03*
X66532Y7784D02*
D03*
Y1612D02*
D03*
X66032Y7784D02*
D03*
X65532D02*
D03*
X65032D02*
D03*
Y1612D02*
D03*
X64532Y7784D02*
D03*
Y1612D02*
D03*
X64032Y7784D02*
D03*
Y1612D02*
D03*
X63532Y7784D02*
D03*
Y1612D02*
D03*
X63032Y7784D02*
D03*
Y1612D02*
D03*
X62532Y7784D02*
D03*
Y1612D02*
D03*
X62032Y7784D02*
D03*
Y1612D02*
D03*
X61532Y7784D02*
D03*
Y1612D02*
D03*
X61032Y7784D02*
D03*
Y1612D02*
D03*
X60532Y7784D02*
D03*
Y1612D02*
D03*
X60032Y7784D02*
D03*
Y1612D02*
D03*
X59532Y7784D02*
D03*
Y1612D02*
D03*
X59032Y7784D02*
D03*
Y1612D02*
D03*
X58032Y7784D02*
D03*
Y1612D02*
D03*
X57532Y7784D02*
D03*
Y1612D02*
D03*
X58532Y7784D02*
D03*
Y1612D02*
D03*
D83*
X75575Y25900D02*
D03*
X77375D02*
D03*
X54375Y38950D02*
D03*
X52575D02*
D03*
X75625Y35650D02*
D03*
X77425D02*
D03*
D84*
X70750Y23550D02*
D03*
Y26550D02*
D03*
X64950Y19875D02*
D03*
Y22875D02*
D03*
X74900Y21150D02*
D03*
Y24150D02*
D03*
D85*
X62475Y24950D02*
D03*
X65475D02*
D03*
M02*
