G04 Layer_Color=32896*
%FSLAX43Y43*%
%MOMM*%
G71*
G01*
G75*
%ADD10C,0.100*%
%ADD49C,0.200*%
%ADD54C,0.300*%
%ADD77C,0.254*%
D10*
X144057Y5790D02*
G03*
X144057Y5790I-450J0D01*
G01*
Y8330D02*
G03*
X144057Y8330I-450J0D01*
G01*
Y10870D02*
G03*
X144057Y10870I-450J0D01*
G01*
X146597Y9600D02*
G03*
X146597Y9600I-450J0D01*
G01*
Y7060D02*
G03*
X146597Y7060I-450J0D01*
G01*
Y4520D02*
G03*
X146597Y4520I-450J0D01*
G01*
Y1980D02*
G03*
X146597Y1980I-450J0D01*
G01*
X144057Y3250D02*
G03*
X144057Y3250I-450J0D01*
G01*
X156375Y12750D02*
G03*
X156375Y12750I-500J0D01*
G01*
X157899Y10210D02*
G03*
X157899Y10210I-500J0D01*
G01*
X156375Y2641D02*
G03*
X156375Y2641I-500J0D01*
G01*
X157899Y101D02*
G03*
X157899Y101I-500J0D01*
G01*
X154097Y12140D02*
G03*
X154097Y12140I-1600J0D01*
G01*
Y710D02*
G03*
X154097Y710I-1600J0D01*
G01*
X150249Y14172D02*
G03*
X150249Y14172I-800J0D01*
G01*
Y-1322D02*
G03*
X150249Y-1322I-800J0D01*
G01*
X144058Y29380D02*
G03*
X144058Y29380I-450J0D01*
G01*
Y31920D02*
G03*
X144058Y31920I-450J0D01*
G01*
Y34460D02*
G03*
X144058Y34460I-450J0D01*
G01*
X146598Y33190D02*
G03*
X146598Y33190I-450J0D01*
G01*
Y30650D02*
G03*
X146598Y30650I-450J0D01*
G01*
Y28110D02*
G03*
X146598Y28110I-450J0D01*
G01*
Y25570D02*
G03*
X146598Y25570I-450J0D01*
G01*
X144058Y26840D02*
G03*
X144058Y26840I-450J0D01*
G01*
X156376Y36340D02*
G03*
X156376Y36340I-500J0D01*
G01*
X157900Y33800D02*
G03*
X157900Y33800I-500J0D01*
G01*
X156376Y26231D02*
G03*
X156376Y26231I-500J0D01*
G01*
X157900Y23691D02*
G03*
X157900Y23691I-500J0D01*
G01*
X154098Y35730D02*
G03*
X154098Y35730I-1600J0D01*
G01*
Y24300D02*
G03*
X154098Y24300I-1600J0D01*
G01*
X150250Y37762D02*
G03*
X150250Y37762I-800J0D01*
G01*
Y22268D02*
G03*
X150250Y22268I-800J0D01*
G01*
X144082Y53415D02*
G03*
X144082Y53415I-450J0D01*
G01*
Y55955D02*
G03*
X144082Y55955I-450J0D01*
G01*
Y58495D02*
G03*
X144082Y58495I-450J0D01*
G01*
X146622Y57225D02*
G03*
X146622Y57225I-450J0D01*
G01*
Y54685D02*
G03*
X146622Y54685I-450J0D01*
G01*
Y52145D02*
G03*
X146622Y52145I-450J0D01*
G01*
Y49605D02*
G03*
X146622Y49605I-450J0D01*
G01*
X144082Y50875D02*
G03*
X144082Y50875I-450J0D01*
G01*
X156400Y60375D02*
G03*
X156400Y60375I-500J0D01*
G01*
X157924Y57835D02*
G03*
X157924Y57835I-500J0D01*
G01*
X156400Y50266D02*
G03*
X156400Y50266I-500J0D01*
G01*
X157924Y47726D02*
G03*
X157924Y47726I-500J0D01*
G01*
X154122Y59765D02*
G03*
X154122Y59765I-1600J0D01*
G01*
Y48335D02*
G03*
X154122Y48335I-1600J0D01*
G01*
X150274Y61797D02*
G03*
X150274Y61797I-800J0D01*
G01*
Y46303D02*
G03*
X150274Y46303I-800J0D01*
G01*
X144180Y100865D02*
G03*
X144180Y100865I-450J0D01*
G01*
Y103405D02*
G03*
X144180Y103405I-450J0D01*
G01*
Y105945D02*
G03*
X144180Y105945I-450J0D01*
G01*
X146720Y104675D02*
G03*
X146720Y104675I-450J0D01*
G01*
Y102135D02*
G03*
X146720Y102135I-450J0D01*
G01*
Y99595D02*
G03*
X146720Y99595I-450J0D01*
G01*
Y97055D02*
G03*
X146720Y97055I-450J0D01*
G01*
X144180Y98325D02*
G03*
X144180Y98325I-450J0D01*
G01*
X156498Y107825D02*
G03*
X156498Y107825I-500J0D01*
G01*
X158022Y105285D02*
G03*
X158022Y105285I-500J0D01*
G01*
X156498Y97715D02*
G03*
X156498Y97715I-500J0D01*
G01*
X158022Y95175D02*
G03*
X158022Y95175I-500J0D01*
G01*
X154220Y107215D02*
G03*
X154220Y107215I-1600J0D01*
G01*
Y95785D02*
G03*
X154220Y95785I-1600J0D01*
G01*
X150372Y109247D02*
G03*
X150372Y109247I-800J0D01*
G01*
Y93753D02*
G03*
X150372Y93753I-800J0D01*
G01*
X144160Y77120D02*
G03*
X144160Y77120I-450J0D01*
G01*
Y79660D02*
G03*
X144160Y79660I-450J0D01*
G01*
Y82200D02*
G03*
X144160Y82200I-450J0D01*
G01*
X146700Y80930D02*
G03*
X146700Y80930I-450J0D01*
G01*
Y78390D02*
G03*
X146700Y78390I-450J0D01*
G01*
Y75850D02*
G03*
X146700Y75850I-450J0D01*
G01*
Y73310D02*
G03*
X146700Y73310I-450J0D01*
G01*
X144160Y74580D02*
G03*
X144160Y74580I-450J0D01*
G01*
X156478Y84080D02*
G03*
X156478Y84080I-500J0D01*
G01*
X158002Y81540D02*
G03*
X158002Y81540I-500J0D01*
G01*
X156478Y73970D02*
G03*
X156478Y73970I-500J0D01*
G01*
X158002Y71430D02*
G03*
X158002Y71430I-500J0D01*
G01*
X154200Y83470D02*
G03*
X154200Y83470I-1600J0D01*
G01*
Y72040D02*
G03*
X154200Y72040I-1600J0D01*
G01*
X150352Y85502D02*
G03*
X150352Y85502I-800J0D01*
G01*
Y70008D02*
G03*
X150352Y70008I-800J0D01*
G01*
X111850Y66500D02*
X113750D01*
Y69900D01*
X111850Y66500D02*
Y69900D01*
X113750D01*
X114250Y69800D02*
X115750D01*
X114250Y66700D02*
X115750D01*
X114250D02*
Y69800D01*
X115750Y66700D02*
Y69800D01*
X116150Y66775D02*
X117650D01*
X116150Y69875D02*
X117650D01*
Y66775D02*
Y69875D01*
X116150Y66775D02*
Y69875D01*
X118000Y66800D02*
X119500D01*
X118000Y69900D02*
X119500D01*
Y66800D02*
Y69900D01*
X118000Y66800D02*
Y69900D01*
X119700Y70050D02*
X121600D01*
X119700Y66650D02*
Y70050D01*
X121600Y66650D02*
Y70050D01*
X119700Y66650D02*
X121600D01*
X121725Y66725D02*
X123225D01*
X121725Y69825D02*
X123225D01*
Y66725D02*
Y69825D01*
X121725Y66725D02*
Y69825D01*
X120825Y44625D02*
X122325D01*
X120825Y47725D02*
X122325D01*
Y44625D02*
Y47725D01*
X120825Y44625D02*
Y47725D01*
X119375Y47700D02*
X120875D01*
X119375Y44600D02*
X120875D01*
X119375D02*
Y47700D01*
X120875Y44600D02*
Y47700D01*
X116875Y47625D02*
X118375D01*
X116875Y44525D02*
X118375D01*
X116875D02*
Y47625D01*
X118375Y44525D02*
Y47625D01*
X110150Y48200D02*
Y49700D01*
X107050Y48200D02*
Y49700D01*
X110150D01*
X107050Y48200D02*
X110150D01*
X107150Y59725D02*
Y61225D01*
X110250Y59725D02*
Y61225D01*
X107150Y59725D02*
X110250D01*
X107150Y61225D02*
X110250D01*
X107075Y55075D02*
Y56975D01*
Y55075D02*
X110475D01*
X107075Y56975D02*
X110475D01*
Y55075D02*
Y56975D01*
X110225Y53250D02*
Y54750D01*
X107125Y53250D02*
Y54750D01*
X110225D01*
X107125Y53250D02*
X110225D01*
X123500Y65475D02*
Y66975D01*
X126600Y65475D02*
Y66975D01*
X123500Y65475D02*
X126600D01*
X123500Y66975D02*
X126600D01*
X126725Y63600D02*
Y65500D01*
X123325D02*
X126725D01*
X123325Y63600D02*
X126725D01*
X123325D02*
Y65500D01*
X126575Y62025D02*
Y63525D01*
X123475Y62025D02*
Y63525D01*
X126575D01*
X123475Y62025D02*
X126575D01*
X123425Y58950D02*
Y60450D01*
X126525Y58950D02*
Y60450D01*
X123425Y58950D02*
X126525D01*
X123425Y60450D02*
X126525D01*
X123425Y56000D02*
Y57500D01*
X126525Y56000D02*
Y57500D01*
X123425Y56000D02*
X126525D01*
X123425Y57500D02*
X126525D01*
Y54250D02*
Y55750D01*
X123425Y54250D02*
Y55750D01*
X126525D01*
X123425Y54250D02*
X126525D01*
X123425Y51275D02*
Y52775D01*
X126525Y51275D02*
Y52775D01*
X123425Y51275D02*
X126525D01*
X123425Y52775D02*
X126525D01*
X126850Y48175D02*
Y49675D01*
X123750Y48175D02*
Y49675D01*
X126850D01*
X123750Y48175D02*
X126850D01*
X7450Y16075D02*
Y19075D01*
X8950D01*
Y16075D02*
Y19075D01*
X7450Y16075D02*
X8950D01*
X8825Y16025D02*
X10325D01*
X8825Y19125D02*
X10325D01*
Y16025D02*
Y19125D01*
X8825Y16025D02*
Y19125D01*
X13875Y16100D02*
X15375D01*
X13875Y19200D02*
X15375D01*
Y16100D02*
Y19200D01*
X13875Y16100D02*
Y19200D01*
X2725Y23850D02*
Y25350D01*
X5825Y23850D02*
Y25350D01*
X2725Y23850D02*
X5825D01*
X2725Y25350D02*
X5825D01*
X2700Y25250D02*
Y26750D01*
X5800Y25250D02*
Y26750D01*
X2700Y25250D02*
X5800D01*
X2700Y26750D02*
X5800D01*
X2750Y28525D02*
Y30025D01*
X5850Y28525D02*
Y30025D01*
X2750Y28525D02*
X5850D01*
X2750Y30025D02*
X5850D01*
X6300Y28450D02*
X8200D01*
Y31850D01*
X6300Y28450D02*
Y31850D01*
X8200D01*
X20025Y25550D02*
Y27050D01*
X16925Y25550D02*
Y27050D01*
X20025D01*
X16925Y25550D02*
X20025D01*
X19975Y21725D02*
Y23225D01*
X16875Y21725D02*
Y23225D01*
X19975D01*
X16875Y21725D02*
X19975D01*
X20025Y18001D02*
Y19501D01*
X16925Y18001D02*
Y19501D01*
X20025D01*
X16925Y18001D02*
X20025D01*
X157399Y10210D02*
X157899D01*
X157399D02*
Y10710D01*
X156899Y10210D02*
X157399D01*
Y9710D02*
Y10210D01*
X155875Y12750D02*
X156375D01*
X155875D02*
Y13250D01*
X155375Y12750D02*
X155875D01*
Y12250D02*
Y12750D01*
X157399Y101D02*
X157899D01*
X157399D02*
Y601D01*
X156899Y101D02*
X157399D01*
Y-399D02*
Y101D01*
X155875Y2641D02*
X156375D01*
X155875D02*
Y3141D01*
X155375Y2641D02*
X155875D01*
Y2141D02*
Y2641D01*
X159406Y-2775D02*
Y15625D01*
X149449Y-1322D02*
X149949D01*
X149449D02*
Y-822D01*
X148949Y-1322D02*
X149449D01*
Y-1822D02*
Y-1322D01*
Y14172D02*
X149949D01*
X149449D02*
Y14672D01*
X148949Y14172D02*
X149449D01*
Y13672D02*
Y14172D01*
X152497Y12140D02*
X152997D01*
X152497D02*
Y12640D01*
X151997Y12140D02*
X152497D01*
Y11640D02*
Y12140D01*
Y710D02*
X152997D01*
X152497D02*
Y1210D01*
X151997Y710D02*
X152497D01*
Y210D02*
Y710D01*
X146147Y9600D02*
X146647D01*
X146147D02*
Y10100D01*
X145647Y9600D02*
X146147D01*
Y9100D02*
Y9600D01*
Y7060D02*
X146647D01*
X146147D02*
Y7560D01*
X145647Y7060D02*
X146147D01*
Y6560D02*
Y7060D01*
Y4520D02*
X146647D01*
X146147D02*
Y5020D01*
X145647Y4520D02*
X146147D01*
Y4020D02*
Y4520D01*
Y1980D02*
X146647D01*
X146147D02*
Y2480D01*
X145647Y1980D02*
X146147D01*
Y1480D02*
Y1980D01*
X143607Y10870D02*
X144107D01*
X143607D02*
Y11370D01*
X143107Y10870D02*
X143607D01*
Y10370D02*
Y10870D01*
Y8330D02*
X144107D01*
X143607D02*
Y8830D01*
X143107Y8330D02*
X143607D01*
Y7830D02*
Y8330D01*
Y5790D02*
X144107D01*
X143607D02*
Y6290D01*
X143107Y5790D02*
X143607D01*
Y5290D02*
Y5790D01*
Y3250D02*
X144107D01*
X143607D02*
Y3750D01*
X143107Y3250D02*
X143607D01*
Y2750D02*
Y3250D01*
X144877Y6425D02*
X145377D01*
X144877D02*
Y6925D01*
X144377Y6425D02*
X144877D01*
Y5925D02*
Y6425D01*
X157400Y33800D02*
X157900D01*
X157400D02*
Y34300D01*
X156900Y33800D02*
X157400D01*
Y33300D02*
Y33800D01*
X155876Y36340D02*
X156376D01*
X155876D02*
Y36840D01*
X155376Y36340D02*
X155876D01*
Y35840D02*
Y36340D01*
X157400Y23691D02*
X157900D01*
X157400D02*
Y24191D01*
X156900Y23691D02*
X157400D01*
Y23191D02*
Y23691D01*
X155876Y26231D02*
X156376D01*
X155876D02*
Y26731D01*
X155376Y26231D02*
X155876D01*
Y25731D02*
Y26231D01*
X159407Y20815D02*
Y39215D01*
X149450Y22268D02*
X149950D01*
X149450D02*
Y22768D01*
X148950Y22268D02*
X149450D01*
Y21768D02*
Y22268D01*
Y37762D02*
X149950D01*
X149450D02*
Y38262D01*
X148950Y37762D02*
X149450D01*
Y37262D02*
Y37762D01*
X152498Y35730D02*
X152998D01*
X152498D02*
Y36230D01*
X151998Y35730D02*
X152498D01*
Y35230D02*
Y35730D01*
Y24300D02*
X152998D01*
X152498D02*
Y24800D01*
X151998Y24300D02*
X152498D01*
Y23800D02*
Y24300D01*
X146148Y33190D02*
X146648D01*
X146148D02*
Y33690D01*
X145648Y33190D02*
X146148D01*
Y32690D02*
Y33190D01*
Y30650D02*
X146648D01*
X146148D02*
Y31150D01*
X145648Y30650D02*
X146148D01*
Y30150D02*
Y30650D01*
Y28110D02*
X146648D01*
X146148D02*
Y28610D01*
X145648Y28110D02*
X146148D01*
Y27610D02*
Y28110D01*
Y25570D02*
X146648D01*
X146148D02*
Y26070D01*
X145648Y25570D02*
X146148D01*
Y25070D02*
Y25570D01*
X143608Y34460D02*
X144108D01*
X143608D02*
Y34960D01*
X143108Y34460D02*
X143608D01*
Y33960D02*
Y34460D01*
Y31920D02*
X144108D01*
X143608D02*
Y32420D01*
X143108Y31920D02*
X143608D01*
Y31420D02*
Y31920D01*
Y29380D02*
X144108D01*
X143608D02*
Y29880D01*
X143108Y29380D02*
X143608D01*
Y28880D02*
Y29380D01*
Y26840D02*
X144108D01*
X143608D02*
Y27340D01*
X143108Y26840D02*
X143608D01*
Y26340D02*
Y26840D01*
X144878Y30015D02*
X145378D01*
X144878D02*
Y30515D01*
X144378Y30015D02*
X144878D01*
Y29515D02*
Y30015D01*
X157424Y57835D02*
X157924D01*
X157424D02*
Y58335D01*
X156924Y57835D02*
X157424D01*
Y57335D02*
Y57835D01*
X155900Y60375D02*
X156400D01*
X155900D02*
Y60875D01*
X155400Y60375D02*
X155900D01*
Y59875D02*
Y60375D01*
X157424Y47726D02*
X157924D01*
X157424D02*
Y48226D01*
X156924Y47726D02*
X157424D01*
Y47226D02*
Y47726D01*
X155900Y50266D02*
X156400D01*
X155900D02*
Y50766D01*
X155400Y50266D02*
X155900D01*
Y49766D02*
Y50266D01*
X159431Y44850D02*
Y63250D01*
X149474Y46303D02*
X149974D01*
X149474D02*
Y46803D01*
X148974Y46303D02*
X149474D01*
Y45803D02*
Y46303D01*
Y61797D02*
X149974D01*
X149474D02*
Y62297D01*
X148974Y61797D02*
X149474D01*
Y61297D02*
Y61797D01*
X152522Y59765D02*
X153022D01*
X152522D02*
Y60265D01*
X152022Y59765D02*
X152522D01*
Y59265D02*
Y59765D01*
Y48335D02*
X153022D01*
X152522D02*
Y48835D01*
X152022Y48335D02*
X152522D01*
Y47835D02*
Y48335D01*
X146172Y57225D02*
X146672D01*
X146172D02*
Y57725D01*
X145672Y57225D02*
X146172D01*
Y56725D02*
Y57225D01*
Y54685D02*
X146672D01*
X146172D02*
Y55185D01*
X145672Y54685D02*
X146172D01*
Y54185D02*
Y54685D01*
Y52145D02*
X146672D01*
X146172D02*
Y52645D01*
X145672Y52145D02*
X146172D01*
Y51645D02*
Y52145D01*
Y49605D02*
X146672D01*
X146172D02*
Y50105D01*
X145672Y49605D02*
X146172D01*
Y49105D02*
Y49605D01*
X143632Y58495D02*
X144132D01*
X143632D02*
Y58995D01*
X143132Y58495D02*
X143632D01*
Y57995D02*
Y58495D01*
Y55955D02*
X144132D01*
X143632D02*
Y56455D01*
X143132Y55955D02*
X143632D01*
Y55455D02*
Y55955D01*
Y53415D02*
X144132D01*
X143632D02*
Y53915D01*
X143132Y53415D02*
X143632D01*
Y52915D02*
Y53415D01*
Y50875D02*
X144132D01*
X143632D02*
Y51375D01*
X143132Y50875D02*
X143632D01*
Y50375D02*
Y50875D01*
X144902Y54050D02*
X145402D01*
X144902D02*
Y54550D01*
X144402Y54050D02*
X144902D01*
Y53550D02*
Y54050D01*
X157522Y105285D02*
X158022D01*
X157522D02*
Y105785D01*
X157022Y105285D02*
X157522D01*
Y104785D02*
Y105285D01*
X155998Y107825D02*
X156498D01*
X155998D02*
Y108325D01*
X155498Y107825D02*
X155998D01*
Y107325D02*
Y107825D01*
X157522Y95175D02*
X158022D01*
X157522D02*
Y95675D01*
X157022Y95175D02*
X157522D01*
Y94675D02*
Y95175D01*
X155998Y97715D02*
X156498D01*
X155998D02*
Y98215D01*
X155498Y97715D02*
X155998D01*
Y97215D02*
Y97715D01*
X159529Y92300D02*
Y110700D01*
X149572Y93753D02*
X150072D01*
X149572D02*
Y94253D01*
X149072Y93753D02*
X149572D01*
Y93253D02*
Y93753D01*
Y109247D02*
X150072D01*
X149572D02*
Y109747D01*
X149072Y109247D02*
X149572D01*
Y108747D02*
Y109247D01*
X152620Y107215D02*
X153120D01*
X152620D02*
Y107715D01*
X152120Y107215D02*
X152620D01*
Y106715D02*
Y107215D01*
Y95785D02*
X153120D01*
X152620D02*
Y96285D01*
X152120Y95785D02*
X152620D01*
Y95285D02*
Y95785D01*
X146270Y104675D02*
X146770D01*
X146270D02*
Y105175D01*
X145770Y104675D02*
X146270D01*
Y104175D02*
Y104675D01*
Y102135D02*
X146770D01*
X146270D02*
Y102635D01*
X145770Y102135D02*
X146270D01*
Y101635D02*
Y102135D01*
Y99595D02*
X146770D01*
X146270D02*
Y100095D01*
X145770Y99595D02*
X146270D01*
Y99095D02*
Y99595D01*
Y97055D02*
X146770D01*
X146270D02*
Y97555D01*
X145770Y97055D02*
X146270D01*
Y96555D02*
Y97055D01*
X143730Y105945D02*
X144230D01*
X143730D02*
Y106445D01*
X143230Y105945D02*
X143730D01*
Y105445D02*
Y105945D01*
Y103405D02*
X144230D01*
X143730D02*
Y103905D01*
X143230Y103405D02*
X143730D01*
Y102905D02*
Y103405D01*
Y100865D02*
X144230D01*
X143730D02*
Y101365D01*
X143230Y100865D02*
X143730D01*
Y100365D02*
Y100865D01*
Y98325D02*
X144230D01*
X143730D02*
Y98825D01*
X143230Y98325D02*
X143730D01*
Y97825D02*
Y98325D01*
X145000Y101500D02*
X145500D01*
X145000D02*
Y102000D01*
X144500Y101500D02*
X145000D01*
Y101000D02*
Y101500D01*
X157502Y81540D02*
X158002D01*
X157502D02*
Y82040D01*
X157002Y81540D02*
X157502D01*
Y81040D02*
Y81540D01*
X155978Y84080D02*
X156478D01*
X155978D02*
Y84580D01*
X155478Y84080D02*
X155978D01*
Y83580D02*
Y84080D01*
X157502Y71430D02*
X158002D01*
X157502D02*
Y71930D01*
X157002Y71430D02*
X157502D01*
Y70930D02*
Y71430D01*
X155978Y73970D02*
X156478D01*
X155978D02*
Y74470D01*
X155478Y73970D02*
X155978D01*
Y73470D02*
Y73970D01*
X159509Y68555D02*
Y86955D01*
X149552Y70008D02*
X150052D01*
X149552D02*
Y70508D01*
X149052Y70008D02*
X149552D01*
Y69508D02*
Y70008D01*
Y85502D02*
X150052D01*
X149552D02*
Y86002D01*
X149052Y85502D02*
X149552D01*
Y85002D02*
Y85502D01*
X152600Y83470D02*
X153100D01*
X152600D02*
Y83970D01*
X152100Y83470D02*
X152600D01*
Y82970D02*
Y83470D01*
Y72040D02*
X153100D01*
X152600D02*
Y72540D01*
X152100Y72040D02*
X152600D01*
Y71540D02*
Y72040D01*
X146250Y80930D02*
X146750D01*
X146250D02*
Y81430D01*
X145750Y80930D02*
X146250D01*
Y80430D02*
Y80930D01*
Y78390D02*
X146750D01*
X146250D02*
Y78890D01*
X145750Y78390D02*
X146250D01*
Y77890D02*
Y78390D01*
Y75850D02*
X146750D01*
X146250D02*
Y76350D01*
X145750Y75850D02*
X146250D01*
Y75350D02*
Y75850D01*
Y73310D02*
X146750D01*
X146250D02*
Y73810D01*
X145750Y73310D02*
X146250D01*
Y72810D02*
Y73310D01*
X143710Y82200D02*
X144210D01*
X143710D02*
Y82700D01*
X143210Y82200D02*
X143710D01*
Y81700D02*
Y82200D01*
Y79660D02*
X144210D01*
X143710D02*
Y80160D01*
X143210Y79660D02*
X143710D01*
Y79160D02*
Y79660D01*
Y77120D02*
X144210D01*
X143710D02*
Y77620D01*
X143210Y77120D02*
X143710D01*
Y76620D02*
Y77120D01*
Y74580D02*
X144210D01*
X143710D02*
Y75080D01*
X143210Y74580D02*
X143710D01*
Y74080D02*
Y74580D01*
X144980Y77755D02*
X145480D01*
X144980D02*
Y78255D01*
X144480Y77755D02*
X144980D01*
Y77255D02*
Y77755D01*
X63850Y31950D02*
Y35050D01*
X62350Y31950D02*
Y35050D01*
Y31950D02*
X63850D01*
X62350Y35050D02*
X63850D01*
X62325Y31750D02*
Y34850D01*
X60825Y31750D02*
Y34850D01*
Y31750D02*
X62325D01*
X60825Y34850D02*
X62325D01*
X69325Y31925D02*
Y35025D01*
X67825Y31925D02*
Y35025D01*
Y31925D02*
X69325D01*
X67825Y35025D02*
X69325D01*
X72000Y35025D02*
Y38525D01*
X70000Y35025D02*
X72000D01*
X70000D02*
Y38525D01*
X72000D01*
X65100Y32500D02*
Y35600D01*
X63600Y32500D02*
Y35600D01*
Y32500D02*
X65100D01*
X63600Y35600D02*
X65100D01*
X61225Y25950D02*
Y29050D01*
X59725Y25950D02*
Y29050D01*
Y25950D02*
X61225D01*
X59725Y29050D02*
X61225D01*
X69300Y26025D02*
Y29125D01*
X67800Y26025D02*
Y29125D01*
Y26025D02*
X69300D01*
X67800Y29125D02*
X69300D01*
X63250Y28950D02*
Y32050D01*
X61750Y28950D02*
Y32050D01*
Y28950D02*
X63250D01*
X61750Y32050D02*
X63250D01*
X67300Y27700D02*
Y30800D01*
X65800Y27700D02*
Y30800D01*
Y27700D02*
X67300D01*
X65800Y30800D02*
X67300D01*
X61275Y28850D02*
Y31950D01*
X59775Y28850D02*
Y31950D01*
Y28850D02*
X61275D01*
X59775Y31950D02*
X61275D01*
X66550Y30950D02*
Y34050D01*
X65050Y30950D02*
Y34050D01*
Y30950D02*
X66550D01*
X65050Y34050D02*
X66550D01*
X55925Y29950D02*
Y33050D01*
X54425Y29950D02*
Y33050D01*
Y29950D02*
X55925D01*
X54425Y33050D02*
X55925D01*
X57250Y29950D02*
Y33050D01*
X55750Y29950D02*
Y33050D01*
Y29950D02*
X57250D01*
X55750Y33050D02*
X57250D01*
X60025Y27925D02*
Y31025D01*
X58525Y27925D02*
Y31025D01*
Y27925D02*
X60025D01*
X58525Y31025D02*
X60025D01*
X66275Y37000D02*
Y40100D01*
X64775Y37000D02*
Y40100D01*
Y37000D02*
X66275D01*
X64775Y40100D02*
X66275D01*
X57225Y40750D02*
Y43850D01*
X55725Y40750D02*
Y43850D01*
Y40750D02*
X57225D01*
X55725Y43850D02*
X57225D01*
X59025Y34575D02*
Y37675D01*
X57525Y34575D02*
Y37675D01*
Y34575D02*
X59025D01*
X57525Y37675D02*
X59025D01*
X60300Y33000D02*
Y36100D01*
X58800Y33000D02*
Y36100D01*
Y33000D02*
X60300D01*
X58800Y36100D02*
X60300D01*
X69250Y37775D02*
Y40875D01*
X67750Y37775D02*
Y40875D01*
Y37775D02*
X69250D01*
X67750Y40875D02*
X69250D01*
X60750Y42200D02*
Y45300D01*
X59250Y42200D02*
Y45300D01*
Y42200D02*
X60750D01*
X59250Y45300D02*
X60750D01*
X70250Y35025D02*
Y38125D01*
X68750Y35025D02*
Y38125D01*
Y35025D02*
X70250D01*
X68750Y38125D02*
X70250D01*
X68075Y33500D02*
Y36600D01*
X66575Y33500D02*
Y36600D01*
Y33500D02*
X68075D01*
X66575Y36600D02*
X68075D01*
X121925Y115050D02*
Y116050D01*
Y117050D01*
Y116050D02*
X122925D01*
X120925D02*
X121925D01*
X124465Y117590D02*
Y118590D01*
Y119590D01*
Y118590D02*
X125465D01*
X123465D02*
X124465D01*
X119385Y117590D02*
Y118590D01*
Y119590D01*
Y118590D02*
X120385D01*
X118385D02*
X119385D01*
X124465Y112510D02*
Y113510D01*
Y114510D01*
Y113510D02*
X125465D01*
X123465D02*
X124465D01*
X119385Y112510D02*
Y113510D01*
Y114510D01*
Y113510D02*
X120385D01*
X118385D02*
X119385D01*
X95625Y115175D02*
Y116175D01*
Y117175D01*
Y116175D02*
X96625D01*
X94625D02*
X95625D01*
X98165Y117715D02*
Y118715D01*
Y119715D01*
Y118715D02*
X99165D01*
X97165D02*
X98165D01*
X93085Y117715D02*
Y118715D01*
Y119715D01*
Y118715D02*
X94085D01*
X92085D02*
X93085D01*
X98165Y112635D02*
Y113635D01*
Y114635D01*
Y113635D02*
X99165D01*
X97165D02*
X98165D01*
X93085Y112635D02*
Y113635D01*
Y114635D01*
Y113635D02*
X94085D01*
X92085D02*
X93085D01*
X-2350Y23225D02*
X-450D01*
Y26625D01*
X-2350Y23225D02*
Y26625D01*
X-450D01*
X72450Y20150D02*
Y23250D01*
X73950Y20150D02*
Y23250D01*
X72450D02*
X73950D01*
X72450Y20150D02*
X73950D01*
X76275Y23250D02*
X79375D01*
X76275Y24750D02*
X79375D01*
X76275Y23250D02*
Y24750D01*
X79375Y23250D02*
Y24750D01*
X74725Y24900D02*
X78225D01*
X74725D02*
Y26900D01*
X78225D01*
Y24900D02*
Y26900D01*
X72600Y33075D02*
X75700D01*
X72600Y34575D02*
X75700D01*
X72600Y33075D02*
Y34575D01*
X75700Y33075D02*
Y34575D01*
X71775Y23075D02*
Y26175D01*
X73275Y23075D02*
Y26175D01*
X71775D02*
X73275D01*
X71775Y23075D02*
X73275D01*
X74725Y26775D02*
X77825D01*
X74725Y28275D02*
X77825D01*
X74725Y26775D02*
Y28275D01*
X77825Y26775D02*
Y28275D01*
X71750Y35775D02*
X74850D01*
X71750Y37275D02*
X74850D01*
X71750Y35775D02*
Y37275D01*
X74850Y35775D02*
Y37275D01*
X74250Y29650D02*
X77350D01*
X74250Y31150D02*
X77350D01*
X74250Y29650D02*
Y31150D01*
X77350Y29650D02*
Y31150D01*
X50700Y33700D02*
Y37200D01*
X52700D01*
Y33700D02*
Y37200D01*
X50700Y33700D02*
X52700D01*
X58150Y40250D02*
X61250D01*
X58150Y38750D02*
X61250D01*
Y40250D01*
X58150Y38750D02*
Y40250D01*
X55125Y39250D02*
X58225D01*
X55125Y37750D02*
X58225D01*
Y39250D01*
X55125Y37750D02*
Y39250D01*
X65150Y42250D02*
X68250D01*
X65150Y40750D02*
X68250D01*
Y42250D01*
X65150Y40750D02*
Y42250D01*
X69250Y40675D02*
Y43775D01*
X70750Y40675D02*
Y43775D01*
X69250D02*
X70750D01*
X69250Y40675D02*
X70750D01*
X71000Y31800D02*
X74100D01*
X71000Y33300D02*
X74100D01*
X71000Y31800D02*
Y33300D01*
X74100Y31800D02*
Y33300D01*
X55650Y17350D02*
Y20850D01*
X57650D01*
Y17350D02*
Y20850D01*
X55650Y17350D02*
X57650D01*
X61150Y19100D02*
Y22200D01*
X62650Y19100D02*
Y22200D01*
X61150D02*
X62650D01*
X61150Y19100D02*
X62650D01*
X62500Y20000D02*
Y23100D01*
X64000Y20000D02*
Y23100D01*
X62500D02*
X64000D01*
X62500Y20000D02*
X64000D01*
X67750Y19125D02*
Y22225D01*
X69250Y19125D02*
Y22225D01*
X67750D02*
X69250D01*
X67750Y19125D02*
X69250D01*
X66275Y17625D02*
Y20725D01*
X67775Y17625D02*
Y20725D01*
X66275D02*
X67775D01*
X66275Y17625D02*
X67775D01*
X65825Y21000D02*
Y24100D01*
X67325Y21000D02*
Y24100D01*
X65825D02*
X67325D01*
X65825Y21000D02*
X67325D01*
X59500Y19100D02*
Y22200D01*
X61000Y19100D02*
Y22200D01*
X59500D02*
X61000D01*
X59500Y19100D02*
X61000D01*
X51725Y39950D02*
X55225D01*
Y37950D02*
Y39950D01*
X51725Y37950D02*
X55225D01*
X51725D02*
Y39950D01*
X53250Y36250D02*
X56350D01*
X53250Y37750D02*
X56350D01*
X53250Y36250D02*
Y37750D01*
X56350Y36250D02*
Y37750D01*
X52525Y41600D02*
X55625D01*
X52525Y40100D02*
X55625D01*
Y41600D01*
X52525Y40100D02*
Y41600D01*
X53150Y35250D02*
X56250D01*
X53150Y33750D02*
X56250D01*
Y35250D01*
X53150Y33750D02*
Y35250D01*
X69775Y19150D02*
Y22250D01*
X71275Y19150D02*
Y22250D01*
X69775D02*
X71275D01*
X69775Y19150D02*
X71275D01*
X74750Y36775D02*
X77850D01*
X74750Y38275D02*
X77850D01*
X74750Y36775D02*
Y38275D01*
X77850Y36775D02*
Y38275D01*
X74775Y34650D02*
X78275D01*
X74775D02*
Y36650D01*
X78275D01*
Y34650D02*
Y36650D01*
X76350Y33250D02*
X79450D01*
X76350Y34750D02*
X79450D01*
X76350Y33250D02*
Y34750D01*
X79450Y33250D02*
Y34750D01*
X59150Y37275D02*
X62250D01*
X59150Y35775D02*
X62250D01*
Y37275D01*
X59150Y35775D02*
Y37275D01*
X40450Y24525D02*
Y28025D01*
X42450D01*
Y24525D02*
Y28025D01*
X40450Y24525D02*
X42450D01*
X54950Y30250D02*
X58050D01*
X54950Y28750D02*
X58050D01*
Y30250D01*
X54950Y28750D02*
Y30250D01*
X58550Y23950D02*
Y27050D01*
X60050Y23950D02*
Y27050D01*
X58550D02*
X60050D01*
X58550Y23950D02*
X60050D01*
X55775Y25825D02*
X58875D01*
X55775Y27325D02*
X58875D01*
X55775Y25825D02*
Y27325D01*
X58875Y25825D02*
Y27325D01*
X54950Y26075D02*
X58050D01*
X54950Y24575D02*
X58050D01*
Y26075D01*
X54950Y24575D02*
Y26075D01*
X50200Y22150D02*
Y25650D01*
X52200D01*
Y22150D02*
Y25650D01*
X50200Y22150D02*
X52200D01*
X55750Y20950D02*
Y24050D01*
X57250Y20950D02*
Y24050D01*
X55750D02*
X57250D01*
X55750Y20950D02*
X57250D01*
X52750Y24700D02*
X55850D01*
X52750Y23200D02*
X55850D01*
Y24700D01*
X52750Y23200D02*
Y24700D01*
X52450Y27750D02*
X55550D01*
X52450Y26250D02*
X55550D01*
Y27750D01*
X52450Y26250D02*
Y27750D01*
X52475Y29050D02*
X55575D01*
X52475Y27550D02*
X55575D01*
Y29050D01*
X52475Y27550D02*
Y29050D01*
X51550Y30775D02*
X54650D01*
X51550Y29275D02*
X54650D01*
Y30775D01*
X51550Y29275D02*
Y30775D01*
X66950Y30375D02*
X70050D01*
X66950Y31875D02*
X70050D01*
X66950Y30375D02*
Y31875D01*
X70050Y30375D02*
Y31875D01*
X69875Y29050D02*
X72975D01*
X69875Y30550D02*
X72975D01*
X69875Y29050D02*
Y30550D01*
X72975Y29050D02*
Y30550D01*
X63625Y29600D02*
Y32700D01*
X65125Y29600D02*
Y32700D01*
X63625D02*
X65125D01*
X63625Y29600D02*
X65125D01*
X60950Y29250D02*
X64050D01*
X60950Y27750D02*
X64050D01*
Y29250D01*
X60950Y27750D02*
Y29250D01*
X69600Y22725D02*
Y27375D01*
X71900D01*
Y22725D02*
Y27375D01*
X69600Y22725D02*
X71900D01*
X67850Y22650D02*
Y25750D01*
X69350Y22650D02*
Y25750D01*
X67850D02*
X69350D01*
X67850Y22650D02*
X69350D01*
X69875Y27725D02*
X72975D01*
X69875Y29225D02*
X72975D01*
X69875Y27725D02*
Y29225D01*
X72975Y27725D02*
Y29225D01*
X66550Y24025D02*
Y27125D01*
X68050Y24025D02*
Y27125D01*
X66550D02*
X68050D01*
X66550Y24025D02*
X68050D01*
X57950Y33250D02*
X61050D01*
X57950Y31750D02*
X61050D01*
Y33250D01*
X57950Y31750D02*
Y33250D01*
X69150Y33775D02*
X72250D01*
X69150Y35275D02*
X72250D01*
X69150Y33775D02*
Y35275D01*
X72250Y33775D02*
Y35275D01*
X61650Y26100D02*
X66300D01*
Y23800D02*
Y26100D01*
X61650Y23800D02*
X66300D01*
X61650D02*
Y26100D01*
X63800Y19050D02*
Y23700D01*
X66100D01*
Y19050D02*
Y23700D01*
X63800Y19050D02*
X66100D01*
X73750Y20325D02*
Y24975D01*
X76050D01*
Y20325D02*
Y24975D01*
X73750Y20325D02*
X76050D01*
X112717Y69034D02*
X112550Y69200D01*
Y69533D01*
X112717Y69700D01*
X113383D01*
X113550Y69533D01*
Y69200D01*
X113383Y69034D01*
X113550Y68700D02*
Y68367D01*
Y68534D01*
X112550D01*
X112717Y68700D01*
X113550Y67367D02*
X112550D01*
X113050Y67867D01*
Y67201D01*
X112717Y66868D02*
X112550Y66701D01*
Y66368D01*
X112717Y66201D01*
X112884D01*
X113050Y66368D01*
X113217Y66201D01*
X113383D01*
X113550Y66368D01*
Y66701D01*
X113383Y66868D01*
X113217D01*
X113050Y66701D01*
X112884Y66868D01*
X112717D01*
X113050Y66701D02*
Y66368D01*
X115059Y69117D02*
X114925Y69250D01*
Y69517D01*
X115059Y69650D01*
X115592D01*
X115725Y69517D01*
Y69250D01*
X115592Y69117D01*
X115725Y68850D02*
Y68584D01*
Y68717D01*
X114925D01*
X115059Y68850D01*
X114925Y67651D02*
Y68184D01*
X115325D01*
X115192Y67917D01*
Y67784D01*
X115325Y67651D01*
X115592D01*
X115725Y67784D01*
Y68051D01*
X115592Y68184D01*
X115725Y67384D02*
Y67117D01*
Y67251D01*
X114925D01*
X115059Y67384D01*
X116841Y67458D02*
X116975Y67325D01*
Y67058D01*
X116841Y66925D01*
X116308D01*
X116175Y67058D01*
Y67325D01*
X116308Y67458D01*
X116175Y67725D02*
Y67991D01*
Y67858D01*
X116975D01*
X116841Y67725D01*
X116975Y68924D02*
X116841Y68658D01*
X116575Y68391D01*
X116308D01*
X116175Y68524D01*
Y68791D01*
X116308Y68924D01*
X116442D01*
X116575Y68791D01*
Y68391D01*
X116175Y69724D02*
Y69191D01*
X116708Y69724D01*
X116841D01*
X116975Y69591D01*
Y69324D01*
X116841Y69191D01*
X118691Y67483D02*
X118825Y67350D01*
Y67083D01*
X118691Y66950D01*
X118158D01*
X118025Y67083D01*
Y67350D01*
X118158Y67483D01*
X118025Y67750D02*
Y68016D01*
Y67883D01*
X118825D01*
X118691Y67750D01*
X118825Y68949D02*
Y68416D01*
X118425D01*
X118558Y68683D01*
Y68816D01*
X118425Y68949D01*
X118158D01*
X118025Y68816D01*
Y68549D01*
X118158Y68416D01*
X118025Y69749D02*
Y69216D01*
X118558Y69749D01*
X118691D01*
X118825Y69616D01*
Y69349D01*
X118691Y69216D01*
X120733Y67516D02*
X120900Y67350D01*
Y67017D01*
X120733Y66850D01*
X120067D01*
X119900Y67017D01*
Y67350D01*
X120067Y67516D01*
X119900Y67850D02*
Y68183D01*
Y68016D01*
X120900D01*
X120733Y67850D01*
X120900Y69349D02*
Y68683D01*
X120400D01*
X120566Y69016D01*
Y69183D01*
X120400Y69349D01*
X120067D01*
X119900Y69183D01*
Y68849D01*
X120067Y68683D01*
X120733Y69682D02*
X120900Y69849D01*
Y70182D01*
X120733Y70349D01*
X120566D01*
X120400Y70182D01*
Y70016D01*
Y70182D01*
X120233Y70349D01*
X120067D01*
X119900Y70182D01*
Y69849D01*
X120067Y69682D01*
X122416Y67408D02*
X122550Y67275D01*
Y67008D01*
X122416Y66875D01*
X121883D01*
X121750Y67008D01*
Y67275D01*
X121883Y67408D01*
X121750Y67675D02*
Y67941D01*
Y67808D01*
X122550D01*
X122416Y67675D01*
X122550Y68874D02*
Y68341D01*
X122150D01*
X122283Y68608D01*
Y68741D01*
X122150Y68874D01*
X121883D01*
X121750Y68741D01*
Y68474D01*
X121883Y68341D01*
X122416Y69141D02*
X122550Y69274D01*
Y69541D01*
X122416Y69674D01*
X122283D01*
X122150Y69541D01*
X122017Y69674D01*
X121883D01*
X121750Y69541D01*
Y69274D01*
X121883Y69141D01*
X122017D01*
X122150Y69274D01*
X122283Y69141D01*
X122416D01*
X122150Y69274D02*
Y69541D01*
X121516Y45308D02*
X121650Y45175D01*
Y44908D01*
X121516Y44775D01*
X120983D01*
X120850Y44908D01*
Y45175D01*
X120983Y45308D01*
X120850Y45575D02*
Y45841D01*
Y45708D01*
X121650D01*
X121516Y45575D01*
X121650Y46774D02*
Y46241D01*
X121250D01*
X121383Y46508D01*
Y46641D01*
X121250Y46774D01*
X120983D01*
X120850Y46641D01*
Y46374D01*
X120983Y46241D01*
X121650Y47041D02*
Y47574D01*
X121516D01*
X120983Y47041D01*
X120850D01*
X120184Y47017D02*
X120050Y47150D01*
Y47417D01*
X120184Y47550D01*
X120717D01*
X120850Y47417D01*
Y47150D01*
X120717Y47017D01*
X120850Y46750D02*
Y46484D01*
Y46617D01*
X120050D01*
X120184Y46750D01*
X120050Y45551D02*
X120184Y45817D01*
X120450Y46084D01*
X120717D01*
X120850Y45951D01*
Y45684D01*
X120717Y45551D01*
X120583D01*
X120450Y45684D01*
Y46084D01*
X120184Y45284D02*
X120050Y45151D01*
Y44884D01*
X120184Y44751D01*
X120317D01*
X120450Y44884D01*
Y45017D01*
Y44884D01*
X120583Y44751D01*
X120717D01*
X120850Y44884D01*
Y45151D01*
X120717Y45284D01*
X117684Y46942D02*
X117550Y47075D01*
Y47342D01*
X117684Y47475D01*
X118217D01*
X118350Y47342D01*
Y47075D01*
X118217Y46942D01*
X118350Y46675D02*
Y46409D01*
Y46542D01*
X117550D01*
X117684Y46675D01*
X117550Y45476D02*
X117684Y45742D01*
X117950Y46009D01*
X118217D01*
X118350Y45876D01*
Y45609D01*
X118217Y45476D01*
X118083D01*
X117950Y45609D01*
Y46009D01*
X117684Y45209D02*
X117550Y45076D01*
Y44809D01*
X117684Y44676D01*
X118217D01*
X118350Y44809D01*
Y45076D01*
X118217Y45209D01*
X117684D01*
X109467Y48891D02*
X109600Y49025D01*
X109867D01*
X110000Y48891D01*
Y48358D01*
X109867Y48225D01*
X109600D01*
X109467Y48358D01*
X109200Y48225D02*
X108934D01*
X109067D01*
Y49025D01*
X109200Y48891D01*
X108001Y49025D02*
X108534D01*
Y48625D01*
X108267Y48758D01*
X108134D01*
X108001Y48625D01*
Y48358D01*
X108134Y48225D01*
X108401D01*
X108534Y48358D01*
X107734Y48891D02*
X107601Y49025D01*
X107334D01*
X107201Y48891D01*
Y48358D01*
X107334Y48225D01*
X107601D01*
X107734Y48358D01*
Y48891D01*
X107833Y60534D02*
X107700Y60400D01*
X107433D01*
X107300Y60534D01*
Y61067D01*
X107433Y61200D01*
X107700D01*
X107833Y61067D01*
X108100Y61200D02*
X108366D01*
X108233D01*
Y60400D01*
X108100Y60534D01*
X109166Y61200D02*
Y60400D01*
X108766Y60800D01*
X109299D01*
X109566Y61067D02*
X109699Y61200D01*
X109966D01*
X110099Y61067D01*
Y60534D01*
X109966Y60400D01*
X109699D01*
X109566Y60534D01*
Y60667D01*
X109699Y60800D01*
X110099D01*
X109609Y56108D02*
X109775Y56275D01*
X110108D01*
X110275Y56108D01*
Y55442D01*
X110108Y55275D01*
X109775D01*
X109609Y55442D01*
X109275Y55275D02*
X108942D01*
X109109D01*
Y56275D01*
X109275Y56108D01*
X107776Y56275D02*
X108442D01*
Y55775D01*
X108109Y55941D01*
X107942D01*
X107776Y55775D01*
Y55442D01*
X107942Y55275D01*
X108276D01*
X108442Y55442D01*
X107443D02*
X107276Y55275D01*
X106943D01*
X106776Y55442D01*
Y56108D01*
X106943Y56275D01*
X107276D01*
X107443Y56108D01*
Y55941D01*
X107276Y55775D01*
X106776D01*
X109542Y53941D02*
X109675Y54075D01*
X109942D01*
X110075Y53941D01*
Y53408D01*
X109942Y53275D01*
X109675D01*
X109542Y53408D01*
X109275Y53275D02*
X109009D01*
X109142D01*
Y54075D01*
X109275Y53941D01*
X108076Y54075D02*
X108342Y53941D01*
X108609Y53675D01*
Y53408D01*
X108476Y53275D01*
X108209D01*
X108076Y53408D01*
Y53542D01*
X108209Y53675D01*
X108609D01*
X107809Y53275D02*
X107542D01*
X107676D01*
Y54075D01*
X107809Y53941D01*
X124183Y66284D02*
X124050Y66150D01*
X123783D01*
X123650Y66284D01*
Y66817D01*
X123783Y66950D01*
X124050D01*
X124183Y66817D01*
X124450Y66950D02*
X124716D01*
X124583D01*
Y66150D01*
X124450Y66284D01*
X125516Y66950D02*
Y66150D01*
X125116Y66550D01*
X125649D01*
X125916Y66150D02*
X126449D01*
Y66284D01*
X125916Y66817D01*
Y66950D01*
X124191Y64467D02*
X124025Y64300D01*
X123692D01*
X123525Y64467D01*
Y65133D01*
X123692Y65300D01*
X124025D01*
X124191Y65133D01*
X124525Y65300D02*
X124858D01*
X124691D01*
Y64300D01*
X124525Y64467D01*
X125858Y65300D02*
Y64300D01*
X125358Y64800D01*
X126024D01*
X126357Y64467D02*
X126524Y64300D01*
X126857D01*
X127024Y64467D01*
Y64634D01*
X126857Y64800D01*
X126691D01*
X126857D01*
X127024Y64967D01*
Y65133D01*
X126857Y65300D01*
X126524D01*
X126357Y65133D01*
X125892Y62716D02*
X126025Y62850D01*
X126292D01*
X126425Y62716D01*
Y62183D01*
X126292Y62050D01*
X126025D01*
X125892Y62183D01*
X125625Y62050D02*
X125359D01*
X125492D01*
Y62850D01*
X125625Y62716D01*
X124426Y62850D02*
X124959D01*
Y62450D01*
X124692Y62583D01*
X124559D01*
X124426Y62450D01*
Y62183D01*
X124559Y62050D01*
X124826D01*
X124959Y62183D01*
X123759Y62050D02*
Y62850D01*
X124159Y62450D01*
X123626D01*
X124108Y59759D02*
X123975Y59625D01*
X123708D01*
X123575Y59759D01*
Y60292D01*
X123708Y60425D01*
X123975D01*
X124108Y60292D01*
X124375Y60425D02*
X124641D01*
X124508D01*
Y59625D01*
X124375Y59759D01*
X125441Y60425D02*
Y59625D01*
X125041Y60025D01*
X125574D01*
X126374Y59625D02*
X126108Y59759D01*
X125841Y60025D01*
Y60292D01*
X125974Y60425D01*
X126241D01*
X126374Y60292D01*
Y60158D01*
X126241Y60025D01*
X125841D01*
X124108Y56809D02*
X123975Y56675D01*
X123708D01*
X123575Y56809D01*
Y57342D01*
X123708Y57475D01*
X123975D01*
X124108Y57342D01*
X124375Y57475D02*
X124641D01*
X124508D01*
Y56675D01*
X124375Y56809D01*
X125441Y57475D02*
Y56675D01*
X125041Y57075D01*
X125574D01*
X126374Y56675D02*
X125841D01*
Y57075D01*
X126108Y56942D01*
X126241D01*
X126374Y57075D01*
Y57342D01*
X126241Y57475D01*
X125974D01*
X125841Y57342D01*
X125842Y54941D02*
X125975Y55075D01*
X126242D01*
X126375Y54941D01*
Y54408D01*
X126242Y54275D01*
X125975D01*
X125842Y54408D01*
X125575Y54275D02*
X125309D01*
X125442D01*
Y55075D01*
X125575Y54941D01*
X124376Y55075D02*
X124909D01*
Y54675D01*
X124642Y54808D01*
X124509D01*
X124376Y54675D01*
Y54408D01*
X124509Y54275D01*
X124776D01*
X124909Y54408D01*
X123576Y55075D02*
X124109D01*
Y54675D01*
X123842Y54808D01*
X123709D01*
X123576Y54675D01*
Y54408D01*
X123709Y54275D01*
X123976D01*
X124109Y54408D01*
X124108Y52084D02*
X123975Y51950D01*
X123708D01*
X123575Y52084D01*
Y52617D01*
X123708Y52750D01*
X123975D01*
X124108Y52617D01*
X124375Y52750D02*
X124641D01*
X124508D01*
Y51950D01*
X124375Y52084D01*
X125441Y52750D02*
Y51950D01*
X125041Y52350D01*
X125574D01*
X126241Y52750D02*
Y51950D01*
X125841Y52350D01*
X126374D01*
X126167Y48866D02*
X126300Y49000D01*
X126567D01*
X126700Y48866D01*
Y48333D01*
X126567Y48200D01*
X126300D01*
X126167Y48333D01*
X125900Y48200D02*
X125634D01*
X125767D01*
Y49000D01*
X125900Y48866D01*
X124701Y49000D02*
X125234D01*
Y48600D01*
X124967Y48733D01*
X124834D01*
X124701Y48600D01*
Y48333D01*
X124834Y48200D01*
X125101D01*
X125234Y48333D01*
X123901Y49000D02*
X124167Y48866D01*
X124434Y48600D01*
Y48333D01*
X124301Y48200D01*
X124034D01*
X123901Y48333D01*
Y48467D01*
X124034Y48600D01*
X124434D01*
X8533Y16941D02*
X8700Y16775D01*
Y16442D01*
X8533Y16275D01*
X7867D01*
X7700Y16442D01*
Y16775D01*
X7867Y16941D01*
X7700Y17775D02*
X8700D01*
X8200Y17275D01*
Y17941D01*
X8700Y18941D02*
Y18274D01*
X8200D01*
X8366Y18608D01*
Y18774D01*
X8200Y18941D01*
X7867D01*
X7700Y18774D01*
Y18441D01*
X7867Y18274D01*
X9516Y16708D02*
X9650Y16575D01*
Y16308D01*
X9516Y16175D01*
X8983D01*
X8850Y16308D01*
Y16575D01*
X8983Y16708D01*
X8850Y17375D02*
X9650D01*
X9250Y16975D01*
Y17508D01*
X8850Y18308D02*
Y17774D01*
X9383Y18308D01*
X9516D01*
X9650Y18174D01*
Y17908D01*
X9516Y17774D01*
X14566Y16783D02*
X14700Y16650D01*
Y16383D01*
X14566Y16250D01*
X14033D01*
X13900Y16383D01*
Y16650D01*
X14033Y16783D01*
X14566Y17050D02*
X14700Y17183D01*
Y17450D01*
X14566Y17583D01*
X14433D01*
X14300Y17450D01*
Y17316D01*
Y17450D01*
X14167Y17583D01*
X14033D01*
X13900Y17450D01*
Y17183D01*
X14033Y17050D01*
X14700Y18383D02*
Y17849D01*
X14300D01*
X14433Y18116D01*
Y18249D01*
X14300Y18383D01*
X14033D01*
X13900Y18249D01*
Y17983D01*
X14033Y17849D01*
X3408Y24659D02*
X3275Y24525D01*
X3008D01*
X2875Y24659D01*
Y25192D01*
X3008Y25325D01*
X3275D01*
X3408Y25192D01*
X4075Y25325D02*
Y24525D01*
X3675Y24925D01*
X4208D01*
X4474Y25325D02*
X4741D01*
X4608D01*
Y24525D01*
X4474Y24659D01*
X3383Y26059D02*
X3250Y25925D01*
X2983D01*
X2850Y26059D01*
Y26592D01*
X2983Y26725D01*
X3250D01*
X3383Y26592D01*
X3650Y26725D02*
X3916D01*
X3783D01*
Y25925D01*
X3650Y26059D01*
X4716Y26725D02*
Y25925D01*
X4316Y26325D01*
X4849D01*
X5116Y26725D02*
X5383D01*
X5249D01*
Y25925D01*
X5116Y26059D01*
X3433Y29334D02*
X3300Y29200D01*
X3033D01*
X2900Y29334D01*
Y29867D01*
X3033Y30000D01*
X3300D01*
X3433Y29867D01*
X3700Y30000D02*
X3966D01*
X3833D01*
Y29200D01*
X3700Y29334D01*
X4366D02*
X4499Y29200D01*
X4766D01*
X4899Y29334D01*
Y29467D01*
X4766Y29600D01*
X4899Y29733D01*
Y29867D01*
X4766Y30000D01*
X4499D01*
X4366Y29867D01*
Y29733D01*
X4499Y29600D01*
X4366Y29467D01*
Y29334D01*
X4499Y29600D02*
X4766D01*
X5166Y29334D02*
X5299Y29200D01*
X5566D01*
X5699Y29334D01*
Y29467D01*
X5566Y29600D01*
X5699Y29733D01*
Y29867D01*
X5566Y30000D01*
X5299D01*
X5166Y29867D01*
Y29733D01*
X5299Y29600D01*
X5166Y29467D01*
Y29334D01*
X5299Y29600D02*
X5566D01*
X7167Y30984D02*
X7000Y31150D01*
Y31483D01*
X7167Y31650D01*
X7833D01*
X8000Y31483D01*
Y31150D01*
X7833Y30984D01*
X7167Y30650D02*
X7000Y30484D01*
Y30150D01*
X7167Y29984D01*
X7334D01*
X7500Y30150D01*
Y30317D01*
Y30150D01*
X7667Y29984D01*
X7833D01*
X8000Y30150D01*
Y30484D01*
X7833Y30650D01*
X7167Y29651D02*
X7000Y29484D01*
Y29151D01*
X7167Y28984D01*
X7334D01*
X7500Y29151D01*
Y29317D01*
Y29151D01*
X7667Y28984D01*
X7833D01*
X8000Y29151D01*
Y29484D01*
X7833Y29651D01*
X19342Y26241D02*
X19475Y26375D01*
X19742D01*
X19875Y26241D01*
Y25708D01*
X19742Y25575D01*
X19475D01*
X19342Y25708D01*
X19075Y25575D02*
X18809D01*
X18942D01*
Y26375D01*
X19075Y26241D01*
X18409Y25708D02*
X18276Y25575D01*
X18009D01*
X17876Y25708D01*
Y26241D01*
X18009Y26375D01*
X18276D01*
X18409Y26241D01*
Y26108D01*
X18276Y25975D01*
X17876D01*
X17609Y25575D02*
X17342D01*
X17476D01*
Y26375D01*
X17609Y26241D01*
X19292Y22416D02*
X19425Y22550D01*
X19692D01*
X19825Y22416D01*
Y21883D01*
X19692Y21750D01*
X19425D01*
X19292Y21883D01*
X19025Y21750D02*
X18759D01*
X18892D01*
Y22550D01*
X19025Y22416D01*
X18359Y21883D02*
X18226Y21750D01*
X17959D01*
X17826Y21883D01*
Y22416D01*
X17959Y22550D01*
X18226D01*
X18359Y22416D01*
Y22283D01*
X18226Y22150D01*
X17826D01*
X17159Y21750D02*
Y22550D01*
X17559Y22150D01*
X17026D01*
X19342Y18693D02*
X19475Y18826D01*
X19742D01*
X19875Y18693D01*
Y18159D01*
X19742Y18026D01*
X19475D01*
X19342Y18159D01*
X18675Y18026D02*
Y18826D01*
X19075Y18426D01*
X18542D01*
X18276Y18693D02*
X18142Y18826D01*
X17876D01*
X17742Y18693D01*
Y18159D01*
X17876Y18026D01*
X18142D01*
X18276Y18159D01*
Y18693D01*
X63125Y32950D02*
X63225Y32850D01*
Y32650D01*
X63125Y32550D01*
X62725D01*
X62625Y32650D01*
Y32850D01*
X62725Y32950D01*
X62625Y33150D02*
Y33350D01*
Y33250D01*
X63225D01*
X63125Y33150D01*
Y33650D02*
X63225Y33750D01*
Y33950D01*
X63125Y34050D01*
X63025D01*
X62925Y33950D01*
Y33850D01*
Y33950D01*
X62825Y34050D01*
X62725D01*
X62625Y33950D01*
Y33750D01*
X62725Y33650D01*
X62625Y34249D02*
Y34449D01*
Y34349D01*
X63225D01*
X63125Y34249D01*
X61775Y32825D02*
X61875Y32725D01*
Y32525D01*
X61775Y32425D01*
X61375D01*
X61275Y32525D01*
Y32725D01*
X61375Y32825D01*
X61275Y33025D02*
Y33225D01*
Y33125D01*
X61875D01*
X61775Y33025D01*
Y33525D02*
X61875Y33625D01*
Y33825D01*
X61775Y33925D01*
X61675D01*
X61575Y33825D01*
Y33725D01*
Y33825D01*
X61475Y33925D01*
X61375D01*
X61275Y33825D01*
Y33625D01*
X61375Y33525D01*
X61775Y34124D02*
X61875Y34224D01*
Y34424D01*
X61775Y34524D01*
X61375D01*
X61275Y34424D01*
Y34224D01*
X61375Y34124D01*
X61775D01*
X68725Y32625D02*
X68825Y32525D01*
Y32325D01*
X68725Y32225D01*
X68325D01*
X68225Y32325D01*
Y32525D01*
X68325Y32625D01*
X68225Y32825D02*
Y33025D01*
Y32925D01*
X68825D01*
X68725Y32825D01*
X68225Y33725D02*
Y33325D01*
X68625Y33725D01*
X68725D01*
X68825Y33625D01*
Y33425D01*
X68725Y33325D01*
Y33924D02*
X68825Y34024D01*
Y34224D01*
X68725Y34324D01*
X68625D01*
X68525Y34224D01*
X68425Y34324D01*
X68325D01*
X68225Y34224D01*
Y34024D01*
X68325Y33924D01*
X68425D01*
X68525Y34024D01*
X68625Y33924D01*
X68725D01*
X68525Y34024D02*
Y34224D01*
X71100Y36050D02*
X71200Y35950D01*
Y35750D01*
X71100Y35650D01*
X70700D01*
X70600Y35750D01*
Y35950D01*
X70700Y36050D01*
X70600Y36250D02*
Y36450D01*
Y36350D01*
X71200D01*
X71100Y36250D01*
X70600Y37150D02*
Y36750D01*
X71000Y37150D01*
X71100D01*
X71200Y37050D01*
Y36850D01*
X71100Y36750D01*
X71200Y37349D02*
Y37749D01*
X71100D01*
X70700Y37349D01*
X70600D01*
X64475Y33275D02*
X64575Y33175D01*
Y32975D01*
X64475Y32875D01*
X64075D01*
X63975Y32975D01*
Y33175D01*
X64075Y33275D01*
X63975Y33475D02*
Y33675D01*
Y33575D01*
X64575D01*
X64475Y33475D01*
X63975Y33975D02*
Y34175D01*
Y34075D01*
X64575D01*
X64475Y33975D01*
X64575Y34474D02*
Y34874D01*
X64475D01*
X64075Y34474D01*
X63975D01*
X60650Y26475D02*
X60750Y26375D01*
Y26175D01*
X60650Y26075D01*
X60250D01*
X60150Y26175D01*
Y26375D01*
X60250Y26475D01*
X60150Y26675D02*
Y26875D01*
Y26775D01*
X60750D01*
X60650Y26675D01*
X60150Y27175D02*
Y27375D01*
Y27275D01*
X60750D01*
X60650Y27175D01*
X60150Y28074D02*
Y27674D01*
X60550Y28074D01*
X60650D01*
X60750Y27974D01*
Y27774D01*
X60650Y27674D01*
X68700Y26925D02*
X68800Y26825D01*
Y26625D01*
X68700Y26525D01*
X68300D01*
X68200Y26625D01*
Y26825D01*
X68300Y26925D01*
X68200Y27125D02*
Y27325D01*
Y27225D01*
X68800D01*
X68700Y27125D01*
X68200Y27625D02*
Y27825D01*
Y27725D01*
X68800D01*
X68700Y27625D01*
X68200Y28124D02*
Y28324D01*
Y28224D01*
X68800D01*
X68700Y28124D01*
X62700Y29825D02*
X62800Y29725D01*
Y29525D01*
X62700Y29425D01*
X62300D01*
X62200Y29525D01*
Y29725D01*
X62300Y29825D01*
X62200Y30025D02*
Y30225D01*
Y30125D01*
X62800D01*
X62700Y30025D01*
Y30525D02*
X62800Y30625D01*
Y30825D01*
X62700Y30925D01*
X62300D01*
X62200Y30825D01*
Y30625D01*
X62300Y30525D01*
X62700D01*
X62800Y31524D02*
X62700Y31324D01*
X62500Y31124D01*
X62300D01*
X62200Y31224D01*
Y31424D01*
X62300Y31524D01*
X62400D01*
X62500Y31424D01*
Y31124D01*
X66564Y28324D02*
X66664Y28224D01*
Y28024D01*
X66564Y27924D01*
X66164D01*
X66064Y28024D01*
Y28224D01*
X66164Y28324D01*
X66064Y28524D02*
Y28724D01*
Y28624D01*
X66664D01*
X66564Y28524D01*
Y29024D02*
X66664Y29124D01*
Y29324D01*
X66564Y29424D01*
X66164D01*
X66064Y29324D01*
Y29124D01*
X66164Y29024D01*
X66564D01*
X66064Y30023D02*
Y29623D01*
X66464Y30023D01*
X66564D01*
X66664Y29923D01*
Y29723D01*
X66564Y29623D01*
X60800Y30000D02*
X60900Y29900D01*
Y29700D01*
X60800Y29600D01*
X60400D01*
X60300Y29700D01*
Y29900D01*
X60400Y30000D01*
X60300Y30200D02*
Y30400D01*
Y30300D01*
X60900D01*
X60800Y30200D01*
Y30700D02*
X60900Y30800D01*
Y31000D01*
X60800Y31100D01*
X60400D01*
X60300Y31000D01*
Y30800D01*
X60400Y30700D01*
X60800D01*
X60300Y31299D02*
Y31499D01*
Y31399D01*
X60900D01*
X60800Y31299D01*
X65814Y31574D02*
X65914Y31474D01*
Y31274D01*
X65814Y31174D01*
X65414D01*
X65314Y31274D01*
Y31474D01*
X65414Y31574D01*
Y31774D02*
X65314Y31874D01*
Y32074D01*
X65414Y32174D01*
X65814D01*
X65914Y32074D01*
Y31874D01*
X65814Y31774D01*
X65714D01*
X65614Y31874D01*
Y32174D01*
X65414Y32374D02*
X65314Y32474D01*
Y32674D01*
X65414Y32773D01*
X65814D01*
X65914Y32674D01*
Y32474D01*
X65814Y32374D01*
X65714D01*
X65614Y32474D01*
Y32773D01*
X55325Y31150D02*
X55425Y31050D01*
Y30850D01*
X55325Y30750D01*
X54925D01*
X54825Y30850D01*
Y31050D01*
X54925Y31150D01*
Y31350D02*
X54825Y31450D01*
Y31650D01*
X54925Y31750D01*
X55325D01*
X55425Y31650D01*
Y31450D01*
X55325Y31350D01*
X55225D01*
X55125Y31450D01*
Y31750D01*
X55425Y31950D02*
Y32349D01*
X55325D01*
X54925Y31950D01*
X54825D01*
X56725Y31150D02*
X56825Y31050D01*
Y30850D01*
X56725Y30750D01*
X56325D01*
X56225Y30850D01*
Y31050D01*
X56325Y31150D01*
Y31350D02*
X56225Y31450D01*
Y31650D01*
X56325Y31750D01*
X56725D01*
X56825Y31650D01*
Y31450D01*
X56725Y31350D01*
X56625D01*
X56525Y31450D01*
Y31750D01*
X56725Y31950D02*
X56825Y32050D01*
Y32250D01*
X56725Y32349D01*
X56325D01*
X56225Y32250D01*
Y32050D01*
X56325Y31950D01*
X56725D01*
X59289Y28549D02*
X59389Y28449D01*
Y28249D01*
X59289Y28149D01*
X58889D01*
X58789Y28249D01*
Y28449D01*
X58889Y28549D01*
X59289Y28749D02*
X59389Y28849D01*
Y29049D01*
X59289Y29149D01*
X59189D01*
X59089Y29049D01*
X58989Y29149D01*
X58889D01*
X58789Y29049D01*
Y28849D01*
X58889Y28749D01*
X58989D01*
X59089Y28849D01*
X59189Y28749D01*
X59289D01*
X59089Y28849D02*
Y29049D01*
X59289Y29349D02*
X59389Y29449D01*
Y29649D01*
X59289Y29748D01*
X59189D01*
X59089Y29649D01*
X58989Y29748D01*
X58889D01*
X58789Y29649D01*
Y29449D01*
X58889Y29349D01*
X58989D01*
X59089Y29449D01*
X59189Y29349D01*
X59289D01*
X59089Y29449D02*
Y29649D01*
X65775Y38150D02*
X65875Y38050D01*
Y37850D01*
X65775Y37750D01*
X65375D01*
X65275Y37850D01*
Y38050D01*
X65375Y38150D01*
X65775Y38350D02*
X65875Y38450D01*
Y38650D01*
X65775Y38750D01*
X65675D01*
X65575Y38650D01*
X65475Y38750D01*
X65375D01*
X65275Y38650D01*
Y38450D01*
X65375Y38350D01*
X65475D01*
X65575Y38450D01*
X65675Y38350D01*
X65775D01*
X65575Y38450D02*
Y38650D01*
X65775Y38950D02*
X65875Y39050D01*
Y39250D01*
X65775Y39349D01*
X65675D01*
X65575Y39250D01*
Y39150D01*
Y39250D01*
X65475Y39349D01*
X65375D01*
X65275Y39250D01*
Y39050D01*
X65375Y38950D01*
X56489Y41374D02*
X56589Y41274D01*
Y41074D01*
X56489Y40974D01*
X56089D01*
X55989Y41074D01*
Y41274D01*
X56089Y41374D01*
X56489Y41574D02*
X56589Y41674D01*
Y41874D01*
X56489Y41974D01*
X56389D01*
X56289Y41874D01*
X56189Y41974D01*
X56089D01*
X55989Y41874D01*
Y41674D01*
X56089Y41574D01*
X56189D01*
X56289Y41674D01*
X56389Y41574D01*
X56489D01*
X56289Y41674D02*
Y41874D01*
X55989Y42573D02*
Y42174D01*
X56389Y42573D01*
X56489D01*
X56589Y42474D01*
Y42274D01*
X56489Y42174D01*
X58289Y35199D02*
X58389Y35099D01*
Y34899D01*
X58289Y34799D01*
X57889D01*
X57789Y34899D01*
Y35099D01*
X57889Y35199D01*
X58289Y35399D02*
X58389Y35499D01*
Y35699D01*
X58289Y35799D01*
X58189D01*
X58089Y35699D01*
X57989Y35799D01*
X57889D01*
X57789Y35699D01*
Y35499D01*
X57889Y35399D01*
X57989D01*
X58089Y35499D01*
X58189Y35399D01*
X58289D01*
X58089Y35499D02*
Y35699D01*
X57789Y35999D02*
Y36199D01*
Y36099D01*
X58389D01*
X58289Y35999D01*
X59775Y34000D02*
X59875Y33900D01*
Y33700D01*
X59775Y33600D01*
X59375D01*
X59275Y33700D01*
Y33900D01*
X59375Y34000D01*
X59875Y34200D02*
Y34600D01*
X59775D01*
X59375Y34200D01*
X59275D01*
X59375Y34800D02*
X59275Y34900D01*
Y35100D01*
X59375Y35199D01*
X59775D01*
X59875Y35100D01*
Y34900D01*
X59775Y34800D01*
X59675D01*
X59575Y34900D01*
Y35199D01*
X68375Y40050D02*
X68275Y40150D01*
Y40350D01*
X68375Y40450D01*
X68775D01*
X68875Y40350D01*
Y40150D01*
X68775Y40050D01*
X68275Y39850D02*
Y39450D01*
X68375D01*
X68775Y39850D01*
X68875D01*
X68275Y38851D02*
X68375Y39050D01*
X68575Y39250D01*
X68775D01*
X68875Y39150D01*
Y38950D01*
X68775Y38851D01*
X68675D01*
X68575Y38950D01*
Y39250D01*
X60014Y42824D02*
X60114Y42724D01*
Y42524D01*
X60014Y42424D01*
X59614D01*
X59514Y42524D01*
Y42724D01*
X59614Y42824D01*
X60114Y43424D02*
Y43024D01*
X59814D01*
X59914Y43224D01*
Y43324D01*
X59814Y43424D01*
X59614D01*
X59514Y43324D01*
Y43124D01*
X59614Y43024D01*
X60014Y43624D02*
X60114Y43724D01*
Y43924D01*
X60014Y44023D01*
X59914D01*
X59814Y43924D01*
X59714Y44023D01*
X59614D01*
X59514Y43924D01*
Y43724D01*
X59614Y43624D01*
X59714D01*
X59814Y43724D01*
X59914Y43624D01*
X60014D01*
X59814Y43724D02*
Y43924D01*
X69525Y36000D02*
X69625Y35900D01*
Y35700D01*
X69525Y35600D01*
X69125D01*
X69025Y35700D01*
Y35900D01*
X69125Y36000D01*
X69625Y36600D02*
Y36200D01*
X69325D01*
X69425Y36400D01*
Y36500D01*
X69325Y36600D01*
X69125D01*
X69025Y36500D01*
Y36300D01*
X69125Y36200D01*
X69525Y36800D02*
X69625Y36900D01*
Y37100D01*
X69525Y37199D01*
X69425D01*
X69325Y37100D01*
Y37000D01*
Y37100D01*
X69225Y37199D01*
X69125D01*
X69025Y37100D01*
Y36900D01*
X69125Y36800D01*
X67400Y34300D02*
X67500Y34200D01*
Y34000D01*
X67400Y33900D01*
X67000D01*
X66900Y34000D01*
Y34200D01*
X67000Y34300D01*
X66900Y34500D02*
Y34700D01*
Y34600D01*
X67500D01*
X67400Y34500D01*
Y35000D02*
X67500Y35100D01*
Y35300D01*
X67400Y35399D01*
X67300D01*
X67200Y35300D01*
Y35200D01*
Y35300D01*
X67100Y35399D01*
X67000D01*
X66900Y35300D01*
Y35100D01*
X67000Y35000D01*
X67400Y35599D02*
X67500Y35699D01*
Y35899D01*
X67400Y35999D01*
X67300D01*
X67200Y35899D01*
Y35799D01*
Y35899D01*
X67100Y35999D01*
X67000D01*
X66900Y35899D01*
Y35699D01*
X67000Y35599D01*
X-1317Y24091D02*
X-1150Y23925D01*
Y23592D01*
X-1317Y23425D01*
X-1983D01*
X-2150Y23592D01*
Y23925D01*
X-1983Y24091D01*
X-2150Y24425D02*
Y24758D01*
Y24591D01*
X-1150D01*
X-1317Y24425D01*
Y25258D02*
X-1150Y25424D01*
Y25758D01*
X-1317Y25924D01*
X-1983D01*
X-2150Y25758D01*
Y25424D01*
X-1983Y25258D01*
X-1317D01*
Y26257D02*
X-1150Y26424D01*
Y26757D01*
X-1317Y26924D01*
X-1484D01*
X-1650Y26757D01*
Y26591D01*
Y26757D01*
X-1817Y26924D01*
X-1983D01*
X-2150Y26757D01*
Y26424D01*
X-1983Y26257D01*
X73050Y20675D02*
X73150Y20575D01*
Y20375D01*
X73050Y20275D01*
X72650D01*
X72550Y20375D01*
Y20575D01*
X72650Y20675D01*
X72550Y21175D02*
X73150D01*
X72850Y20875D01*
Y21275D01*
X73150Y21475D02*
Y21874D01*
X73050D01*
X72650Y21475D01*
X72550D01*
X78350Y24200D02*
X78450Y24300D01*
X78650D01*
X78750Y24200D01*
Y23800D01*
X78650Y23700D01*
X78450D01*
X78350Y23800D01*
X77850Y23700D02*
Y24300D01*
X78150Y24000D01*
X77750D01*
X77550Y24200D02*
X77450Y24300D01*
X77250D01*
X77151Y24200D01*
Y24100D01*
X77250Y24000D01*
X77151Y23900D01*
Y23800D01*
X77250Y23700D01*
X77450D01*
X77550Y23800D01*
Y23900D01*
X77450Y24000D01*
X77550Y24100D01*
Y24200D01*
X77450Y24000D02*
X77250D01*
X77150Y26000D02*
X77250Y26100D01*
X77450D01*
X77550Y26000D01*
Y25600D01*
X77450Y25500D01*
X77250D01*
X77150Y25600D01*
X76650Y25500D02*
Y26100D01*
X76950Y25800D01*
X76550D01*
X76350Y25600D02*
X76250Y25500D01*
X76050D01*
X75951Y25600D01*
Y26000D01*
X76050Y26100D01*
X76250D01*
X76350Y26000D01*
Y25900D01*
X76250Y25800D01*
X75951D01*
X74600Y34100D02*
X74700Y34200D01*
X74900D01*
X75000Y34100D01*
Y33700D01*
X74900Y33600D01*
X74700D01*
X74600Y33700D01*
X74000Y34200D02*
X74400D01*
Y33900D01*
X74200Y34000D01*
X74100D01*
X74000Y33900D01*
Y33700D01*
X74100Y33600D01*
X74300D01*
X74400Y33700D01*
X73800Y34100D02*
X73700Y34200D01*
X73500D01*
X73401Y34100D01*
Y33700D01*
X73500Y33600D01*
X73700D01*
X73800Y33700D01*
Y34100D01*
X72675Y24275D02*
X72775Y24175D01*
Y23975D01*
X72675Y23875D01*
X72275D01*
X72175Y23975D01*
Y24175D01*
X72275Y24275D01*
X72775Y24875D02*
Y24475D01*
X72475D01*
X72575Y24675D01*
Y24775D01*
X72475Y24875D01*
X72275D01*
X72175Y24775D01*
Y24575D01*
X72275Y24475D01*
X72175Y25075D02*
Y25275D01*
Y25175D01*
X72775D01*
X72675Y25075D01*
X76850Y27750D02*
X76950Y27850D01*
X77150D01*
X77250Y27750D01*
Y27350D01*
X77150Y27250D01*
X76950D01*
X76850Y27350D01*
X76250Y27850D02*
X76650D01*
Y27550D01*
X76450Y27650D01*
X76350D01*
X76250Y27550D01*
Y27350D01*
X76350Y27250D01*
X76550D01*
X76650Y27350D01*
X75651Y27250D02*
X76050D01*
X75651Y27650D01*
Y27750D01*
X75750Y27850D01*
X75950D01*
X76050Y27750D01*
X73725Y36700D02*
X73825Y36800D01*
X74025D01*
X74125Y36700D01*
Y36300D01*
X74025Y36200D01*
X73825D01*
X73725Y36300D01*
X73125Y36800D02*
X73525D01*
Y36500D01*
X73325Y36600D01*
X73225D01*
X73125Y36500D01*
Y36300D01*
X73225Y36200D01*
X73425D01*
X73525Y36300D01*
X72625Y36200D02*
Y36800D01*
X72925Y36500D01*
X72526D01*
X76375Y30525D02*
X76475Y30625D01*
X76675D01*
X76775Y30525D01*
Y30125D01*
X76675Y30025D01*
X76475D01*
X76375Y30125D01*
X75775Y30625D02*
X76175D01*
Y30325D01*
X75975Y30425D01*
X75875D01*
X75775Y30325D01*
Y30125D01*
X75875Y30025D01*
X76075D01*
X76175Y30125D01*
X75176Y30625D02*
X75575D01*
Y30325D01*
X75375Y30425D01*
X75275D01*
X75176Y30325D01*
Y30125D01*
X75275Y30025D01*
X75475D01*
X75575Y30125D01*
X51775Y34900D02*
X51875Y34800D01*
Y34600D01*
X51775Y34500D01*
X51375D01*
X51275Y34600D01*
Y34800D01*
X51375Y34900D01*
X51875Y35500D02*
Y35100D01*
X51575D01*
X51675Y35300D01*
Y35400D01*
X51575Y35500D01*
X51375D01*
X51275Y35400D01*
Y35200D01*
X51375Y35100D01*
X51875Y36099D02*
X51775Y35900D01*
X51575Y35700D01*
X51375D01*
X51275Y35800D01*
Y36000D01*
X51375Y36099D01*
X51475D01*
X51575Y36000D01*
Y35700D01*
X60601Y39539D02*
X60701Y39639D01*
X60901D01*
X61001Y39539D01*
Y39139D01*
X60901Y39039D01*
X60701D01*
X60601Y39139D01*
X60001Y39639D02*
X60401D01*
Y39339D01*
X60201Y39439D01*
X60101D01*
X60001Y39339D01*
Y39139D01*
X60101Y39039D01*
X60301D01*
X60401Y39139D01*
X59801Y39639D02*
X59402D01*
Y39539D01*
X59801Y39139D01*
Y39039D01*
X57576Y38539D02*
X57676Y38639D01*
X57876D01*
X57976Y38539D01*
Y38139D01*
X57876Y38039D01*
X57676D01*
X57576Y38139D01*
X56976Y38639D02*
X57376D01*
Y38339D01*
X57176Y38439D01*
X57076D01*
X56976Y38339D01*
Y38139D01*
X57076Y38039D01*
X57276D01*
X57376Y38139D01*
X56776D02*
X56676Y38039D01*
X56476D01*
X56376Y38139D01*
Y38539D01*
X56476Y38639D01*
X56676D01*
X56776Y38539D01*
Y38439D01*
X56676Y38339D01*
X56376D01*
X67601Y41539D02*
X67701Y41639D01*
X67901D01*
X68001Y41539D01*
Y41139D01*
X67901Y41039D01*
X67701D01*
X67601Y41139D01*
X67001Y41639D02*
X67201Y41539D01*
X67401Y41339D01*
Y41139D01*
X67301Y41039D01*
X67101D01*
X67001Y41139D01*
Y41239D01*
X67101Y41339D01*
X67401D01*
X66801Y41539D02*
X66701Y41639D01*
X66501D01*
X66402Y41539D01*
Y41139D01*
X66501Y41039D01*
X66701D01*
X66801Y41139D01*
Y41539D01*
X69711Y41201D02*
X69811Y41101D01*
Y40901D01*
X69711Y40801D01*
X69311D01*
X69211Y40901D01*
Y41101D01*
X69311Y41201D01*
X69811Y41801D02*
X69711Y41601D01*
X69511Y41401D01*
X69311D01*
X69211Y41501D01*
Y41701D01*
X69311Y41801D01*
X69411D01*
X69511Y41701D01*
Y41401D01*
X69211Y42001D02*
Y42201D01*
Y42101D01*
X69811D01*
X69711Y42001D01*
X73450Y32650D02*
X73550Y32750D01*
X73750D01*
X73850Y32650D01*
Y32250D01*
X73750Y32150D01*
X73550D01*
X73450Y32250D01*
X72850Y32750D02*
X73050Y32650D01*
X73250Y32450D01*
Y32250D01*
X73150Y32150D01*
X72950D01*
X72850Y32250D01*
Y32350D01*
X72950Y32450D01*
X73250D01*
X72251Y32150D02*
X72650D01*
X72251Y32550D01*
Y32650D01*
X72350Y32750D01*
X72550D01*
X72650Y32650D01*
X56600Y19950D02*
X56500Y20050D01*
Y20250D01*
X56600Y20350D01*
X57000D01*
X57100Y20250D01*
Y20050D01*
X57000Y19950D01*
X56500Y19350D02*
X56600Y19550D01*
X56800Y19750D01*
X57000D01*
X57100Y19650D01*
Y19450D01*
X57000Y19350D01*
X56900D01*
X56800Y19450D01*
Y19750D01*
X56600Y19150D02*
X56500Y19050D01*
Y18851D01*
X56600Y18751D01*
X56700D01*
X56800Y18851D01*
Y18950D01*
Y18851D01*
X56900Y18751D01*
X57000D01*
X57100Y18851D01*
Y19050D01*
X57000Y19150D01*
X61886Y21576D02*
X61786Y21676D01*
Y21876D01*
X61886Y21976D01*
X62286D01*
X62386Y21876D01*
Y21676D01*
X62286Y21576D01*
X61786Y20976D02*
X61886Y21176D01*
X62086Y21376D01*
X62286D01*
X62386Y21276D01*
Y21076D01*
X62286Y20976D01*
X62186D01*
X62086Y21076D01*
Y21376D01*
X62386Y20476D02*
X61786D01*
X62086Y20776D01*
Y20377D01*
X63236Y22476D02*
X63136Y22576D01*
Y22776D01*
X63236Y22876D01*
X63636D01*
X63736Y22776D01*
Y22576D01*
X63636Y22476D01*
X63136Y21876D02*
X63236Y22076D01*
X63436Y22276D01*
X63636D01*
X63736Y22176D01*
Y21976D01*
X63636Y21876D01*
X63536D01*
X63436Y21976D01*
Y22276D01*
X63136Y21277D02*
Y21676D01*
X63436D01*
X63336Y21476D01*
Y21376D01*
X63436Y21277D01*
X63636D01*
X63736Y21376D01*
Y21576D01*
X63636Y21676D01*
X68211Y19651D02*
X68311Y19551D01*
Y19351D01*
X68211Y19251D01*
X67811D01*
X67711Y19351D01*
Y19551D01*
X67811Y19651D01*
X68311Y20251D02*
X68211Y20051D01*
X68011Y19851D01*
X67811D01*
X67711Y19951D01*
Y20151D01*
X67811Y20251D01*
X67911D01*
X68011Y20151D01*
Y19851D01*
X68311Y20850D02*
X68211Y20651D01*
X68011Y20451D01*
X67811D01*
X67711Y20551D01*
Y20751D01*
X67811Y20850D01*
X67911D01*
X68011Y20751D01*
Y20451D01*
X67250Y18800D02*
X67350Y18700D01*
Y18500D01*
X67250Y18400D01*
X66850D01*
X66750Y18500D01*
Y18700D01*
X66850Y18800D01*
X67350Y19400D02*
X67250Y19200D01*
X67050Y19000D01*
X66850D01*
X66750Y19100D01*
Y19300D01*
X66850Y19400D01*
X66950D01*
X67050Y19300D01*
Y19000D01*
X67350Y19600D02*
Y19999D01*
X67250D01*
X66850Y19600D01*
X66750D01*
X66700Y22025D02*
X66800Y21925D01*
Y21725D01*
X66700Y21625D01*
X66300D01*
X66200Y21725D01*
Y21925D01*
X66300Y22025D01*
X66800Y22625D02*
X66700Y22425D01*
X66500Y22225D01*
X66300D01*
X66200Y22325D01*
Y22525D01*
X66300Y22625D01*
X66400D01*
X66500Y22525D01*
Y22225D01*
X66700Y22825D02*
X66800Y22925D01*
Y23125D01*
X66700Y23224D01*
X66600D01*
X66500Y23125D01*
X66400Y23224D01*
X66300D01*
X66200Y23125D01*
Y22925D01*
X66300Y22825D01*
X66400D01*
X66500Y22925D01*
X66600Y22825D01*
X66700D01*
X66500Y22925D02*
Y23125D01*
X60425Y20125D02*
X60525Y20025D01*
Y19825D01*
X60425Y19725D01*
X60025D01*
X59925Y19825D01*
Y20025D01*
X60025Y20125D01*
X60525Y20725D02*
X60425Y20525D01*
X60225Y20325D01*
X60025D01*
X59925Y20425D01*
Y20625D01*
X60025Y20725D01*
X60125D01*
X60225Y20625D01*
Y20325D01*
X60025Y20925D02*
X59925Y21025D01*
Y21225D01*
X60025Y21324D01*
X60425D01*
X60525Y21225D01*
Y21025D01*
X60425Y20925D01*
X60325D01*
X60225Y21025D01*
Y21324D01*
X54376Y38862D02*
X54476Y38962D01*
X54676D01*
X54776Y38862D01*
Y38462D01*
X54676Y38362D01*
X54476D01*
X54376Y38462D01*
X54176Y38962D02*
X53776D01*
Y38862D01*
X54176Y38462D01*
Y38362D01*
X53576Y38862D02*
X53476Y38962D01*
X53276D01*
X53177Y38862D01*
Y38462D01*
X53276Y38362D01*
X53476D01*
X53576Y38462D01*
Y38862D01*
X55550Y37075D02*
X55650Y37175D01*
X55850D01*
X55950Y37075D01*
Y36675D01*
X55850Y36575D01*
X55650D01*
X55550Y36675D01*
X55350Y37175D02*
X54950D01*
Y37075D01*
X55350Y36675D01*
Y36575D01*
X54750D02*
X54550D01*
X54650D01*
Y37175D01*
X54750Y37075D01*
X54976Y40889D02*
X55076Y40989D01*
X55276D01*
X55376Y40889D01*
Y40489D01*
X55276Y40389D01*
X55076D01*
X54976Y40489D01*
X54776Y40989D02*
X54376D01*
Y40889D01*
X54776Y40489D01*
Y40389D01*
X53777D02*
X54176D01*
X53777Y40789D01*
Y40889D01*
X53876Y40989D01*
X54076D01*
X54176Y40889D01*
X53975Y34500D02*
X53875Y34400D01*
X53675D01*
X53575Y34500D01*
Y34900D01*
X53675Y35000D01*
X53875D01*
X53975Y34900D01*
X54175Y34400D02*
X54575D01*
Y34500D01*
X54175Y34900D01*
Y35000D01*
X54775Y34500D02*
X54875Y34400D01*
X55075D01*
X55174Y34500D01*
Y34600D01*
X55075Y34700D01*
X54975D01*
X55075D01*
X55174Y34800D01*
Y34900D01*
X55075Y35000D01*
X54875D01*
X54775Y34900D01*
X70525Y19675D02*
X70625Y19575D01*
Y19375D01*
X70525Y19275D01*
X70125D01*
X70025Y19375D01*
Y19575D01*
X70125Y19675D01*
X70625Y19875D02*
Y20275D01*
X70525D01*
X70125Y19875D01*
X70025D01*
Y20775D02*
X70625D01*
X70325Y20475D01*
Y20874D01*
X77225Y37525D02*
X77325Y37625D01*
X77525D01*
X77625Y37525D01*
Y37125D01*
X77525Y37025D01*
X77325D01*
X77225Y37125D01*
X77025Y37625D02*
X76625D01*
Y37525D01*
X77025Y37125D01*
Y37025D01*
X76026Y37625D02*
X76425D01*
Y37325D01*
X76225Y37425D01*
X76125D01*
X76026Y37325D01*
Y37125D01*
X76125Y37025D01*
X76325D01*
X76425Y37125D01*
X77175Y35750D02*
X77275Y35850D01*
X77475D01*
X77575Y35750D01*
Y35350D01*
X77475Y35250D01*
X77275D01*
X77175Y35350D01*
X76975Y35850D02*
X76575D01*
Y35750D01*
X76975Y35350D01*
Y35250D01*
X76375Y35850D02*
X75976D01*
Y35750D01*
X76375Y35350D01*
Y35250D01*
X78625Y34125D02*
X78725Y34225D01*
X78925D01*
X79025Y34125D01*
Y33725D01*
X78925Y33625D01*
X78725D01*
X78625Y33725D01*
X78425Y34225D02*
X78025D01*
Y34125D01*
X78425Y33725D01*
Y33625D01*
X77825Y34125D02*
X77725Y34225D01*
X77525D01*
X77426Y34125D01*
Y34025D01*
X77525Y33925D01*
X77426Y33825D01*
Y33725D01*
X77525Y33625D01*
X77725D01*
X77825Y33725D01*
Y33825D01*
X77725Y33925D01*
X77825Y34025D01*
Y34125D01*
X77725Y33925D02*
X77525D01*
X61601Y36564D02*
X61701Y36664D01*
X61901D01*
X62001Y36564D01*
Y36164D01*
X61901Y36064D01*
X61701D01*
X61601Y36164D01*
X61401Y36564D02*
X61301Y36664D01*
X61101D01*
X61001Y36564D01*
Y36464D01*
X61101Y36364D01*
X61001Y36264D01*
Y36164D01*
X61101Y36064D01*
X61301D01*
X61401Y36164D01*
Y36264D01*
X61301Y36364D01*
X61401Y36464D01*
Y36564D01*
X61301Y36364D02*
X61101D01*
X60801Y36564D02*
X60701Y36664D01*
X60501D01*
X60402Y36564D01*
Y36164D01*
X60501Y36064D01*
X60701D01*
X60801Y36164D01*
Y36564D01*
X41288Y25251D02*
X41388Y25151D01*
Y24951D01*
X41288Y24851D01*
X40888D01*
X40788Y24951D01*
Y25151D01*
X40888Y25251D01*
X41288Y25451D02*
X41388Y25551D01*
Y25751D01*
X41288Y25851D01*
X41188D01*
X41088Y25751D01*
X40988Y25851D01*
X40888D01*
X40788Y25751D01*
Y25551D01*
X40888Y25451D01*
X40988D01*
X41088Y25551D01*
X41188Y25451D01*
X41288D01*
X41088Y25551D02*
Y25751D01*
X40788Y26351D02*
X41388D01*
X41088Y26051D01*
Y26450D01*
X57401Y29539D02*
X57501Y29639D01*
X57701D01*
X57801Y29539D01*
Y29139D01*
X57701Y29039D01*
X57501D01*
X57401Y29139D01*
X57201Y29539D02*
X57101Y29639D01*
X56901D01*
X56801Y29539D01*
Y29439D01*
X56901Y29339D01*
X56801Y29239D01*
Y29139D01*
X56901Y29039D01*
X57101D01*
X57201Y29139D01*
Y29239D01*
X57101Y29339D01*
X57201Y29439D01*
Y29539D01*
X57101Y29339D02*
X56901D01*
X56201Y29639D02*
X56601D01*
Y29339D01*
X56401Y29439D01*
X56301D01*
X56201Y29339D01*
Y29139D01*
X56301Y29039D01*
X56501D01*
X56601Y29139D01*
X59525Y24600D02*
X59625Y24500D01*
Y24300D01*
X59525Y24200D01*
X59125D01*
X59025Y24300D01*
Y24500D01*
X59125Y24600D01*
X59525Y24800D02*
X59625Y24900D01*
Y25100D01*
X59525Y25200D01*
X59425D01*
X59325Y25100D01*
X59225Y25200D01*
X59125D01*
X59025Y25100D01*
Y24900D01*
X59125Y24800D01*
X59225D01*
X59325Y24900D01*
X59425Y24800D01*
X59525D01*
X59325Y24900D02*
Y25100D01*
X59625Y25799D02*
X59525Y25600D01*
X59325Y25400D01*
X59125D01*
X59025Y25500D01*
Y25700D01*
X59125Y25799D01*
X59225D01*
X59325Y25700D01*
Y25400D01*
X57775Y26800D02*
X57875Y26900D01*
X58075D01*
X58175Y26800D01*
Y26400D01*
X58075Y26300D01*
X57875D01*
X57775Y26400D01*
X57575Y26800D02*
X57475Y26900D01*
X57275D01*
X57175Y26800D01*
Y26700D01*
X57275Y26600D01*
X57175Y26500D01*
Y26400D01*
X57275Y26300D01*
X57475D01*
X57575Y26400D01*
Y26500D01*
X57475Y26600D01*
X57575Y26700D01*
Y26800D01*
X57475Y26600D02*
X57275D01*
X56975Y26900D02*
X56576D01*
Y26800D01*
X56975Y26400D01*
Y26300D01*
X57401Y25364D02*
X57501Y25464D01*
X57701D01*
X57801Y25364D01*
Y24964D01*
X57701Y24864D01*
X57501D01*
X57401Y24964D01*
X57201Y25364D02*
X57101Y25464D01*
X56901D01*
X56801Y25364D01*
Y25264D01*
X56901Y25164D01*
X56801Y25064D01*
Y24964D01*
X56901Y24864D01*
X57101D01*
X57201Y24964D01*
Y25064D01*
X57101Y25164D01*
X57201Y25264D01*
Y25364D01*
X57101Y25164D02*
X56901D01*
X56601Y24964D02*
X56501Y24864D01*
X56301D01*
X56201Y24964D01*
Y25364D01*
X56301Y25464D01*
X56501D01*
X56601Y25364D01*
Y25264D01*
X56501Y25164D01*
X56201D01*
X51038Y22876D02*
X51138Y22776D01*
Y22576D01*
X51038Y22476D01*
X50638D01*
X50538Y22576D01*
Y22776D01*
X50638Y22876D01*
Y23076D02*
X50538Y23176D01*
Y23376D01*
X50638Y23476D01*
X51038D01*
X51138Y23376D01*
Y23176D01*
X51038Y23076D01*
X50938D01*
X50838Y23176D01*
Y23476D01*
X50538Y23676D02*
Y23876D01*
Y23776D01*
X51138D01*
X51038Y23676D01*
X56550Y21650D02*
X56650Y21550D01*
Y21350D01*
X56550Y21250D01*
X56150D01*
X56050Y21350D01*
Y21550D01*
X56150Y21650D01*
Y21850D02*
X56050Y21950D01*
Y22150D01*
X56150Y22250D01*
X56550D01*
X56650Y22150D01*
Y21950D01*
X56550Y21850D01*
X56450D01*
X56350Y21950D01*
Y22250D01*
X56050Y22849D02*
Y22450D01*
X56450Y22849D01*
X56550D01*
X56650Y22750D01*
Y22550D01*
X56550Y22450D01*
X55075Y24000D02*
X55175Y24100D01*
X55375D01*
X55475Y24000D01*
Y23600D01*
X55375Y23500D01*
X55175D01*
X55075Y23600D01*
X54875D02*
X54775Y23500D01*
X54575D01*
X54475Y23600D01*
Y24000D01*
X54575Y24100D01*
X54775D01*
X54875Y24000D01*
Y23900D01*
X54775Y23800D01*
X54475D01*
X54275Y24000D02*
X54175Y24100D01*
X53975D01*
X53876Y24000D01*
Y23900D01*
X53975Y23800D01*
X54075D01*
X53975D01*
X53876Y23700D01*
Y23600D01*
X53975Y23500D01*
X54175D01*
X54275Y23600D01*
X54350Y27075D02*
X54450Y27175D01*
X54650D01*
X54750Y27075D01*
Y26675D01*
X54650Y26575D01*
X54450D01*
X54350Y26675D01*
X54150D02*
X54050Y26575D01*
X53850D01*
X53750Y26675D01*
Y27075D01*
X53850Y27175D01*
X54050D01*
X54150Y27075D01*
Y26975D01*
X54050Y26875D01*
X53750D01*
X53250Y26575D02*
Y27175D01*
X53550Y26875D01*
X53151D01*
X54350Y28500D02*
X54450Y28600D01*
X54650D01*
X54750Y28500D01*
Y28100D01*
X54650Y28000D01*
X54450D01*
X54350Y28100D01*
X54150D02*
X54050Y28000D01*
X53850D01*
X53750Y28100D01*
Y28500D01*
X53850Y28600D01*
X54050D01*
X54150Y28500D01*
Y28400D01*
X54050Y28300D01*
X53750D01*
X53151Y28600D02*
X53550D01*
Y28300D01*
X53350Y28400D01*
X53250D01*
X53151Y28300D01*
Y28100D01*
X53250Y28000D01*
X53450D01*
X53550Y28100D01*
X53550Y30150D02*
X53650Y30250D01*
X53850D01*
X53950Y30150D01*
Y29750D01*
X53850Y29650D01*
X53650D01*
X53550Y29750D01*
X53350D02*
X53250Y29650D01*
X53050D01*
X52950Y29750D01*
Y30150D01*
X53050Y30250D01*
X53250D01*
X53350Y30150D01*
Y30050D01*
X53250Y29950D01*
X52950D01*
X52351Y30250D02*
X52550Y30150D01*
X52750Y29950D01*
Y29750D01*
X52650Y29650D01*
X52450D01*
X52351Y29750D01*
Y29850D01*
X52450Y29950D01*
X52750D01*
X68025Y31050D02*
X67925Y30950D01*
X67725D01*
X67625Y31050D01*
Y31450D01*
X67725Y31550D01*
X67925D01*
X68025Y31450D01*
X68225D02*
X68325Y31550D01*
X68525D01*
X68625Y31450D01*
Y31050D01*
X68525Y30950D01*
X68325D01*
X68225Y31050D01*
Y31150D01*
X68325Y31250D01*
X68625D01*
X68825Y31050D02*
X68925Y30950D01*
X69125D01*
X69224Y31050D01*
Y31150D01*
X69125Y31250D01*
X69224Y31350D01*
Y31450D01*
X69125Y31550D01*
X68925D01*
X68825Y31450D01*
Y31350D01*
X68925Y31250D01*
X68825Y31150D01*
Y31050D01*
X68925Y31250D02*
X69125D01*
X70499Y29786D02*
X70399Y29686D01*
X70199D01*
X70099Y29786D01*
Y30186D01*
X70199Y30286D01*
X70399D01*
X70499Y30186D01*
X70699Y30286D02*
X70899D01*
X70799D01*
Y29686D01*
X70699Y29786D01*
X71199D02*
X71299Y29686D01*
X71499D01*
X71599Y29786D01*
Y30186D01*
X71499Y30286D01*
X71299D01*
X71199Y30186D01*
Y29786D01*
X71798D02*
X71898Y29686D01*
X72098D01*
X72198Y29786D01*
Y30186D01*
X72098Y30286D01*
X71898D01*
X71798Y30186D01*
Y29786D01*
X64525Y30425D02*
X64625Y30325D01*
Y30125D01*
X64525Y30025D01*
X64125D01*
X64025Y30125D01*
Y30325D01*
X64125Y30425D01*
X64025Y30625D02*
Y30825D01*
Y30725D01*
X64625D01*
X64525Y30625D01*
Y31125D02*
X64625Y31225D01*
Y31425D01*
X64525Y31525D01*
X64125D01*
X64025Y31425D01*
Y31225D01*
X64125Y31125D01*
X64525D01*
X64025Y32024D02*
X64625D01*
X64325Y31724D01*
Y32124D01*
X63125Y28700D02*
X63225Y28800D01*
X63425D01*
X63525Y28700D01*
Y28300D01*
X63425Y28200D01*
X63225D01*
X63125Y28300D01*
X62925Y28200D02*
X62725D01*
X62825D01*
Y28800D01*
X62925Y28700D01*
X62425Y28200D02*
X62225D01*
X62325D01*
Y28800D01*
X62425Y28700D01*
X61926D02*
X61826Y28800D01*
X61626D01*
X61526Y28700D01*
Y28600D01*
X61626Y28500D01*
X61726D01*
X61626D01*
X61526Y28400D01*
Y28300D01*
X61626Y28200D01*
X61826D01*
X61926Y28300D01*
X70625Y23775D02*
X70725Y23675D01*
Y23475D01*
X70625Y23375D01*
X70225D01*
X70125Y23475D01*
Y23675D01*
X70225Y23775D01*
X70125Y23975D02*
Y24175D01*
Y24075D01*
X70725D01*
X70625Y23975D01*
X70125Y24475D02*
Y24675D01*
Y24575D01*
X70725D01*
X70625Y24475D01*
X70125Y25274D02*
X70725D01*
X70425Y24974D01*
Y25374D01*
X68725Y23225D02*
X68825Y23125D01*
Y22925D01*
X68725Y22825D01*
X68325D01*
X68225Y22925D01*
Y23125D01*
X68325Y23225D01*
X68225Y23425D02*
Y23625D01*
Y23525D01*
X68825D01*
X68725Y23425D01*
X68225Y23925D02*
Y24125D01*
Y24025D01*
X68825D01*
X68725Y23925D01*
X68825Y24824D02*
Y24424D01*
X68525D01*
X68625Y24624D01*
Y24724D01*
X68525Y24824D01*
X68325D01*
X68225Y24724D01*
Y24524D01*
X68325Y24424D01*
X72450Y28475D02*
X72550Y28575D01*
X72750D01*
X72850Y28475D01*
Y28075D01*
X72750Y27975D01*
X72550D01*
X72450Y28075D01*
X72250Y27975D02*
X72050D01*
X72150D01*
Y28575D01*
X72250Y28475D01*
X71750Y27975D02*
X71550D01*
X71650D01*
Y28575D01*
X71750Y28475D01*
X70851Y28575D02*
X71051Y28475D01*
X71251Y28275D01*
Y28075D01*
X71151Y27975D01*
X70951D01*
X70851Y28075D01*
Y28175D01*
X70951Y28275D01*
X71251D01*
X67375Y24900D02*
X67475Y24800D01*
Y24600D01*
X67375Y24500D01*
X66975D01*
X66875Y24600D01*
Y24800D01*
X66975Y24900D01*
X66875Y25100D02*
Y25300D01*
Y25200D01*
X67475D01*
X67375Y25100D01*
X66875Y25600D02*
Y25800D01*
Y25700D01*
X67475D01*
X67375Y25600D01*
Y26099D02*
X67475Y26199D01*
Y26399D01*
X67375Y26499D01*
X67275D01*
X67175Y26399D01*
X67075Y26499D01*
X66975D01*
X66875Y26399D01*
Y26199D01*
X66975Y26099D01*
X67075D01*
X67175Y26199D01*
X67275Y26099D01*
X67375D01*
X67175Y26199D02*
Y26399D01*
X60125Y32675D02*
X60225Y32775D01*
X60425D01*
X60525Y32675D01*
Y32275D01*
X60425Y32175D01*
X60225D01*
X60125Y32275D01*
X59925Y32175D02*
X59725D01*
X59825D01*
Y32775D01*
X59925Y32675D01*
X59025Y32175D02*
X59425D01*
X59025Y32575D01*
Y32675D01*
X59125Y32775D01*
X59325D01*
X59425Y32675D01*
X58826Y32275D02*
X58726Y32175D01*
X58526D01*
X58426Y32275D01*
Y32675D01*
X58526Y32775D01*
X58726D01*
X58826Y32675D01*
Y32575D01*
X58726Y32475D01*
X58426D01*
X71575Y34725D02*
X71675Y34825D01*
X71875D01*
X71975Y34725D01*
Y34325D01*
X71875Y34225D01*
X71675D01*
X71575Y34325D01*
X71375Y34225D02*
X71175D01*
X71275D01*
Y34825D01*
X71375Y34725D01*
X70875D02*
X70775Y34825D01*
X70575D01*
X70475Y34725D01*
Y34625D01*
X70575Y34525D01*
X70675D01*
X70575D01*
X70475Y34425D01*
Y34325D01*
X70575Y34225D01*
X70775D01*
X70875Y34325D01*
X69876Y34225D02*
X70276D01*
X69876Y34625D01*
Y34725D01*
X69976Y34825D01*
X70176D01*
X70276Y34725D01*
X63150Y24900D02*
X63050Y24800D01*
X62850D01*
X62750Y24900D01*
Y25300D01*
X62850Y25400D01*
X63050D01*
X63150Y25300D01*
X63350Y25400D02*
X63550D01*
X63450D01*
Y24800D01*
X63350Y24900D01*
X63850D02*
X63950Y24800D01*
X64150D01*
X64250Y24900D01*
Y25000D01*
X64150Y25100D01*
X64050D01*
X64150D01*
X64250Y25200D01*
Y25300D01*
X64150Y25400D01*
X63950D01*
X63850Y25300D01*
X64749Y25400D02*
Y24800D01*
X64449Y25100D01*
X64849D01*
X64850Y19950D02*
X64950Y19850D01*
Y19650D01*
X64850Y19550D01*
X64450D01*
X64350Y19650D01*
Y19850D01*
X64450Y19950D01*
X64350Y20150D02*
Y20350D01*
Y20250D01*
X64950D01*
X64850Y20150D01*
Y20650D02*
X64950Y20750D01*
Y20950D01*
X64850Y21050D01*
X64750D01*
X64650Y20950D01*
Y20850D01*
Y20950D01*
X64550Y21050D01*
X64450D01*
X64350Y20950D01*
Y20750D01*
X64450Y20650D01*
X64950Y21649D02*
Y21249D01*
X64650D01*
X64750Y21449D01*
Y21549D01*
X64650Y21649D01*
X64450D01*
X64350Y21549D01*
Y21349D01*
X64450Y21249D01*
X74900Y21200D02*
X75000Y21100D01*
Y20900D01*
X74900Y20800D01*
X74500D01*
X74400Y20900D01*
Y21100D01*
X74500Y21200D01*
X74400Y21400D02*
Y21600D01*
Y21500D01*
X75000D01*
X74900Y21400D01*
Y21900D02*
X75000Y22000D01*
Y22200D01*
X74900Y22300D01*
X74800D01*
X74700Y22200D01*
Y22100D01*
Y22200D01*
X74600Y22300D01*
X74500D01*
X74400Y22200D01*
Y22000D01*
X74500Y21900D01*
X75000Y22899D02*
X74900Y22699D01*
X74700Y22499D01*
X74500D01*
X74400Y22599D01*
Y22799D01*
X74500Y22899D01*
X74600D01*
X74700Y22799D01*
Y22499D01*
X163425Y-10000D02*
Y120000D01*
X-10000Y-10000D02*
X163425D01*
X-10000D02*
Y120000D01*
X163425D01*
D49*
X24503Y3248D02*
Y5247D01*
X23503D01*
X23170Y4914D01*
Y4248D01*
X23503Y3914D01*
X24503D01*
X21504Y3248D02*
Y5247D01*
X22504Y4248D01*
X21171D01*
X67707Y48468D02*
Y50467D01*
X66707D01*
X66374Y50134D01*
Y49468D01*
X66707Y49134D01*
X67707D01*
X65708Y50134D02*
X65374Y50467D01*
X64708D01*
X64375Y50134D01*
Y49801D01*
X64708Y49468D01*
X65041D01*
X64708D01*
X64375Y49134D01*
Y48801D01*
X64708Y48468D01*
X65374D01*
X65708Y48801D01*
X24503Y48468D02*
Y50467D01*
X23503D01*
X23170Y50134D01*
Y49468D01*
X23503Y49134D01*
X24503D01*
X21171Y48468D02*
X22504D01*
X21171Y49801D01*
Y50134D01*
X21504Y50467D01*
X22170D01*
X22504Y50134D01*
X67707Y3248D02*
Y5247D01*
X66707D01*
X66374Y4914D01*
Y4248D01*
X66707Y3914D01*
X67707D01*
X65708Y3248D02*
X65041D01*
X65374D01*
Y5247D01*
X65708Y4914D01*
X65050Y124450D02*
Y123450D01*
X65550D01*
X65716Y123617D01*
Y123783D01*
X65550Y123950D01*
X65050D01*
X65550D01*
X65716Y124116D01*
Y124283D01*
X65550Y124450D01*
X65050D01*
X66549D02*
X66216D01*
X66050Y124283D01*
Y123617D01*
X66216Y123450D01*
X66549D01*
X66716Y123617D01*
Y124283D01*
X66549Y124450D01*
X67049Y123450D02*
Y124116D01*
X67382Y124450D01*
X67716Y124116D01*
Y123450D01*
Y123950D01*
X67049D01*
X68049Y123450D02*
Y124450D01*
X68549D01*
X68715Y124283D01*
Y123950D01*
X68549Y123783D01*
X68049D01*
X68382D02*
X68715Y123450D01*
X69049Y124450D02*
Y123450D01*
X69548D01*
X69715Y123617D01*
Y124283D01*
X69548Y124450D01*
X69049D01*
X71548D02*
X71215D01*
X71048Y124283D01*
Y123617D01*
X71215Y123450D01*
X71548D01*
X71714Y123617D01*
Y124283D01*
X71548Y124450D01*
X72048D02*
Y123617D01*
X72214Y123450D01*
X72547D01*
X72714Y123617D01*
Y124450D01*
X73047D02*
X73714D01*
X73380D01*
Y123450D01*
X74047Y124450D02*
Y123450D01*
X74713D01*
X75047Y124450D02*
X75380D01*
X75213D01*
Y123450D01*
X75047D01*
X75380D01*
X75880D02*
Y124450D01*
X76546Y123450D01*
Y124450D01*
X77546D02*
X76879D01*
Y123450D01*
X77546D01*
X76879Y123950D02*
X77213D01*
D54*
X73500Y39500D02*
X73500Y39500D01*
D77*
X13134Y2730D02*
Y6667D01*
X30022D01*
Y2730D02*
Y6667D01*
X13134Y2730D02*
X30022D01*
X11578Y1714D02*
Y6483D01*
X12778Y7683D01*
X30378D01*
X31578Y6483D01*
Y1714D02*
Y6483D01*
X11578Y1714D02*
X31578D01*
X56338Y47950D02*
Y51887D01*
X73226D01*
Y47950D02*
Y51887D01*
X56338Y47950D02*
X73226D01*
X54782Y46934D02*
Y51703D01*
X55982Y52903D01*
X73582D01*
X74782Y51703D01*
Y46934D02*
Y51703D01*
X54782Y46934D02*
X74782D01*
X13134Y47950D02*
Y51887D01*
X30022D01*
Y47950D02*
Y51887D01*
X13134Y47950D02*
X30022D01*
X11578Y46934D02*
Y51703D01*
X12778Y52903D01*
X30378D01*
X31578Y51703D01*
Y46934D02*
Y51703D01*
X11578Y46934D02*
X31578D01*
X56338Y2730D02*
Y6667D01*
X73226D01*
Y2730D02*
Y6667D01*
X56338Y2730D02*
X73226D01*
X54782Y1714D02*
Y6483D01*
X55982Y7683D01*
X73582D01*
X74782Y6483D01*
Y1714D02*
Y6483D01*
X54782Y1714D02*
X74782D01*
M02*
