M48
;Layer_Color=9474304
;FILE_FORMAT=4:3
METRIC,LZ
;TYPE=PLATED
T1F00S00C0.200
T2F00S00C0.900
T3F00S00C1.000
T4F00S00C1.500
T5F00S00C1.600
T6F00S00C1.700
T7F00S00C3.175
%
T01
X01116Y-0007625
X0111Y-0006675
X01126Y-0005625
X01146
X0114804Y-0005021
X01156Y-0003625
X01176
X01196
X01216
X0121896Y-0005021
X01226Y-0005625
X01246
X01266
X0125887Y-0006488
X01256Y-0007625
X01236
Y-0003625
X01246Y-0001625
X01266
X01286
X01306
X01326
X01336Y0000375
X01356
X01376
X01396
X01406Y0002375
X01386
X01366
X01346
X01326
X01336Y0004375
X01316
X01296
X01276
X01286Y0006375
X01306
X01326
X01316Y0008375
X01296
X01276
X01286Y0010375
X01306
X01326
X01346
X01366
X01386
X01406
X01396Y0012375
X01376
X01356
X01366Y0014375
X01386
X01406
X01376Y0016375
X01356
X01361Y00187
X01376Y0020375
X01396
X01406Y0022375
X01386
X01396Y0024375
X01376
X01356
X01366Y0026375
X01346
X01356Y0028375
X01316
X01296
X01276
X01266Y0026375
X01246
X01226
X01206
X01186
X01166
X01196Y0028375
X01216
Y0024375
X01236
X01246Y0022375
X01266
X01286
X01306
X01316Y0024375
X01306Y0026375
X01276Y0024375
Y0020375
X01296
X01316
Y0016375
X01296
X01276
X01286Y0014375
X01306
X01326
X01346
X01316Y0012375
X01296
X01276
X01266Y0014375
X01246
X01226
X01206
X01216Y0016375
X01236
Y0020375
X01216
X01196
X01176
X01186Y0022375
X01206
X01226
X01196Y0024375
Y0016375
X01176
X01166Y0018375
Y0014375
X01146
X01126
X01106
X01116Y0016375
X01136
Y0012375
X01116
X01126Y0010375
X01146
X01166
X01186
X01206
X01216Y0012375
X01236
X01246Y0010375
X01266
X01236Y0008375
X01216
X01196
X01176
X01186Y0006375
X01206
X01226
X01246
X01236Y0004375
X01216
X01196
X01176
X01186Y0002375
X01206
X01226
X01246
X01266
X01286
X01296Y0000375
X01316
Y-0003625
X01336
X01356
X01376
X01379Y-00048
X01386Y-0005625
X01366
X01346
X01326
X01306
X0129046Y-0005021
X01296Y-0003625
X01276
Y0000375
X01236
X01216
X01196
X01206Y-0001625
X01226
X01166
X01146
X01126
X01106
X01116Y0000375
X01136
X01156
X01146Y0002375
X01126
X01106
X01116Y0004375
X01136
X01146Y0006375
X01166
X01126
X01106
X01116Y0008375
X01136
X01106Y0010375
Y0018375
X01116Y0020375
X01124Y00207
X01126Y0022375
X01116Y0028375
X01176Y0012375
X01196
X01188Y-0006625
X01176Y-0007625
X01156
X01166Y-0005625
X01136Y-0003625
X01116
X01296Y-0007625
X01316
X01336
X01356
X01376
X01396
X01416
X01436
X01416Y-0003625
X01396
X01406Y-0001625
X01386
X01366
X01376Y0004375
Y0008375
X01346Y0022375
X014645Y0019775
X0146227Y-0003827
X01096Y-0003625
X01076
X0107721Y-0005021
X01086Y-0005625
X01096Y-0007625
X01053Y-000665
X01046Y-0005625
X01026
X01006
X00986
X00966
X00946
X00926
X00906
X00886
X00866
X00846
X00826
X00806
X00786
X00766
X00746
X00726
X00736Y-0003625
X00756
X00776
X00796
X00816
X00836
X00856
X00876
X00896
X00916
X00936
X00956
X00976
X00996
X01016
X01036
X01046Y-0001625
X01066
X01086
X01076Y0000375
X01086Y0002375
X01066
X01046
X01026
X01006
X00986
X00996Y0004375
X01016
X01036
X01046Y0006375
X01066
X01086
X01076Y0008375
X01086Y0010375
X01066
X01076Y0012375
X01066Y0014375
X01076Y0016375
Y0024375
X01066Y0026375
X01076Y0028375
X00956
X0092825Y0029
X0092875Y0027
X00929Y0024975
Y002305
X00956Y0024375
X00926Y0018375
X00906
X0090575Y001755
X00916Y0016375
X00936
X008665Y001585
X00856Y0016375
X00836
X00816
X00796
X00776
X00756
X00736
X00716
X0072Y002
X00735Y00225
Y00245
X00735Y00255
X00725Y00255
X00715Y00245
X00735Y00275
X00755
X0075525Y0029475
X0077Y0029
X00777Y0029525
X0078075Y0028475
X007805Y0027225
X0078275Y0026
X00788Y0024975
X0077Y0024
X00765Y002645
X00755Y00215
X00776Y0020375
X00796
X00816
X00836
X00846Y0022375
Y0026375
X00806Y0022375
X00866Y0018375
X0091054Y0005835
X00946Y0006375
X00966
X00986
X01026
X01036Y0008375
X01076Y0004375
X01036Y0000375
X01016
X00996
X00976
X00956
X00966Y-0001625
X00986
X01006
X01026
X01036Y-0007625
X01016
X00996
X00976
X00956
X00936
X00916
X00896
X00876
X00856
X00836
X00816
X00796
X00776
X00756
X00736
X00716
Y-0003625
Y0000375
X00736
X00756
X00776
X00796
X00786Y0002375
X00766
X00756Y0004375
X00796
X0072075Y00031
X0071532Y0002636
X007105Y0003125
X00726Y0002375
X0071025Y0009375
X0088454Y0001645
X008805Y-0000475
X0090475Y000035
X00935Y000155
X00946Y0002375
X00956Y0004375
X00946Y-0001625
X0070029Y000015
X0068128Y00007
X0067529Y000015
X0065029
X0062529
X0060029
X00606Y-0001625
X00586
X00566
X00546
X00526
X00506
X00486
X00466
X00476Y0000375
X00496
X00516
X00536
X00556
X00576
X0057525Y0002925
X00566Y0002375
X00546
X00526
X00506
X00486
X00466
X00446
X00456Y0004375
X00476
X00496
X00516
X00536
X00556
X00546Y0006375
X00526
X00506
X00486
X00466
X00446
X00426
X00406
X00386
X00366
X00346
X00326
X00336Y0008375
X00316
Y0004375
X00336
X00356
X00376
X00386Y0002375
X00366
X00346
X00326
X00336Y0000375
X00356
X00376
X00386Y-0001625
X0039716Y-0001159
X00406Y-0001625
X0039716Y-0002659
X00376Y-0003625
X00356
X00336
X00316
X00326Y-0001625
X00346
X00366
Y-0005625
X00386
X0040575Y-0006075
X0041375Y-0006125
X0040075Y-0006625
X004005Y-000775
X00456Y-0007625
X00466Y-0005625
X00486
X00506
X00526
X00546
X00566
X00586
X00606
X00626
X00646
X00666
X00686
X00706
X00696Y-0003625
X00676
X00656
X00636
X00616
X00596
X00576
X00556
X00536
X00516
X00496
X00476
X00456
X00446Y-0005625
X0043526Y-0002451
X00426Y-0001625
X00456Y0000375
X00436Y0004375
X00416
Y0008375
X00436
X00456
X00476
X00496
X00516
X00536
X00546Y0010375
X00526
X0050378Y0011096
X00486Y0010375
X0045675Y00111
X00456Y0012375
X0046203Y0014296
X00476Y0016375
X00466Y0018375
X00446
X00426
X00406
X00386
X00366
X00376Y0020375
X00396
X00416
X00426Y0022375
X00446
X00466
X00486
X00496Y0020375
X00476
X00456
Y0024375
X00436
X00446Y0026375
X00466
X00486
X0049825Y00265
X00506Y0026375
X00512Y00248
X0054Y0025
Y0027
Y0029
X00565Y00285
Y00295
X00575
Y00275
X00585
Y00265
X00595Y00275
Y00285
X00615
Y00295
X00625Y00285
X00635
X00645
X00655
Y00295
Y00275
Y00265
X00665
Y00275
X00675Y00275
X00685
X00685Y00285
X00695
X00695Y00295
X00705
Y00275
X00695
Y00265
Y00245
X00705Y00255
X00675Y00265
X00645
X00635
Y00275
X00645
X00625
X00615
X00605Y00275
X00615Y00265
X00625
X00615Y00255
Y00245
X00605
Y00255
X00595Y00245
X00585Y00235
X00575
Y00225
X00565
X00555
X0054Y0023
Y0022
X00546Y0018375
X00526
X00536Y0016375
X00546Y0014375
X005555Y0012775
X005605
X00571Y0011675
X00576
X0058975Y0012375
X0059475
X00606Y0014375
X00626
X00616Y0016375
X00656
X00696
X00705Y00215
X00685Y0021475
X00685Y00225
X00665Y00235
X00645Y00245
X00635Y00225
X00655Y00215
X0067Y002
X0062
X00605Y00215
X0057Y002
X00565Y00245
Y00255
X00575
X00565Y00275
X00523Y00274
X00426Y00272
X0038675Y002695
Y00275
X00396Y0024375
X00406Y0022375
X00386
X00366
X00346
X00326
X00336Y0024375
X00356
X00346Y0026375
X00343Y002695
X0034325Y0027575
X00336Y0020375
X00356
Y0016375
X00376
X00386Y0014375
X00406
X0042028Y0014296
X00416Y0016375
X00436
X0042028Y0011096
X00406Y0010375
X00386
X00366
X00346
X00356Y0012375
X00376
X00396
Y0008375
X00376
X00366Y0014375
X00346
X00336Y0016375
X00316
Y0020375
X00336Y0012375
X00446Y0010375
X00536Y0012375
X0051203Y001512
X0057525Y000665
X005825Y0006075
X005875
X00596Y000635
X006025Y0005775
X006075
X0061032Y0006557
X0061875Y0003625
X00625Y0003925
X0063025Y000335
X0064025
X0063532Y0002636
X0064532
X0069532
X0070532
X0069025Y0003225
X0067025Y00064
X0068532Y0008808
X0069532
X0070532
X0069025Y00095
X0067975Y000955
X00676Y-0007625
X00696
X00656
X00636
X00616
X00596
X00576
X00556
X00536
X00516
X00336
X00316
X00326Y-0005625
X00346
X00316Y0000375
X00635Y00295
X00685
X00296Y0024375
X00276
X00256
X00236
X00216
X0020525Y0025525
X002045Y00263
X002025Y0028025
X00226Y0026375
X00246
Y0022375
X00266
X00286
X00306
X00309Y002095
X00296Y0016375
X00276
X00256
X00236
X00216
X00226Y0018375
X00246
X0025826Y0019001
X00256Y0020375
X00236
X00216
X00226Y0022375
X0020175Y00225
X00192Y0019625
X00183Y00198
X001875Y00177
X001855Y0015675
X0016975Y00145
X0017362Y001265
X0018625
X00161
X001665Y0011925
X0016631Y0011025
X0015637
X0014644
X001365
X00126Y0010375
X00106
X00086
X00096Y0012375
X00116
X00102Y0013925
X00092Y0015175
X000845Y0015675
X000445Y0015375
Y0016525
X00046Y0018375
X00047Y0020775
X000345Y00208
X0002675Y0023201
X00006Y0023
X000055Y002415
X000085Y00269
X000045Y002925
X-00024Y0028375
X-00044
X-00064
X-00084
Y0024375
Y0020375
X-00064
X-00044
X-00024
X-00004
X0000603Y0018278
X000075Y0016525
X0001775
Y0015375
X000075
Y0014225
X0001775
Y0013075
X000075
Y0011925
X0001775
Y0010775
X000075
X-00004Y0012375
X-00024
X-00044
X-00064
X-00084
X-00074Y0014375
X-00054
X-00034
X-00044Y0016375
X-00064
X-00084
X-00074Y0018375
X-00054
X-00034
X-00004Y0016375
X000445Y0014225
Y0013075
Y0011925
Y0010775
X00056Y0008375
X00076
X00096
X00116
X00136
X00146Y0006375
X00126
X00106
X00086
X00096Y0004375
X00116
X00136
X00156
X00176
X00196
X00216
X00236
X00256
X00276
X00296
X00306Y0006375
X00286
X00296Y0008375
X0028375Y0010725
Y0011425
X002836Y0012065
X0029025Y0012
X002963Y0012055
X00256Y0012375
X00236
X00216
X00226Y0014375
X00246
Y0010375
X00226
X00206
Y0014375
Y0018375
X001525Y0020175
X001595Y002105
X0015925Y0022425
X001365Y0021975
Y0023075
Y0024175
Y0025275
Y0026375
X001255
Y0025275
Y0024175
Y0023075
Y0021975
X001145
Y0023075
Y0024175
Y0025275
Y0026375
X001035
X000925
Y0025275
X001035
Y0024175
X000925
Y0023075
X001035
Y0021975
X000925
X00092Y00193
X00102Y00197
X0011075Y001925
X00122Y001965
X00127Y0019675
X0013875Y00176
X0012475Y0015975
X0013875Y00138
X0006825Y001955
X0007075Y0021425
X0006975Y0022425
X0007Y0022925
X0006825Y0025425
X00071Y0025925
X0007075Y0026925
X00065Y0026351
X000605Y002825
X0004955Y0028445
X000345Y002825
X00042Y0027376
X00042Y0026
X0007525Y002805
X000815Y00277
X0008375Y00286
X0009075Y0028625
X00112Y00286
X00117Y0028575
X00122
X00137Y00286
X00149Y0028875
X0014825Y002785
X001555
X0016375
Y0028675
X0016425Y00263
X0015975Y0025875
X0015175Y0027375
X00206Y0006375
X0021825Y000015
X0019325
X00186Y-0001625
X00206
X00226
X00246
X00266
X00286
X00306
X00296Y0000375
X0026822Y0000263
X0024325Y000015
X00236Y-0003625
X00256
X00276
X00296
X00306Y-0005625
X00286
X00266
X00246
X00226
X00206
X00186
X00166
X00146
X00126
X00106
X00086
X00066
X00046
X00026
X00006
X-00014
X-00004Y-0003625
X00016
X00036
X00056
X00076
X00096
X00116
X00136
X00156
X00176
X00196
X00216
Y-0007625
X00236
X00256
X00276
X00296
X00196
X00176
X00156
X00136
X00116
X00096
X00076
X00056
X00036
X00016
X-00004
X-00024
Y-0003625
X-00014Y-0001625
X00006
X00026
X00046
X00066
X00086
X00106
X00126
X00146
X00166
X0016825Y000015
X00136Y0000375
X00116
X00096
X00076
X00086Y0002375
X00106
X00076Y0004375
X00016Y0008375
X-00004
X-00024
X-00044
X-00064
X-00084
X-00074Y0010375
X-00054
X-00034
Y0006375
X-00014
X-00024Y0004375
X-00044
X-00064
X-00084
X-00074Y0006375
X-00054
Y0002375
X-00034
X-00014
X-00024Y0000375
X-00044
X-00064
X-00084
X-00074Y0002375
Y-0001625
X-00054
X-00034
X-0008825Y0053575
X-00064Y0052375
X-00044
X-00024
X-00014Y0054375
X-00004Y0056375
X00016
X00036
X00056
X00076
X00096
X00106Y0054375
X00126
X00136Y0056375
X00156
X00176
X00196
X00206Y0054375
Y0050375
X00226
X0021825Y0051542
X0019325
X0016825
X00146Y0050375
X00126
X00106
X00086
X00096Y0052375
X00116
X00136
Y0048375
X00156
Y0044375
X00136
X00116
X00096
X00076
X00056
X00036
X00046Y0046375
X00066
X00086
X00106
X00126
Y0042375
X00146
X00166
X00186
X00206
X00226
X00246
X00256Y0044375
X0026825Y004537
X0024325Y004535
X0021825Y0045375
X0019325Y004535
X0016825Y0045375
X00176Y0040375
X00196
X00216
X00236
X00256
X00276
X0028175Y004145
X0030575Y004125
X00296Y0044375
X00286Y0038375
X0028275Y00371
X00266Y0038375
X00246
X00226
X00236Y0036375
X00256
X00266Y0034375
X00286
X00306
X00296Y0032375
X00276
X00256
X00236
X00216
X002055Y0031975
X002015Y003375
X0019305Y0033745
X0018075Y00337
X0018Y0031975
X00148Y0032325
X0014175
X001415Y00311
X0014775
X0014875Y0029925
X001335Y003
X0012975Y00333
X0012875Y00347
X001215Y0034375
X0010225Y0033375
X00092Y00334
X000865Y0034275
X000795Y003455
X0007975Y003365
X00082Y00328
X00074Y0032625
X0006775Y003225
X00061Y0032675
X0005425Y0032225
X000875
X0008375Y0030125
X000775
X0007925Y0035475
X000755Y00386
X00066Y0042375
X00086
X00106
X00136Y0040375
X00156
X001685Y00362
X002015Y00366
Y003565
Y00347
X00226Y0034375
X00246
Y0030375
X00266
X00286
X00306
X00226
X00216Y0036375
X002015Y003755
X00148Y00331
X0001925Y003295
Y0034221
X0001275Y0033675
Y0034946
X0001925Y0035493
Y0036764
X0001275Y0036218
Y0037489
X0001925Y0038036
Y0039307
X0001275Y0038761
Y0040032
X0001925Y0040579
Y004185
X0001275Y0041304
X-00004Y0040375
X-0003075Y004095
X-00044Y0040375
X-00064
X-00084
Y0044375
Y0048375
X-00064
X-00044
X-00024
X-00034Y0047125
X-0003405Y0045395
X-0003075Y00441
X-00004Y0044375
X00006Y0046375
X00026
X-00014
Y0050375
X-00034
X-00054
X-00044Y0056375
X-00064
X-0006425Y0058575
X-00054Y0058375
X-0004675Y0058575
X-00034Y0058375
X-00014
X00006
X00026
X00046
X00036Y0060375
X00016
X-00004
X-00024
X-00044
X-00064
X-00084
X-00074Y0062375
X-00054
X-00034
X-00014
X00006
X-00004Y0064375
X-00024
X-00044
X-00064
X-00084
X-00074Y0066375
X-00054
X-00034
X-00014
X00006
X-00004Y0068375
X-00024
X-00044
X-00064
X-00084
X00056
X00086Y0066375
X00096Y0064375
X00116
X00196
X00216
X00236
X00246Y0066375
X00226
X00206
X00186
X00196Y0068375
X00216
X00176
X00156
X00226Y0062375
X00246
X00276Y0056375
X00306Y0054375
X002635Y00501
X00256Y0048375
X0024325Y0051542
X00076Y0052375
X00086Y0054375
X00096Y0048375
X00076
X0003425Y0040675
X0003475Y0036875
X-00004Y0036375
X-00024
X-00044
X-00064
X-00084
X-00054Y0038375
X-00034
X-0003075Y0034975
X-0004375Y003345
X-00064Y0032375
X-00054Y0030375
X-00034
X-00014
X-00004Y0032375
X0001775Y003035
X-00074Y0030375
X0032025Y0032475
X00336Y0032375
X0034652Y0035398
X00346Y0038375
X00366
X00386
X00396Y0036375
X0040025Y00349
X0039875Y0033575
X00386Y0034375
X0036575Y0033525
X00366Y0030375
X00386
X00406
X00426
X00446
X004485Y0032125
X0045175Y0036075
X00447Y0039125
X00438Y004045
X0040725Y00434
X00386Y0046375
X00356Y0048375
X00346Y0050375
X00316Y0052375
Y0048375
Y0044375
X00346Y0042375
X0035375Y003995
X00376Y0036375
X0054Y0037
X00565Y00365
X00575Y00385
X00555Y00395
X00565Y00415
X00585Y00405
X00605Y00395
X00615Y00415
X00635Y00405
X00655Y00395
Y00375
X00665Y00355
Y00345
Y00325
X00655Y00325
Y00315
Y00305
X00645
X00635
Y00315
Y00325
X00625Y00315
X00615
Y00325
Y00305
X00625
X0060528Y0030401
X00595Y00305
X00585
X00595Y00315
Y00325
X00605Y00335
X00625
X00645Y00355
X00615Y00365
X00595Y00375
X00585Y00355
X00575Y00325
Y00315
X00565
X00555
Y00305
X0054Y0031
X0054025Y0031875
X00555Y00345
X0054Y0042
X006Y0043
X0065
X0067528Y0041502
X00695Y00405
X00685Y00385
X00705Y00375
X00695Y00355
X00685Y00335
Y00325
X00695Y00315
Y00305
X00685
X00675
X00705Y00325
X007Y0043
X00625Y00385
X00576Y0068375
X00746Y0066375
Y0062375
X0075Y005895
X00746Y0058375
Y0054375
Y0050375
X0076247Y0045197
X0075775Y0044675
X00767Y0044125
X0076675Y00434
X0076075Y00432
X0075Y0043
X00755Y00415
X00745Y00405
X00745Y0038525
Y00375
X00755Y00375
X00745Y00355
X00725Y00365
X00715Y00345
X00735Y00335
X00725Y00305
X00745
X0077479Y0030201
X0077Y0034
X00806Y0034375
X008115Y0035375
X00826Y0034375
X00816Y0032375
X0083375Y0031825
X00846Y0030375
X0084775Y0035725
X00866Y0034375
X00886
X0088075Y00368
X008865Y0039125
X0088675Y004045
X00896Y0040375
X009185Y0040608
X009185Y0039125
X00916Y0036375
X00928Y0032975
X0092825Y003095
X00956Y0032375
X0101675Y003475
X01066Y0034375
X01076Y0036375
X01066Y0038375
X01087Y00391
X01076Y0040375
X01086Y0042375
X01066
X01076Y0044375
X01066Y0046375
X01075Y0048
X010675Y004885
X01066Y0050375
X01075Y005
Y0051
Y0052
Y0053
X0106655Y0053553
X010665Y0054375
X010628Y0055338
X0106675Y0056375
X01066Y0058375
X0106775Y0061025
X01075Y0066
X0102575Y00667
Y006525
Y0068275
X00956Y0068375
X00946Y0066375
X00926
X00906
X00886
X00866
X00846
X00856Y0068375
X00876
X00896
X00916
X00896Y0064375
X00876
X00856
X00866Y0062375
X00886
X00906
X00876Y0060375
X00856
X0086325Y005965
X00866Y0058375
X00864Y0057675
X00876Y0056375
X0085075Y0055675
X00836Y0056375
X00816
X00826Y0058375
X007985Y005895
X00846Y0062375
X008865Y0051875
X00896Y0052375
X00906Y0050375
X00926
X00946
X0094575Y0048975
X009185Y0046875
Y0043742
X00947Y0043825
X008865Y0043742
X00876Y0044375
X008865Y0046875
X00848Y00477
X008255Y004675
X00806Y0046375
X0080925Y004405
X00816Y0044375
X00798Y0042875
X0080225Y004125
X008055Y003905
X007945Y0039
X0080175Y0037825
X007905Y003745
X0077875Y0039775
X0077452Y0040227
X00771Y00406
X007745Y00419
X0077Y0039
X00735Y00385
X00715Y00395
X0072404Y0041502
X00822Y0040075
X0083504Y0041027
X00866Y0038375
X0101834Y0041584
X0101825Y0042225
X0101825Y00432
X010995Y00505
Y00515
Y00525
X01075Y0055
X01076Y0032375
X01066Y0030375
X01116Y0032375
X011275Y0039325
X0112125Y0043275
X011155Y0042725
X0110625Y0042325
X0111625Y0044075
X0113625Y00442
X0114625
X0115125Y0044875
X0114125
X0113125
X0116125
X0116625Y00443
X0117625Y0044325
X0120625Y0044175
X012145Y0044468
X0122263
X0122625Y0047325
X0122263Y0047732
X01216Y0048375
X0120125Y00481
X0118199Y0047732
X0117125Y0047925
X0116175Y004855
X0115625Y0047325
X01136Y0048375
X0112625Y0047675
X0110357Y0048023
X011058Y0049052
X0110425Y0054025
X0111575Y0054475
X011117Y0055338
X01116Y0056375
X01136
X01146Y0058375
X01156Y0060375
X01176
X01186Y0062375
X01206
X01216Y0060375
X0122925Y00597
X01229Y0061275
X01238Y0061
X0123075Y0063225
X0122775Y0065025
X01229Y0066125
X012215Y006645
X0121125Y00663
X0118802Y0066768
X0117125Y00662
X0116575Y0065925
X0115625Y0066025
X0116122Y0066525
X0114881Y0066428
X0114025Y0066525
X0113113Y0065955
X01106Y0066375
X0110357Y0061028
X01116Y0060375
X01106Y0058375
X01186
X01216Y0056375
X0123325Y0056
X0123075Y0054375
X012625Y00535
X0126725Y0052
X012625Y00505
X01261Y0047075
X01246Y0046375
X0123175Y00486
X01226Y0050375
X01206
X01186
X0118Y0051
X01166Y0054375
X01146
X0126657Y0055097
Y005591
X0129225Y0056158
Y0055507
X0129333Y0053
X0128682
X0129057Y0049175
X0129708
X01316Y0048375
X01336
X01346Y0050375
X01386
X01396Y0048375
X01386Y0046375
X0141325Y0045375
X01386Y0042375
X014005Y0040525
X01396Y0036375
X01406Y0034375
X01386
X01366
X01346
X01326
X01306
X01286
X01266
X01276Y0036375
X01272Y00376
X01296Y0036375
X01316
Y0032375
X01296
X01276
X01256
X01236
X01226Y0030375
X01206
X01186
Y0034375
X01196Y0036375
X011905Y0040925
X01216Y0040375
X012175Y0039425
X01246Y00408
X0129275Y0040592
Y0041243
X01296Y0044318
Y0044967
X012955Y0059208
Y0059857
X01286Y0058375
X01276Y0060375
X0126925Y00597
X01238Y0058
X0124156Y0067328
X012585Y0067275
X012655Y00673
X012975Y0067357
X0129756Y0066553
X01296Y0068375
Y0064375
X0129175Y0063682
Y0063033
X01346Y0062375
X01366
X01406
X01409Y00646
X01396Y0064375
X01386Y0066375
X01396Y0068375
X0146255Y0067945
X01396Y0060375
X01406Y0058375
X0146227Y0044177
X01356Y0032375
X01366Y0030375
X01346
X01326
X01306
X0126425Y0030075
X01196Y0064375
X0119Y00703
X012035Y00704
X0121241Y0070845
X0121825Y007025
X0122475Y0070225
X01246Y0070375
X01266
X01296Y0070308
Y0070957
X01296Y0072375
X0129422Y0074158
Y0074908
X01266Y0074375
X01256Y0076375
X012425Y0077375
X01246Y0078375
X01266
X01286
Y0082375
X01294Y0082525
X0129325Y00844
X01276Y0084375
X01256
X01236
X01216
X01196
X01176
X01186Y0082375
X01206
X01226
X01246
X01266
X01256Y0080375
X01236
X01216
X01196
X01176
X01156
X01136
X01116
X01106Y0082375
X01116Y0084375
X01136
X01146Y0086375
X01126
X01106
X01156Y0088375
X01176
X01196
X01216
X01236
X01256
X01276
X01296
X01286Y0090375
X0127692Y0092308
X01296Y0092375
X01286Y0094375
X0127725Y0095075
X0127742Y0097842
X01286Y0098375
X01296Y0100375
X01276
X01256
X01236
X01216
X0121425Y00986
X01206Y0102375
X01226
X01246
X01266
X01286
X01306
X01316Y0104375
X01336
X01356
X01376
X01396
X01416
X01406Y0106375
X01386
X01366
X01346
X01326
X01306
X01286
X01266
X01246
X01226
X01206
X01216Y0108375
X01236
X01256
X01276
X01296
X01316
X01336
X01356
X01376
X01396
X01416
X01436
X01376Y0100375
X01356
X01336
X01346Y0098375
X01326
X01336Y0096375
X01326Y0094375
X01336Y0092375
X01356
X01376
X01396
X01416
X01406Y0094375
X01386
X01366
X01376Y0096375
X01366Y0090375
X0138775Y0090525
X01396Y0088375
X01376
X01356
X01336
X01326Y0090375
X0133175Y00844
Y0082525
X01366Y0082375
X01386
X01406
X01416Y0084375
X01396
X01406Y0086375
X01396Y0080375
X01376
X01356
Y0084375
X0130425Y0081275
X01346Y0074375
Y0070375
X01386
X01406
X01396Y0072375
X01236
X0124275Y00735
X0122675Y0073475
X01218Y007445
X01206Y0074375
X01186
X011605Y0074475
X011461Y007444
X011317Y007442
X011173Y0074445
X01116Y0076375
X01136
X01156
X01176
X01186Y0078375
X01206
X0121775Y0076275
X01216Y0072375
X01176
X0117625Y00702
X01169Y0070375
X0113625Y0070075
X01146Y0078375
X01166
Y0082375
X01146
X01106Y0078375
X01166Y0090375
X0116675Y0092075
X01176Y0092375
X0116675Y0093375
X0114575Y0094025
X0114575Y0094675
X0113675Y0093675
X0114575Y0097925
X01166Y0102375
X0113175Y0105825
X01118Y0105875
X011035
X01216Y0104375
X01236
X01256
X01276
X01296
Y0096375
X0120275Y0092725
X0118775Y009065
X0146175Y00916
X01077Y009185
X01086Y0090375
X01066
X01046
X01026
X010065Y00912
X01036Y0092375
X01054Y00951
Y00964
Y00977
X01077Y009705
Y009575
Y009445
X01086Y0094375
X010935Y0102
Y010345
X0109325Y010475
X0108275Y0105875
X0106825Y01059
X010545Y0105875
X0104191Y0105166
X0104216Y0104466
X0102325Y0107975
X01011
X00956Y0108375
X00936
X009216Y0107525
Y01065
X00906Y0106375
X00886
X0089309Y0105166
X00896Y0104375
X00893Y01029
X00886Y0102375
X00906
X009216Y0103525
X00916Y0100375
X00896
X00876
X00856
X00836
X00846Y0102375
X00866
X00856Y0104375
X00836
X00846Y0106375
X00866
X00876Y0108375
X00896
X00856
X00836
X0081863Y010865
X0081063Y0108625
X0080263
X0079475Y0108425
X0078675
X0077875Y01084
X0077069Y0108406
X0076275Y01084
X0075875Y010775
X0076675
X0077475
X0078275
X0079075
X0079875
X0080675
X0081875
X0082263Y010615
X0081469Y0105881
X008085Y0105875
X0080275
X007905Y0105675
X0078229Y0105655
X007745Y0105625
X00767
X0075904Y010563
X00746Y0102375
Y0098375
X00826
X00846
X00866
X00886
X00906
X00926
X00916Y0096375
X00896
X00876
X00856
X00836
X00846Y0094375
X00866
X00886
X00906
X00926
X00916Y0092375
X00896
X00876
X00856
X00836
X00846Y0090375
X00866
X00886
X00906
X00926
X00946
X00956Y0092375
X00976
X00986Y0094375
X0098425Y0100475
X00976Y0100375
X00996
X01016
X0101425Y0098475
X00956Y0100375
X00946Y0106375
X0109325Y010695
X0109275Y0108375
X01096Y0084375
X01076
X01086Y0082375
X01096Y0080375
X01076
X01086Y0078375
X01066
X01076Y0076375
X01096
X011029Y007444
X010885Y007445
X01066Y0074375
X01026
Y0078375
Y0082375
Y0086375
X009825Y0086825
X0097724Y0087275
X0097275Y0087775
X009685Y0088325
X00956Y0084375
X00946Y0082375
X00926
X00906
X00886
X00866
X00846
X00826
X0080625Y008125
X0080629Y0080429
X0080675Y0078575
X0079804Y0078404
X0082Y00786
X00846Y0078375
X00866
X00886
X00906
X00926
X00946
X00956Y0076375
X00976
Y0072375
X00956
X00946Y0074375
X00926
X00906
X00886
X00866
X00846
X00856Y0076375
X00876
X00896
X00916
Y0080375
X00896
X00876
X00856
X008525Y00844
Y0086
X0087675
X0087825Y00844
X00896Y0084375
X00916
X00906Y0086375
X00916Y0088375
X00896
X00876
X00856
X00836
X00826Y0090375
Y0094375
Y0102375
X00736Y0108375
X00716
X00746Y0090375
X0073275Y00871
X00733Y008335
X00746Y0082375
X0075475Y00788
Y00782
Y00776
X00755Y007695
X0079875Y0075775
X008085Y00758
X0082075
X007985Y0074775
Y0073425
X0079875Y0072525
Y0071425
X00846Y0070375
X00866
X00886
X00906
X00926
X00946
X00916Y0072375
X00896
X00876
X00856
X00746Y0070375
X0080775Y008415
X0082175Y0085475
X0069325Y00871
X00676Y0088375
X00656
X00666Y0090375
X00686
X00696Y0092375
X00676
X00656
X00666Y0094375
X00686
X00696Y0096375
X00676
X00656
X00666Y0098375
X00646
X00656Y0100375
X00652Y01062
X0065975Y01078
X0066Y01086
X0064528Y010853
X0063925Y0108825
X00586Y0106375
X00596Y0104375
X00586Y0102375
X00576Y0100375
X00556
X00536
X00516
X00496
X00476
X00486Y0102375
X00506
X00526
X00516Y0104375
X0051525Y010555
X00503Y0106075
X0049525Y0106125
X0048725Y01061
X0047925Y0106125
X00476Y0104375
X00496
X00495Y01086
X0048725Y0108725
X0050725Y0108625
X0051525
X00556Y0108375
X00546Y0106375
Y0098375
X00526
X00506
X00486
X00466
X00476Y0096375
X00496
X00516
X00536
X00556
X00576
Y0092375
X00556
X00536
X00516
X00496
X00476
X00486Y0094375
X00506
X00526
X00546
Y0090375
X00526
X00506
X00486
X00466
X00476Y0088375
X00496
X00516
X00536
X00556
X00576
X0058416Y0085823
Y0084223
X0056016Y0084223
Y0085823
X00536Y0084375
X00516
X0051965Y0085475
X005Y0085075
X00486Y0086375
X00466
X00444Y008585
Y0084225
X00476Y0084375
X00486Y0082375
X00506
X0050925Y0081175
X0051725Y0081175
X0051325Y0080325
X0050525Y0080375
X00526Y0082375
X00546Y0078375
X00556Y0076375
Y0072375
X00536
X0051425Y0074425
X00506Y0074375
X00466Y0082375
X0039075Y0083275
X0039125Y0086825
X00396Y0088375
X00376
X00356
X00336
X00316
X00326Y0090375
X00346
X00366
X00386
X00376Y0092375
X00356
X00336
X00316
X00326Y0094375
X00346
X00366
X00376Y0096375
X00356
X00336
X00316
X00326Y0098375
X00346
X00336Y0100375
X00316
X003605Y0104425
X0036787Y0104425
X00376Y0104375
X00396
X00416
X00426Y0106375
X00406
X00386
X00396Y0108375
X00416
X0046325Y010825
X0047125Y01078
X00466Y0102375
X00426
X00406
X00386
X00416Y0100375
X00426Y0098375
X00466Y0094375
X00646
Y0090375
Y0086375
X0065575Y0084625
X00676Y0084375
X006707Y0085475
X00666Y0082375
X006675Y0080625
X0065963Y0080637
X0066363Y0080137
X00651Y00807
X00646Y0082375
X00686
X0069325Y008345
X00696Y0076375
X0065575Y0075025
X00646Y0070375
X00386Y0074375
Y0078375
X0036311Y0078562
X0035511
X0035911Y0080338
X0036711
X0035875Y0076075
X0035375Y00851
X003686Y0085475
X00326Y0086375
X0035276Y01081
X0035701Y01085
X0036501
X0036101Y01081
X00256Y0108375
X00236
X0021476Y01085
X0021076Y01081
X0020676Y01085
X0020251Y01081
X0020273Y0106
X00246Y0106375
X00266
X00256Y0104375
X00236
X00246Y0102375
X00226
X00256Y0100375
X00266Y0098375
X00186Y0094375
X00166
X00146
X00126
X00106
X00086
X00066
Y0098375
X00086
X00106
X00126
X00146
X00156Y0100375
X00136
X00116
X00096
X00106Y0102375
X00126
X00146
X00136Y0104375
X00116
X00096
X00076
X00086Y0106375
X00106
X00096Y0108375
X000645Y01085
X000605Y01081
X000565Y01085
X0005225Y01081
X000525Y0105975
X000645Y0102325
X00086Y0102375
X00096Y0096375
X00116
X00136
X00156
Y0092375
X00176
X00196
X00206Y0090375
X00186
X00166
X00146
X00126
X00106
X00086
X00066
X00056Y0088375
X00036
X00026Y0086375
X00036Y0084375
X00056
X0005025Y0084975
X000665Y0085475
X0009185Y0086223
Y0084623
X0011585Y0084623
Y0086223
X00116Y0088375
X00136
X00156
X00176
X00196
X00216
X00236
X0023625Y0087
Y0083625
X00216Y0084375
X0021755Y0085475
X002025Y00848
X00196Y0084375
X00176
X00156
X00136
X00146Y0086375
X00166
X00186
X00146Y0082375
X00126Y0078375
X00106
X00086
X0005875Y0078562
X0005075
X0005475Y0080338
X0006275
X00096Y0080375
Y0076375
X00116
X00136
X00146Y0074375
X00126
X00106
X00116Y0072375
X00136
X00156
X00176
X00186Y0070375
X00206
X00166
X00146
X002025Y0075975
Y0078562
X002105
X002065Y0080338
X002145
X00236Y0076375
X00284Y008705
X00136Y0092375
X00116
X00096
Y0088375
X00016Y0092375
X-00004
X-00024
X-00044
X-00064
X-00084
X-00074Y0094375
X-00054
X-00034
X-00014
X00006
X00016Y0096375
X-00004
X-00024
X-00044
X-00064
X-00084
X-00074Y0098375
X-00054
X-00034
X-00014
X00006
X00016Y0100375
X-00004
X-00024
X-00044
X-00064
X-00084
X-00074Y0102375
X-00054
X-00034
X-00014
X00006
X-00004Y0104375
X-00024
X-00044
X-00064
X-00084
X-00074Y0106375
X-00054
X-00034
X-00014
X-00004Y0108375
X-00024
X-00044
X-00064
X-00084
X-00074Y0090375
X-00054
X-00034
X-00014
X-00044Y0088375
X-00064
X-00084
X-00074Y0086375
X-00054
X-00034
X-00044Y0084375
X-00064
X-00084
X-00074Y0082375
X-00054
X-00034
X-00044Y0080375
X-00064
X-00084
X-00074Y0078375
X-00054
X-00034
X-00024Y0076375
X-00044
X-00064
X-00084
X-00074Y0074375
X-00054
X-00034
X-00014
X00006
X-00004Y0072375
X-00024
X-00044
X-00064
X-00084
X-00074Y0070375
X-00054
X-00034
X-00014
X00006
X0005075Y0075075
X00016Y0084375
X000205Y01118
X0001251Y0112499
X-00004Y0112375
X-00024
X-00044
X-00064
X-00084
X-00074Y0110375
X-00054
X-00034
X-00014
Y0114375
X00006
X00026
X000505Y0114475
X00064Y0114525
X0007225Y0113975
X0008175Y0116525
X00086Y0118375
X00106
X00126
X00146
X00166
X00186
X00206
X00226
X00246
X00266
X00286
X00306
X00296Y0116375
X00276
X002495Y01167
X0023225
X0023175Y0112975
X0024975Y0112825
X00266Y0114375
X00286
X00306
X00296Y0112375
X0021575Y01145
X00201
X00186Y0114375
X00166
X00146
X00126
X0011Y0113975
X0011075Y0115575
X00136Y0116375
X00156
X00176
X00156Y0112375
X00136
X00146Y0110375
X00106
X000445Y01103
X000365Y0110688
X000289Y0111085
X00036Y0116375
X00016
X-00004
X-00024
X-00014Y0118375
X00006
X00026
X00046
X00066
X00326
X00346
X00366
X00386
X0038525Y01167
X00404Y0116675
X00406Y0118375
X00426
X00446
X00466
X00486
X00506
X00526
X00546
X00566
X00586
X00606
X00626
X00646
X00666
X00686
X00706
X00697Y0116675
X006715
X00666Y0114375
X006555Y011445
X00646Y0114375
X00626
X00606
X00586
X00596Y0116375
X00616
X00636
X00576
X00556Y01165
X0053875Y0116525
Y0112875
X00556Y01129
X00576Y0112375
X00596
X00546Y0110375
X00517Y01102
X0050775
X00516Y0112375
X00496
X00476
X0047125Y0110925
X00463Y0111425
X00456Y0112375
X00436
X00446Y0114375
X00466
X00486
X00503Y011395
X005195Y011455
X00476Y0116375
X00456
X00436
X00426Y0114375
X0040375Y0112925
X0038525
X003675Y01144
X003535Y0114375
X00346Y0114375
X00326
X00336Y0116375
X00316
X00446Y0110375
X004795Y0110425
X00676Y0112375
X00696
X0069725Y011315
X00706Y0110375
X00726
X00736Y0112375
X0072975Y0113175
X00716Y0112375
X00756
X00776
X00796
X00816
X00836
X00856
X0085525Y01133
X00876Y0112375
X00896
X0089185Y0113373
X00906Y0114375
X00916Y0116375
X0089186Y0116623
X00886Y0118375
X00906
X00866
X00846
X00826
X00806
X00786
X00766
X00746
X00726
X007295Y0116625
X00756Y0116375
X00776
X00796
X00786Y0114375
X00766
X00746
X0075875Y011025
X0076675
X0077475
X0078275
X0079075
X0079875
X0080675Y0110275
X0081475
X0082275Y011025
X00846Y0110375
X00866
X00886
X00906
X00946
X00956Y0112375
X0095866Y0114686
X0095266Y0114705
X0094725Y0114965
X0094322Y0115409
X009413Y0115978
X0094168Y0116576
X0094442Y011711
X0094897Y0117501
X0095965Y0117651
X0096509Y0117397
X0096919Y0116959
X0097431Y0116647
X0098031
X0098631
X0099231
X0099831
X0100431
X0101031
X0101631
X0102231
X0102831
X0103431
X0103892Y0117031
X0104492Y0117033
X010509Y0116979
X0105308Y011642
Y011582
Y0114857
Y0114257
X0105069Y0113707
X0104916Y0113126
X0103922Y0113114
X0103904Y0112514
X0103767Y0113694
X0103492Y0114227
Y0114827
X0103352Y0115653
X0102752
X0102152
X0101552
X0100952
X0100353
X0099753
X0099152
X0098552
X0097952
X0097353
X0096861Y0115309
X009643Y0114892
X00986Y0110375
X01006
X01016Y0112375
X0104426Y0111108
X0109325Y0109675
X01096Y0116375
X01076
X01086Y0118375
X01066
X01026
X01006
X008546Y0116623
X00836Y0116375
X0082341Y01148
X008075Y0114075
X01106Y0114375
X0113317Y0114332
X0113387Y0113736
X0113722Y0113238
Y0112638
X0114716Y0113009
X0114894Y0113582
X0115133Y0114132
Y0114732
X0115216Y0115528
X0115816
X0116416
X0117016
X0117616
X0118216
X0118816
X0119416
X0120016
X0120586Y0115342
X0120971Y0114881
X01215Y0114598
X0122098Y0114552
X012267Y0114735
X012312Y0115131
X0123387Y0115668
X0123417Y0116268
X0123219Y0116834
X0122809Y0117272
X0122265Y0117526
X0121506Y0117503
X0120976Y0117222
X0120589Y0116764
X012004Y0116522
X011944
X011884
X011824
X011764
X011704
X011644
X011584
X011524
X0114773Y0116898
X0114173Y0116908
X0113573Y0116878
X0113317Y0116335
Y0115735
X01133Y0115075
X01116Y0116375
X01126Y0118375
X01146
X01166
X01106
X0114119Y0111108
X0114707Y0111227
X01186Y0110375
X01206
X01226
X01246
X01266
X01286
X01306
X01326
X01346
X01366
X01386
X01406
X01416Y0112375
X01436
X01446Y0114375
Y0118375
X01406
X01386
X01366
X01346
X01326
X01306
X01286
X01296Y0116375
X01316
X01336
X01356
X01376
X01396
X01406Y0114375
X01386
X01366
X01346
X01326
X01306
X01286
X01296Y0112375
X01316
X01336
X01356
X01376
X01396
X01446Y0110375
X01276Y0112375
Y0116375
X01256
X01216Y0112375
T02
X0143607Y000325
Y000579
Y000833
Y001087
X0146147Y00096
Y000706
Y000452
Y000198
X0146148Y002557
Y002811
X0143608Y002938
Y002684
Y003192
Y003446
X0146148Y003319
Y003065
X0146172Y0049605
Y0052145
Y0054685
Y0057225
X0143632Y0058495
Y0055955
Y0053415
Y0050875
X014371Y007458
Y007712
Y007966
Y00822
X014625Y008093
Y007839
Y007585
Y007331
X014627Y0097055
Y0099595
Y0102135
Y0104675
X014373Y0105945
Y0103405
Y0100865
Y0098325
X00936Y009954
Y0097
T03
X0157399Y0000101
X0155875Y0002641
X0157399Y001021
X0155875Y001275
X01574Y0023691
X0155876Y0026231
X01574Y00338
X0155876Y003634
X0157424Y0047726
X01559Y0050266
X0157424Y0057835
X01559Y0060375
X0157502Y007143
X0155978Y007397
X0157502Y008154
X0155978Y008408
X0157522Y0095175
X0155998Y0097715
X0157522Y0105285
X0155998Y0107825
T04
X0095625Y0116175
X0121925Y011605
T05
X0149449Y-0001322
Y0014172
X014945Y0022268
Y0037762
X0149474Y0046303
Y0061797
X0149552Y0070008
Y0085502
X0149572Y0093753
X0098165Y0113635
X0093085
Y0118715
X0098165
X0119385Y011859
Y011351
X0124465
Y011859
X0149572Y0109247
T06
X-0005425Y0022994
Y0026956
T07
X0160175Y-00067
X0083185Y0003175
X0003175
X-00066Y-00066
X0003175Y0051435
X0083185
X-000665Y011665
X0160175Y0116675
M30
