G04 Layer_Color=255*
%FSLAX43Y43*%
%MOMM*%
G71*
G01*
G75*
%ADD10C,0.100*%
%ADD12R,1.600X2.000*%
%ADD13R,0.600X2.200*%
%ADD14R,0.950X1.000*%
%ADD15R,1.000X0.950*%
%ADD16R,1.000X0.900*%
%ADD17R,5.600X5.600*%
%ADD18R,0.950X0.250*%
%ADD19R,0.250X0.950*%
%ADD20R,0.900X1.000*%
%ADD21R,1.400X1.050*%
%ADD22R,2.600X1.550*%
%ADD23R,1.550X2.600*%
%ADD24R,1.150X1.800*%
%ADD25R,1.050X1.400*%
%ADD26R,0.800X0.800*%
%ADD27R,1.800X1.150*%
%ADD28R,1.000X1.000*%
%ADD29R,0.400X0.750*%
%ADD30R,0.750X0.400*%
%ADD31R,0.750X0.750*%
%ADD32R,1.500X0.450*%
%ADD33R,1.850X0.300*%
%ADD34R,0.300X1.850*%
%ADD35C,1.000*%
%ADD36R,0.800X0.800*%
%ADD37R,2.200X0.600*%
%ADD38R,4.850X1.550*%
%ADD39R,0.950X1.000*%
%ADD40R,0.230X0.700*%
%ADD41R,2.750X1.000*%
%ADD42R,1.400X2.100*%
%ADD43R,1.000X0.600*%
%ADD44C,0.500*%
%ADD45R,1.900X0.600*%
%ADD46R,1.700X0.800*%
%ADD47R,1.150X2.700*%
%ADD48R,1.000X1.300*%
%ADD49C,0.200*%
%ADD54C,0.300*%
%ADD57C,1.600*%
%ADD58C,2.300*%
%ADD59C,1.700*%
%ADD60C,2.200*%
%ADD61C,0.800*%
%ADD62C,2.400*%
%ADD63R,6.350X6.350*%
D10*
X163425Y-10000D02*
Y120000D01*
X-10000Y-10000D02*
X163425D01*
X-10000D02*
Y120000D01*
X163425D01*
D12*
X97240Y109025D02*
D03*
X92160D02*
D03*
X97240Y104925D02*
D03*
X92160D02*
D03*
D13*
X39716Y-4490D02*
D03*
X40986D02*
D03*
X42256D02*
D03*
X43526D02*
D03*
X39716Y717D02*
D03*
X40986D02*
D03*
X42256D02*
D03*
X43526D02*
D03*
X27090Y13795D02*
D03*
X28360D02*
D03*
X29630D02*
D03*
X30900D02*
D03*
X27090Y19001D02*
D03*
X28360D02*
D03*
X29630D02*
D03*
X30900D02*
D03*
X13405Y36903D02*
D03*
X12135D02*
D03*
X10865D02*
D03*
X9595D02*
D03*
X13405Y31697D02*
D03*
X12135D02*
D03*
X10865D02*
D03*
X9595D02*
D03*
X84771Y42482D02*
D03*
X83501D02*
D03*
X82231D02*
D03*
X80961D02*
D03*
X84771Y37276D02*
D03*
X83501D02*
D03*
X82231D02*
D03*
X80961D02*
D03*
D14*
X40975Y-7300D02*
D03*
X42575D02*
D03*
X29575Y10775D02*
D03*
X31175D02*
D03*
X5050Y21850D02*
D03*
X3450D02*
D03*
X7250Y18275D02*
D03*
X5650D02*
D03*
X13050Y18450D02*
D03*
X14650D02*
D03*
X13975Y29500D02*
D03*
X12375D02*
D03*
X17650Y22500D02*
D03*
X19250D02*
D03*
X17625Y18725D02*
D03*
X19225D02*
D03*
X92150Y102600D02*
D03*
X93750D02*
D03*
X99050Y90250D02*
D03*
X100650D02*
D03*
X108675Y97050D02*
D03*
X110275D02*
D03*
X121450Y90650D02*
D03*
X119850D02*
D03*
X121175Y33625D02*
D03*
X122775D02*
D03*
X114125Y33725D02*
D03*
X115725D02*
D03*
X-4586Y45395D02*
D03*
X-6186D02*
D03*
X43600Y34910D02*
D03*
X45200D02*
D03*
X88050Y350D02*
D03*
X89650D02*
D03*
X134725Y45533D02*
D03*
X136325D02*
D03*
X134725Y67933D02*
D03*
X136325D02*
D03*
X134725Y64200D02*
D03*
X136325D02*
D03*
X134725Y41800D02*
D03*
X136325D02*
D03*
X134725Y53000D02*
D03*
X136325D02*
D03*
X134725Y75400D02*
D03*
X136325D02*
D03*
X134725Y49267D02*
D03*
X136325D02*
D03*
X134725Y71667D02*
D03*
X136325D02*
D03*
X134725Y60467D02*
D03*
X136325D02*
D03*
X134725Y56733D02*
D03*
X136325D02*
D03*
X100925Y43225D02*
D03*
X99325D02*
D03*
X5050Y26013D02*
D03*
X3450D02*
D03*
X9150Y29575D02*
D03*
X10750D02*
D03*
D15*
X6500Y29425D02*
D03*
Y31025D02*
D03*
X100000Y107775D02*
D03*
Y106175D02*
D03*
Y104375D02*
D03*
Y102775D02*
D03*
X113675Y92675D02*
D03*
Y91075D02*
D03*
X9975Y115575D02*
D03*
Y113975D02*
D03*
X8175Y115600D02*
D03*
Y114000D02*
D03*
X24950Y115575D02*
D03*
Y113975D02*
D03*
X23200Y115575D02*
D03*
Y113975D02*
D03*
X40400Y115550D02*
D03*
Y113950D02*
D03*
X38525Y115550D02*
D03*
Y113950D02*
D03*
X55600Y115475D02*
D03*
Y113875D02*
D03*
X53880Y115473D02*
D03*
Y113873D02*
D03*
X72936Y115673D02*
D03*
Y114073D02*
D03*
X69711Y115673D02*
D03*
Y114073D02*
D03*
X89186Y115798D02*
D03*
Y114198D02*
D03*
X85460Y115798D02*
D03*
Y114198D02*
D03*
X12410Y86223D02*
D03*
Y84623D02*
D03*
X8360Y86223D02*
D03*
Y84623D02*
D03*
X23840Y84477D02*
D03*
Y86077D02*
D03*
X27890Y84477D02*
D03*
Y86077D02*
D03*
X43166Y85823D02*
D03*
Y84223D02*
D03*
X39116Y85823D02*
D03*
Y84223D02*
D03*
X59241Y85823D02*
D03*
Y84223D02*
D03*
X55191Y85823D02*
D03*
Y84223D02*
D03*
X73290Y86023D02*
D03*
Y84423D02*
D03*
X69390Y86023D02*
D03*
Y84423D02*
D03*
X88650Y86000D02*
D03*
Y84400D02*
D03*
X84425Y86000D02*
D03*
Y84400D02*
D03*
X78850Y42925D02*
D03*
Y41325D02*
D03*
X104400Y116150D02*
D03*
Y114550D02*
D03*
X114225Y116025D02*
D03*
Y114425D02*
D03*
D16*
X3425Y31075D02*
D03*
Y29475D02*
D03*
X1777Y27650D02*
D03*
Y29250D02*
D03*
Y24526D02*
D03*
Y26126D02*
D03*
Y23002D02*
D03*
Y21402D02*
D03*
Y19878D02*
D03*
Y18278D02*
D03*
X116050Y73475D02*
D03*
Y71875D02*
D03*
X114610Y73475D02*
D03*
Y71875D02*
D03*
X113170Y73475D02*
D03*
Y71875D02*
D03*
X111730Y73475D02*
D03*
Y71875D02*
D03*
X110290Y73475D02*
D03*
Y71875D02*
D03*
X108850Y73475D02*
D03*
Y71875D02*
D03*
X116625Y41000D02*
D03*
Y42600D02*
D03*
X83375Y46750D02*
D03*
Y45150D02*
D03*
X84825Y46750D02*
D03*
Y45150D02*
D03*
X43800Y38875D02*
D03*
Y40475D02*
D03*
X93500Y2375D02*
D03*
Y3975D02*
D03*
X119800Y72975D02*
D03*
Y71375D02*
D03*
X103300Y42225D02*
D03*
Y40625D02*
D03*
X4955Y29425D02*
D03*
Y31025D02*
D03*
D17*
X11450Y24175D02*
D03*
D18*
X7925Y21425D02*
D03*
Y21925D02*
D03*
Y22425D02*
D03*
Y22925D02*
D03*
Y23425D02*
D03*
Y23925D02*
D03*
Y24425D02*
D03*
Y24925D02*
D03*
Y25425D02*
D03*
Y25925D02*
D03*
Y26425D02*
D03*
Y26925D02*
D03*
X14975D02*
D03*
Y26425D02*
D03*
Y25925D02*
D03*
Y25425D02*
D03*
Y24925D02*
D03*
Y24425D02*
D03*
Y23925D02*
D03*
Y23425D02*
D03*
Y22925D02*
D03*
Y22425D02*
D03*
Y21925D02*
D03*
Y21425D02*
D03*
D19*
X8700Y27700D02*
D03*
X9200D02*
D03*
X9700D02*
D03*
X10200D02*
D03*
X10700D02*
D03*
X11200D02*
D03*
X11700D02*
D03*
X12200D02*
D03*
X12700D02*
D03*
X13200D02*
D03*
X13700D02*
D03*
X14200D02*
D03*
Y20650D02*
D03*
X13700D02*
D03*
X13200D02*
D03*
X12700D02*
D03*
X12200D02*
D03*
X11700D02*
D03*
X11200D02*
D03*
X10700D02*
D03*
X10200D02*
D03*
X9700D02*
D03*
X9200D02*
D03*
X8700D02*
D03*
D20*
X5050Y24600D02*
D03*
X3450D02*
D03*
Y23212D02*
D03*
X5050D02*
D03*
X3450Y27375D02*
D03*
X5050D02*
D03*
X9000Y39575D02*
D03*
X10600D02*
D03*
X13675Y39550D02*
D03*
X12075D02*
D03*
X27228Y25691D02*
D03*
X28828D02*
D03*
X19250Y26300D02*
D03*
X17650D02*
D03*
Y24425D02*
D03*
X19250D02*
D03*
X17600Y20500D02*
D03*
X19200D02*
D03*
X19225Y16650D02*
D03*
X17625D02*
D03*
X97850Y97875D02*
D03*
X96250D02*
D03*
X97850Y96400D02*
D03*
X96250D02*
D03*
X126750Y99225D02*
D03*
X125150D02*
D03*
X126750Y97842D02*
D03*
X125150D02*
D03*
X126750Y96458D02*
D03*
X125150D02*
D03*
X126750Y95075D02*
D03*
X125150D02*
D03*
X126750Y93692D02*
D03*
X125150D02*
D03*
X126750Y92308D02*
D03*
X125150D02*
D03*
X126750Y90925D02*
D03*
X125150D02*
D03*
X130875Y75375D02*
D03*
X132475D02*
D03*
X130875Y73510D02*
D03*
X132475D02*
D03*
X130875Y71646D02*
D03*
X132475D02*
D03*
X130875Y69782D02*
D03*
X132475D02*
D03*
X130875Y67917D02*
D03*
X132475D02*
D03*
X130875Y66053D02*
D03*
X132475D02*
D03*
X130875Y64188D02*
D03*
X132475D02*
D03*
X130875Y62324D02*
D03*
X132475D02*
D03*
X130875Y60459D02*
D03*
X132475D02*
D03*
X130875Y58595D02*
D03*
X132475D02*
D03*
X130875Y56730D02*
D03*
X132475D02*
D03*
X130875Y54866D02*
D03*
X132475D02*
D03*
X130875Y53001D02*
D03*
X132475D02*
D03*
X130875Y51137D02*
D03*
X132475D02*
D03*
X130875Y49272D02*
D03*
X132475D02*
D03*
X130875Y47408D02*
D03*
X132475D02*
D03*
X130875Y45543D02*
D03*
X132475D02*
D03*
X130875Y43679D02*
D03*
X132475D02*
D03*
X130875Y41814D02*
D03*
X132475D02*
D03*
X130875Y39950D02*
D03*
X132475D02*
D03*
X103525Y68275D02*
D03*
X105125D02*
D03*
X105150Y66700D02*
D03*
X103550D02*
D03*
X105125Y65250D02*
D03*
X103525D02*
D03*
X90225Y59550D02*
D03*
X88625D02*
D03*
X90200Y57600D02*
D03*
X88600D02*
D03*
X90175Y55600D02*
D03*
X88575D02*
D03*
X90225Y53575D02*
D03*
X88625D02*
D03*
X103275Y39100D02*
D03*
X104875D02*
D03*
X103300Y37525D02*
D03*
X104900D02*
D03*
X101675Y35650D02*
D03*
X103275D02*
D03*
X6400Y115625D02*
D03*
X4800D02*
D03*
X21588D02*
D03*
X19988D02*
D03*
X36776D02*
D03*
X35176D02*
D03*
X51965D02*
D03*
X50365D02*
D03*
X67153D02*
D03*
X65553D02*
D03*
X82341D02*
D03*
X80741D02*
D03*
X6650Y86300D02*
D03*
X5050D02*
D03*
X21755D02*
D03*
X20155D02*
D03*
X36860D02*
D03*
X35260D02*
D03*
X51965D02*
D03*
X50365D02*
D03*
X67070D02*
D03*
X65470D02*
D03*
X82175D02*
D03*
X80575D02*
D03*
X31975Y31210D02*
D03*
X33575D02*
D03*
X83350Y30850D02*
D03*
X81750D02*
D03*
X-4675Y57400D02*
D03*
X-3075D02*
D03*
X-6425Y57475D02*
D03*
X-8025D02*
D03*
X-4586Y47120D02*
D03*
X-6186D02*
D03*
X28175Y42510D02*
D03*
X29775D02*
D03*
X45200Y33235D02*
D03*
X43600D02*
D03*
X28225Y36160D02*
D03*
X29825D02*
D03*
X51400Y27525D02*
D03*
X49800D02*
D03*
X83450Y22975D02*
D03*
X81850D02*
D03*
X83400Y25000D02*
D03*
X81800D02*
D03*
X83450Y27000D02*
D03*
X81850D02*
D03*
X83450Y28975D02*
D03*
X81850D02*
D03*
X87625Y7175D02*
D03*
X89225D02*
D03*
X146453Y18790D02*
D03*
X144853D02*
D03*
X146227Y42950D02*
D03*
X144627D02*
D03*
X146227Y-4950D02*
D03*
X144627D02*
D03*
X146255Y66830D02*
D03*
X144655D02*
D03*
X146175Y90500D02*
D03*
X144575D02*
D03*
D21*
X9200Y16525D02*
D03*
Y18325D02*
D03*
X11075Y16525D02*
D03*
Y18325D02*
D03*
D22*
X14425Y15700D02*
D03*
Y12420D02*
D03*
D23*
X3425Y34725D02*
D03*
X6705D02*
D03*
X16025Y31975D02*
D03*
X19305D02*
D03*
X3120Y15050D02*
D03*
X6400D02*
D03*
D24*
X6500Y38600D02*
D03*
X3500D02*
D03*
X6425Y11375D02*
D03*
X3425D02*
D03*
X145667Y117671D02*
D03*
X142767D02*
D03*
D25*
X19175Y28350D02*
D03*
X17375D02*
D03*
X98425Y102550D02*
D03*
X96625D02*
D03*
D26*
X31900Y25725D02*
D03*
X30300D02*
D03*
X87475Y15850D02*
D03*
X89075D02*
D03*
X90675D02*
D03*
X75825Y58950D02*
D03*
X77425D02*
D03*
X79025D02*
D03*
X88650Y47700D02*
D03*
X90250D02*
D03*
X91850D02*
D03*
X88650Y44567D02*
D03*
X90250D02*
D03*
X91850D02*
D03*
X88650Y41433D02*
D03*
X90250D02*
D03*
X91850D02*
D03*
X88650Y38300D02*
D03*
X90250D02*
D03*
X91850D02*
D03*
X141331Y42925D02*
D03*
X142931D02*
D03*
X141302Y-4950D02*
D03*
X142902D02*
D03*
X140959Y66811D02*
D03*
X142559D02*
D03*
X140678Y18790D02*
D03*
X142278D02*
D03*
X140525Y90525D02*
D03*
X142125D02*
D03*
D27*
X18475Y14500D02*
D03*
Y11500D02*
D03*
D28*
X113169Y102016D02*
D03*
X105469Y109716D02*
D03*
Y108316D02*
D03*
X106869Y109716D02*
D03*
Y108316D02*
D03*
X108269Y109716D02*
D03*
Y108316D02*
D03*
X105469Y106916D02*
D03*
X106869D02*
D03*
X108269D02*
D03*
X105469Y104816D02*
D03*
Y103416D02*
D03*
X106869Y104816D02*
D03*
Y103416D02*
D03*
X108269Y104816D02*
D03*
Y103416D02*
D03*
X105469Y102016D02*
D03*
X106869D02*
D03*
X108269D02*
D03*
X110369Y108316D02*
D03*
X111769D02*
D03*
Y106916D02*
D03*
X110369D02*
D03*
Y104816D02*
D03*
Y103416D02*
D03*
Y102016D02*
D03*
X111769Y104816D02*
D03*
Y103416D02*
D03*
Y102016D02*
D03*
X110369Y109716D02*
D03*
X111769D02*
D03*
X113169D02*
D03*
Y108316D02*
D03*
Y106916D02*
D03*
Y104816D02*
D03*
Y103416D02*
D03*
D29*
X114219Y99841D02*
D03*
X113519D02*
D03*
X112819D02*
D03*
X112119D02*
D03*
X111419D02*
D03*
X110719D02*
D03*
X110019D02*
D03*
X109319D02*
D03*
X108619D02*
D03*
X107919D02*
D03*
X107219D02*
D03*
X106519D02*
D03*
X105819D02*
D03*
X105119D02*
D03*
X104419Y111891D02*
D03*
X105119D02*
D03*
X105819D02*
D03*
X106519D02*
D03*
X107219D02*
D03*
X107919D02*
D03*
X108619D02*
D03*
X109319D02*
D03*
X110019D02*
D03*
X110719D02*
D03*
X111419D02*
D03*
X112119D02*
D03*
X112819D02*
D03*
X113519D02*
D03*
X104419Y99841D02*
D03*
X114219Y111891D02*
D03*
D30*
X103344Y100966D02*
D03*
Y101666D02*
D03*
Y102366D02*
D03*
Y103066D02*
D03*
Y103766D02*
D03*
Y104466D02*
D03*
Y105166D02*
D03*
Y105866D02*
D03*
Y106566D02*
D03*
Y107266D02*
D03*
Y107966D02*
D03*
Y108666D02*
D03*
Y109366D02*
D03*
Y110066D02*
D03*
Y110766D02*
D03*
X115294D02*
D03*
Y110066D02*
D03*
Y109366D02*
D03*
Y108666D02*
D03*
Y107966D02*
D03*
Y107266D02*
D03*
Y106566D02*
D03*
Y105866D02*
D03*
Y105166D02*
D03*
Y104466D02*
D03*
Y103766D02*
D03*
Y103066D02*
D03*
Y102366D02*
D03*
Y101666D02*
D03*
Y100966D02*
D03*
D31*
X103344Y99841D02*
D03*
Y111891D02*
D03*
X115294D02*
D03*
Y99841D02*
D03*
D32*
X100650Y97700D02*
D03*
Y97050D02*
D03*
Y96400D02*
D03*
Y95750D02*
D03*
Y95100D02*
D03*
Y94450D02*
D03*
Y93800D02*
D03*
Y93150D02*
D03*
Y92500D02*
D03*
Y91850D02*
D03*
X106450D02*
D03*
Y92500D02*
D03*
Y93150D02*
D03*
Y93800D02*
D03*
Y94450D02*
D03*
Y95100D02*
D03*
Y95750D02*
D03*
Y96400D02*
D03*
Y97050D02*
D03*
Y97700D02*
D03*
X121425Y92075D02*
D03*
Y92725D02*
D03*
Y93375D02*
D03*
Y94025D02*
D03*
Y94675D02*
D03*
Y95325D02*
D03*
Y95975D02*
D03*
Y96625D02*
D03*
Y97275D02*
D03*
Y97925D02*
D03*
X115625D02*
D03*
Y97275D02*
D03*
Y96625D02*
D03*
Y95975D02*
D03*
Y95325D02*
D03*
Y94675D02*
D03*
Y94025D02*
D03*
Y93375D02*
D03*
Y92725D02*
D03*
Y92075D02*
D03*
D33*
X125025Y48000D02*
D03*
Y48500D02*
D03*
Y49000D02*
D03*
Y50500D02*
D03*
Y51000D02*
D03*
Y51500D02*
D03*
Y52000D02*
D03*
Y52500D02*
D03*
Y53000D02*
D03*
Y53500D02*
D03*
Y55000D02*
D03*
Y55500D02*
D03*
Y56000D02*
D03*
Y56500D02*
D03*
Y58000D02*
D03*
Y59500D02*
D03*
Y60000D02*
D03*
Y60500D02*
D03*
Y61000D02*
D03*
Y62500D02*
D03*
Y63000D02*
D03*
Y64500D02*
D03*
Y66000D02*
D03*
Y66500D02*
D03*
X108725D02*
D03*
Y66000D02*
D03*
Y65500D02*
D03*
Y65000D02*
D03*
Y64500D02*
D03*
Y64000D02*
D03*
Y63500D02*
D03*
Y63000D02*
D03*
Y62500D02*
D03*
Y62000D02*
D03*
Y61500D02*
D03*
Y61000D02*
D03*
Y60500D02*
D03*
Y60000D02*
D03*
Y59500D02*
D03*
Y59000D02*
D03*
Y58500D02*
D03*
Y58000D02*
D03*
Y57500D02*
D03*
Y57000D02*
D03*
Y56500D02*
D03*
Y56000D02*
D03*
Y55500D02*
D03*
Y55000D02*
D03*
Y54500D02*
D03*
Y54000D02*
D03*
Y53500D02*
D03*
Y53000D02*
D03*
Y52500D02*
D03*
Y52000D02*
D03*
Y51500D02*
D03*
Y51000D02*
D03*
Y50500D02*
D03*
Y50000D02*
D03*
Y49500D02*
D03*
Y49000D02*
D03*
Y48500D02*
D03*
Y48000D02*
D03*
X125025Y65000D02*
D03*
Y65500D02*
D03*
Y64000D02*
D03*
Y63500D02*
D03*
Y62000D02*
D03*
Y61500D02*
D03*
Y59000D02*
D03*
Y58500D02*
D03*
Y57500D02*
D03*
Y57000D02*
D03*
Y50000D02*
D03*
Y49500D02*
D03*
Y54500D02*
D03*
Y54000D02*
D03*
D34*
X123125Y68400D02*
D03*
X122625D02*
D03*
X122125D02*
D03*
X121625D02*
D03*
X121125D02*
D03*
X120625D02*
D03*
X120125D02*
D03*
X119625D02*
D03*
X119125D02*
D03*
X118625D02*
D03*
X118125D02*
D03*
X117625D02*
D03*
X117125D02*
D03*
X116625D02*
D03*
X116125D02*
D03*
X115625D02*
D03*
X115125D02*
D03*
X114625D02*
D03*
X114125D02*
D03*
X113625D02*
D03*
X113125D02*
D03*
X112625D02*
D03*
X112125D02*
D03*
X111625D02*
D03*
X111125D02*
D03*
X110625D02*
D03*
Y46100D02*
D03*
X111125D02*
D03*
X111625D02*
D03*
X112125D02*
D03*
X112625D02*
D03*
X113125D02*
D03*
X113625D02*
D03*
X114125D02*
D03*
X114625D02*
D03*
X115125D02*
D03*
X115625D02*
D03*
X116125D02*
D03*
X116625D02*
D03*
X117125D02*
D03*
X117625D02*
D03*
X118125D02*
D03*
X118625D02*
D03*
X119125D02*
D03*
X119625D02*
D03*
X120125D02*
D03*
X120625D02*
D03*
X121125D02*
D03*
X121625D02*
D03*
X122125D02*
D03*
X122625D02*
D03*
X123125D02*
D03*
D35*
X108725D02*
D03*
X125025Y68400D02*
D03*
X87675Y105150D02*
D03*
X87750Y102900D02*
D03*
X109050Y114500D02*
D03*
X107500Y114550D02*
D03*
X26275Y10750D02*
D03*
X14400Y9375D02*
D03*
X-1525Y16550D02*
D03*
X3375Y8925D02*
D03*
X18800Y39875D02*
D03*
X1450Y44900D02*
D03*
X37425Y24000D02*
D03*
X89400Y10625D02*
D03*
X34850Y-7325D02*
D03*
X34475Y18975D02*
D03*
X48450Y-7325D02*
D03*
X152497Y710D02*
D03*
Y12140D02*
D03*
X152498Y24300D02*
D03*
Y35730D02*
D03*
X152522Y48335D02*
D03*
Y59765D02*
D03*
X152620Y95785D02*
D03*
Y107215D02*
D03*
X152600Y72040D02*
D03*
Y83470D02*
D03*
D36*
X95125Y44850D02*
D03*
Y46450D02*
D03*
Y48050D02*
D03*
X-3050Y55875D02*
D03*
Y54275D02*
D03*
X51203Y11096D02*
D03*
Y12696D02*
D03*
Y14296D02*
D03*
X47028Y11096D02*
D03*
Y12696D02*
D03*
Y14296D02*
D03*
X42853Y11096D02*
D03*
Y12696D02*
D03*
Y14296D02*
D03*
X113600Y-5075D02*
D03*
Y-6675D02*
D03*
Y-8275D02*
D03*
X106600Y-5025D02*
D03*
Y-6625D02*
D03*
Y-8225D02*
D03*
X127950Y-5025D02*
D03*
Y-6625D02*
D03*
Y-8225D02*
D03*
X120950Y-5050D02*
D03*
Y-6650D02*
D03*
Y-8250D02*
D03*
D37*
X95134Y41584D02*
D03*
Y40314D02*
D03*
Y39044D02*
D03*
Y37774D02*
D03*
X100340Y41584D02*
D03*
Y40314D02*
D03*
Y39044D02*
D03*
Y37774D02*
D03*
D38*
X113725Y37300D02*
D03*
X123425D02*
D03*
D39*
X149450Y117625D02*
D03*
X147850D02*
D03*
D40*
X1247Y106950D02*
D03*
X847D02*
D03*
X1647D02*
D03*
X2047D02*
D03*
X3647D02*
D03*
X3247D02*
D03*
X2447D02*
D03*
X2847D02*
D03*
X6047D02*
D03*
X5647D02*
D03*
X6447D02*
D03*
X6847D02*
D03*
X5247D02*
D03*
X4847D02*
D03*
X4047D02*
D03*
X4447D02*
D03*
X7247D02*
D03*
Y109450D02*
D03*
X4447D02*
D03*
X4047D02*
D03*
X4847D02*
D03*
X5247D02*
D03*
X6847D02*
D03*
X6447D02*
D03*
X5647D02*
D03*
X6047D02*
D03*
X2847D02*
D03*
X2447D02*
D03*
X3247D02*
D03*
X3647D02*
D03*
X2047D02*
D03*
X1647D02*
D03*
X847D02*
D03*
X1247D02*
D03*
X16273Y106950D02*
D03*
X15873D02*
D03*
X16673D02*
D03*
X17073D02*
D03*
X18673D02*
D03*
X18273D02*
D03*
X17473D02*
D03*
X17873D02*
D03*
X21073D02*
D03*
X20673D02*
D03*
X21473D02*
D03*
X21873D02*
D03*
X20273D02*
D03*
X19873D02*
D03*
X19073D02*
D03*
X19473D02*
D03*
X22273D02*
D03*
Y109450D02*
D03*
X19473D02*
D03*
X19073D02*
D03*
X19873D02*
D03*
X20273D02*
D03*
X21873D02*
D03*
X21473D02*
D03*
X20673D02*
D03*
X21073D02*
D03*
X17873D02*
D03*
X17473D02*
D03*
X18273D02*
D03*
X18673D02*
D03*
X17073D02*
D03*
X16673D02*
D03*
X15873D02*
D03*
X16273D02*
D03*
X31298Y106950D02*
D03*
X30898D02*
D03*
X31698D02*
D03*
X32098D02*
D03*
X33698D02*
D03*
X33298D02*
D03*
X32498D02*
D03*
X32898D02*
D03*
X36098D02*
D03*
X35698D02*
D03*
X36498D02*
D03*
X36898D02*
D03*
X35298D02*
D03*
X34898D02*
D03*
X34098D02*
D03*
X34498D02*
D03*
X37298D02*
D03*
Y109450D02*
D03*
X34498D02*
D03*
X34098D02*
D03*
X34898D02*
D03*
X35298D02*
D03*
X36898D02*
D03*
X36498D02*
D03*
X35698D02*
D03*
X36098D02*
D03*
X32898D02*
D03*
X32498D02*
D03*
X33298D02*
D03*
X33698D02*
D03*
X32098D02*
D03*
X31698D02*
D03*
X30898D02*
D03*
X31298D02*
D03*
X46324Y106950D02*
D03*
X45924D02*
D03*
X46724D02*
D03*
X47124D02*
D03*
X48724D02*
D03*
X48324D02*
D03*
X47524D02*
D03*
X47924D02*
D03*
X51124D02*
D03*
X50724D02*
D03*
X51524D02*
D03*
X51924D02*
D03*
X50324D02*
D03*
X49924D02*
D03*
X49124D02*
D03*
X49524D02*
D03*
X52324D02*
D03*
Y109450D02*
D03*
X49524D02*
D03*
X49124D02*
D03*
X49924D02*
D03*
X50324D02*
D03*
X51924D02*
D03*
X51524D02*
D03*
X50724D02*
D03*
X51124D02*
D03*
X47924D02*
D03*
X47524D02*
D03*
X48324D02*
D03*
X48724D02*
D03*
X47124D02*
D03*
X46724D02*
D03*
X45924D02*
D03*
X46324D02*
D03*
X61200Y106975D02*
D03*
X60800D02*
D03*
X61600D02*
D03*
X62000D02*
D03*
X63600D02*
D03*
X63200D02*
D03*
X62400D02*
D03*
X62800D02*
D03*
X66000D02*
D03*
X65600D02*
D03*
X66400D02*
D03*
X66800D02*
D03*
X65200D02*
D03*
X64800D02*
D03*
X64000D02*
D03*
X64400D02*
D03*
X67200D02*
D03*
Y109475D02*
D03*
X64400D02*
D03*
X64000D02*
D03*
X64800D02*
D03*
X65200D02*
D03*
X66800D02*
D03*
X66400D02*
D03*
X65600D02*
D03*
X66000D02*
D03*
X62800D02*
D03*
X62400D02*
D03*
X63200D02*
D03*
X63600D02*
D03*
X62000D02*
D03*
X61600D02*
D03*
X60800D02*
D03*
X61200D02*
D03*
X76269Y106950D02*
D03*
X75869D02*
D03*
X76669D02*
D03*
X77069D02*
D03*
X78669D02*
D03*
X78269D02*
D03*
X77469D02*
D03*
X77869D02*
D03*
X81069D02*
D03*
X80669D02*
D03*
X81469D02*
D03*
X81869D02*
D03*
X80269D02*
D03*
X79869D02*
D03*
X79069D02*
D03*
X79469D02*
D03*
X82269D02*
D03*
Y109450D02*
D03*
X79469D02*
D03*
X79069D02*
D03*
X79869D02*
D03*
X80269D02*
D03*
X81869D02*
D03*
X81469D02*
D03*
X80669D02*
D03*
X81069D02*
D03*
X77869D02*
D03*
X77469D02*
D03*
X78269D02*
D03*
X78669D02*
D03*
X77069D02*
D03*
X76669D02*
D03*
X75869D02*
D03*
X76269D02*
D03*
X1075Y76950D02*
D03*
X675D02*
D03*
X1475D02*
D03*
X1875D02*
D03*
X3475D02*
D03*
X3075D02*
D03*
X2275D02*
D03*
X2675D02*
D03*
X5875D02*
D03*
X5475D02*
D03*
X6275D02*
D03*
X6675D02*
D03*
X5075D02*
D03*
X4675D02*
D03*
X3875D02*
D03*
X4275D02*
D03*
X7075D02*
D03*
Y79450D02*
D03*
X4275D02*
D03*
X3875D02*
D03*
X4675D02*
D03*
X5075D02*
D03*
X6675D02*
D03*
X6275D02*
D03*
X5475D02*
D03*
X5875D02*
D03*
X2675D02*
D03*
X2275D02*
D03*
X3075D02*
D03*
X3475D02*
D03*
X1875D02*
D03*
X1475D02*
D03*
X675D02*
D03*
X1075D02*
D03*
X16250Y76950D02*
D03*
X15850D02*
D03*
X16650D02*
D03*
X17050D02*
D03*
X18650D02*
D03*
X18250D02*
D03*
X17450D02*
D03*
X17850D02*
D03*
X21050D02*
D03*
X20650D02*
D03*
X21450D02*
D03*
X21850D02*
D03*
X20250D02*
D03*
X19850D02*
D03*
X19050D02*
D03*
X19450D02*
D03*
X22250D02*
D03*
Y79450D02*
D03*
X19450D02*
D03*
X19050D02*
D03*
X19850D02*
D03*
X20250D02*
D03*
X21850D02*
D03*
X21450D02*
D03*
X20650D02*
D03*
X21050D02*
D03*
X17850D02*
D03*
X17450D02*
D03*
X18250D02*
D03*
X18650D02*
D03*
X17050D02*
D03*
X16650D02*
D03*
X15850D02*
D03*
X16250D02*
D03*
X31512Y76950D02*
D03*
X31112D02*
D03*
X31912D02*
D03*
X32312D02*
D03*
X33912D02*
D03*
X33512D02*
D03*
X32712D02*
D03*
X33112D02*
D03*
X36312D02*
D03*
X35912D02*
D03*
X36712D02*
D03*
X37112D02*
D03*
X35512D02*
D03*
X35112D02*
D03*
X34312D02*
D03*
X34712D02*
D03*
X37512D02*
D03*
Y79450D02*
D03*
X34712D02*
D03*
X34312D02*
D03*
X35112D02*
D03*
X35512D02*
D03*
X37112D02*
D03*
X36712D02*
D03*
X35912D02*
D03*
X36312D02*
D03*
X33112D02*
D03*
X32712D02*
D03*
X33512D02*
D03*
X33912D02*
D03*
X32312D02*
D03*
X31912D02*
D03*
X31112D02*
D03*
X31512D02*
D03*
X46525Y76950D02*
D03*
X46125D02*
D03*
X46925D02*
D03*
X47325D02*
D03*
X48925D02*
D03*
X48525D02*
D03*
X47725D02*
D03*
X48125D02*
D03*
X51325D02*
D03*
X50925D02*
D03*
X51725D02*
D03*
X52125D02*
D03*
X50525D02*
D03*
X50125D02*
D03*
X49325D02*
D03*
X49725D02*
D03*
X52525D02*
D03*
Y79450D02*
D03*
X49725D02*
D03*
X49325D02*
D03*
X50125D02*
D03*
X50525D02*
D03*
X52125D02*
D03*
X51725D02*
D03*
X50925D02*
D03*
X51325D02*
D03*
X48125D02*
D03*
X47725D02*
D03*
X48525D02*
D03*
X48925D02*
D03*
X47325D02*
D03*
X46925D02*
D03*
X46125D02*
D03*
X46525D02*
D03*
X61563Y76950D02*
D03*
X61163D02*
D03*
X61963D02*
D03*
X62363D02*
D03*
X63963D02*
D03*
X63563D02*
D03*
X62763D02*
D03*
X63163D02*
D03*
X66363D02*
D03*
X65963D02*
D03*
X66763D02*
D03*
X67163D02*
D03*
X65563D02*
D03*
X65163D02*
D03*
X64363D02*
D03*
X64763D02*
D03*
X67563D02*
D03*
Y79450D02*
D03*
X64763D02*
D03*
X64363D02*
D03*
X65163D02*
D03*
X65563D02*
D03*
X67163D02*
D03*
X66763D02*
D03*
X65963D02*
D03*
X66363D02*
D03*
X63163D02*
D03*
X62763D02*
D03*
X63563D02*
D03*
X63963D02*
D03*
X62363D02*
D03*
X61963D02*
D03*
X61163D02*
D03*
X61563D02*
D03*
X76589Y76950D02*
D03*
X76189D02*
D03*
X76989D02*
D03*
X77389D02*
D03*
X78989D02*
D03*
X78589D02*
D03*
X77789D02*
D03*
X78189D02*
D03*
X81389D02*
D03*
X80989D02*
D03*
X81789D02*
D03*
X82189D02*
D03*
X80589D02*
D03*
X80189D02*
D03*
X79389D02*
D03*
X79789D02*
D03*
X82589D02*
D03*
Y79450D02*
D03*
X79789D02*
D03*
X79389D02*
D03*
X80189D02*
D03*
X80589D02*
D03*
X82189D02*
D03*
X81789D02*
D03*
X80989D02*
D03*
X81389D02*
D03*
X78189D02*
D03*
X77789D02*
D03*
X78589D02*
D03*
X78989D02*
D03*
X77389D02*
D03*
X76989D02*
D03*
X76189D02*
D03*
X76589D02*
D03*
D41*
X86850Y27000D02*
D03*
X91100D02*
D03*
X86850Y33000D02*
D03*
Y31000D02*
D03*
Y29000D02*
D03*
X91100Y33000D02*
D03*
Y31000D02*
D03*
Y29000D02*
D03*
X86850Y25000D02*
D03*
Y23000D02*
D03*
Y21000D02*
D03*
X91100Y25000D02*
D03*
Y23000D02*
D03*
Y21000D02*
D03*
X93300Y57600D02*
D03*
X97550D02*
D03*
X93300Y63600D02*
D03*
Y61600D02*
D03*
Y59600D02*
D03*
X97550Y63600D02*
D03*
Y61600D02*
D03*
Y59600D02*
D03*
X93300Y55600D02*
D03*
Y53600D02*
D03*
Y51600D02*
D03*
X97550Y55600D02*
D03*
Y53600D02*
D03*
Y51600D02*
D03*
D42*
X-3075Y33450D02*
D03*
Y42550D02*
D03*
X-7575Y33450D02*
D03*
Y42550D02*
D03*
D43*
X-7750Y55475D02*
D03*
Y53575D02*
D03*
X-5450Y54525D02*
D03*
D44*
X64000Y24000D02*
D03*
X73000Y29000D02*
D03*
X74000D02*
D03*
X64000Y23000D02*
D03*
X65000D02*
D03*
X62000Y25000D02*
D03*
X63000D02*
D03*
X59000Y23000D02*
D03*
X60000D02*
D03*
X66000Y22000D02*
D03*
Y23000D02*
D03*
X68000Y21000D02*
D03*
X69000D02*
D03*
X67000Y22000D02*
D03*
X68000D02*
D03*
X65000Y21000D02*
D03*
X66000D02*
D03*
X63000Y22000D02*
D03*
X64000D02*
D03*
X63000Y21000D02*
D03*
X64000D02*
D03*
X61000Y22000D02*
D03*
X62000D02*
D03*
X60000Y21000D02*
D03*
X61000D02*
D03*
X55000Y22000D02*
D03*
Y23000D02*
D03*
Y24000D02*
D03*
Y25000D02*
D03*
Y26000D02*
D03*
Y27000D02*
D03*
Y28000D02*
D03*
Y29000D02*
D03*
Y30000D02*
D03*
Y31000D02*
D03*
Y32000D02*
D03*
Y33000D02*
D03*
Y34000D02*
D03*
Y35000D02*
D03*
Y36000D02*
D03*
Y37000D02*
D03*
Y38000D02*
D03*
Y39000D02*
D03*
Y40000D02*
D03*
Y41000D02*
D03*
Y42000D02*
D03*
X56000Y22000D02*
D03*
Y23000D02*
D03*
Y24000D02*
D03*
Y25000D02*
D03*
Y26000D02*
D03*
Y27000D02*
D03*
Y28000D02*
D03*
Y29000D02*
D03*
Y30000D02*
D03*
Y31000D02*
D03*
Y32000D02*
D03*
Y33000D02*
D03*
Y34000D02*
D03*
Y35000D02*
D03*
Y36000D02*
D03*
Y37000D02*
D03*
Y38000D02*
D03*
Y39000D02*
D03*
Y40000D02*
D03*
Y41000D02*
D03*
Y42000D02*
D03*
X57000Y21000D02*
D03*
Y22000D02*
D03*
Y23000D02*
D03*
Y24000D02*
D03*
Y25000D02*
D03*
Y26000D02*
D03*
Y27000D02*
D03*
Y28000D02*
D03*
Y29000D02*
D03*
Y30000D02*
D03*
Y31000D02*
D03*
Y32000D02*
D03*
Y33000D02*
D03*
Y34000D02*
D03*
Y35000D02*
D03*
Y36000D02*
D03*
Y37000D02*
D03*
Y38000D02*
D03*
Y39000D02*
D03*
Y40000D02*
D03*
Y41000D02*
D03*
Y42000D02*
D03*
X58000Y23000D02*
D03*
Y24000D02*
D03*
Y25000D02*
D03*
Y26000D02*
D03*
Y27000D02*
D03*
Y28000D02*
D03*
Y29000D02*
D03*
Y30000D02*
D03*
Y31000D02*
D03*
Y32000D02*
D03*
Y33000D02*
D03*
Y34000D02*
D03*
Y35000D02*
D03*
Y36000D02*
D03*
Y37000D02*
D03*
Y38000D02*
D03*
Y39000D02*
D03*
Y40000D02*
D03*
Y41000D02*
D03*
Y42000D02*
D03*
X59000Y24000D02*
D03*
Y25000D02*
D03*
Y26000D02*
D03*
Y27000D02*
D03*
Y28000D02*
D03*
Y29000D02*
D03*
Y30000D02*
D03*
Y31000D02*
D03*
Y32000D02*
D03*
Y33000D02*
D03*
Y34000D02*
D03*
Y35000D02*
D03*
Y36000D02*
D03*
Y37000D02*
D03*
Y38000D02*
D03*
Y39000D02*
D03*
Y40000D02*
D03*
Y41000D02*
D03*
Y42000D02*
D03*
X60000Y22000D02*
D03*
Y24000D02*
D03*
Y25000D02*
D03*
Y26000D02*
D03*
Y27000D02*
D03*
Y28000D02*
D03*
Y29000D02*
D03*
Y30000D02*
D03*
Y31000D02*
D03*
Y32000D02*
D03*
Y33000D02*
D03*
Y34000D02*
D03*
Y35000D02*
D03*
Y36000D02*
D03*
Y37000D02*
D03*
Y38000D02*
D03*
Y39000D02*
D03*
Y40000D02*
D03*
Y41000D02*
D03*
Y42000D02*
D03*
X61000Y23000D02*
D03*
Y24000D02*
D03*
Y25000D02*
D03*
Y26000D02*
D03*
Y27000D02*
D03*
Y28000D02*
D03*
Y29000D02*
D03*
Y30000D02*
D03*
Y31000D02*
D03*
Y32000D02*
D03*
Y33000D02*
D03*
Y34000D02*
D03*
Y35000D02*
D03*
Y36000D02*
D03*
Y37000D02*
D03*
Y38000D02*
D03*
Y39000D02*
D03*
Y40000D02*
D03*
Y41000D02*
D03*
Y42000D02*
D03*
X62000Y21000D02*
D03*
Y23000D02*
D03*
Y24000D02*
D03*
Y26000D02*
D03*
Y27000D02*
D03*
Y28000D02*
D03*
Y29000D02*
D03*
Y30000D02*
D03*
Y31000D02*
D03*
Y32000D02*
D03*
Y33000D02*
D03*
Y34000D02*
D03*
Y35000D02*
D03*
Y36000D02*
D03*
Y37000D02*
D03*
Y38000D02*
D03*
Y39000D02*
D03*
Y40000D02*
D03*
Y41000D02*
D03*
Y42000D02*
D03*
X63000Y23000D02*
D03*
Y24000D02*
D03*
Y26000D02*
D03*
Y27000D02*
D03*
Y28000D02*
D03*
Y29000D02*
D03*
Y30000D02*
D03*
Y31000D02*
D03*
Y32000D02*
D03*
Y33000D02*
D03*
Y34000D02*
D03*
Y35000D02*
D03*
Y36000D02*
D03*
Y37000D02*
D03*
Y38000D02*
D03*
Y39000D02*
D03*
Y40000D02*
D03*
Y41000D02*
D03*
Y42000D02*
D03*
X64000Y25000D02*
D03*
Y26000D02*
D03*
Y27000D02*
D03*
Y28000D02*
D03*
Y29000D02*
D03*
Y30000D02*
D03*
Y31000D02*
D03*
Y32000D02*
D03*
Y33000D02*
D03*
Y34000D02*
D03*
Y35000D02*
D03*
Y36000D02*
D03*
Y37000D02*
D03*
Y38000D02*
D03*
Y39000D02*
D03*
Y40000D02*
D03*
Y41000D02*
D03*
Y42000D02*
D03*
X65000Y22000D02*
D03*
Y24000D02*
D03*
Y25000D02*
D03*
Y26000D02*
D03*
Y27000D02*
D03*
Y28000D02*
D03*
Y29000D02*
D03*
Y30000D02*
D03*
Y31000D02*
D03*
Y32000D02*
D03*
Y33000D02*
D03*
Y34000D02*
D03*
Y35000D02*
D03*
Y36000D02*
D03*
Y37000D02*
D03*
Y38000D02*
D03*
Y39000D02*
D03*
Y40000D02*
D03*
Y41000D02*
D03*
Y42000D02*
D03*
X66000Y24000D02*
D03*
Y25000D02*
D03*
Y26000D02*
D03*
Y27000D02*
D03*
Y28000D02*
D03*
Y29000D02*
D03*
Y30000D02*
D03*
Y31000D02*
D03*
Y32000D02*
D03*
Y33000D02*
D03*
Y34000D02*
D03*
Y35000D02*
D03*
Y36000D02*
D03*
Y37000D02*
D03*
Y38000D02*
D03*
Y39000D02*
D03*
Y40000D02*
D03*
Y41000D02*
D03*
Y42000D02*
D03*
X67000Y21000D02*
D03*
Y23000D02*
D03*
Y24000D02*
D03*
Y25000D02*
D03*
Y26000D02*
D03*
Y27000D02*
D03*
Y28000D02*
D03*
Y29000D02*
D03*
Y30000D02*
D03*
Y31000D02*
D03*
Y32000D02*
D03*
Y33000D02*
D03*
Y34000D02*
D03*
Y35000D02*
D03*
Y36000D02*
D03*
Y37000D02*
D03*
Y38000D02*
D03*
Y39000D02*
D03*
Y40000D02*
D03*
Y41000D02*
D03*
Y42000D02*
D03*
X68000Y23000D02*
D03*
Y26000D02*
D03*
Y27000D02*
D03*
Y28000D02*
D03*
Y29000D02*
D03*
Y30000D02*
D03*
Y31000D02*
D03*
Y32000D02*
D03*
Y33000D02*
D03*
Y34000D02*
D03*
Y35000D02*
D03*
Y36000D02*
D03*
Y37000D02*
D03*
Y38000D02*
D03*
Y39000D02*
D03*
Y40000D02*
D03*
Y41000D02*
D03*
Y42000D02*
D03*
X69000Y22000D02*
D03*
Y23000D02*
D03*
Y24000D02*
D03*
Y25000D02*
D03*
Y26000D02*
D03*
Y27000D02*
D03*
Y28000D02*
D03*
Y29000D02*
D03*
Y30000D02*
D03*
Y31000D02*
D03*
Y32000D02*
D03*
Y33000D02*
D03*
Y34000D02*
D03*
Y35000D02*
D03*
Y36000D02*
D03*
Y37000D02*
D03*
Y38000D02*
D03*
Y39000D02*
D03*
Y40000D02*
D03*
Y41000D02*
D03*
Y42000D02*
D03*
X70000Y21000D02*
D03*
Y22000D02*
D03*
Y23000D02*
D03*
Y24000D02*
D03*
Y25000D02*
D03*
Y26000D02*
D03*
Y27000D02*
D03*
Y28000D02*
D03*
Y29000D02*
D03*
Y30000D02*
D03*
Y31000D02*
D03*
Y32000D02*
D03*
Y33000D02*
D03*
Y34000D02*
D03*
Y35000D02*
D03*
Y36000D02*
D03*
Y37000D02*
D03*
Y38000D02*
D03*
Y39000D02*
D03*
Y40000D02*
D03*
Y41000D02*
D03*
Y42000D02*
D03*
X71000Y21000D02*
D03*
Y22000D02*
D03*
Y23000D02*
D03*
Y24000D02*
D03*
Y25000D02*
D03*
Y26000D02*
D03*
Y27000D02*
D03*
Y28000D02*
D03*
Y29000D02*
D03*
Y30000D02*
D03*
Y31000D02*
D03*
Y32000D02*
D03*
Y33000D02*
D03*
Y34000D02*
D03*
Y35000D02*
D03*
Y36000D02*
D03*
Y37000D02*
D03*
Y38000D02*
D03*
Y39000D02*
D03*
Y40000D02*
D03*
Y41000D02*
D03*
Y42000D02*
D03*
X72000Y21000D02*
D03*
Y22000D02*
D03*
Y23000D02*
D03*
Y24000D02*
D03*
Y25000D02*
D03*
Y26000D02*
D03*
Y27000D02*
D03*
Y28000D02*
D03*
Y29000D02*
D03*
Y30000D02*
D03*
Y31000D02*
D03*
Y32000D02*
D03*
Y33000D02*
D03*
Y34000D02*
D03*
Y35000D02*
D03*
Y36000D02*
D03*
Y37000D02*
D03*
Y38000D02*
D03*
Y39000D02*
D03*
Y40000D02*
D03*
Y41000D02*
D03*
Y42000D02*
D03*
X73000Y21000D02*
D03*
Y22000D02*
D03*
Y23000D02*
D03*
Y24000D02*
D03*
Y25000D02*
D03*
Y26000D02*
D03*
Y27000D02*
D03*
Y28000D02*
D03*
Y30000D02*
D03*
Y31000D02*
D03*
Y32000D02*
D03*
Y33000D02*
D03*
Y34000D02*
D03*
Y35000D02*
D03*
Y36000D02*
D03*
Y37000D02*
D03*
Y38000D02*
D03*
Y39000D02*
D03*
Y40000D02*
D03*
Y41000D02*
D03*
Y42000D02*
D03*
X74000Y21000D02*
D03*
Y22000D02*
D03*
Y23000D02*
D03*
Y24000D02*
D03*
Y25000D02*
D03*
Y26000D02*
D03*
Y27000D02*
D03*
Y28000D02*
D03*
Y30000D02*
D03*
Y31000D02*
D03*
Y32000D02*
D03*
Y33000D02*
D03*
Y34000D02*
D03*
Y35000D02*
D03*
Y36000D02*
D03*
Y37000D02*
D03*
Y38000D02*
D03*
Y39000D02*
D03*
Y40000D02*
D03*
Y41000D02*
D03*
Y42000D02*
D03*
X75000Y21000D02*
D03*
Y22000D02*
D03*
Y23000D02*
D03*
Y24000D02*
D03*
Y25000D02*
D03*
Y26000D02*
D03*
Y27000D02*
D03*
Y28000D02*
D03*
Y29000D02*
D03*
Y30000D02*
D03*
Y31000D02*
D03*
Y32000D02*
D03*
Y33000D02*
D03*
Y34000D02*
D03*
Y35000D02*
D03*
Y36000D02*
D03*
Y37000D02*
D03*
Y38000D02*
D03*
Y39000D02*
D03*
Y40000D02*
D03*
Y41000D02*
D03*
Y42000D02*
D03*
X76000Y21000D02*
D03*
Y22000D02*
D03*
Y23000D02*
D03*
Y24000D02*
D03*
Y25000D02*
D03*
Y26000D02*
D03*
Y27000D02*
D03*
Y28000D02*
D03*
Y29000D02*
D03*
Y30000D02*
D03*
Y31000D02*
D03*
Y32000D02*
D03*
Y33000D02*
D03*
Y34000D02*
D03*
Y35000D02*
D03*
Y36000D02*
D03*
Y37000D02*
D03*
Y38000D02*
D03*
Y39000D02*
D03*
Y40000D02*
D03*
Y41000D02*
D03*
Y42000D02*
D03*
X68000Y25000D02*
D03*
Y24000D02*
D03*
X56000Y21000D02*
D03*
X55000D02*
D03*
X59000Y22000D02*
D03*
X58000D02*
D03*
X59000Y21000D02*
D03*
X58000D02*
D03*
X88975Y32000D02*
D03*
Y22000D02*
D03*
X95425Y62600D02*
D03*
Y52600D02*
D03*
D45*
X32025Y42515D02*
D03*
Y41245D02*
D03*
Y39975D02*
D03*
Y38705D02*
D03*
Y37435D02*
D03*
Y36165D02*
D03*
Y34895D02*
D03*
Y33625D02*
D03*
X41425Y42515D02*
D03*
Y41245D02*
D03*
Y39975D02*
D03*
Y38705D02*
D03*
Y37435D02*
D03*
Y36165D02*
D03*
Y34895D02*
D03*
Y33625D02*
D03*
D46*
X88454Y2470D02*
D03*
Y3740D02*
D03*
Y5010D02*
D03*
X91054D02*
D03*
Y3740D02*
D03*
Y2470D02*
D03*
D47*
X18775Y36200D02*
D03*
X15775D02*
D03*
D48*
X37389Y27200D02*
D03*
X35789D02*
D03*
D49*
X65050Y124450D02*
Y123450D01*
X65550D01*
X65716Y123617D01*
Y123783D01*
X65550Y123950D01*
X65050D01*
X65550D01*
X65716Y124116D01*
Y124283D01*
X65550Y124450D01*
X65050D01*
X66549D02*
X66216D01*
X66050Y124283D01*
Y123617D01*
X66216Y123450D01*
X66549D01*
X66716Y123617D01*
Y124283D01*
X66549Y124450D01*
X67049Y123450D02*
Y124116D01*
X67382Y124450D01*
X67716Y124116D01*
Y123450D01*
Y123950D01*
X67049D01*
X68049Y123450D02*
Y124450D01*
X68549D01*
X68715Y124283D01*
Y123950D01*
X68549Y123783D01*
X68049D01*
X68382D02*
X68715Y123450D01*
X69049Y124450D02*
Y123450D01*
X69548D01*
X69715Y123617D01*
Y124283D01*
X69548Y124450D01*
X69049D01*
X71548D02*
X71215D01*
X71048Y124283D01*
Y123617D01*
X71215Y123450D01*
X71548D01*
X71714Y123617D01*
Y124283D01*
X71548Y124450D01*
X72048D02*
Y123617D01*
X72214Y123450D01*
X72547D01*
X72714Y123617D01*
Y124450D01*
X73047D02*
X73714D01*
X73380D01*
Y123450D01*
X74047Y124450D02*
Y123450D01*
X74713D01*
X75047Y124450D02*
X75380D01*
X75213D01*
Y123450D01*
X75047D01*
X75380D01*
X75880D02*
Y124450D01*
X76546Y123450D01*
Y124450D01*
X77546D02*
X76879D01*
Y123450D01*
X77546D01*
X76879Y123950D02*
X77213D01*
D54*
X73500Y39500D02*
X73500Y39500D01*
D57*
X146147Y1980D02*
D03*
X143607Y3250D02*
D03*
X146147Y4520D02*
D03*
Y7060D02*
D03*
Y9600D02*
D03*
X143607Y10870D02*
D03*
Y8330D02*
D03*
Y5790D02*
D03*
X146148Y25570D02*
D03*
X143608Y26840D02*
D03*
X146148Y28110D02*
D03*
X143608Y29380D02*
D03*
X146148Y30650D02*
D03*
X143608Y31920D02*
D03*
X146148Y33190D02*
D03*
X143608Y34460D02*
D03*
X146172Y49605D02*
D03*
X143632Y50875D02*
D03*
X146172Y52145D02*
D03*
X143632Y53415D02*
D03*
X146172Y54685D02*
D03*
X143632Y55955D02*
D03*
X146172Y57225D02*
D03*
X143632Y58495D02*
D03*
X146270Y97055D02*
D03*
X143730Y98325D02*
D03*
X146270Y99595D02*
D03*
Y102135D02*
D03*
Y104675D02*
D03*
X143730Y105945D02*
D03*
Y103405D02*
D03*
Y100865D02*
D03*
X146250Y73310D02*
D03*
X143710Y74580D02*
D03*
X146250Y75850D02*
D03*
X143710Y77120D02*
D03*
X146250Y78390D02*
D03*
X143710Y79660D02*
D03*
X146250Y80930D02*
D03*
X143710Y82200D02*
D03*
X93600Y99540D02*
D03*
Y97000D02*
D03*
D58*
X149449Y-1322D02*
D03*
Y14172D02*
D03*
X149450Y22268D02*
D03*
Y37762D02*
D03*
X149474Y46303D02*
D03*
Y61797D02*
D03*
X149572Y93753D02*
D03*
Y109247D02*
D03*
X149552Y70008D02*
D03*
Y85502D02*
D03*
X119385Y118590D02*
D03*
Y113510D02*
D03*
X124465D02*
D03*
Y118590D02*
D03*
X93085Y118715D02*
D03*
Y113635D02*
D03*
X98165D02*
D03*
Y118715D02*
D03*
D59*
X157399Y101D02*
D03*
X155875Y2641D02*
D03*
Y12750D02*
D03*
X157399Y10210D02*
D03*
X157400Y23691D02*
D03*
X155876Y26231D02*
D03*
Y36340D02*
D03*
X157400Y33800D02*
D03*
X157424Y47726D02*
D03*
X155900Y50266D02*
D03*
Y60375D02*
D03*
X157424Y57835D02*
D03*
X157522Y95175D02*
D03*
X155998Y97715D02*
D03*
Y107825D02*
D03*
X157522Y105285D02*
D03*
X157502Y71430D02*
D03*
X155978Y73970D02*
D03*
Y84080D02*
D03*
X157502Y81540D02*
D03*
D60*
X121925Y116050D02*
D03*
X95625Y116175D02*
D03*
D61*
X30816Y2666D02*
D03*
X12340D02*
D03*
X74020Y47886D02*
D03*
X55544D02*
D03*
X30816D02*
D03*
X12340D02*
D03*
X74020Y2666D02*
D03*
X55544D02*
D03*
D62*
X-5425Y26956D02*
D03*
Y22994D02*
D03*
D63*
X-6650Y116650D02*
D03*
X-6600Y-6600D02*
D03*
X160175Y-6700D02*
D03*
Y116675D02*
D03*
X3175Y3175D02*
D03*
Y51435D02*
D03*
X83185D02*
D03*
Y3175D02*
D03*
M02*
