G04 Layer_Physical_Order=7*
G04 Layer_Color=8388736*
%FSLAX43Y43*%
%MOMM*%
G71*
G01*
G75*
%ADD10C,0.100*%
%ADD49C,0.200*%
%ADD51C,0.250*%
%ADD54C,0.300*%
%ADD65C,1.000*%
%ADD66C,1.300*%
%ADD67C,2.000*%
%ADD68C,1.400*%
%ADD69C,3.600*%
%ADD70C,1.900*%
%ADD71C,1.416*%
%ADD73C,3.575*%
%ADD74C,0.600*%
G36*
X163425Y-10000D02*
X146068Y-10000D01*
X146369Y120000D01*
X163425Y120000D01*
X163425Y-10000D01*
D02*
G37*
D10*
X163425Y-10000D02*
Y120000D01*
X-10000Y-10000D02*
X163425D01*
X-10000D02*
Y120000D01*
X163425D01*
D49*
X66633Y124283D02*
X66466Y124450D01*
X66133D01*
X65966Y124283D01*
Y123617D01*
X66133Y123450D01*
X66466D01*
X66633Y123617D01*
Y123950D01*
X66299D01*
X66966Y123450D02*
Y124450D01*
X67632Y123450D01*
Y124450D01*
X67966D02*
Y123450D01*
X68465D01*
X68632Y123617D01*
Y124283D01*
X68465Y124450D01*
X67966D01*
X69965Y123450D02*
Y124450D01*
X70465D01*
X70631Y124283D01*
Y123950D01*
X70465Y123783D01*
X69965D01*
X70965Y124450D02*
Y123450D01*
X71631D01*
X71964D02*
Y124116D01*
X72298Y124450D01*
X72631Y124116D01*
Y123450D01*
Y123950D01*
X71964D01*
X72964Y123450D02*
Y124450D01*
X73630Y123450D01*
Y124450D01*
X74630D02*
X73964D01*
Y123450D01*
X74630D01*
X73964Y123950D02*
X74297D01*
X76629Y123450D02*
X75963D01*
X76629Y124116D01*
Y124283D01*
X76463Y124450D01*
X76130D01*
X75963Y124283D01*
X65050Y124450D02*
Y123450D01*
X65550D01*
X65716Y123617D01*
Y123783D01*
X65550Y123950D01*
X65050D01*
X65550D01*
X65716Y124116D01*
Y124283D01*
X65550Y124450D01*
X65050D01*
X66549D02*
X66216D01*
X66050Y124283D01*
Y123617D01*
X66216Y123450D01*
X66549D01*
X66716Y123617D01*
Y124283D01*
X66549Y124450D01*
X67049Y123450D02*
Y124116D01*
X67382Y124450D01*
X67716Y124116D01*
Y123450D01*
Y123950D01*
X67049D01*
X68049Y123450D02*
Y124450D01*
X68549D01*
X68715Y124283D01*
Y123950D01*
X68549Y123783D01*
X68049D01*
X68382D02*
X68715Y123450D01*
X69049Y124450D02*
Y123450D01*
X69548D01*
X69715Y123617D01*
Y124283D01*
X69548Y124450D01*
X69049D01*
X71548D02*
X71215D01*
X71048Y124283D01*
Y123617D01*
X71215Y123450D01*
X71548D01*
X71714Y123617D01*
Y124283D01*
X71548Y124450D01*
X72048D02*
Y123617D01*
X72214Y123450D01*
X72547D01*
X72714Y123617D01*
Y124450D01*
X73047D02*
X73714D01*
X73380D01*
Y123450D01*
X74047Y124450D02*
Y123450D01*
X74713D01*
X75047Y124450D02*
X75380D01*
X75213D01*
Y123450D01*
X75047D01*
X75380D01*
X75880D02*
Y124450D01*
X76546Y123450D01*
Y124450D01*
X77546D02*
X76879D01*
Y123450D01*
X77546D01*
X76879Y123950D02*
X77213D01*
D51*
X5000Y29200D02*
X5025D01*
Y37125D01*
X8625D01*
Y34750D02*
Y37125D01*
Y34750D02*
X11675D01*
Y31075D02*
Y34750D01*
Y31075D02*
X15550D01*
Y29200D02*
Y31075D01*
X15525Y29200D02*
X15550D01*
X39600Y-8175D02*
Y-3200D01*
Y-8175D02*
X42475D01*
Y-5825D01*
X147875D01*
Y103475D01*
X142175D02*
X147875D01*
X142175Y85575D02*
Y103475D01*
X130975Y85575D02*
X142175D01*
X130975Y81950D02*
Y85575D01*
Y81950D02*
X141600D01*
Y81700D02*
Y81950D01*
Y-3225D02*
Y81700D01*
X44350Y-3225D02*
X141600D01*
D54*
X12200Y28300D02*
Y29200D01*
X15525Y28300D02*
Y29200D01*
X14375Y28300D02*
X15525D01*
Y29200D02*
X17575D01*
X8375D02*
X12200D01*
Y28300D02*
X14375D01*
X-7150Y29200D02*
X-3150D01*
X-7150Y25075D02*
X8350D01*
Y17100D02*
Y25075D01*
Y17100D02*
X29050D01*
X44375Y-3225D02*
Y-500D01*
X17575Y21875D02*
Y29200D01*
X-3150D02*
X8375D01*
X-7150Y25075D02*
Y29200D01*
X32350Y11525D02*
X44375Y-500D01*
X37800Y-3225D02*
X44375D01*
X29050Y5525D02*
X37800Y-3225D01*
X29050Y5525D02*
Y17100D01*
X17575Y21875D02*
X32350D01*
Y11525D02*
Y21875D01*
X73500Y39500D02*
X73500Y39500D01*
D65*
X-10000Y-10000D02*
Y120000D01*
X163425D01*
Y-10000D02*
Y120000D01*
X-10000Y-10000D02*
X163425D01*
D66*
X146147Y1980D02*
D03*
Y4520D02*
D03*
Y9600D02*
D03*
X143607Y10870D02*
D03*
Y8330D02*
D03*
Y5790D02*
D03*
X146148Y25570D02*
D03*
Y28110D02*
D03*
X143608Y29380D02*
D03*
Y31920D02*
D03*
X146148Y33190D02*
D03*
X143608Y34460D02*
D03*
X146172Y49605D02*
D03*
Y52145D02*
D03*
X143632Y53415D02*
D03*
Y55955D02*
D03*
X146172Y57225D02*
D03*
X143632Y58495D02*
D03*
X146270Y97055D02*
D03*
Y99595D02*
D03*
Y104675D02*
D03*
X143730Y103405D02*
D03*
Y100865D02*
D03*
X146250Y73310D02*
D03*
Y75850D02*
D03*
X143710Y77120D02*
D03*
Y79660D02*
D03*
X146250Y80930D02*
D03*
X143710Y82200D02*
D03*
X93600Y99540D02*
D03*
Y97000D02*
D03*
D67*
X149449Y-1322D02*
D03*
Y14172D02*
D03*
X149450Y22268D02*
D03*
Y37762D02*
D03*
X149474Y46303D02*
D03*
Y61797D02*
D03*
X149572Y93753D02*
D03*
Y109247D02*
D03*
X149552Y70008D02*
D03*
Y85502D02*
D03*
D68*
X157399Y101D02*
D03*
X155875Y2641D02*
D03*
Y12750D02*
D03*
X157399Y10210D02*
D03*
X157400Y23691D02*
D03*
X155876Y26231D02*
D03*
Y36340D02*
D03*
X157400Y33800D02*
D03*
X157424Y47726D02*
D03*
X155900Y50266D02*
D03*
Y60375D02*
D03*
X157424Y57835D02*
D03*
X157522Y95175D02*
D03*
X155998Y97715D02*
D03*
Y107825D02*
D03*
X157522Y105285D02*
D03*
X157502Y71430D02*
D03*
X155978Y73970D02*
D03*
Y84080D02*
D03*
X157502Y81540D02*
D03*
X88975Y32000D02*
D03*
Y22000D02*
D03*
X95425Y62600D02*
D03*
Y52600D02*
D03*
D69*
X152497Y710D02*
D03*
Y12140D02*
D03*
X152498Y24300D02*
D03*
Y35730D02*
D03*
X152522Y48335D02*
D03*
Y59765D02*
D03*
X152620Y95785D02*
D03*
Y107215D02*
D03*
X152600Y72040D02*
D03*
Y83470D02*
D03*
D70*
X121925Y116050D02*
D03*
X95625Y116175D02*
D03*
D71*
X30816Y2666D02*
D03*
X12340D02*
D03*
X74020Y47886D02*
D03*
X55544D02*
D03*
X30816D02*
D03*
X12340D02*
D03*
X74020Y2666D02*
D03*
X55544D02*
D03*
D73*
X-6650Y116650D02*
D03*
X-6600Y-6600D02*
D03*
X160175Y-6700D02*
D03*
Y116675D02*
D03*
X3175Y3175D02*
D03*
Y51435D02*
D03*
X83185D02*
D03*
Y3175D02*
D03*
D74*
X141600Y84375D02*
D03*
Y-3625D02*
D03*
X139600Y84375D02*
D03*
X140600Y82375D02*
D03*
X139600Y-3625D02*
D03*
X138600Y82375D02*
D03*
X137600Y-3625D02*
D03*
X138600Y-5625D02*
D03*
X135600Y84375D02*
D03*
X136600Y82375D02*
D03*
X135600Y-3625D02*
D03*
X136600Y-5625D02*
D03*
X133600Y-3625D02*
D03*
X134600Y-5625D02*
D03*
X131600Y-3625D02*
D03*
X132600Y-5625D02*
D03*
X129600Y-3625D02*
D03*
X130600Y-5625D02*
D03*
X127600Y-3625D02*
D03*
X126600Y-5625D02*
D03*
X123600Y-3625D02*
D03*
X124600Y-5625D02*
D03*
X121600Y-3625D02*
D03*
X122600Y-5625D02*
D03*
X119600Y-3625D02*
D03*
X117600D02*
D03*
X115600D02*
D03*
X116600Y-5625D02*
D03*
X113600Y-3625D02*
D03*
X114600Y-5625D02*
D03*
X111600Y-3625D02*
D03*
X112600Y-5625D02*
D03*
X109600Y-3625D02*
D03*
X107600D02*
D03*
X108600Y-5625D02*
D03*
X103600Y-3625D02*
D03*
X104600Y-5625D02*
D03*
X101600Y-3625D02*
D03*
X102600Y-5625D02*
D03*
X99600Y-3625D02*
D03*
X100600Y-5625D02*
D03*
X97600Y-3625D02*
D03*
X98600Y-5625D02*
D03*
X95600Y-3625D02*
D03*
X96600Y-5625D02*
D03*
X93600Y-3625D02*
D03*
X94600Y-5625D02*
D03*
X91600Y-3625D02*
D03*
X92600Y-5625D02*
D03*
X89600Y-3625D02*
D03*
X90600Y-5625D02*
D03*
X87600Y-3625D02*
D03*
X88600Y-5625D02*
D03*
X85600Y-3625D02*
D03*
X86600Y-5625D02*
D03*
X83600Y-3625D02*
D03*
X84600Y-5625D02*
D03*
X81600Y-3625D02*
D03*
X82600Y-5625D02*
D03*
X79600Y-3625D02*
D03*
X80600Y-5625D02*
D03*
X77600Y-3625D02*
D03*
X78600Y-5625D02*
D03*
X75600Y-3625D02*
D03*
X76600Y-5625D02*
D03*
X73600Y-3625D02*
D03*
X74600Y-5625D02*
D03*
X71600Y-3625D02*
D03*
X72600Y-5625D02*
D03*
X69600Y-3625D02*
D03*
X70600Y-5625D02*
D03*
X67600Y-3625D02*
D03*
X68600Y-5625D02*
D03*
X65600Y-3625D02*
D03*
X66600Y-5625D02*
D03*
X63600Y-3625D02*
D03*
X64600Y-5625D02*
D03*
X61600Y-3625D02*
D03*
X62600Y-5625D02*
D03*
X59600Y-3625D02*
D03*
X60600Y-5625D02*
D03*
X57600Y-3625D02*
D03*
X58600Y-5625D02*
D03*
X55600Y-3625D02*
D03*
X56600Y-5625D02*
D03*
X53600Y-3625D02*
D03*
X54600Y-5625D02*
D03*
X51600Y-3625D02*
D03*
X52600Y-5625D02*
D03*
X49600Y-3625D02*
D03*
X50600Y-5625D02*
D03*
X47600Y-3625D02*
D03*
X48600Y-5625D02*
D03*
X45600Y-3625D02*
D03*
X46600Y-5625D02*
D03*
X44600D02*
D03*
X42600Y-1625D02*
D03*
X40600D02*
D03*
X37600Y4375D02*
D03*
X38600Y2375D02*
D03*
X37600Y375D02*
D03*
X38600Y-1625D02*
D03*
X36600Y6375D02*
D03*
X35600Y4375D02*
D03*
X36600Y2375D02*
D03*
X35600Y375D02*
D03*
X36600Y-1625D02*
D03*
X33600Y8375D02*
D03*
X34600Y6375D02*
D03*
X33600Y4375D02*
D03*
X34600Y2375D02*
D03*
X31600Y20375D02*
D03*
Y16375D02*
D03*
Y8375D02*
D03*
X32600Y6375D02*
D03*
X31600Y4375D02*
D03*
X32600Y2375D02*
D03*
X29600Y16375D02*
D03*
Y8375D02*
D03*
X30600Y6375D02*
D03*
X25600Y20375D02*
D03*
X23600D02*
D03*
X24600Y18375D02*
D03*
X21600Y20375D02*
D03*
X22600Y18375D02*
D03*
X20600D02*
D03*
X-2400Y28375D02*
D03*
X-4400D02*
D03*
X-6400D02*
D03*
X13650Y26375D02*
D03*
Y25275D02*
D03*
Y24175D02*
D03*
Y23075D02*
D03*
Y21975D02*
D03*
X12550Y26375D02*
D03*
Y25275D02*
D03*
Y24175D02*
D03*
Y23075D02*
D03*
Y21975D02*
D03*
X11450Y26375D02*
D03*
Y25275D02*
D03*
Y24175D02*
D03*
Y23075D02*
D03*
Y21975D02*
D03*
X10350Y26375D02*
D03*
Y25275D02*
D03*
Y24175D02*
D03*
Y23075D02*
D03*
Y21975D02*
D03*
X9250Y26375D02*
D03*
Y25275D02*
D03*
Y24175D02*
D03*
Y23075D02*
D03*
Y21975D02*
D03*
X34300Y26950D02*
D03*
X34325Y27575D02*
D03*
X38675Y26950D02*
D03*
Y27500D02*
D03*
X4450Y16525D02*
D03*
Y15375D02*
D03*
Y14225D02*
D03*
Y13075D02*
D03*
Y11925D02*
D03*
Y10775D02*
D03*
X1775Y16525D02*
D03*
Y15375D02*
D03*
Y14225D02*
D03*
Y13075D02*
D03*
Y11925D02*
D03*
Y10775D02*
D03*
X750D02*
D03*
Y11925D02*
D03*
Y13075D02*
D03*
Y14225D02*
D03*
Y15375D02*
D03*
Y16525D02*
D03*
X16650Y11925D02*
D03*
X13650Y11025D02*
D03*
X14644D02*
D03*
X15637D02*
D03*
X18625Y12650D02*
D03*
X17362D02*
D03*
X20150Y33750D02*
D03*
X18075Y33700D02*
D03*
X20150Y34700D02*
D03*
Y35650D02*
D03*
Y36600D02*
D03*
Y37550D02*
D03*
X7750Y30125D02*
D03*
X8375D02*
D03*
X9075Y28625D02*
D03*
X8375Y28600D02*
D03*
X14800Y33100D02*
D03*
X14775Y31100D02*
D03*
X14800Y32325D02*
D03*
X14175D02*
D03*
X14150Y31100D02*
D03*
X62500Y3925D02*
D03*
X89300Y102900D02*
D03*
X89309Y105166D02*
D03*
X104216Y104466D02*
D03*
X104191Y105166D02*
D03*
X61875Y3625D02*
D03*
X129422Y74158D02*
D03*
Y74908D02*
D03*
X102325Y107975D02*
D03*
X101100D02*
D03*
X107700Y94450D02*
D03*
Y95750D02*
D03*
X127200Y37600D02*
D03*
X136100Y18700D02*
D03*
X112400Y20700D02*
D03*
X118000Y51000D02*
D03*
X60528Y30401D02*
D03*
X13875Y13800D02*
D03*
X117625Y70200D02*
D03*
X18300Y19800D02*
D03*
X13875Y17600D02*
D03*
X6100Y32675D02*
D03*
X9200Y33400D02*
D03*
X4200Y26000D02*
D03*
X4200Y27376D02*
D03*
X450Y29250D02*
D03*
X7400Y32625D02*
D03*
X125887Y-6488D02*
D03*
X118800Y-6625D02*
D03*
X111000Y-6675D02*
D03*
X105300Y-6650D02*
D03*
X106655Y53553D02*
D03*
X137900Y-4800D02*
D03*
X111625Y44075D02*
D03*
X119050Y40925D02*
D03*
X112125Y43275D02*
D03*
X112625Y47675D02*
D03*
X113625Y44200D02*
D03*
X114125Y44875D02*
D03*
X115125D02*
D03*
X114625Y44200D02*
D03*
X110357Y48023D02*
D03*
X129600Y44967D02*
D03*
X116625Y44300D02*
D03*
X129600Y44318D02*
D03*
X141325Y45375D02*
D03*
X140900Y64600D02*
D03*
X126550Y67300D02*
D03*
X129756Y66553D02*
D03*
X128682Y53000D02*
D03*
X129550Y59208D02*
D03*
X138775Y90525D02*
D03*
X111575Y54475D02*
D03*
X114881Y66428D02*
D03*
X123325Y56000D02*
D03*
X121750Y39425D02*
D03*
X101825Y43200D02*
D03*
X101834Y41584D02*
D03*
X101825Y42225D02*
D03*
X101675Y34750D02*
D03*
X112750Y39325D02*
D03*
X108700Y39100D02*
D03*
X94575Y48975D02*
D03*
X94700Y43825D02*
D03*
X110425Y54025D02*
D03*
X106750Y48850D02*
D03*
X122475Y70225D02*
D03*
X129400Y82525D02*
D03*
X130425Y81275D02*
D03*
X126725Y52000D02*
D03*
X126925Y59700D02*
D03*
X125850Y67275D02*
D03*
X129325Y84400D02*
D03*
X124250Y77375D02*
D03*
X124275Y73500D02*
D03*
X121800Y74450D02*
D03*
X122675Y73475D02*
D03*
X120350Y70400D02*
D03*
X119000Y70300D02*
D03*
X121125Y66300D02*
D03*
X122150Y66450D02*
D03*
X123075Y63225D02*
D03*
Y54375D02*
D03*
X123175Y48600D02*
D03*
X121775Y76275D02*
D03*
X116900Y70375D02*
D03*
X117625Y44325D02*
D03*
X106650Y54375D02*
D03*
X106675Y56375D02*
D03*
X120625Y44175D02*
D03*
X124600Y40800D02*
D03*
X68128Y700D02*
D03*
X61032Y6557D02*
D03*
X64532Y2636D02*
D03*
X113125Y44875D02*
D03*
X64025Y3350D02*
D03*
X63025D02*
D03*
X63532Y2636D02*
D03*
X116575Y65925D02*
D03*
X115625Y66025D02*
D03*
X116122Y66525D02*
D03*
X117125Y66200D02*
D03*
X114025Y66525D02*
D03*
X98250Y86825D02*
D03*
X102575Y65250D02*
D03*
Y66700D02*
D03*
X116050Y74475D02*
D03*
X114610Y74440D02*
D03*
X70532Y8808D02*
D03*
X71025Y9375D02*
D03*
X102575Y68275D02*
D03*
X113170Y74420D02*
D03*
X111730Y74445D02*
D03*
X110290Y74440D02*
D03*
X108850Y74450D02*
D03*
X92160Y103525D02*
D03*
Y106500D02*
D03*
Y107525D02*
D03*
X120275Y92725D02*
D03*
X96850Y88325D02*
D03*
X69025Y9500D02*
D03*
X97724Y87275D02*
D03*
X97275Y87775D02*
D03*
X69532Y8808D02*
D03*
X116675Y93375D02*
D03*
Y92075D02*
D03*
X114575Y94025D02*
D03*
X114575Y94675D02*
D03*
X72075Y3100D02*
D03*
X71532Y2636D02*
D03*
X71050Y3125D02*
D03*
X70532Y2636D02*
D03*
X69025Y3225D02*
D03*
X69532Y2636D02*
D03*
X105400Y95100D02*
D03*
Y97700D02*
D03*
X69500Y24500D02*
D03*
X70500Y27500D02*
D03*
Y29500D02*
D03*
X67975Y9550D02*
D03*
X107500Y66000D02*
D03*
Y48000D02*
D03*
X122263Y47732D02*
D03*
X113113Y65955D02*
D03*
X115625Y47325D02*
D03*
X118199Y47732D02*
D03*
X116125Y44875D02*
D03*
X107500Y50000D02*
D03*
X109950Y50500D02*
D03*
X107500Y51000D02*
D03*
X109950Y51500D02*
D03*
X107500Y52000D02*
D03*
X109950Y52500D02*
D03*
X107500Y53000D02*
D03*
X110357Y61028D02*
D03*
X111170Y55338D02*
D03*
X106280D02*
D03*
X126657Y55910D02*
D03*
X105400Y96400D02*
D03*
X68532Y8808D02*
D03*
X68500Y21475D02*
D03*
X63500Y22500D02*
D03*
X72975Y113175D02*
D03*
X69725Y113150D02*
D03*
X67150Y116675D02*
D03*
X38525Y112925D02*
D03*
X40375D02*
D03*
X36750Y114400D02*
D03*
X23175Y112975D02*
D03*
X24975Y112825D02*
D03*
X21575Y114500D02*
D03*
X11000Y113975D02*
D03*
X7225D02*
D03*
X6400Y114525D02*
D03*
X51950Y114550D02*
D03*
X53875Y112875D02*
D03*
X55600Y112900D02*
D03*
X70500Y25500D02*
D03*
X81150Y35375D02*
D03*
X83504Y41027D02*
D03*
X35375Y85100D02*
D03*
X35875Y76075D02*
D03*
X50000Y85075D02*
D03*
X20250Y84800D02*
D03*
X20250Y75975D02*
D03*
X35350Y114375D02*
D03*
X20100Y114500D02*
D03*
X20273Y106000D02*
D03*
X5050Y114475D02*
D03*
X5250Y105975D02*
D03*
X65975Y107800D02*
D03*
X66000Y108600D02*
D03*
X64528Y108530D02*
D03*
X63925Y108825D02*
D03*
X51525Y108625D02*
D03*
X51700Y110200D02*
D03*
X50725Y108625D02*
D03*
X50775Y110200D02*
D03*
X35701Y108500D02*
D03*
X36501D02*
D03*
X36101Y108100D02*
D03*
X35276D02*
D03*
X20676Y108500D02*
D03*
X21476D02*
D03*
X21076Y108100D02*
D03*
X20251D02*
D03*
X5225D02*
D03*
X6050D02*
D03*
X6450Y108500D02*
D03*
X5650D02*
D03*
X40725Y43400D02*
D03*
X44700Y39125D02*
D03*
X34652Y35398D02*
D03*
X28400Y87050D02*
D03*
X23625Y87000D02*
D03*
X76075Y43200D02*
D03*
X36050Y104425D02*
D03*
X84800Y47700D02*
D03*
X80550Y39050D02*
D03*
X80175Y37825D02*
D03*
X80675Y78575D02*
D03*
X80625Y81250D02*
D03*
X73300Y83350D02*
D03*
X57100Y11675D02*
D03*
X44850Y32125D02*
D03*
X5025Y84975D02*
D03*
X5075Y75075D02*
D03*
X36575Y33525D02*
D03*
X35375Y39950D02*
D03*
X39075Y83275D02*
D03*
X36787Y104425D02*
D03*
X58750Y6075D02*
D03*
X58250D02*
D03*
X57600Y11675D02*
D03*
X59475Y12375D02*
D03*
X58975D02*
D03*
X56050Y12775D02*
D03*
X55550D02*
D03*
X52300Y27400D02*
D03*
X60500Y27500D02*
D03*
X89185Y113373D02*
D03*
X85525Y113300D02*
D03*
X82341Y114800D02*
D03*
X11585Y84623D02*
D03*
X9185Y84623D02*
D03*
X6650Y85475D02*
D03*
X21755D02*
D03*
X36860D02*
D03*
X51965D02*
D03*
X56016Y84223D02*
D03*
X58416Y84223D02*
D03*
X67070Y85475D02*
D03*
X82175D02*
D03*
X85250Y84400D02*
D03*
X87825Y84400D02*
D03*
X75000Y58950D02*
D03*
X82550Y46750D02*
D03*
X88650Y46875D02*
D03*
Y43742D02*
D03*
X88650Y39125D02*
D03*
X88675Y40450D02*
D03*
X80925Y44050D02*
D03*
X79800Y42875D02*
D03*
X40025Y34900D02*
D03*
X28175Y41450D02*
D03*
X28275Y37100D02*
D03*
X49825Y26500D02*
D03*
X83375Y31825D02*
D03*
X86650Y15850D02*
D03*
X88454Y1645D02*
D03*
X88050Y-475D02*
D03*
X93500Y1550D02*
D03*
X50378Y11096D02*
D03*
X45675Y11100D02*
D03*
X42028Y11096D02*
D03*
X-3400Y47125D02*
D03*
X-4675Y58575D02*
D03*
X-6425Y58575D02*
D03*
X51200Y24800D02*
D03*
X42600Y27200D02*
D03*
X68500Y32500D02*
D03*
Y29500D02*
D03*
X69500Y26500D02*
D03*
X67500D02*
D03*
X65500D02*
D03*
X63500D02*
D03*
Y31500D02*
D03*
X60000Y43000D02*
D03*
X56500Y41500D02*
D03*
X63500Y40500D02*
D03*
X60500Y39500D02*
D03*
X57500Y38500D02*
D03*
X65500Y37500D02*
D03*
X61500Y36500D02*
D03*
X54000Y37000D02*
D03*
X58500Y35500D02*
D03*
X59500Y32500D02*
D03*
X62500Y33500D02*
D03*
X66500Y34500D02*
D03*
X68500Y38500D02*
D03*
X71500Y39500D02*
D03*
X74500Y40500D02*
D03*
X75500Y37500D02*
D03*
X72500Y36500D02*
D03*
X69500Y35500D02*
D03*
X70500Y32500D02*
D03*
X73500Y33500D02*
D03*
X77000Y34000D02*
D03*
X75500Y27500D02*
D03*
X61500Y25500D02*
D03*
X72500D02*
D03*
X77000Y24000D02*
D03*
X73500Y22500D02*
D03*
X66500Y23500D02*
D03*
X70500Y21500D02*
D03*
X67000Y20000D02*
D03*
X60500Y21500D02*
D03*
X57000Y20000D02*
D03*
X57500Y29500D02*
D03*
X59500Y28500D02*
D03*
Y27500D02*
D03*
X57500Y25500D02*
D03*
X56500Y24500D02*
D03*
Y27500D02*
D03*
Y28500D02*
D03*
X55500Y30500D02*
D03*
X66500Y32500D02*
D03*
X63500Y29500D02*
D03*
Y32500D02*
D03*
X61500D02*
D03*
X69500Y28500D02*
D03*
X66500Y27500D02*
D03*
X68500Y27500D02*
D03*
X67500Y30500D02*
D03*
X65500Y31500D02*
D03*
X62500Y30500D02*
D03*
X64500Y27500D02*
D03*
X63500Y28500D02*
D03*
X62500Y27500D02*
D03*
X60750Y5775D02*
D03*
X60250D02*
D03*
X57525Y2925D02*
D03*
Y6650D02*
D03*
X88075Y36800D02*
D03*
X82200Y40075D02*
D03*
X81475Y110275D02*
D03*
X79475Y108425D02*
D03*
X79450Y39000D02*
D03*
X78675Y108425D02*
D03*
X78075Y28475D02*
D03*
X77875Y108400D02*
D03*
X77069Y108406D02*
D03*
X77100Y40600D02*
D03*
X76275Y108400D02*
D03*
X81469Y105881D02*
D03*
X80275Y105875D02*
D03*
X79050Y105675D02*
D03*
Y37450D02*
D03*
X78229Y105655D02*
D03*
X78050Y27225D02*
D03*
X77450Y105625D02*
D03*
Y41900D02*
D03*
X76700Y105625D02*
D03*
Y44125D02*
D03*
X75904Y105630D02*
D03*
X75775Y44675D02*
D03*
X81063Y108625D02*
D03*
X80263D02*
D03*
X80675Y110275D02*
D03*
X80750Y114075D02*
D03*
X82075Y75800D02*
D03*
X78800Y24975D02*
D03*
X80850Y75800D02*
D03*
X78275Y26000D02*
D03*
X79875Y75775D02*
D03*
X77700Y29525D02*
D03*
X79850Y74775D02*
D03*
X79804Y78404D02*
D03*
X77479Y30201D02*
D03*
X79850Y73425D02*
D03*
X76500Y26450D02*
D03*
X79875Y72525D02*
D03*
X75525Y29475D02*
D03*
X79875Y71425D02*
D03*
X74500Y38525D02*
D03*
X36711Y80338D02*
D03*
X35911D02*
D03*
X35511Y78562D02*
D03*
X36311D02*
D03*
X21050D02*
D03*
X20250D02*
D03*
X20650Y80338D02*
D03*
X21450D02*
D03*
X5875Y78562D02*
D03*
X5075D02*
D03*
X5475Y80338D02*
D03*
X6275D02*
D03*
X75475Y78800D02*
D03*
Y78200D02*
D03*
Y77600D02*
D03*
X75500Y76950D02*
D03*
X76675Y43400D02*
D03*
X77875Y39775D02*
D03*
X77452Y40227D02*
D03*
X75500Y41500D02*
D03*
X73500Y25500D02*
D03*
X80629Y80429D02*
D03*
X82000Y78600D02*
D03*
X80775Y84150D02*
D03*
X70000Y43000D02*
D03*
X43800Y40450D02*
D03*
X32025Y32475D02*
D03*
X67528Y41502D02*
D03*
X46300Y111425D02*
D03*
X47125Y110925D02*
D03*
X47950Y110425D02*
D03*
X48725Y108725D02*
D03*
X49500Y108600D02*
D03*
X46325Y108250D02*
D03*
X47125Y107800D02*
D03*
X47925Y106125D02*
D03*
X51425Y74425D02*
D03*
X48725Y106100D02*
D03*
X49525Y106125D02*
D03*
X50300Y106075D02*
D03*
X51525Y105550D02*
D03*
X55500Y34500D02*
D03*
X1251Y112499D02*
D03*
X2050Y111800D02*
D03*
X2890Y111085D02*
D03*
X3650Y110688D02*
D03*
X4450Y110300D02*
D03*
X39875Y33575D02*
D03*
X65200Y106200D02*
D03*
X65550Y114450D02*
D03*
X50300Y113950D02*
D03*
X65575Y84625D02*
D03*
X69325Y83450D02*
D03*
X6450Y102325D02*
D03*
X44400Y84225D02*
D03*
X65575Y75025D02*
D03*
X3475Y36875D02*
D03*
X1925Y36764D02*
D03*
Y38036D02*
D03*
Y32950D02*
D03*
Y40579D02*
D03*
X3425Y40675D02*
D03*
X1925Y41850D02*
D03*
Y39307D02*
D03*
Y35493D02*
D03*
Y34221D02*
D03*
X1275Y34946D02*
D03*
Y36218D02*
D03*
Y40032D02*
D03*
Y41304D02*
D03*
Y33675D02*
D03*
Y38761D02*
D03*
Y37489D02*
D03*
X15925Y22425D02*
D03*
X4700Y20775D02*
D03*
X600Y23000D02*
D03*
X11200Y28600D02*
D03*
X12150Y34375D02*
D03*
X11700Y28575D02*
D03*
X12875Y34700D02*
D03*
X12200Y28575D02*
D03*
X12975Y33300D02*
D03*
X7000Y22925D02*
D03*
X6975Y22425D02*
D03*
X15950Y21050D02*
D03*
X16425Y26300D02*
D03*
X15975Y25875D02*
D03*
X7075Y21425D02*
D03*
X6825Y25425D02*
D03*
X7100Y25925D02*
D03*
X7075Y26925D02*
D03*
X850Y26900D02*
D03*
X6500Y26351D02*
D03*
X6050Y28250D02*
D03*
X4955Y28445D02*
D03*
X107700Y97050D02*
D03*
X113675Y93675D02*
D03*
X100650Y91200D02*
D03*
X101425Y98475D02*
D03*
X118775Y90650D02*
D03*
X127742Y97842D02*
D03*
X127725Y95075D02*
D03*
X127692Y92308D02*
D03*
X121425Y98600D02*
D03*
X16100Y12650D02*
D03*
X16631Y11025D02*
D03*
X19200Y19625D02*
D03*
X18750Y17700D02*
D03*
X6775Y32250D02*
D03*
X5425Y32225D02*
D03*
X20550Y31975D02*
D03*
X19305Y33745D02*
D03*
X18000Y31975D02*
D03*
X15250Y20175D02*
D03*
X20175Y22500D02*
D03*
X20525Y25525D02*
D03*
X2675Y23201D02*
D03*
X550Y24150D02*
D03*
X28360Y12065D02*
D03*
X29630Y12055D02*
D03*
X28375Y11425D02*
D03*
X29025Y12000D02*
D03*
X28375Y10725D02*
D03*
X146227Y-3827D02*
D03*
X146450Y19775D02*
D03*
X98425Y100475D02*
D03*
X65100Y80700D02*
D03*
X65963Y80637D02*
D03*
X66363Y80137D02*
D03*
X66750Y80625D02*
D03*
X50525Y80375D02*
D03*
X50925Y81175D02*
D03*
X51325Y80325D02*
D03*
X51725Y81175D02*
D03*
X90575Y17550D02*
D03*
X86325Y59650D02*
D03*
X86400Y57675D02*
D03*
X85075Y55675D02*
D03*
X88650Y51875D02*
D03*
X129600Y70957D02*
D03*
Y70308D02*
D03*
X129750Y67357D02*
D03*
X129175Y63682D02*
D03*
Y63033D02*
D03*
X129550Y59857D02*
D03*
X129225Y56158D02*
D03*
Y55507D02*
D03*
X129333Y53000D02*
D03*
X129708Y49175D02*
D03*
X129057D02*
D03*
X74500Y37500D02*
D03*
X74500Y30500D02*
D03*
X76247Y45197D02*
D03*
X111550Y42725D02*
D03*
X110625Y42325D02*
D03*
X129275Y41243D02*
D03*
Y40592D02*
D03*
M02*
